<svg width="149" height="129" viewBox="0 0 149 129" fill="none" xmlns="http://www.w3.org/2000/svg">
<g clip-path="url(#clip0)">
<path d="M45.2627 60.7096L45.2716 60.6989C48.5907 56.6825 51.9183 52.2425 52.5728 47.4305L52.5744 47.4189L52.5761 47.4075C52.8957 45.3029 52.5233 43.3775 51.6079 41.9355C50.7115 40.5233 49.2331 39.4719 47.0915 39.158C43.1336 38.6444 39.1 40.2873 36.0025 42.9897C33.7884 44.927 32.0483 47.5033 30.9075 50.344L29.904 52.8429L28.3076 50.6742C26.1804 47.7843 23.9729 45.0328 21.3884 43.2433L21.3788 43.2367L21.3693 43.2299C18.115 40.9011 14.18 41.7979 12.039 45.2338L45.2627 60.7096ZM45.2627 60.7096L45.254 60.7206M45.2627 60.7096L45.254 60.7206M45.254 60.7206C44.8019 61.2889 44.351 61.8574 43.9004 62.4254C40.5368 66.666 37.1958 70.8781 33.5576 74.776L33.4654 74.8748M45.254 60.7206L33.4654 74.8748M33.4654 74.8748L33.3924 74.9885M33.4654 74.8748L33.3924 74.9885M33.3924 74.9885C33.3774 75.0117 33.369 75.0197 33.3543 75.0315C33.3231 75.0567 33.2815 75.084 33.1385 75.1692L32.4941 75.5529M33.3924 74.9885L32.4941 75.5529M32.4941 75.5529L32.4762 75.7197M32.4941 75.5529L32.4762 75.7197M32.4762 75.7197C27.9611 73.5079 23.8122 70.9754 20.2199 67.6425L20.2174 67.6401C16.9967 64.6659 14.41 61.0889 12.6904 57.1458L12.6904 57.1458L12.6879 57.14C10.9256 53.1449 9.97624 48.5482 12.0387 45.2343L32.4762 75.7197Z" stroke="#885574" stroke-width="3"/>
<path d="M110.199 56.2661L110.191 56.27C106.266 58.0728 102.296 59.6346 98.28 61.2141C97.2872 61.6046 96.2916 61.9962 95.2933 62.3927C94.8411 62.5288 94.6113 62.3797 94.5642 62.3346L94.1459 61.9345L93.5673 61.9191C93.5255 61.918 93.4986 61.9148 93.482 61.9119C93.4663 61.9091 93.4601 61.9067 93.4594 61.9065C93.4594 61.9064 93.4588 61.9063 93.4573 61.9054C93.4563 61.9049 93.455 61.9041 93.4531 61.9028C93.4517 61.9019 93.4494 61.9002 93.4462 61.8978C89.6237 56.8369 87.5125 50.7816 86.0898 44.3273L86.0872 44.3158L86.0845 44.3044C84.6864 38.4039 84.0312 32.3041 85.383 26.4872L85.3854 26.477L85.3876 26.4667C86.6647 20.6008 89.8942 15.0381 95.1638 12.6345C100.335 10.2759 106.09 12.3908 107.909 17.5841C109.167 21.2511 108.949 25.1298 107.898 28.93L107.183 31.5149L109.76 30.7711C112.472 29.9882 115.33 29.7326 118.054 30.2896C122.09 31.1725 126.017 33.6049 127.223 37.2009L127.223 37.201L127.227 37.2136C128.592 41.1676 126.504 45.5781 123.247 48.5179C119.515 51.7877 114.87 54.1564 110.199 56.2661Z" stroke="#885574" stroke-width="3"/>
<g clip-path="url(#clip1)">
<path d="M133.273 46.1913C133.326 50.145 124.726 58.0231 120.167 57.8766C121.055 57.337 121.628 56.9771 122.21 56.6486C125.186 54.9571 127.81 52.7212 129.935 50.0676C130.621 49.2031 131.148 48.2243 131.771 47.3111C132.109 46.816 132.281 46.0936 133.273 46.1913Z" fill="#885574"/>
<path d="M127.123 57.7684C128.436 55.8982 130.214 54.5048 131.357 54.3839C131.089 55.8127 129.286 57.3069 127.123 57.7684Z" fill="#885574"/>
</g>
</g>
<g clip-path="url(#clip2)">
<path d="M18.2266 74.2153C12.8685 73.7806 3.27882 60.7862 4.04623 54.454C4.66572 55.7607 5.08129 56.6049 5.45337 57.457C7.37137 61.8206 10.0702 65.7647 13.3966 69.0657C14.481 70.1333 15.7402 70.9924 16.8985 71.9782C17.5264 72.5124 18.4827 72.8458 18.2266 74.2153Z" fill="#885574"/>
<path d="M3.32422 64.1585C5.6918 66.2278 7.3558 68.8845 7.37683 70.4923C5.47626 69.9355 3.6789 67.232 3.32422 64.1585Z" fill="#885574"/>
</g>
<g clip-path="url(#clip3)">
<path d="M71.6677 90.0211L73.0764 93.3744L74.4411 90.0029C74.6811 89.41 74.8865 88.8543 75.0639 88.3745C75.1436 88.1589 75.2176 87.9587 75.2866 87.7772C75.5206 87.1615 75.7154 86.7078 75.9494 86.3116L75.9495 86.3116C76.3663 85.6058 76.7635 84.8849 77.149 84.1837L77.1918 84.106C77.5657 83.4257 77.9291 82.7647 78.3061 82.1194C79.0899 80.7778 79.894 79.5725 80.8483 78.5691L80.8486 78.5687C85.9425 73.2091 94.3594 75.3758 96.3106 82.5494C96.9456 85.0503 97.1747 87.6371 96.9891 90.2107C96.8174 92.5827 96.2804 94.9138 95.3973 97.1216L95.3938 97.1302L95.3905 97.1388C91.8109 106.417 86.0791 114.711 78.6677 121.337L78.6567 121.347L78.6459 121.357C78.0516 121.909 77.4229 122.423 76.7633 122.896C75.4874 123.769 74.8169 123.979 74.3425 123.961C73.8951 123.945 73.2704 123.708 72.1353 122.684L72.134 122.683C65.0684 116.323 60.2559 108.414 56.9305 99.4909L56.9278 99.4839L56.9252 99.4769C55.3832 95.4623 54.8298 91.1355 55.3117 86.8621L55.3128 86.8526L55.3138 86.8431C55.4923 85.0561 55.9792 83.3137 56.7529 81.6935C57.7226 79.8034 59.1668 78.7473 60.668 78.4256C62.1724 78.1033 63.9245 78.4775 65.5854 79.8223L65.5868 79.8235C67.0203 80.9814 68.1773 82.6919 69.3183 84.5377C69.7313 85.2067 70.0667 85.9594 70.4306 86.8775C70.5497 87.1778 70.6753 87.5055 70.8085 87.8528C71.0647 88.521 71.3489 89.2621 71.6677 90.0211Z" stroke="#885574" stroke-width="3"/>
<path d="M91.6325 113.836C90.6301 117.925 87.4024 121.499 83.9298 122.767C84.045 120.24 86.298 119.502 87.5174 118.085C88.7942 116.602 89.7596 114.756 91.621 113.837" fill="#885574"/>
<path d="M50.2859 82.5057C50.4041 86.54 50.5063 90.3148 50.6106 94.1909C47.8111 92.187 47.7161 85.552 50.2875 82.5172" fill="#885574"/>
<path d="M92.9266 119.42L90.2674 122.127C90.4601 119.995 90.4601 119.995 92.4411 118.924C92.6003 119.09 92.7655 119.27 92.926 119.416" fill="#885574"/>
</g>
<defs>
<clipPath id="clip0">
<rect width="137.01" height="60.0591" fill="white" transform="translate(2.00006 29.4924) rotate(-12.4307)"/>
</clipPath>
<clipPath id="clip1">
<rect width="16.9205" height="8.09241" fill="white" transform="translate(136.755 53.2596) rotate(153.778)"/>
</clipPath>
<clipPath id="clip2">
<rect width="23.5889" height="11.0417" fill="white" transform="matrix(-0.348666 -0.937247 0.930346 -0.366683 8.22461 78.1575)"/>
</clipPath>
<clipPath id="clip3">
<rect width="50" height="50" fill="white" transform="translate(47.0001 78.7715) rotate(-7.78345)"/>
</clipPath>
</defs>
</svg>
