<svg width="82" height="49" viewBox="0 0 82 49" fill="none" xmlns="http://www.w3.org/2000/svg">
<g clip-path="url(#clip0)">
<path d="M71.1342 17.5982L74.1173 4.88882L53.0903 5.82206L35.2172 9.24051L26.1217 11.8421L19.3001 13.7933L2.30721 20.3477L7.97946 28.8876L8.37036 44.8662L22.5515 39.9631L44.3122 32.8919L61.8674 31.258L79.1046 31.4088L71.1342 17.5982Z" fill="white"/>
<path d="M77.2968 29.606C76.6502 28.7345 76.0457 27.8306 75.4739 26.8484C74.8773 25.8236 74.2869 24.7497 73.6965 23.6758C73.1962 22.7269 72.6758 21.7582 72.1117 20.8939C71.7123 20.2826 71.2599 19.7298 70.8496 19.1446C70.5792 18.7697 70.354 18.2186 70.3561 17.6692C70.3438 17.5284 70.3626 17.3814 70.386 17.2573C70.4048 17.1102 70.4438 16.983 70.4829 16.8557C70.5156 16.7775 70.5593 16.6731 70.592 16.5949C70.7121 16.308 70.8368 16.044 70.9771 15.7768C71.2298 15.1049 71.4016 14.354 71.589 13.5999C71.8092 12.7675 72.0091 11.9153 72.2292 11.083C72.6572 9.27751 73.0852 7.47204 73.5287 5.66342C72.3679 5.6123 71.2024 5.53825 70.026 5.49028C69.6961 5.46167 69.3756 5.47892 69.0457 5.45031C68.7407 5.4644 68.4264 5.43264 68.1214 5.44673C67.4958 5.47807 66.8702 5.50941 66.2446 5.54075C65.3809 5.59649 64.5218 5.67516 63.6783 5.75067C62.8348 5.82618 62.0006 5.94755 61.1664 6.06892C59.5666 6.25003 58.0009 6.5197 56.4103 6.74666C54.9224 7.00055 53.419 7.2576 51.9264 7.48856C50.3296 7.76454 48.7437 8.01443 47.1624 8.28725C45.4877 8.579 43.8177 8.89369 42.1431 9.18544C40.5353 9.4875 38.9183 9.7437 37.3012 9.99991C35.6733 10.2822 34.0639 10.6562 32.4545 11.0302C30.9852 11.3758 29.5066 11.6756 28.042 12.0441C26.4575 12.4608 24.873 12.8775 23.3117 13.4088C21.6882 13.9528 20.0444 14.477 18.4053 15.0241C17.7235 15.2578 17.0573 15.4884 16.3802 15.745C15.6096 16.0206 14.8391 16.2961 14.0779 16.6175C12.5554 17.2604 11.0313 17.9752 9.52281 18.6868C8.8394 18.9924 8.18084 19.3408 7.50673 19.6923C7.37292 19.6716 7.24376 19.674 7.1146 19.6763C6.96522 19.6588 6.8205 19.6643 6.66021 19.6729C6.60887 19.6594 6.56218 19.6689 6.51548 19.6784C6.41745 19.6744 6.31942 19.6704 6.22603 19.6893C6.19491 19.6956 6.14821 19.7051 6.10152 19.7145C6.10152 19.7145 6.08596 19.7177 6.07039 19.7209C6.03926 19.7272 6.00813 19.7335 5.96144 19.7429C5.93032 19.7493 5.89919 19.7556 5.87271 19.7848C5.82601 19.7943 5.78397 19.8267 5.74657 19.882C5.74657 19.882 5.73101 19.8851 5.73566 19.9081C5.41346 19.9973 5.08034 20.1125 4.76744 20.2476C4.36115 20.4016 3.97043 20.5524 3.57972 20.7032C3.36646 20.7703 3.16878 20.8342 2.96017 20.9243C2.94461 20.9274 2.91349 20.9337 2.89792 20.9369L2.90257 20.9598C3.58655 21.776 4.29863 22.491 4.98423 23.2352C5.31692 23.5975 5.6387 23.9858 5.96048 24.3741C6.32268 24.802 6.68488 25.2298 7.0206 25.6869C7.33611 26.1243 7.65163 26.5616 7.95621 27.025C8.13186 27.252 8.26546 27.5113 8.40371 27.7936C8.5078 27.9874 8.57449 28.2364 8.63189 28.4396C8.7095 28.6626 8.7295 28.9211 8.77599 29.1504C8.85014 29.756 8.82628 30.3576 8.81796 30.9561C8.79811 32.2969 8.75804 33.6179 8.71798 34.9389C8.70664 35.4425 8.69995 35.9691 8.69327 36.4956C8.6732 38.0751 8.67335 39.6744 8.66885 41.2508C8.77759 41.4675 8.84428 41.7166 8.84872 41.9782C8.85943 42.1909 8.85456 42.4067 8.86992 42.6423C8.89943 42.708 8.92429 42.7507 8.93823 42.8194C8.92105 42.8945 8.89922 42.9467 8.87739 42.9989C8.88203 43.0218 8.88203 43.0218 8.86647 43.025C8.87879 43.1657 8.87091 43.2866 8.86767 43.4305C9.13226 43.3769 9.4015 43.3462 9.66144 43.2696C9.92603 43.216 10.186 43.1394 10.4661 43.0826C10.4817 43.0795 10.5128 43.0731 10.5486 43.0898C10.6575 43.0677 10.7821 43.0424 10.891 43.0203C10.9377 43.0109 10.989 43.0243 11.0357 43.0149C11.593 42.8064 12.1642 42.6667 12.7152 42.5073C14.2266 42.1293 15.741 41.8462 17.17 41.2223C17.9111 40.8811 18.6226 40.4743 19.348 40.1362C20.1155 39.7658 20.8923 39.4412 21.6536 39.1198C22.4039 38.8245 23.134 38.5094 23.8734 38.2401C24.6283 37.9677 25.3568 37.7245 26.1211 37.498C29.2139 36.6084 32.2974 35.673 35.4151 34.8261C36.9685 34.4157 38.5265 34.0283 40.0892 33.6637C41.7297 33.2834 43.347 32.7884 44.9812 32.4571C45.059 32.4414 45.1213 32.4288 45.1991 32.413C46.6979 32.133 48.2262 31.9187 49.7622 31.8221C51.4896 31.7106 53.1905 31.6284 54.9163 31.5889C55.9138 31.5537 56.8911 31.4988 57.884 31.4408C58.6964 31.3716 59.5087 31.3024 60.3211 31.2332C61.1179 31.1671 61.9007 31.0323 62.6929 30.9433C63.4539 30.8606 64.2103 30.7551 64.9713 30.6724C65.8257 30.5708 66.6646 30.4723 67.5283 30.4166C68.0403 30.3844 68.5523 30.3522 69.0643 30.3201C69.3646 30.283 69.6696 30.269 69.9746 30.2549C70.7854 30.2576 71.6024 30.2113 72.438 30.2568C72.9593 30.2704 73.4852 30.307 74.0065 30.3207C74.3006 30.3327 74.5901 30.3218 74.8888 30.3567C75.4194 30.4162 75.95 30.4758 76.4604 30.5155C76.7747 30.5473 77.0844 30.5561 77.408 30.6337C77.66 30.6781 77.9121 30.7225 78.1486 30.7701C77.8735 30.3723 77.5875 30.0006 77.2968 29.606ZM80.4756 33.6164C79.4799 33.3408 78.4919 33.183 77.4946 32.9794C77.3919 32.9525 77.2783 32.9516 77.1803 32.9476C76.9018 32.9325 76.6186 32.8944 76.3354 32.8563C75.8717 32.8071 75.4127 32.7808 74.9645 32.7284C74.5989 32.6832 74.227 32.687 73.866 32.6647C73.4116 32.6613 72.9681 32.6319 72.5091 32.6056C72.1372 32.6094 71.7652 32.6131 71.4089 32.6138C70.9591 32.6333 70.4892 32.6331 70.0348 32.6298C69.6629 32.6335 69.3003 32.6832 68.9283 32.687C68.5455 32.7168 68.1782 32.7436 67.7954 32.7734C66.2422 32.9451 64.6891 33.1167 63.1561 33.3081C61.4784 33.505 59.8054 33.7248 58.12 33.8039C57.401 33.8542 56.6665 33.9076 55.9429 33.9349C55.2457 33.933 54.5532 33.9541 53.8452 33.9783C52.4181 34.0527 50.9755 34.1303 49.5485 34.2048C48.7874 34.2875 48.0109 34.3733 47.2591 34.5018C46.8187 34.5672 46.3782 34.6326 45.958 34.7178C45.5533 34.7999 45.144 34.859 44.7596 34.9608C43.9284 35.177 43.0817 35.3964 42.2505 35.6127C41.5439 35.8037 40.8279 35.9488 40.1322 36.1137C37.0115 36.8657 33.914 37.7324 30.8258 38.6449C29.235 39.1106 27.6396 39.5534 26.0535 40.042C25.2892 40.2686 24.5296 40.518 23.7949 40.8102C23.0336 41.1316 22.2677 41.4301 21.5065 41.7515C20.7297 42.0761 19.9731 42.4205 19.2103 42.8138C18.86 43.0042 18.5252 43.1914 18.1703 43.3588C17.7889 43.5555 17.3779 43.6866 16.9919 43.8603C16.2571 44.1525 15.4789 44.3103 14.7209 44.4878C13.9987 44.6819 13.2563 44.8563 12.5341 45.0505C12.4251 45.0726 12.3208 45.1176 12.2274 45.1365C12.1371 45.2503 12.0623 45.361 11.9626 45.4289C11.8785 45.4937 11.7898 45.5356 11.7011 45.5774C11.6123 45.6193 11.5127 45.6872 11.4239 45.7291C11.2729 45.7836 11.1266 45.861 10.9756 45.9154C10.8978 45.9312 10.82 45.947 10.7623 45.9825C10.3732 46.0614 9.98414 46.1403 9.59969 46.2421C9.38179 46.2863 9.1639 46.3305 8.93508 46.4007C8.89466 46.3612 8.84958 46.2987 8.80451 46.2362C8.65352 46.2907 8.50253 46.3452 8.35154 46.3997C8.30484 46.4091 8.27836 46.4384 8.24723 46.4447C8.00286 46.5181 7.75847 46.5915 7.5141 46.6649C7.38959 46.6902 7.25416 46.7415 7.13429 46.7897C6.9914 46.4844 6.90146 46.1207 6.89864 45.7871C6.88956 45.5025 6.90533 45.2606 6.95224 45.0124C6.99287 44.8132 7.04442 44.5879 7.08505 44.3887C7.08203 44.2938 7.08364 44.2219 7.08527 44.1499C7.11195 43.8819 7.12308 43.6171 7.11864 43.3554C7.12047 43.0447 7.14252 42.7538 7.149 42.466C7.15673 40.7458 7.13799 39.0547 7.16594 37.3542C7.16924 35.3723 7.2441 33.4235 7.28318 31.4582C7.29895 31.2163 7.29916 30.9775 7.29937 30.7388C7.30606 30.2123 7.32366 29.6597 7.27901 29.1197C7.26507 29.0509 7.24647 28.9592 7.21697 28.8936C7.21232 28.8706 7.20767 28.8477 7.20302 28.8248C7.04294 28.5947 6.90307 28.3843 6.74764 28.1771C6.56735 27.9272 6.38706 27.6773 6.20677 27.4274C5.97676 27.0921 5.72027 26.786 5.45912 26.457C5.13735 26.0687 4.81557 25.6804 4.49844 25.315C4.16575 24.9528 3.81749 24.5937 3.46923 24.2346C3.11167 23.8297 2.73856 23.4279 2.381 23.023C2.1898 22.7992 1.99394 22.5524 1.81365 22.3025C1.63336 22.0526 1.4656 21.7047 1.33362 21.3734C1.19699 21.0191 1.10867 20.5835 1.07635 20.1842C1.06564 19.9716 1.09234 19.7036 1.15318 19.5242C1.23586 19.2926 1.32157 19.1558 1.45397 19.0096C1.63468 18.782 1.90392 18.7513 2.12808 18.6581C2.31021 18.5973 2.49233 18.5365 2.65889 18.4789C2.992 18.3636 3.32511 18.2484 3.65358 18.1102C4.00226 17.9917 4.32607 17.8306 4.67475 17.7122C5.03899 17.5906 5.40789 17.4919 5.77677 17.3933C6.20792 17.282 6.62351 17.1739 7.05465 17.0626C7.05465 17.0626 7.05465 17.0626 7.07022 17.0595C7.17916 17.0374 7.28184 17.0643 7.38918 17.1142C7.78616 16.9143 8.18315 16.7145 8.59571 16.5115C9.35229 16.1672 10.1198 15.7967 10.8919 15.4492C11.5754 15.1436 12.2697 14.8119 12.9531 14.5062C13.7143 14.1848 14.4802 13.8863 15.2507 13.6107C16.7451 13.0691 18.2441 12.5504 19.7478 12.0546C21.3604 11.5367 22.9481 10.9761 24.57 10.5041C26.192 10.032 27.8278 9.6288 29.4637 9.22556C30.2217 9.04802 30.9843 8.89341 31.7469 8.73881C32.4582 8.57074 33.1649 8.37974 33.8808 8.2346C34.4878 8.11154 35.0902 7.96556 35.6972 7.84251C35.8684 7.8078 36.0396 7.77309 36.2264 7.73523C37.0761 7.6107 37.9212 7.46325 38.7866 7.33557C40.4192 7.07621 42.0425 6.77099 43.6658 6.46578C46.777 5.90667 49.9022 5.41635 53.0025 4.88333C54.6149 4.6042 56.2273 4.32506 57.8489 4.09179C59.5687 3.86251 61.2884 3.63323 63.0128 3.42688C63.8672 3.32529 64.7153 3.2727 65.5588 3.19719C66.3556 3.13114 67.1617 3.11095 67.9632 3.06783C68.3818 3.05458 68.8252 3.08403 69.2485 3.09371C69.5582 3.10255 69.8678 3.11138 70.1775 3.12022C71.0644 3.17912 71.9669 3.23487 72.8648 3.26769C73.2927 3.3003 73.716 3.30998 74.1595 3.33943C74.5671 3.35226 74.9447 4.01572 74.9877 4.62764C75.0124 4.9091 74.9608 5.13438 74.8642 5.2972C74.9139 5.3826 74.9481 5.47116 74.9822 5.55972C74.8761 5.91543 74.7902 6.29091 74.7043 6.66639C74.6574 6.91461 74.5996 7.18891 74.5417 7.46321C74.4995 7.73436 74.437 7.98573 74.3994 8.27981C74.3604 8.40707 74.4552 8.55495 74.5423 8.58503C74.5423 8.58503 74.5423 8.58503 74.547 8.60796C74.2158 10.0119 73.8645 11.396 73.5333 12.7999C73.2897 13.7564 73.0461 14.7129 72.8025 15.6693C72.6948 16.097 72.587 16.5246 72.4544 16.9096C72.3327 17.2684 72.1706 17.5878 72.0241 17.9039C72.0536 17.9696 72.094 18.0091 72.1391 18.0716C72.3147 18.2985 72.4904 18.5255 72.6504 18.7556C72.9457 19.1732 73.2348 19.6398 73.5036 20.0866C74.0707 21.0458 74.5958 22.0374 75.1365 23.0259C75.7067 24.0799 76.2877 25.1079 76.9109 26.1036C77.4889 27.0367 78.0997 27.8916 78.7417 28.7401C78.7619 28.7599 78.7821 28.7797 78.7914 28.8255C78.866 28.9537 78.9452 29.1047 79.0198 29.2328C79.3165 29.8172 79.6086 30.3786 79.9053 30.963C80.0047 31.1338 80.1088 31.3275 80.2082 31.4983C80.317 31.715 80.4211 31.9087 80.5454 32.1222C80.7287 32.467 80.9074 32.7888 81.0907 33.1336C80.9799 33.4664 80.7479 33.6805 80.4756 33.6164Z" fill="#C89D62"/>
<path d="M28.099 30.0585C28.0773 30.0527 28.035 30.0459 27.972 30.0383C27.909 30.0306 27.8432 30.0338 27.7746 30.0477C27.6507 30.0422 27.5391 29.9985 27.4398 29.9166C27.3503 29.8327 27.2919 29.7272 27.2647 29.6001C27.2501 29.5316 27.2435 29.4768 27.2449 29.4357C27.2681 29.4004 27.2758 29.3172 27.2682 29.1861C27.2726 29.0628 27.2643 28.9523 27.2433 28.8545C27.2602 28.7899 27.2722 28.7262 27.2792 28.6636C27.2842 28.5912 27.2888 28.4933 27.2931 28.37C27.2795 27.9238 27.3061 27.1634 27.3729 26.0888C27.4396 25.0142 27.5 24.4357 27.5539 24.3534L27.5194 24.192C27.5132 24.1627 27.5104 24.102 27.5112 24.0101C27.512 23.9181 27.5362 23.8162 27.5839 23.7045C27.598 23.5792 27.6034 23.4608 27.6 23.3493C27.6043 23.226 27.6051 23.134 27.6023 23.0733C27.6311 23.0165 27.6634 22.8569 27.6993 22.5946C27.7451 22.3302 27.7743 22.156 27.7869 22.0718C27.8158 21.8721 27.8531 21.6401 27.8989 21.3757C27.9523 21.0996 27.9903 20.9185 28.0127 20.8323L27.997 20.759C28.0125 20.7354 28.0406 20.6277 28.0813 20.4358C28.1298 20.2321 28.1698 20.0608 28.2015 19.9217C28.2366 19.7514 28.3312 19.3088 28.4851 18.594C28.4998 18.5196 28.5262 18.4275 28.5641 18.3178C28.6097 18.1964 28.6283 18.1161 28.6199 18.077C28.6445 18.0006 28.7058 17.9524 28.8038 17.9326C28.892 17.9147 28.9875 17.931 29.0904 17.9816C29.2009 18.0204 29.2911 18.0838 29.3611 18.1716L29.5583 18.3765L29.2549 19.5399C29.1622 19.824 29.0871 20.0942 29.0295 20.3508C28.9718 20.6073 28.9472 20.7552 28.9556 20.7943C28.9373 20.9 28.9017 21.1164 28.8489 21.4433C28.806 21.7683 28.7732 22.0454 28.7506 22.2744C28.7329 22.431 28.7076 22.5994 28.6745 22.7795C28.6394 22.9499 28.6144 23.0723 28.5997 23.1467C28.5589 23.3386 28.5406 23.4443 28.5448 23.4639C28.5364 23.4248 29.1203 23.2861 30.2964 23.0477C30.4826 23.01 30.8099 22.9386 31.2782 22.8334C31.7564 22.7263 32.0521 22.6511 32.1656 22.6077L32.9143 22.3794L33.0911 20.7673C33.1159 20.4052 33.1894 19.6965 33.3114 18.6413C33.3685 18.191 33.4286 17.8983 33.4917 17.7631C33.5527 17.6181 33.6469 17.5326 33.7744 17.5068C33.8234 17.4969 33.8972 17.5074 33.9959 17.5385C34.1022 17.5577 34.1774 17.5986 34.2215 17.6611C34.3523 17.7468 34.4302 17.8483 34.4553 17.9657C34.4846 18.1026 34.447 18.3092 34.3424 18.5854C34.2687 18.8146 34.1847 19.2346 34.0904 19.8455C34.0586 20.1274 34.0371 20.2899 34.0259 20.333C34.0698 20.5384 34.0532 20.6999 33.9761 20.8175C33.9453 20.8646 33.907 21.0203 33.8613 21.2846C33.8135 21.5392 33.7937 21.686 33.8021 21.7251C33.8188 21.8034 33.8229 21.8943 33.8144 21.9981C33.8039 22.0921 33.7832 22.1626 33.7523 22.2096L33.7247 22.5825C33.6472 23.894 33.5617 24.8091 33.4682 25.328C33.4786 25.3769 33.4729 25.4699 33.4511 25.607C33.4293 25.744 33.4236 25.837 33.4341 25.8859C33.4291 25.9583 33.4143 26.1041 33.3896 26.3234C33.3649 26.5427 33.3567 26.6719 33.3651 26.711C33.3685 26.8225 33.3659 27.0016 33.3573 27.2482C33.3524 27.943 33.3563 28.3197 33.3688 28.3783C33.3534 28.4019 33.3261 28.4176 33.2869 28.4256C33.2477 28.4335 33.1809 28.4317 33.0864 28.4203C33.0017 28.4068 32.9377 28.3943 32.8943 28.3827C32.6319 28.3032 32.4829 28.1804 32.4474 28.0141C32.4244 27.9066 32.4381 27.7558 32.4887 27.5619C32.5077 27.5071 32.5328 27.1704 32.5642 26.5519L32.5804 25.9824C32.6058 25.814 32.6387 25.3227 32.6794 24.5084C32.7184 23.8781 32.7457 23.5512 32.7611 23.5277L32.7297 23.381C32.6899 23.3381 32.3269 23.3861 31.6409 23.5252C30.8666 23.6821 30.1644 23.8652 29.5343 24.0745L28.4611 24.292C28.4351 24.4095 28.3804 24.895 28.2971 25.7485C28.2214 26.5902 28.1909 27.1168 28.2054 27.3281C28.2058 27.6647 28.1941 28.1364 28.1705 28.7431C28.1448 29.3401 28.1209 29.7785 28.099 30.0585Z" fill="#47484E"/>
<path d="M37.1311 27.4323C36.9661 27.2821 36.5044 27.2991 35.7463 27.4834L35.6171 27.5248C35.4309 27.5626 35.2598 27.5513 35.1037 27.4911C34.9477 27.4309 34.8729 27.3441 34.8793 27.2305C34.8445 26.9723 35.223 26.7579 36.0148 26.5872L36.7908 26.4146L36.8751 26.0915C36.9054 25.8507 36.9407 25.466 36.9811 24.9375C36.9904 24.7418 37.0264 24.408 37.0891 23.9362C37.1922 22.9358 37.2451 22.3945 37.248 22.3123C37.2719 22.1851 37.3002 21.9345 37.3327 21.5606C37.3652 21.1867 37.3868 20.8813 37.3975 20.6445C37.555 19.1332 37.5875 18.3767 37.4951 18.375C37.395 18.3851 37.1297 18.4593 36.6991 18.5976C36.2762 18.7241 36.0434 18.807 36.0007 18.8462C35.9797 18.8913 35.9348 18.9208 35.8662 18.9347C35.8074 18.9466 35.7395 18.94 35.6626 18.9148C35.5835 18.8798 35.5279 18.8349 35.4958 18.7802C35.4776 18.7431 35.4612 18.6903 35.4465 18.6218C35.4319 18.5534 35.4498 18.4936 35.5003 18.4426C35.5892 18.3328 35.8035 18.1873 36.1432 18.0062C36.4905 17.8134 36.8315 17.6627 37.1662 17.5541C37.3286 17.5007 37.4879 17.4327 37.6441 17.3501C37.8079 17.2557 37.9256 17.1604 37.9971 17.0643C38.1883 16.9541 38.3535 16.89 38.4928 16.872C38.5719 16.907 38.7437 16.8977 39.0083 16.8441C39.2337 16.7984 39.4042 16.7587 39.5197 16.7251C39.8642 16.6145 40.1589 16.5344 40.404 16.4847C40.5902 16.447 40.7267 16.4397 40.8134 16.4629C40.91 16.4842 40.9922 16.5338 41.06 16.6119C41.1327 16.7604 41.1742 16.8592 41.1847 16.908C41.2244 17.0938 41.1354 17.2037 40.9177 17.2376C40.7595 17.3105 40.3639 17.4213 39.7311 17.5699C39.0477 17.7696 38.6899 17.9135 38.6577 18.0017C38.6191 18.0605 38.5893 18.1125 38.5683 18.1576C38.5571 18.2006 38.5409 18.2447 38.5199 18.2898C38.538 18.3269 38.5407 18.459 38.5279 18.6861C38.5228 18.9014 38.5041 19.1245 38.4717 19.3555L38.3733 20.1866C38.2808 21.093 38.2163 21.6519 38.1797 21.8634C38.1466 22.0435 38.1342 22.2246 38.1424 22.4065C38.0992 23.0173 38.0603 23.5047 38.0257 23.8688C37.9889 24.2231 37.9631 24.5089 37.9482 24.7262C37.8791 25.3116 37.8353 25.8 37.8168 26.1914L38.639 25.9483C39.2047 25.7724 39.5758 25.6666 39.7522 25.6309C39.8894 25.6031 39.9857 25.5989 40.0409 25.6183C40.106 25.6357 40.1627 25.6854 40.2109 25.7675C40.3599 25.8903 40.4448 26.0006 40.4657 26.0984C40.4908 26.2158 40.4155 26.3178 40.2397 26.4044C40.064 26.491 39.779 26.5692 39.3849 26.6388C38.9382 26.7498 38.564 26.8409 38.2623 26.9123C37.9725 26.9914 37.7768 27.0566 37.6753 27.1077C37.5835 27.1569 37.5352 27.2178 37.5302 27.2902C37.5469 27.3684 37.5112 27.4165 37.423 27.4343C37.325 27.4542 37.2277 27.4535 37.1311 27.4323Z" fill="#47484E"/>
<path d="M44.2838 25.9215C44.2529 25.9686 44.2179 25.9961 44.1787 26.0041C44.1297 26.014 44.0401 26.0015 43.91 25.9667C43.7763 25.9632 43.6748 25.9429 43.6056 25.906C43.5384 25.8788 43.4954 25.8211 43.4766 25.7331C43.4557 25.6353 43.4638 25.5062 43.5011 25.3456C43.5537 25.1615 43.6045 24.2992 43.6535 22.7589C43.6821 22.0797 43.6964 21.7401 43.6964 21.7401C43.6943 21.7304 43.6815 21.5748 43.658 21.2735C43.656 21.1209 43.6426 20.843 43.6178 20.4399C43.6873 20.1912 43.7134 19.9308 43.6962 19.6588C43.6866 19.3751 43.6826 19.2127 43.684 19.1716C43.6962 18.8936 43.7086 18.7126 43.7212 18.6284L43.7438 18.0882L43.7598 17.7329C43.7762 17.4746 43.777 17.3112 43.7624 17.2427L43.7122 17.008L43.1682 17.1182L42.8921 17.1895L42.3303 17.2881C42.191 17.3061 41.9988 17.3399 41.7538 17.3896C41.289 17.4634 40.9708 17.4819 40.7994 17.4452C40.6259 17.3988 40.5112 17.269 40.4554 17.0558C40.3967 16.9249 40.4171 16.8289 40.5165 16.768C40.6139 16.6972 40.8586 16.6221 41.2506 16.5427C41.5936 16.4732 41.8838 16.4195 42.1211 16.3816C42.2562 16.344 42.4512 16.2994 42.706 16.2478C42.9804 16.1921 43.2069 16.1513 43.3854 16.1254C43.5737 16.0974 43.6826 16.0805 43.712 16.0745C43.7351 16.0392 43.7512 15.9951 43.7604 15.9423C43.7695 15.8894 43.7759 15.8473 43.7794 15.816C43.7438 15.6497 43.7758 15.5361 43.8752 15.4752C43.9069 15.3361 43.9668 15.2577 44.055 15.2398C44.1726 15.216 44.315 15.284 44.4821 15.444C44.5122 15.4889 44.5604 15.571 44.6268 15.6902C44.7009 15.7976 44.7795 15.8786 44.8628 15.9331C44.8936 15.8861 45.0158 15.8358 45.2293 15.7823C45.4429 15.7288 45.5927 15.6883 45.6788 15.6606C45.865 15.6229 46.0551 15.5793 46.249 15.5298C46.4408 15.4705 46.5711 15.4339 46.6397 15.42C46.7174 15.3532 46.8494 15.301 47.0356 15.2632C47.1238 15.2453 47.2484 15.2303 47.4094 15.2181C47.6348 15.1724 47.7937 15.1504 47.8861 15.1521C47.9883 15.1518 48.0593 15.1731 48.0992 15.216C48.1222 15.3236 48.1634 15.3969 48.2229 15.4358C48.2684 15.4572 48.2942 15.4826 48.3005 15.5119C48.3047 15.5315 48.2945 15.5795 48.2699 15.6559C48.2201 15.7578 48.0531 15.8375 47.7689 15.8951L47.4633 15.9724C47.2519 16.0356 47.0972 16.0772 46.9992 16.097C46.6239 16.2547 46.0718 16.4227 45.343 16.601C44.9412 16.6824 44.7487 16.7623 44.7654 16.8405C44.7066 16.8524 44.6618 17.1931 44.6311 17.8625C44.6225 18.1091 44.6048 18.3371 44.578 18.5466C44.559 18.7443 44.5371 18.8814 44.5126 18.9578C44.5503 18.9909 44.5744 19.0319 44.5849 19.0808C44.5954 19.1297 44.589 19.2433 44.5657 19.4214C44.5593 19.5349 44.548 19.6495 44.5318 19.765C44.5135 19.8707 44.5106 19.9529 44.5232 20.0116C44.5217 20.0527 44.5132 20.1564 44.4977 20.3228C44.4899 20.4775 44.4911 20.6507 44.5014 20.8424C44.5528 21.3217 44.5477 21.6085 44.486 21.7026C44.4804 21.7241 44.4642 21.7682 44.4376 21.8348C44.4207 21.8994 44.4196 21.966 44.4342 22.0344C44.4635 22.1713 44.4815 22.4228 44.4882 22.7887C44.4927 23.1449 44.4786 23.3416 44.4456 23.3789C44.475 23.3729 44.496 23.3993 44.5086 23.458C44.5232 23.5264 44.5157 23.6351 44.4862 23.7839C44.5029 23.8621 44.5081 23.958 44.5017 24.0715C44.4953 24.185 44.4963 24.2614 44.5047 24.3005L44.4517 24.7703C44.3706 25.4907 44.3146 25.8745 44.2838 25.9215Z" fill="#47484E"/>
</g>
<defs>
<clipPath id="clip0">
<rect width="75.8954" height="34.2035" fill="white" transform="matrix(-0.980064 0.198684 0.198684 0.980064 74.3828 0)"/>
</clipPath>
</defs>
</svg>
