<svg width="83" height="57" viewBox="0 0 83 57" fill="none" xmlns="http://www.w3.org/2000/svg">
<g clip-path="url(#clip0)">
<path d="M70.8868 17.8668L72.25 4.88342L51.5067 8.45018L34.2045 14.0863L25.5078 17.8097L18.9852 20.6022L2.95011 29.2389L9.65002 36.9988L12.0447 52.8017L25.4977 46.1564L46.198 36.4082L63.4089 32.5824L80.5287 30.567L70.8868 17.8668Z" fill="white"/>
<path d="M78.5087 29.0055C77.7578 28.2221 77.0445 27.4013 76.3539 26.4988C75.6333 25.557 74.9127 24.5658 74.1921 23.5746C73.5766 22.696 72.9387 21.8004 72.2704 21.0137C71.7974 20.4574 71.2792 19.9658 70.7987 19.4367C70.4833 19.0988 70.1907 18.5803 70.1237 18.035C70.0938 17.8969 70.094 17.7487 70.1017 17.6226C70.1019 17.4744 70.1246 17.3432 70.1473 17.2121C70.17 17.1303 70.2002 17.0213 70.2229 16.9396C70.306 16.6399 70.3965 16.3623 70.5022 16.0796C70.6685 15.3814 70.7446 14.6148 70.8358 13.8431C70.9497 12.9896 71.041 12.1191 71.1549 11.2657C71.3527 9.42078 71.5505 7.57586 71.7634 5.72585C70.6053 5.82093 69.4398 5.89384 68.2667 5.99401C67.9358 6.00706 67.6199 6.06443 67.2891 6.07748C66.9883 6.12977 66.6724 6.13773 66.3716 6.19002C65.7549 6.29968 65.1382 6.40934 64.5215 6.51901C63.6716 6.68278 62.8293 6.86872 62.0019 7.04958C61.1746 7.23043 60.3623 7.45561 59.5499 7.68079C57.9855 8.0614 56.466 8.52558 54.9166 8.95051C53.4723 9.38926 52.0131 9.8331 50.5614 10.2497C49.0118 10.724 47.4699 11.1711 45.9354 11.6404C44.3106 12.1402 42.6934 12.6621 41.0686 13.1619C39.5115 13.6635 37.9395 14.1207 36.3674 14.578C34.7878 15.0625 33.2381 15.6357 31.6885 16.2089C30.2742 16.7363 28.845 17.2194 27.4382 17.7689C25.9186 18.3813 24.399 18.9937 22.9168 19.717C21.3744 20.4605 19.8095 21.187 18.2522 21.9357C17.6051 22.2532 16.9731 22.5656 16.3336 22.9052C15.6037 23.2754 14.8739 23.6455 14.1591 24.06C12.7294 24.8889 11.3072 25.7895 9.89998 26.6849C9.26037 27.074 8.65077 27.5023 8.02615 27.9357C7.8908 27.932 7.76296 27.9505 7.63511 27.9691C7.48472 27.9705 7.34184 27.9941 7.1839 28.0228C7.13127 28.0159 7.08614 28.0311 7.04101 28.0464C6.94325 28.0547 6.84549 28.0631 6.75522 28.0936C6.72513 28.1038 6.68 28.119 6.63487 28.1343C6.63487 28.1343 6.61982 28.1394 6.60477 28.1444C6.57468 28.1546 6.54459 28.1648 6.49946 28.18C6.46937 28.1902 6.43929 28.2004 6.41669 28.2327C6.37155 28.248 6.33391 28.2854 6.30376 28.345C6.30376 28.345 6.28872 28.35 6.29621 28.3722C5.98776 28.5012 5.67176 28.6574 5.37829 28.8306C4.99456 29.0344 4.62588 29.2331 4.2572 29.4318C4.05406 29.5252 3.86598 29.6134 3.67033 29.729C3.65529 29.734 3.6252 29.7442 3.61015 29.7493L3.61764 29.7715C4.39872 30.4953 5.19496 31.1152 5.9686 31.7674C6.34415 32.085 6.71216 32.4298 7.08016 32.7746C7.49323 33.1536 7.9063 33.5326 8.29677 33.9439C8.66471 34.3382 9.03265 34.7324 9.39303 35.1539C9.5958 35.357 9.76091 35.5975 9.93352 35.8602C10.0611 36.0394 10.1586 36.2781 10.241 36.4725C10.346 36.6839 10.3983 36.9379 10.4733 37.1595C10.6229 37.751 10.6748 38.3509 10.7417 38.9456C10.8904 40.2783 11.0166 41.5939 11.1427 42.9095C11.1947 43.4105 11.2542 43.9337 11.3137 44.4569C11.4922 46.0265 11.6932 47.6131 11.8867 49.1776C12.0218 49.3789 12.1193 49.6176 12.1565 49.8766C12.1939 50.0863 12.2161 50.301 12.261 50.5328C12.2985 50.5942 12.3285 50.6334 12.351 50.6999C12.3434 50.7766 12.3283 50.8311 12.3132 50.8856C12.3206 50.9077 12.3206 50.9077 12.3056 50.9128C12.3355 51.0509 12.3429 51.1719 12.3577 51.315C12.6135 51.2286 12.8767 51.1643 13.125 51.0557C13.3808 50.9693 13.629 50.8606 13.8998 50.7691C13.9149 50.764 13.945 50.7539 13.9825 50.7659C14.0879 50.7303 14.2082 50.6896 14.3135 50.654C14.3587 50.6387 14.4113 50.6456 14.4564 50.6304C14.9831 50.3536 15.5323 50.1433 16.0589 49.9159C17.5108 49.3511 18.9776 48.88 20.317 48.0815C21.0093 47.65 21.6641 47.157 22.3413 46.7305C23.0562 46.2666 23.7861 45.8471 24.501 45.4326C25.2082 45.0454 25.893 44.6411 26.5927 44.2811C27.3075 43.916 27.9997 43.5833 28.7294 43.2625C31.686 41.9915 34.6277 40.6762 37.6143 39.4445C39.1038 38.8423 40.6009 38.2622 42.1054 37.7043C43.6851 37.1209 45.2274 36.4268 46.8071 35.8929C46.8823 35.8674 46.9425 35.8471 47.0177 35.8217C48.4695 35.3557 49.9588 34.9511 51.4705 34.6624C53.1702 34.3348 54.8473 34.0396 56.5545 33.7836C57.5397 33.6235 58.5024 33.4463 59.4801 33.264C60.2773 33.0933 61.0745 32.9226 61.8718 32.7519C62.654 32.5864 63.4137 32.3543 64.1884 32.1665C64.933 31.9889 65.6701 31.7892 66.4147 31.6116C67.2496 31.4035 68.0695 31.2004 68.9193 31.0367C69.4232 30.9404 69.9271 30.8442 70.431 30.748C70.7244 30.6735 71.0252 30.6212 71.326 30.5689C72.1307 30.4698 72.9354 30.3213 73.7701 30.2614C74.289 30.2095 74.8154 30.1798 75.3343 30.1279C75.6275 30.1029 75.9133 30.0556 76.2141 30.0528C76.748 30.0452 77.2818 30.0376 77.7931 30.013C78.109 30.005 78.4173 29.9749 78.7481 30.0112C79.0037 30.0236 79.2593 30.036 79.4999 30.0535C79.1771 29.6934 78.8466 29.3605 78.5087 29.0055ZM82.166 32.585C81.1436 32.4366 80.1436 32.4042 79.1286 32.3274C79.0234 32.3136 78.9106 32.3271 78.8128 32.3354C78.5346 32.3554 78.2489 32.3532 77.9631 32.3509C77.4969 32.3603 77.0382 32.3919 76.5871 32.3962C76.2186 32.3973 75.8502 32.4477 75.4892 32.471C75.038 32.5247 74.5943 32.5512 74.1356 32.5827C73.7671 32.6332 73.3986 32.6837 73.0452 32.729C72.6015 32.8049 72.1352 32.8638 71.684 32.9175C71.3155 32.9679 70.962 33.0627 70.5935 33.1132C70.2174 33.1909 69.8564 33.2635 69.4804 33.3413C67.961 33.7066 66.4417 34.072 64.9449 34.4544C63.3053 34.8604 61.6731 35.2886 60.011 35.5788C59.304 35.7189 58.582 35.8642 57.8676 35.9822C57.1757 36.0679 56.4913 36.1757 55.7919 36.2887C54.3855 36.5418 52.9641 36.7999 51.5577 37.053C50.8131 37.2306 50.0534 37.4133 49.3238 37.6352C48.895 37.7554 48.4663 37.8757 48.0601 38.013C47.6689 38.1452 47.2703 38.2552 46.9017 38.4045C46.1042 38.7234 45.2918 39.0474 44.4943 39.3663C43.8173 39.6446 43.1252 39.8785 42.4557 40.1295C39.4542 41.2675 36.4901 42.5163 33.5409 43.8094C32.0213 44.4712 30.4941 45.1109 28.9819 45.7949C28.2521 46.1156 27.5299 46.4585 26.8376 46.8407C26.1228 47.2552 25.4005 47.6475 24.6856 48.062C23.9557 48.4815 23.2484 48.9182 22.541 49.4042C22.2174 49.6371 21.9088 49.8649 21.5777 50.0755C21.224 50.3186 20.8328 50.5002 20.4716 50.7211C19.7793 51.1032 19.0271 51.3575 18.2974 51.6288C17.6053 51.9121 16.8907 52.1784 16.1985 52.4617C16.0932 52.4973 15.9954 52.555 15.9051 52.5855C15.8298 52.7098 15.7695 52.829 15.6792 52.9089C15.6039 52.9837 15.5211 53.0364 15.4383 53.0891C15.3555 53.1417 15.2652 53.2217 15.1824 53.2743C15.0395 53.3473 14.904 53.4425 14.7611 53.5155C14.6858 53.541 14.6106 53.5664 14.5579 53.6089C14.1818 53.736 13.8057 53.8631 13.4371 54.0124C13.2265 54.0836 13.0158 54.1548 12.7977 54.2532C12.7526 54.2191 12.7 54.1628 12.6475 54.1065C12.5045 54.1795 12.3615 54.2525 12.2186 54.3255C12.1735 54.3407 12.1509 54.3731 12.1208 54.3833C11.8875 54.4868 11.6543 54.5903 11.4211 54.6938C11.3007 54.7345 11.1728 54.8024 11.06 54.8653C10.8799 54.5804 10.745 54.2309 10.7003 53.9003C10.6555 53.619 10.6408 53.3771 10.6561 53.1249C10.6714 52.9222 10.6943 52.6922 10.7096 52.4895C10.6947 52.3958 10.6872 52.3242 10.6798 52.2526C10.6726 51.9834 10.6504 51.7192 10.6131 51.4602C10.5759 51.1517 10.5612 50.8603 10.5315 50.574C10.3231 48.8664 10.0922 47.1911 9.90632 45.5006C9.66067 43.5339 9.49018 41.5912 9.28211 39.6365C9.26738 39.3946 9.23761 39.1577 9.20782 38.9208C9.14833 38.3976 9.09639 37.8472 8.98427 37.3171C8.9618 37.2506 8.93184 37.1619 8.89432 37.1005C8.88683 37.0783 8.87934 37.0562 8.87185 37.034C8.68413 36.8258 8.51895 36.6347 8.33873 36.4487C8.12848 36.2234 7.91823 35.9981 7.70798 35.7728C7.43768 35.4691 7.14478 35.1976 6.84438 34.904C6.47638 34.5592 6.10838 34.2144 5.74787 33.8917C5.37232 33.5741 4.98172 33.2616 4.59112 32.9492C4.18554 32.5923 3.76491 32.2406 3.35933 31.8838C3.14153 31.6858 2.91623 31.4656 2.70598 31.2403C2.49574 31.015 2.2856 30.6909 2.11306 30.3788C1.93302 30.0445 1.79069 29.6234 1.70848 29.2314C1.67115 29.0217 1.66397 28.7525 1.7018 28.5669C1.75473 28.3267 1.82259 28.1803 1.93558 28.0186C2.08628 27.7701 2.34953 27.7059 2.56021 27.5853C2.73326 27.5021 2.9063 27.4189 3.0643 27.3408C3.3803 27.1846 3.69629 27.0284 4.0048 26.85C4.33585 26.6888 4.63686 26.4882 4.96791 26.3269C5.31399 26.1606 5.66757 26.0164 6.02115 25.8722C6.43491 25.7076 6.83362 25.5482 7.24738 25.3836C7.24738 25.3836 7.24738 25.3836 7.26243 25.3785C7.36773 25.3429 7.47298 25.3568 7.58573 25.3927C7.95447 25.1446 8.32322 24.8965 8.70702 24.6433C9.41436 24.2067 10.1293 23.7428 10.8516 23.3011C11.4913 22.912 12.1384 22.4957 12.778 22.1066C13.4929 21.6922 14.2152 21.2998 14.945 20.9297C16.3595 20.2046 17.7815 19.5018 19.211 18.821C20.7458 18.1047 22.2506 17.3491 23.8004 16.6772C25.3501 16.0052 26.9224 15.3997 28.4946 14.7942C29.2243 14.5228 29.9615 14.2737 30.6987 14.0245C31.3833 13.7684 32.0603 13.4902 32.7524 13.2563C33.3391 13.0579 33.9184 12.8375 34.5051 12.6392C34.6706 12.5832 34.8361 12.5273 35.0166 12.4663C35.844 12.236 36.6639 11.9836 37.5063 11.7482C39.0935 11.2859 40.6656 10.7792 42.2377 10.2725C45.2541 9.32707 48.2929 8.44813 51.3017 7.52994C52.8663 7.05051 54.4308 6.57108 56.0104 6.13597C57.6877 5.69252 59.365 5.24907 61.0498 4.82778C61.8847 4.61968 62.7195 4.46099 63.5469 4.28013C64.329 4.11453 65.1262 3.99326 65.9159 3.84983C66.3295 3.78411 66.7732 3.75763 67.1943 3.71407C67.5026 3.68394 67.811 3.65382 68.1193 3.62369C69.0066 3.57073 69.909 3.51269 70.8038 3.43248C71.2325 3.41108 71.6536 3.36753 72.0972 3.34105C72.5033 3.30257 72.9612 3.91336 73.0808 4.51503C73.1406 4.79116 73.1177 5.02114 73.0423 5.1948C73.1024 5.27328 73.1474 5.35685 73.1924 5.44042C73.1318 5.80664 73.0937 6.18994 73.0556 6.57324C73.0402 6.82538 73.0173 7.10477 72.9944 7.38417C72.9866 7.65847 72.9562 7.9157 72.9558 8.21217C72.9331 8.34332 73.0457 8.47813 73.1359 8.49703C73.1359 8.49703 73.1359 8.49703 73.1434 8.51919C72.9912 9.95357 72.8165 11.3709 72.6643 12.8052C72.5427 13.7847 72.4212 14.7642 72.2997 15.7437C72.2465 16.1815 72.1933 16.6193 72.1101 17.0179C72.0344 17.3892 71.9137 17.7263 71.808 18.0584C71.8455 18.1198 71.8906 18.154 71.9431 18.2103C72.1459 18.4134 72.3487 18.6165 72.5364 18.8247C72.8818 19.2019 73.2271 19.6285 73.5499 20.0379C74.233 20.9183 74.8785 21.8361 75.5391 22.7489C76.2371 23.723 76.9427 24.6699 77.686 25.5793C78.3766 26.4325 79.09 27.2039 79.8334 27.9651C79.8559 27.9822 79.8785 27.9993 79.8935 28.0436C79.9835 28.1613 80.0811 28.3012 80.1712 28.4189C80.5389 28.9614 80.8992 29.4817 81.267 30.0242C81.3871 30.1812 81.5147 30.3603 81.6348 30.5173C81.7699 30.7185 81.8975 30.8977 82.0476 31.0939C82.2728 31.4129 82.4904 31.7098 82.7156 32.0288C82.6475 32.3728 82.4442 32.6144 82.166 32.585Z" fill="#885574"/>
<path d="M28.7887 35.1365C28.6206 35.062 28.5178 34.9763 28.4804 34.8793C28.4585 34.8227 28.4394 34.7371 28.4231 34.6227C28.418 34.5131 28.4126 34.427 28.4069 34.3641C28.3704 34.0531 28.3629 33.7448 28.3843 33.4392C28.3896 33.2606 28.3888 33.0659 28.3817 32.8549C28.3745 32.644 28.3491 32.4216 28.3052 32.1877C28.3233 31.7534 28.3259 31.339 28.3129 30.9445C28.305 30.5388 28.2984 30.2812 28.2933 30.1717C28.2858 30.1281 28.2982 29.8957 28.3307 29.4744C28.3651 29.1546 28.3921 28.8515 28.4116 28.5653C28.4084 28.4365 28.3939 28.0983 28.3683 27.5508C28.3411 27.1432 28.3298 26.8132 28.3344 26.5605C28.3391 26.3079 28.368 26.0459 28.4211 25.7745C28.473 25.4758 28.6 25.2874 28.8022 25.2094C28.8992 25.1719 28.9966 25.1715 29.0943 25.2081C29.197 25.2334 29.292 25.299 29.3792 25.4046C29.5032 25.5333 29.6251 25.7045 29.7448 25.9184C29.8695 26.1211 30.0414 26.4821 30.2605 27.0014C30.331 27.16 30.4271 27.3969 30.5488 27.7122L30.9937 28.8644C31.1529 29.2767 31.292 29.6131 31.4112 29.8737C31.5304 30.1343 31.6557 30.3506 31.7873 30.5228C31.9955 30.8698 32.2405 31.2397 32.5223 31.6326C32.8009 32.0174 32.9726 32.1973 33.0372 32.1723C33.1343 32.1349 33.1852 31.7854 33.1899 31.124C33.1915 30.4545 33.0946 29.3492 32.8991 27.8082C32.8852 27.6277 32.8513 27.3714 32.7974 27.0392C32.7434 26.707 32.6764 26.3892 32.5964 26.0856C32.5574 25.7198 32.5096 25.3434 32.4531 24.9564C32.4016 24.5583 32.3695 24.343 32.3571 24.3107C32.3415 24.2703 32.3258 24.2298 32.3102 24.1894C32.3027 24.1459 32.284 24.0974 32.2541 24.0439C32.2864 24.0314 32.2984 23.9664 32.2902 23.8488C32.2901 23.7281 32.2728 23.6232 32.2385 23.5343C32.1479 23.2998 32.1374 23.1041 32.2069 22.9473C32.2093 22.8813 32.259 22.8296 32.3561 22.7921C32.4531 22.7547 32.557 22.7471 32.6678 22.7693C32.7835 22.7804 32.8716 22.8161 32.932 22.8763C33.0218 23.0368 33.1474 23.699 33.3088 24.8629C33.3463 24.96 33.4021 25.2729 33.4762 25.8017C33.5095 26.1047 33.5544 26.3893 33.6107 26.6555C33.6689 26.9025 33.7065 27.1202 33.7236 27.3087C33.7487 27.4941 33.7435 27.589 33.7081 27.5934C33.926 29.1443 34.0041 30.6099 33.9424 31.9901C33.9233 32.6385 33.7722 33.0173 33.4893 33.1266C33.2952 33.2015 33.0472 33.1486 32.7452 32.9679C32.4176 32.7692 32.1532 32.5415 31.9519 32.2848C31.7587 32.0249 31.4529 31.5577 31.0345 30.8831C30.7504 30.5562 30.5115 30.1421 30.318 29.6408C30.2056 29.3498 30.0947 29.0024 29.9853 28.5987L29.7107 27.7432C29.5778 27.4229 29.4798 27.2052 29.4168 27.0902C29.3588 26.964 29.3136 26.9071 29.2813 26.9196C29.2489 26.9321 29.2285 27.0236 29.22 27.1941C29.2115 27.3646 29.2138 27.6471 29.2267 28.0415C29.2222 28.4149 29.2098 28.9121 29.1894 29.5331L29.1738 30.431C29.1406 30.7782 29.1454 31.1155 29.1881 31.4427C29.1888 32.4551 29.218 33.3728 29.2756 34.196L29.2976 34.5777C29.3012 34.9479 29.2464 35.1549 29.1332 35.1986C29.0523 35.2298 28.9375 35.2091 28.7887 35.1365Z" fill="#47484E"/>
<path d="M37.4958 31.2453C37.3148 31.3059 37.1319 31.3254 36.9471 31.3038C36.7622 31.2823 36.5432 31.2322 36.2898 31.1535L35.9817 31.0773C35.78 30.988 35.609 30.8821 35.4689 30.7597C35.3337 30.6261 35.1935 30.4434 35.0482 30.2114C34.9946 30.1207 34.9537 30.0389 34.9256 29.9661C34.8351 29.7317 34.7694 29.4412 34.7285 29.0946C34.6845 28.74 34.672 28.4429 34.6909 28.2033C34.7034 27.7062 34.8302 26.8675 35.0713 25.6875C35.0912 25.6427 35.1036 25.6146 35.1086 25.6034C35.1185 25.581 35.1194 25.5714 35.1113 25.5745C35.1082 25.5664 35.1066 25.5624 35.1066 25.5624C35.0848 25.5058 35.1053 25.2099 35.168 24.6747C35.2493 24.4761 35.2696 24.3242 35.2291 24.2191C35.2072 24.1625 35.1779 24.1227 35.1412 24.0998C35.0932 24.0718 35.1285 23.9467 35.2471 23.7244C35.3706 23.4909 35.5402 23.2443 35.7558 22.9846C35.9085 22.7305 36.09 22.5629 36.3002 22.4817C36.3649 22.4568 36.4221 22.4486 36.4719 22.4573C36.5267 22.4547 36.5659 22.4721 36.5896 22.5094C36.6083 22.5579 36.7638 22.4793 37.0559 22.2736C37.189 22.185 37.2863 22.1243 37.3478 22.0912C37.3646 22.0383 37.4329 21.9747 37.5529 21.9005C37.6779 21.8151 37.8554 21.7094 38.0855 21.5834C38.218 21.5416 38.3514 21.4901 38.4857 21.4289C38.62 21.3678 38.7058 21.3254 38.7431 21.3017C38.7984 21.2524 38.8718 21.238 38.9633 21.2585C39.0598 21.2677 39.1613 21.326 39.2678 21.4335C39.3139 21.4808 39.3464 21.5286 39.3651 21.5771C39.3994 21.6661 39.3709 21.7607 39.2796 21.861C39.1932 21.9501 39.0229 22.0623 38.7685 22.1976C38.5142 22.333 38.3563 22.4172 38.2947 22.4503C37.8688 22.6704 37.4295 22.9283 36.9769 23.2238C36.6865 23.4102 36.4873 23.58 36.3793 23.7333C36.2793 23.8833 36.1934 24.1302 36.1217 24.4737C36.0807 24.536 36.0485 24.6692 36.0251 24.8733C35.9986 25.0694 35.9752 25.2735 35.955 25.4857C35.9432 25.5274 35.9305 25.5787 35.9169 25.6397C35.9033 25.7007 35.8831 25.7689 35.8565 25.8442C35.7438 26.2501 35.671 26.5429 35.6383 26.7228C35.6024 26.8946 35.6028 26.9919 35.6396 27.0149C35.667 27.0136 35.7161 27.0086 35.787 26.9998C35.866 26.9879 35.9314 26.9766 35.983 26.9659C36.0401 26.8974 36.1303 26.8301 36.2534 26.764C36.3765 26.6979 36.4632 26.6458 36.5136 26.6078C37.6711 25.78 38.3301 25.3212 38.4905 25.2314C38.5446 25.1548 38.6039 25.104 38.6686 25.079C38.8141 25.0228 38.981 25.0699 39.1691 25.2202C39.212 25.2594 39.2413 25.2992 39.257 25.3396C39.285 25.4124 39.255 25.5029 39.1668 25.6113C39.0785 25.7197 38.8955 25.8833 38.6177 26.102C38.3367 26.3127 37.9973 26.5645 37.5994 26.8575L37.2535 27.1165C36.7872 27.473 36.4086 27.7074 36.1175 27.8198C35.8669 27.9165 35.7191 27.8946 35.6741 27.7541C35.5777 27.7449 35.519 27.8697 35.4982 28.1286C35.4855 28.3843 35.5051 28.688 35.5572 29.0394C35.6062 29.3829 35.6728 29.6637 35.7571 29.882C35.8008 29.9952 35.8473 30.0794 35.8965 30.1348C36.0473 30.3088 36.1955 30.4281 36.3412 30.4926C36.495 30.554 36.7153 30.5711 37.0021 30.544C37.0618 30.5303 37.1337 30.5118 37.2176 30.4887C37.3097 30.4624 37.4123 30.4275 37.5255 30.3837C37.6872 30.3213 37.8364 30.2265 37.9731 30.0994C38.3574 29.8675 38.6779 29.6508 38.9346 29.4495C39.1994 29.2451 39.3563 29.1102 39.4054 29.0448C39.4446 29.0018 39.4787 28.97 39.508 28.9495C39.5372 28.9289 39.568 28.9124 39.6003 28.8999L39.5975 28.9288C39.5975 28.9288 39.5991 28.9329 39.6022 28.9409C39.6022 28.9409 39.6063 28.9394 39.6144 28.9363C39.6386 28.9269 39.6848 28.8301 39.753 28.6458C39.8468 28.4796 39.9906 28.2986 40.1845 28.103C40.3865 27.9042 40.5024 27.8316 40.5324 27.8851C40.5673 27.9273 40.5909 27.9646 40.6034 27.997C40.6627 28.1506 40.6375 28.374 40.5278 28.6672C40.423 28.9492 40.2448 29.2456 39.9931 29.5565C39.6781 29.9196 39.2928 30.2449 38.837 30.5323C38.3925 30.8247 37.9454 31.0624 37.4958 31.2453Z" fill="#47484E"/>
<path d="M46.2412 28.3147C46.0391 28.3928 45.8281 28.3395 45.6082 28.155C45.3883 27.9705 45.2222 27.7327 45.1098 27.4416C45.0817 27.3689 45.0433 27.2212 44.9944 26.9985C44.9425 26.7677 44.9106 26.6128 44.8986 26.5338C44.8669 27.0291 44.8024 27.4396 44.7051 27.7651C44.4893 28.3129 44.3003 28.7018 44.1382 28.9316C44.1202 28.9571 44.0721 29.0129 43.9938 29.0988C43.9186 29.1929 43.8568 29.2493 43.8083 29.268C43.7678 29.2836 43.6891 29.2722 43.5721 29.2338C43.2772 29.264 43.0474 29.1623 42.8829 28.9285C42.7701 28.8048 42.6491 28.6239 42.52 28.3858C42.3909 28.1476 42.2702 27.883 42.1578 27.592C41.9737 27.1149 41.8602 26.7128 41.8175 26.3856C41.8061 26.2599 41.7789 26.1171 41.7357 25.9573C41.697 25.8329 41.6735 25.7119 41.6653 25.5943C41.5992 25.4712 41.55 25.0071 41.5179 24.2019C41.4938 23.3937 41.4987 22.5882 41.5325 21.7855C41.5664 20.9828 41.6351 20.4871 41.7388 20.2984C41.7785 20.2087 41.8347 20.1499 41.9075 20.1218C41.9641 20.0999 42.0188 20.0974 42.0717 20.1141C42.1247 20.1308 42.1605 20.1634 42.1792 20.212C42.2222 20.2511 42.2611 20.2918 42.296 20.3341C42.3309 20.3763 42.3667 20.409 42.4035 20.4319C42.4209 20.4531 42.4375 20.4839 42.4531 20.5243C42.4718 20.5728 42.48 20.63 42.4776 20.696C42.472 20.7539 42.4647 20.831 42.4555 20.9275C42.4168 21.3326 42.3935 21.5971 42.3855 21.7209C42.2974 22.3588 42.2765 23.0869 42.323 23.905C42.3663 24.7151 42.4607 25.5009 42.606 26.2623C42.7563 27.0125 42.9372 27.6255 43.1488 28.1012C43.18 28.1821 43.2252 28.239 43.2843 28.2719C43.3403 28.2967 43.4047 28.295 43.4775 28.2669C43.6635 28.1952 43.8116 27.9893 43.9219 27.6494C43.9622 27.5131 44.0096 27.323 44.064 27.079C44.1153 26.8269 44.1487 26.6607 44.1642 26.5804C44.171 26.5499 44.1799 26.4768 44.1909 26.3611C44.202 26.2453 44.2102 26.0982 44.2156 25.9196C44.2868 25.6227 44.338 25.0455 44.3692 24.188C44.4086 23.3274 44.4019 22.7447 44.3493 22.4399C44.319 22.145 44.3565 21.9772 44.4616 21.9367C44.5318 21.8538 44.5911 21.803 44.6396 21.7843C44.6882 21.7656 44.7379 21.7742 44.789 21.8102C44.837 21.8382 44.9086 21.9034 45.0039 22.006L45.2759 22.2772L45.29 23.1079C45.334 24.4008 45.4998 25.6003 45.7874 26.7062C45.7905 26.7143 45.7959 26.7401 45.8034 26.7837C45.8078 26.8191 45.8193 26.8611 45.8381 26.9096C45.913 27.1037 46.0338 27.1639 46.2004 27.0903C46.3427 26.9053 46.4662 26.6718 46.571 26.3898C46.6758 26.1078 46.823 25.6468 47.0126 25.0069C47.0609 24.8675 47.1037 24.7256 47.1409 24.5811C47.1749 24.4287 47.1978 24.3316 47.2095 24.2899L47.2369 23.8194C47.2498 23.6844 47.2681 23.5751 47.2916 23.4917C47.3232 23.4052 47.344 23.3507 47.3539 23.3283C47.4197 23.21 47.4654 22.8951 47.4908 22.3836C47.5213 21.8609 47.5278 21.3242 47.5103 20.7736C47.5008 20.2198 47.4683 19.8468 47.4127 19.6546C47.4164 19.616 47.3873 19.4925 47.3254 19.2842C47.1723 18.7673 47.1184 18.4351 47.1636 18.2876C47.2687 18.247 47.407 18.3283 47.5783 18.5316C47.7547 18.7236 47.8897 18.9409 47.9833 19.1835C48.0738 19.4179 48.147 19.6916 48.2028 20.0045C48.2635 20.3062 48.2887 20.552 48.2784 20.7418C48.2791 20.8158 48.278 20.9092 48.275 21.0218C48.2689 21.1263 48.265 21.2486 48.2633 21.3886C48.2067 21.4105 48.1735 21.4929 48.1638 21.6361C48.1621 21.7761 48.1578 21.8613 48.151 21.8918C48.1729 21.9484 48.1898 22.0766 48.2019 22.2763C48.2109 22.4679 48.2049 22.6328 48.1839 22.771L47.8022 24.9947C47.7104 25.2624 47.6653 25.4703 47.6667 25.6184C47.6012 25.9781 47.4636 26.3796 47.2538 26.8229C47.0522 27.2631 46.8597 27.6068 46.6765 27.8541C46.6156 27.9612 46.538 28.0608 46.4435 28.153C46.3491 28.2452 46.2816 28.2991 46.2412 28.3147Z" fill="#47484E"/>
</g>
<defs>
<clipPath id="clip0">
<rect width="75.8954" height="34.2035" fill="white" transform="matrix(-0.947349 0.320202 0.320202 0.947349 71.8994 0)"/>
</clipPath>
</defs>
</svg>
