<svg width="83" height="57" viewBox="0 0 83 57" fill="none" xmlns="http://www.w3.org/2000/svg">
<g clip-path="url(#clip0)">
<path d="M70.8868 17.8668L72.25 4.88342L51.5067 8.45018L34.2045 14.0863L25.5078 17.8097L18.9852 20.6022L2.95011 29.2389L9.65002 36.9988L12.0447 52.8017L25.4977 46.1564L46.198 36.4082L63.4089 32.5824L80.5287 30.567L70.8868 17.8668Z" fill="white"/>
<path d="M78.5087 29.0055C77.7578 28.2221 77.0445 27.4013 76.3539 26.4988C75.6333 25.557 74.9127 24.5658 74.1921 23.5746C73.5767 22.696 72.9387 21.8004 72.2705 21.0137C71.7975 20.4574 71.2793 19.9658 70.7987 19.4367C70.4833 19.0988 70.1907 18.5803 70.1238 18.035C70.0939 17.8969 70.094 17.7487 70.1017 17.6226C70.1019 17.4744 70.1246 17.3432 70.1474 17.2121C70.17 17.1303 70.2002 17.0213 70.2229 16.9396C70.306 16.6399 70.3966 16.3623 70.5022 16.0796C70.6685 15.3814 70.7446 14.6148 70.8358 13.8431C70.9497 12.9896 71.041 12.1191 71.1549 11.2657C71.3527 9.42078 71.5505 7.57586 71.7634 5.72585C70.6053 5.82093 69.4398 5.89384 68.2667 5.99401C67.9358 6.00706 67.62 6.06443 67.2891 6.07748C66.9883 6.12977 66.6725 6.13773 66.3716 6.19002C65.7549 6.29968 65.1382 6.40934 64.5215 6.51901C63.6717 6.68278 62.8293 6.86872 62.002 7.04958C61.1746 7.23043 60.3623 7.45561 59.5499 7.68079C57.9855 8.0614 56.4661 8.52558 54.9166 8.95051C53.4724 9.38926 52.0131 9.8331 50.5614 10.2497C49.0119 10.724 47.4699 11.1711 45.9354 11.6404C44.3106 12.1402 42.6934 12.6621 41.0686 13.1619C39.5115 13.6635 37.9395 14.1207 36.3674 14.578C34.7878 15.0625 33.2381 15.6357 31.6885 16.2089C30.2742 16.7363 28.845 17.2194 27.4382 17.7689C25.9186 18.3813 24.399 18.9937 22.9168 19.717C21.3745 20.4605 19.8096 21.187 18.2522 21.9357C17.6051 22.2532 16.9731 22.5656 16.3336 22.9052C15.6038 23.2754 14.8739 23.6455 14.1591 24.06C12.7294 24.8889 11.3072 25.7895 9.89999 26.6849C9.26038 27.074 8.65079 27.5023 8.02616 27.9357C7.89082 27.932 7.76297 27.9505 7.63513 27.9691C7.48474 27.9705 7.34185 27.9941 7.18392 28.0228C7.13129 28.0159 7.08616 28.0311 7.04102 28.0464C6.94326 28.0547 6.84551 28.0631 6.75524 28.0936C6.72515 28.1038 6.68001 28.119 6.63488 28.1343C6.63488 28.1343 6.61983 28.1394 6.60479 28.1444C6.5747 28.1546 6.54461 28.1648 6.49948 28.18C6.46939 28.1902 6.4393 28.2004 6.4167 28.2327C6.37157 28.248 6.33393 28.2854 6.30377 28.345C6.30377 28.345 6.28873 28.35 6.29622 28.3722C5.98778 28.5012 5.67177 28.6574 5.37831 28.8306C4.99458 29.0344 4.6259 29.2331 4.25721 29.4318C4.05408 29.5252 3.86599 29.6134 3.67035 29.729C3.6553 29.734 3.62522 29.7442 3.61017 29.7493L3.61766 29.7715C4.39873 30.4953 5.19497 31.1152 5.96862 31.7674C6.34417 32.085 6.71217 32.4298 7.08017 32.7746C7.49325 33.1536 7.90631 33.5326 8.29679 33.9439C8.66472 34.3382 9.03267 34.7324 9.39305 35.1539C9.59581 35.357 9.76093 35.5975 9.93354 35.8602C10.0611 36.0394 10.1586 36.2781 10.241 36.4725C10.346 36.6839 10.3984 36.9379 10.4733 37.1595C10.6229 37.751 10.6748 38.3509 10.7417 38.9456C10.8904 40.2783 11.0166 41.5939 11.1427 42.9095C11.1947 43.4105 11.2542 43.9337 11.3137 44.4569C11.4922 46.0265 11.6932 47.6131 11.8867 49.1776C12.0218 49.3789 12.1193 49.6176 12.1565 49.8766C12.1939 50.0863 12.2162 50.301 12.261 50.5328C12.2985 50.5942 12.3285 50.6334 12.351 50.6999C12.3434 50.7766 12.3283 50.8311 12.3132 50.8856C12.3207 50.9077 12.3207 50.9077 12.3056 50.9128C12.3355 51.0509 12.3429 51.1719 12.3577 51.315C12.6135 51.2286 12.8768 51.1643 13.125 51.0557C13.3808 50.9693 13.629 50.8606 13.8999 50.7691C13.9149 50.764 13.945 50.7539 13.9826 50.7659C14.0879 50.7303 14.2082 50.6896 14.3135 50.654C14.3587 50.6387 14.4113 50.6456 14.4564 50.6304C14.9831 50.3536 15.5323 50.1433 16.0589 49.9159C17.5108 49.3511 18.9776 48.88 20.317 48.0815C21.0093 47.65 21.6641 47.157 22.3414 46.7305C23.0563 46.2666 23.7861 45.8471 24.501 45.4326C25.2083 45.0454 25.893 44.6411 26.5927 44.2811C27.3075 43.916 27.9997 43.5833 28.7294 43.2625C31.686 41.9915 34.6277 40.6762 37.6143 39.4445C39.1038 38.8423 40.6009 38.2622 42.1054 37.7043C43.6851 37.1209 45.2274 36.4268 46.8071 35.8929C46.8823 35.8674 46.9425 35.8471 47.0177 35.8217C48.4695 35.3557 49.9588 34.9511 51.4705 34.6624C53.1702 34.3348 54.8473 34.0396 56.5545 33.7836C57.5397 33.6235 58.5024 33.4463 59.4801 33.264C60.2773 33.0933 61.0746 32.9226 61.8718 32.7519C62.654 32.5864 63.4137 32.3543 64.1884 32.1665C64.933 31.9889 65.6702 31.7892 66.4148 31.6116C67.2496 31.4035 68.0695 31.2004 68.9193 31.0367C69.4232 30.9404 69.9271 30.8442 70.431 30.748C70.7244 30.6735 71.0252 30.6212 71.326 30.5689C72.1307 30.4698 72.9354 30.3213 73.7701 30.2614C74.289 30.2095 74.8154 30.1798 75.3343 30.1279C75.6276 30.1029 75.9133 30.0556 76.2141 30.0528C76.748 30.0452 77.2818 30.0376 77.7932 30.013C78.109 30.005 78.4173 29.9749 78.7481 30.0112C79.0037 30.0236 79.2594 30.036 79.4999 30.0535C79.1771 29.6934 78.8467 29.3605 78.5087 29.0055ZM82.166 32.585C81.1436 32.4366 80.1436 32.4042 79.1286 32.3274C79.0234 32.3136 78.9106 32.3271 78.8128 32.3354C78.5346 32.3554 78.2489 32.3532 77.9632 32.3509C77.497 32.3603 77.0383 32.3919 76.5871 32.3962C76.2187 32.3973 75.8502 32.4477 75.4892 32.471C75.038 32.5247 74.5943 32.5512 74.1356 32.5827C73.7671 32.6332 73.3986 32.6837 73.0452 32.729C72.6015 32.8049 72.1352 32.8638 71.684 32.9175C71.3155 32.9679 70.962 33.0627 70.5935 33.1132C70.2174 33.1909 69.8564 33.2635 69.4804 33.3413C67.9611 33.7066 66.4417 34.072 64.945 34.4544C63.3053 34.8604 61.6731 35.2886 60.011 35.5788C59.304 35.7189 58.582 35.8642 57.8676 35.9822C57.1757 36.0679 56.4913 36.1757 55.7919 36.2887C54.3855 36.5418 52.9641 36.7999 51.5577 37.053C50.8131 37.2306 50.0534 37.4133 49.3238 37.6352C48.8951 37.7554 48.4663 37.8757 48.0601 38.013C47.669 38.1452 47.2703 38.2552 46.9017 38.4045C46.1043 38.7234 45.2918 39.0474 44.4944 39.3663C43.8173 39.6446 43.1252 39.8785 42.4557 40.1295C39.4542 41.2675 36.4901 42.5163 33.541 43.8094C32.0213 44.4712 30.4941 45.1109 28.9819 45.7949C28.2521 46.1156 27.5299 46.4585 26.8376 46.8407C26.1228 47.2552 25.4005 47.6475 24.6856 48.062C23.9558 48.4815 23.2484 48.9182 22.541 49.4042C22.2174 49.6371 21.9088 49.8649 21.5777 50.0755C21.224 50.3186 20.8328 50.5002 20.4716 50.7211C19.7794 51.1032 19.0271 51.3575 18.2974 51.6288C17.6053 51.9121 16.8907 52.1784 16.1986 52.4617C16.0932 52.4973 15.9954 52.555 15.9052 52.5855C15.8298 52.7098 15.7695 52.829 15.6792 52.9089C15.6039 52.9837 15.5211 53.0364 15.4383 53.0891C15.3556 53.1417 15.2652 53.2217 15.1825 53.2743C15.0395 53.3473 14.904 53.4425 14.7611 53.5155C14.6859 53.541 14.6106 53.5664 14.5579 53.6089C14.1818 53.736 13.8057 53.8631 13.4371 54.0124C13.2265 54.0836 13.0158 54.1548 12.7977 54.2532C12.7526 54.2191 12.7 54.1628 12.6475 54.1065C12.5045 54.1795 12.3616 54.2525 12.2186 54.3255C12.1735 54.3407 12.1509 54.3731 12.1208 54.3833C11.8876 54.4868 11.6543 54.5903 11.4211 54.6938C11.3008 54.7345 11.1728 54.8024 11.06 54.8653C10.8799 54.5804 10.745 54.2309 10.7003 53.9003C10.6555 53.619 10.6408 53.3771 10.6562 53.1249C10.6714 52.9222 10.6943 52.6922 10.7096 52.4895C10.6947 52.3958 10.6872 52.3242 10.6798 52.2526C10.6726 51.9834 10.6504 51.7192 10.6131 51.4602C10.5759 51.1517 10.5613 50.8603 10.5315 50.574C10.3232 48.8664 10.0922 47.1911 9.90634 45.5006C9.66069 43.5339 9.4902 41.5912 9.28213 39.6365C9.2674 39.3946 9.23762 39.1577 9.20784 38.9208C9.14835 38.3976 9.09641 37.8472 8.98429 37.3171C8.96182 37.2506 8.93185 37.1619 8.89434 37.1005C8.88685 37.0783 8.87936 37.0562 8.87186 37.034C8.68415 36.8258 8.51897 36.6347 8.33874 36.4487C8.12849 36.2234 7.91824 35.9981 7.70799 35.7728C7.43769 35.4691 7.14479 35.1976 6.84439 34.904C6.4764 34.5592 6.1084 34.2144 5.74788 33.8917C5.37233 33.5741 4.98173 33.2616 4.59113 32.9492C4.18555 32.5923 3.76493 32.2406 3.35935 31.8838C3.14155 31.6858 2.91625 31.4656 2.706 31.2403C2.49575 31.015 2.28562 30.6909 2.11307 30.3788C1.93304 30.0445 1.79071 29.6234 1.70849 29.2314C1.67116 29.0217 1.66399 28.7525 1.70181 28.5669C1.75475 28.3267 1.8226 28.1803 1.9356 28.0186C2.08629 27.7701 2.34954 27.7059 2.56022 27.5853C2.73327 27.5021 2.90632 27.4189 3.06432 27.3408C3.38031 27.1846 3.69631 27.0284 4.00482 26.85C4.33586 26.6888 4.63688 26.4882 4.96792 26.3269C5.31401 26.1606 5.66759 26.0164 6.02117 25.8722C6.43493 25.7076 6.83364 25.5482 7.24739 25.3836C7.24739 25.3836 7.24739 25.3836 7.26244 25.3785C7.36775 25.3429 7.473 25.3568 7.58575 25.3927C7.95449 25.1446 8.32323 24.8965 8.70703 24.6433C9.41437 24.2067 10.1293 23.7428 10.8517 23.3011C11.4913 22.912 12.1384 22.4957 12.7781 22.1066C13.4929 21.6922 14.2152 21.2998 14.945 20.9297C16.3595 20.2046 17.7815 19.5018 19.211 18.821C20.7458 18.1047 22.2506 17.3491 23.8004 16.6772C25.3502 16.0052 26.9224 15.3997 28.4947 14.7942C29.2243 14.5228 29.9615 14.2737 30.6987 14.0245C31.3833 13.7684 32.0603 13.4902 32.7524 13.2563C33.3391 13.0579 33.9184 12.8375 34.5051 12.6392C34.6706 12.5832 34.8361 12.5273 35.0166 12.4663C35.844 12.236 36.6639 11.9836 37.5064 11.7482C39.0935 11.2859 40.6656 10.7792 42.2377 10.2725C45.2541 9.32707 48.2929 8.44813 51.3017 7.52994C52.8663 7.05051 54.4308 6.57108 56.0104 6.13597C57.6877 5.69252 59.365 5.24907 61.0498 4.82778C61.8847 4.61968 62.7195 4.46099 63.5469 4.28013C64.3291 4.11453 65.1262 3.99326 65.9159 3.84983C66.3296 3.78411 66.7732 3.75763 67.1943 3.71407C67.5027 3.68394 67.811 3.65382 68.1193 3.62369C69.0066 3.57073 69.909 3.51269 70.8039 3.43248C71.2325 3.41108 71.6536 3.36753 72.0973 3.34105C72.5033 3.30257 72.9612 3.91336 73.0808 4.51503C73.1406 4.79116 73.1177 5.02114 73.0423 5.1948C73.1024 5.27328 73.1474 5.35685 73.1924 5.44042C73.1318 5.80664 73.0937 6.18994 73.0556 6.57324C73.0403 6.82538 73.0174 7.10477 72.9944 7.38417C72.9866 7.65847 72.9562 7.9157 72.9558 8.21217C72.9331 8.34332 73.0457 8.47813 73.1359 8.49703C73.1359 8.49703 73.1359 8.49703 73.1434 8.51919C72.9912 9.95357 72.8165 11.3709 72.6643 12.8052C72.5427 13.7847 72.4212 14.7642 72.2997 15.7437C72.2465 16.1815 72.1933 16.6193 72.1101 17.0179C72.0344 17.3892 71.9137 17.7263 71.808 18.0584C71.8455 18.1198 71.8906 18.154 71.9432 18.2103C72.1459 18.4134 72.3487 18.6165 72.5364 18.8247C72.8818 19.2019 73.2271 19.6285 73.5499 20.0379C74.2331 20.9183 74.8785 21.8361 75.5391 22.7489C76.2371 23.723 76.9427 24.6699 77.686 25.5793C78.3766 26.4325 79.09 27.2039 79.8334 27.9651C79.856 27.9822 79.8785 27.9993 79.8935 28.0436C79.9836 28.1613 80.0811 28.3012 80.1712 28.4189C80.539 28.9614 80.8992 29.4817 81.267 30.0242C81.3871 30.1812 81.5147 30.3603 81.6348 30.5173C81.7699 30.7185 81.8975 30.8977 82.0476 31.0939C82.2728 31.4129 82.4905 31.7098 82.7156 32.0288C82.6475 32.3728 82.4442 32.6144 82.166 32.585Z" fill="#CD2A47"/>
<path d="M30.0952 34.6578L30.0933 34.6167C30.062 34.5359 29.9761 34.5179 29.8356 34.5629C29.6252 34.5234 29.4185 34.4452 29.2155 34.3285C29.0206 34.2087 28.8739 34.0934 28.7755 33.9828C28.669 33.8753 28.6141 33.8175 28.611 33.8094C28.6016 33.7851 28.606 33.7602 28.624 33.7347C28.6501 33.7061 28.6786 33.6718 28.7097 33.6319C28.7426 33.5728 28.7874 33.5323 28.844 33.5104C28.8763 33.4979 28.9124 33.5072 28.9523 33.5383C28.9971 33.5581 29.0609 33.6032 29.1438 33.6734C29.3063 33.8057 29.5251 33.8792 29.8002 33.8937C30.0721 33.9002 30.3577 33.8457 30.6568 33.7302C31.0206 33.5898 31.3321 33.3859 31.5912 33.1186C31.7671 32.9486 31.8879 32.8043 31.9537 32.686C32.0164 32.5596 32.0275 32.4439 31.9869 32.3388C31.9494 32.2418 31.8597 32.1417 31.7177 32.0386C31.6685 31.9833 31.6103 31.9407 31.543 31.911C31.4807 31.87 31.3951 31.8287 31.2862 31.7871C31.2221 31.7655 31.0948 31.7124 30.9042 31.628C30.7562 31.6295 30.5978 31.6163 30.4291 31.5885L30.1276 31.5656C29.8719 31.5528 29.5532 31.4854 29.1716 31.3633C28.795 31.23 28.5238 31.0932 28.3582 30.9527C28.2044 30.8913 28.0593 30.7801 27.9228 30.6192C27.7863 30.4582 27.6759 30.2685 27.5917 30.0502C27.4793 29.7592 27.4369 29.469 27.4645 29.1796C27.4773 28.9238 27.5745 28.5379 27.7561 28.0219C27.9378 27.5058 28.0941 27.1528 28.2252 26.9629L28.4234 26.5379C28.419 26.5025 28.4249 26.4816 28.4411 26.4754C28.4541 26.461 28.4647 26.4523 28.4728 26.4492C28.4908 26.4237 28.5617 26.3545 28.6853 26.2417C28.8059 26.1209 28.9174 25.9524 29.0198 25.7364C29.4665 25.2573 29.8338 24.8972 30.1216 24.656C30.4143 24.4036 30.6699 24.2353 30.8882 24.151C31.2016 24.0486 31.4978 24.0457 31.7767 24.1424C32.0605 24.2279 32.2773 24.4044 32.427 24.6717C32.4619 24.714 32.4981 24.7836 32.5355 24.8807C32.6479 25.1717 32.6645 25.5276 32.5854 25.9483C32.5032 26.361 32.3583 26.6956 32.1508 26.9522C31.983 27.1192 31.8587 27.2183 31.7779 27.2495C31.7213 27.2714 31.673 27.2668 31.6332 27.2357C31.6014 27.2015 31.5724 27.1384 31.5461 27.0464C31.518 26.9736 31.5111 26.8834 31.5253 26.7757C31.5444 26.6568 31.6064 26.4564 31.7112 26.1744C31.8585 25.5694 31.8869 25.1497 31.7964 24.9152C31.7433 24.7778 31.6546 24.7284 31.5302 24.7671C31.4319 24.7772 31.2133 24.8848 30.8744 25.09C30.5437 25.292 30.3861 25.4132 30.4017 25.4537C30.4048 25.4617 30.407 25.4795 30.4083 25.5068C30.4145 25.523 30.404 25.5317 30.3766 25.533C30.3411 25.5374 30.1075 25.8227 29.6758 26.3889C29.241 26.9469 29.0233 27.2493 29.0227 27.296C29.0302 27.3395 29.015 27.3965 28.9772 27.4668C28.9443 27.526 28.8977 27.5858 28.8374 27.6462C28.7181 27.7945 28.6266 27.9784 28.5628 28.1982C28.499 28.4179 28.439 28.7198 28.3829 29.1038C28.3389 29.2787 28.3158 29.4594 28.3135 29.6461C28.3194 29.8297 28.3473 29.9861 28.3972 30.1155C28.4316 30.2044 28.4733 30.2765 28.5226 30.3319C28.616 30.4537 28.8069 30.5751 29.0952 30.6961C29.3803 30.8089 29.7164 30.8975 30.1035 30.9617C30.6064 31.037 31.039 31.1347 31.4012 31.255C31.7685 31.364 32.0182 31.4813 32.1502 31.6068C32.4361 31.7938 32.6399 32.0449 32.7616 32.3602C32.8053 32.4734 32.8338 32.5832 32.847 32.6896C32.8353 32.852 32.7858 33.0244 32.6983 33.2068C32.6139 33.3973 32.5216 33.5073 32.4215 33.5367C32.35 33.5921 32.2922 33.647 32.2481 33.7011C32.2071 33.7634 32.1695 33.8104 32.1354 33.8422C32.0683 33.9332 31.8712 34.0603 31.5441 34.2238C31.2282 34.3922 30.9257 34.5229 30.6365 34.616L30.0952 34.6578Z" fill="#47484E"/>
<path d="M34.2112 32.999C34.1036 32.9848 34.0217 32.9653 33.9657 32.9405C33.9177 32.9125 33.8813 32.8662 33.8563 32.8015C33.8251 32.7207 33.8137 32.595 33.8222 32.4245C33.8357 32.2428 33.8649 31.9575 33.9098 31.5685C33.9177 31.4447 33.9389 31.2228 33.9733 30.903C34.0958 29.8245 34.1414 29.2448 34.1102 29.164C34.0959 29.1509 34.0825 29.1282 34.07 29.0959C34.0388 29.015 34.0753 28.9173 34.1797 28.8027C34.2939 28.5449 34.371 28.2875 34.4112 28.0305C34.4233 27.8214 34.4513 27.5691 34.4951 27.2735C34.5358 26.9698 34.5916 26.6091 34.6627 26.1915C34.6941 25.9843 34.7445 25.6815 34.8136 25.2832C34.9068 24.634 35.0661 23.9037 35.2915 23.092C35.3807 22.7696 35.4875 22.589 35.6119 22.5502C35.7655 22.4909 35.9634 22.4981 36.2055 22.5719C36.4526 22.6344 36.6469 22.7406 36.7884 22.8903C36.8425 22.9344 36.9055 23.0495 36.9773 23.2354C37.0741 23.4861 37.2097 23.9215 37.3841 24.5416C37.4085 24.6529 37.4563 24.8249 37.5275 25.0576C37.6437 25.4307 37.7572 25.8329 37.8679 26.2639C38.1285 27.2038 38.337 27.9362 38.4932 28.4612C38.6495 28.9861 38.8134 29.4709 38.9851 29.9156C39.0725 30.142 39.1405 30.3062 39.1892 30.4082L39.222 30.4931L39.3175 30.7767C39.2877 30.8439 39.2243 30.8963 39.1273 30.9337C39.0141 30.9774 38.8941 30.9913 38.7671 30.9753C38.6433 30.9673 38.5592 30.9301 38.515 30.8636C38.5038 30.8586 38.4885 30.8552 38.4692 30.8534C38.4499 30.8515 38.4278 30.8183 38.4028 30.7536L38.3119 30.4821L38.0861 29.7889L37.3882 27.8008L37.2353 27.8738C37.0736 27.9363 36.7263 28.1075 36.1934 28.3876C35.6605 28.6676 35.3331 28.8544 35.2113 28.9479C35.1385 28.976 35.0683 29.0588 35.0006 29.1964C34.933 29.334 34.8884 29.4953 34.8669 29.6801C34.8738 29.7703 34.8625 29.9094 34.8329 30.0973C34.8001 30.2772 34.7884 30.3793 34.7978 30.4035C34.7618 30.4546 34.7345 30.5162 34.7159 30.5884C34.7023 30.6494 34.6946 30.6896 34.6927 30.7089C34.727 30.7978 34.7296 31.0569 34.7002 31.4863C34.679 31.9126 34.6344 32.2782 34.5663 32.5832L34.4615 33.0696L34.2112 32.999ZM35.2139 28.1247C35.2593 28.0979 35.3582 28.0411 35.5105 27.9544C35.6598 27.8597 35.7975 27.7833 35.9237 27.7252C36.4528 27.363 36.782 27.157 36.9113 27.107C36.9679 27.0852 37.0252 27.077 37.083 27.0825C37.1198 27.1055 37.1534 27.1204 37.1839 27.1272C37.2194 27.1228 37.2411 27.1191 37.2492 27.1159C37.2467 27.0612 37.1266 26.6059 36.8891 25.75C36.6565 24.8829 36.4912 24.3103 36.3931 24.0323L36.1954 23.4119C36.1469 23.4306 36.0777 23.5642 35.9878 23.8126C35.8979 24.061 35.8096 24.3737 35.723 24.7509C35.6413 25.1169 35.583 25.4832 35.548 25.8497C35.5233 26.0264 35.4955 26.1951 35.4646 26.3557C35.4387 26.505 35.4095 26.586 35.3772 26.5985C35.3425 26.6769 35.2933 26.9467 35.2298 27.4079C35.1663 27.869 35.161 28.108 35.2139 28.1247Z" fill="#47484E"/>
<path d="M42.3297 29.8646C42.1531 29.9606 42.0163 30.0274 41.9192 30.0648C41.8303 30.0992 41.7367 30.1214 41.6384 30.1315C41.5513 30.1465 41.4707 30.1544 41.3967 30.1551C41.3258 30.1639 41.2726 30.1705 41.2371 30.1749C41.107 30.1508 40.9835 30.1196 40.8664 30.0811C40.7575 30.0396 40.6822 30.0129 40.6405 30.0011C40.628 29.9688 40.609 29.9436 40.5834 29.9256C40.5579 29.9076 40.5395 29.8961 40.5283 29.8912C40.496 29.9036 40.4427 29.8499 40.3685 29.7299C40.3024 29.6068 40.2335 29.4522 40.1617 29.2663C40.0836 29.0642 40.0224 28.8695 39.978 28.6822C39.9304 28.4869 39.9119 28.3547 39.9224 28.2856C39.9099 28.2533 39.8977 28.1976 39.8858 28.1186C39.882 28.0365 39.8754 27.9833 39.866 27.959C39.841 27.8944 39.8263 27.8443 39.8219 27.8088C39.8144 27.7653 39.8228 27.7388 39.847 27.7295C39.8551 27.7263 39.8657 27.7176 39.8787 27.7033C39.8918 27.689 39.8952 27.6737 39.8889 27.6575C39.8733 27.6171 39.863 27.5421 39.8578 27.4326C39.8527 27.3231 39.8473 27.237 39.8417 27.1741C39.8521 27.105 39.8528 26.9143 39.8437 26.602C39.8324 26.4763 39.8284 26.3338 39.832 26.1745C39.8094 26.0439 39.7979 25.7975 39.7974 25.4354L39.7895 25.09C39.8278 24.8523 39.8282 24.6849 39.7907 24.5879C39.7849 24.4043 39.8312 23.8384 39.9295 22.89C40.0359 21.9384 40.1186 21.3584 40.1774 21.1499C40.2394 20.9494 40.2949 20.8165 40.344 20.7511C40.3899 20.6776 40.4533 20.6253 40.5342 20.5941C40.6082 20.5934 40.7197 20.6293 40.8685 20.7019C41.0141 20.7664 41.1035 20.8295 41.1366 20.891C41.1491 20.9234 41.1231 21.0728 41.0587 21.3392C40.9993 21.5943 40.9315 21.8156 40.8552 22.003C40.8484 22.0335 40.8456 22.0625 40.8469 22.0898C40.8482 22.1172 40.8504 22.1349 40.8535 22.143C40.8344 22.2619 40.8026 22.4925 40.7583 22.8348C40.7189 23.1658 40.7098 23.383 40.7311 23.4863C40.6778 23.6369 40.6407 24.1064 40.62 24.8948C40.6061 25.2439 40.5942 25.4297 40.5843 25.4521C40.6217 25.5491 40.6312 25.6337 40.6126 25.7059C40.612 25.7526 40.6159 25.8951 40.6243 26.1334C40.6408 26.3686 40.6396 26.6059 40.6206 26.8455C40.6514 27.0938 40.6638 27.3305 40.6579 27.5558C40.6569 27.7698 40.6415 27.9104 40.6118 27.9777C40.6094 28.0436 40.6088 28.0903 40.6101 28.1177C40.6194 28.1419 40.6387 28.1438 40.6679 28.1232C40.6828 28.0896 40.6943 28.0712 40.7024 28.0681C40.7105 28.065 40.7177 28.0715 40.7239 28.0877C40.7333 28.1119 40.7302 28.1642 40.7148 28.2445C40.7151 28.4859 40.7527 28.7036 40.8276 28.8977C40.9468 29.1583 41.0518 29.3221 41.1428 29.3892C41.2337 29.4562 41.3721 29.4539 41.5581 29.3821C41.9381 29.2354 42.374 28.9928 42.8657 28.6543C43.0771 28.4798 43.2838 28.3535 43.4859 28.2755C43.7042 28.1912 43.8741 28.186 43.9955 28.2599C44.0609 28.309 44.1054 28.3522 44.1291 28.3895C44.1578 28.4156 44.183 28.4569 44.2049 28.5135C44.1845 28.605 43.934 28.8225 43.4534 29.1659C42.9729 29.5094 42.5983 29.7423 42.3297 29.8646Z" fill="#47484E"/>
<path d="M47.5797 27.9073C47.1997 28.054 46.8791 28.1499 46.6178 28.1951C46.3678 28.2452 46.1217 28.2333 45.8795 28.1596C45.6822 28.1057 45.5191 28.0201 45.3901 27.9026C45.2692 27.7821 45.1667 27.6126 45.0824 27.3943C44.9731 27.1114 44.8902 26.716 44.8335 26.2084C44.7928 25.9826 44.7686 25.7875 44.7609 25.6233C44.7582 25.4478 44.7771 25.3523 44.8175 25.3367L44.7291 24.8552C44.7185 24.8035 44.7097 24.7326 44.7027 24.6424C44.6927 24.5441 44.6879 24.4716 44.6885 24.4249C44.689 24.3783 44.6992 24.3325 44.7191 24.2877C44.7421 24.251 44.7484 24.1231 44.7382 23.9041C44.7319 23.8879 44.7219 23.85 44.7082 23.7902C44.6944 23.7305 44.6897 23.658 44.6939 23.5728C44.7371 23.3238 44.7463 23.167 44.7213 23.1023C44.72 23.075 44.7336 23.014 44.7621 22.9194C44.7906 22.8247 44.8023 22.7227 44.7972 22.6132C44.9619 21.4998 45.0204 20.7851 44.9727 20.4691C44.9787 20.2438 45.0074 20.0655 45.0589 19.9341C45.0159 19.895 45.0531 19.8109 45.1705 19.682C45.2961 19.5499 45.4636 19.4063 45.6731 19.2511C45.8826 19.0959 46.0893 18.9696 46.2933 18.8723C46.3293 18.8212 46.4291 18.7548 46.5926 18.6731C46.7561 18.5914 46.943 18.5099 47.1532 18.4288C47.2988 18.3726 47.504 18.3026 47.769 18.2189C47.8983 18.169 48.0137 18.143 48.1151 18.141C48.2215 18.1278 48.3189 18.1274 48.4073 18.1397C48.4925 18.1439 48.5544 18.1479 48.593 18.1516C48.6603 18.1814 48.7232 18.2361 48.7818 18.3156C48.8372 18.3871 48.8697 18.435 48.879 18.4592C48.8946 18.4997 48.811 18.5598 48.6282 18.6397C48.4534 18.7164 48.1882 18.8235 47.8325 18.9608C47.5333 19.0763 47.1876 19.2516 46.7952 19.4867C46.651 19.5703 46.5465 19.6245 46.4818 19.6495C46.3973 19.7193 46.3162 19.7739 46.2385 19.8132C46.1607 19.8525 46.1097 19.8768 46.0855 19.8862C46.0531 19.8986 45.9928 20.1635 45.9045 20.6807C45.8131 21.1898 45.7742 21.4742 45.788 21.5339C45.8161 21.6067 45.8215 21.6928 45.8042 21.7924C45.7869 21.892 45.7504 22.0501 45.6946 22.2667C45.6457 22.4528 45.6369 22.5863 45.6681 22.6671C45.6931 22.7318 45.7329 22.7629 45.7877 22.7603C46.0227 22.6231 46.3118 22.4697 46.6551 22.3C47.0033 22.1191 47.2623 21.9959 47.4321 21.9303C47.5036 21.8749 47.5717 21.8346 47.6364 21.8097C47.7495 21.766 47.8656 21.7537 47.9844 21.7728C48.0796 21.7547 48.1552 21.758 48.2113 21.7828C48.2723 21.7964 48.3106 21.8234 48.3262 21.8639C48.348 21.9205 48.3313 21.9734 48.276 22.0226C48.2313 22.1234 48.0206 22.3116 47.6439 22.5871C47.2672 22.8626 46.8671 23.1379 46.4437 23.4128C46.0253 23.6766 45.7847 23.8113 45.7218 23.8169C45.6726 23.7616 45.643 23.7452 45.6331 23.7676C45.6281 23.7788 45.6286 23.8762 45.6344 24.0597C45.6371 24.2352 45.633 24.4412 45.6221 24.6776C45.6033 25.0379 45.605 25.3671 45.6271 25.6651C45.6462 25.955 45.6967 26.3025 45.7787 26.7074C45.8051 26.9202 45.8293 27.0549 45.8511 27.1115C45.8948 27.2247 45.9662 27.3133 46.0652 27.3772C46.1692 27.43 46.3201 27.46 46.518 27.4672C46.6648 27.4384 46.8312 27.3881 47.0171 27.3163C47.3648 27.182 47.7099 26.9931 48.0524 26.7493C48.1537 26.6266 48.2565 26.508 48.3609 26.3933C48.4734 26.2756 48.5492 26.1952 48.5883 26.1522C48.6418 26.1223 48.6977 26.0868 48.7562 26.0456C48.8227 26.0014 48.8802 25.9699 48.9287 25.9511C48.9591 25.8372 49.0228 25.7616 49.1198 25.7241C49.144 25.7147 49.2377 25.7529 49.4009 25.8385C49.564 25.9242 49.6478 25.9848 49.6522 26.0202C49.6834 26.1011 49.6403 26.206 49.5228 26.3349C49.4104 26.4527 49.1515 26.6966 48.7463 27.0667C48.4629 27.3434 48.2603 27.5284 48.1385 27.6219C48.0166 27.7154 47.8304 27.8105 47.5797 27.9073Z" fill="#47484E"/>
</g>
<defs>
<clipPath id="clip0">
<rect width="75.8954" height="34.2035" fill="white" transform="matrix(-0.947349 0.320202 0.320202 0.947349 71.8994 0)"/>
</clipPath>
</defs>
</svg>
