<svg width="190" height="81" viewBox="0 0 190 81" fill="none" xmlns="http://www.w3.org/2000/svg">
<g clip-path="url(#clip0)">
<path d="M61.8345 49.8986C61.8019 49.9081 61.7715 49.924 61.7451 49.9455C61.6672 50.0275 61.6779 50.3114 61.7858 50.299C61.8936 50.2866 61.8978 49.9425 61.8345 49.8986Z" fill="#885574"/>
<path d="M61.9042 50.5047C61.8538 50.5105 61.8317 50.5715 61.9249 50.685C61.9711 50.6432 61.9617 50.4981 61.9042 50.5047Z" fill="#885574"/>
<path d="M66.2897 37.0107C66.2435 37.0526 66.2601 37.1969 66.3104 37.1911C66.3608 37.1853 66.3829 37.1243 66.2897 37.0107Z" fill="#885574"/>
<path d="M66.3594 37.8068C66.3933 37.813 66.4284 37.809 66.46 37.7952C66.5316 37.7212 66.5272 37.4293 66.4185 37.4345C66.3099 37.4397 66.3256 37.7668 66.3594 37.8068Z" fill="#885574"/>
<path d="M79.1233 52.5084C79.1736 52.5026 79.1794 52.3631 79.1059 52.3569C79.0323 52.3508 79.0517 52.3924 79.1233 52.5084Z" fill="#885574"/>
<path d="M79.1581 51.8612C79.1266 51.8585 79.0948 51.8622 79.0647 51.8719C78.9762 51.926 78.9444 52.1562 79.0243 52.1544C79.1042 52.1525 79.1991 51.9003 79.1581 51.8612Z" fill="#885574"/>
<path d="M72.0367 46.1889C72.123 46.179 72.139 46.0017 72.0591 46.0036C71.9792 46.0055 71.9056 46.1894 71.9449 46.2141C71.9765 46.21 72.0074 46.2015 72.0367 46.1889Z" fill="#885574"/>
<path d="M71.9327 45.7915C71.8896 45.7965 71.886 45.8919 71.9435 45.8853C72.001 45.8787 72.0129 45.8554 71.9327 45.7915Z" fill="#885574"/>
<path d="M83.6084 40.6404C83.6587 40.6346 83.6816 40.5808 83.5909 40.4889C83.5583 40.5219 83.5652 40.6454 83.6084 40.6404Z" fill="#885574"/>
<path d="M99.3524 31.7174C99.3474 31.6741 99.3391 31.602 99.2893 31.5492C99.2396 31.4965 99.2827 31.4915 99.2266 31.6368C99.1704 31.7822 99.1978 31.8302 99.2548 31.8821C99.3117 31.9341 99.429 31.8767 99.3524 31.7174Z" fill="#885574"/>
<path d="M53.5778 13.9552C53.5202 13.9618 53.4915 13.9651 53.5852 14.0202C53.679 14.0752 53.6209 13.9503 53.5778 13.9552Z" fill="#885574"/>
<path d="M53.5503 13.7171C53.5188 13.7165 53.4874 13.7201 53.4569 13.7279C53.3706 13.7378 53.364 13.8701 53.4718 13.8577C53.5797 13.8453 53.588 13.7274 53.5503 13.7171Z" fill="#885574"/>
<path d="M62.938 11.6654C62.8876 11.6711 62.8589 11.6744 62.9438 11.7159C63.0287 11.7573 62.9803 11.6532 62.938 11.6654Z" fill="#885574"/>
<path d="M62.9108 11.493L62.8174 11.5038C62.7311 11.5137 62.7363 11.6227 62.829 11.6048C62.9216 11.5868 62.9485 11.5033 62.9108 11.493Z" fill="#885574"/>
<path d="M69.3442 10.3585C69.3873 10.3535 69.3823 10.3102 69.34 10.3224C69.2977 10.3346 69.2634 10.3531 69.3442 10.3585Z" fill="#885574"/>
<path d="M68.8284 5.55674L68.7709 5.56335C68.7709 5.56335 68.735 5.56749 68.7062 5.5708C68.6774 5.5741 68.7112 5.61408 68.7128 5.62851C68.7145 5.64294 68.915 5.61257 68.8284 5.55674Z" fill="#885574"/>
<path d="M69.3171 10.1862L69.2308 10.1961C69.1446 10.206 69.1401 10.2942 69.24 10.2754C69.3398 10.2567 69.3539 10.1892 69.3171 10.1862Z" fill="#885574"/>
<path d="M82.0637 5.98647L81.9987 5.92816C81.9987 5.92816 81.9987 5.92816 81.934 5.9356C81.8693 5.94304 81.944 6.02217 81.9465 6.04381C81.949 6.06546 82.1511 6.04952 82.0637 5.98647Z" fill="#885574"/>
<path d="M95.6246 11.5907C95.6749 11.5849 95.7647 11.4795 95.7352 11.4756C95.7036 11.4744 95.6721 11.4781 95.6417 11.4864C95.5587 11.5252 95.5463 11.607 95.6246 11.5907Z" fill="#885574"/>
<path d="M95.7441 11.6793C95.7944 11.6735 95.7886 11.623 95.7383 11.6288C95.6879 11.6345 95.6617 11.6595 95.7441 11.6793Z" fill="#885574"/>
<path d="M107.311 42.7099C107.277 42.7154 107.246 42.7318 107.222 42.7567C107.145 42.846 107.159 43.1587 107.267 43.1463C107.375 43.1339 107.353 42.7563 107.311 42.7099Z" fill="#885574"/>
<path d="M103.757 20.0341C103.751 19.9836 103.697 19.8948 103.675 19.8315C103.653 19.7682 103.631 19.7635 103.624 19.9544C103.617 20.1452 103.652 20.1997 103.659 20.2646C103.667 20.3295 103.859 20.227 103.757 20.0341Z" fill="#885574"/>
<path d="M107.397 43.5845C107.436 43.5434 107.425 43.3767 107.374 43.3825C107.324 43.3883 107.302 43.4493 107.397 43.5845Z" fill="#885574"/>
<path d="M101.301 71.1421C101.247 71.1118 101.198 71.0735 101.198 71.0735C101.198 71.0663 101.154 70.6839 101.147 70.5604C99.0275 68.1717 97.3308 65.4372 96.1301 62.4751C96.7315 62.384 97.3233 62.2721 97.9201 62.2035C100.97 61.6773 104.168 60.9806 106.416 58.8581C109.841 55.6353 109.98 50.3197 109.738 45.618C109.461 40.2161 108.995 34.8117 108.34 29.4047L108.328 29.3037L108.317 29.2099C108.306 29.1749 108.302 29.1382 108.305 29.1017C108.307 29.0384 108.299 28.9752 108.283 28.9141C108.273 28.8997 108.266 28.8829 108.264 28.8651C108.262 28.8474 108.264 28.8294 108.272 28.8131C108.039 26.793 107.763 24.7683 107.442 22.7389C107.027 19.6905 106.194 16.7139 104.968 13.8934C103.991 11.6566 102.595 9.62839 100.857 7.91886C100.814 7.98958 100.944 8.10621 100.829 8.11944C100.714 8.13267 100.713 8.12545 100.707 8.07495C100.707 8.06762 100.706 8.06033 100.703 8.05358C100.7 8.04684 100.696 8.04079 100.69 8.03585C100.685 8.03092 100.679 8.02722 100.672 8.02501C100.665 8.02279 100.657 8.02212 100.65 8.02303C100.536 8.04347 100.544 7.92556 100.638 7.91481C100.584 7.89174 100.629 7.83545 100.629 7.83545L100.624 7.79216C100.595 7.76268 100.562 7.73693 100.527 7.71551C100.378 7.7473 100.375 7.71844 100.369 7.66794L100.356 7.55251L100.35 7.50201C100.108 7.29595 99.8581 7.09072 99.6095 6.8927C99.6179 6.90527 99.6233 6.91971 99.625 6.93478C99.6267 6.94985 99.6248 6.96511 99.6194 6.97928C99.6142 7.06029 99.5265 7.12154 99.305 7.09584C99.0835 7.07015 99.2027 6.90293 99.4472 6.87482C99.4928 6.86744 99.5396 6.87487 99.5807 6.89601C97.6481 5.46015 95.4399 4.44215 93.0956 3.90643C92.4051 3.72999 91.7124 3.59766 91.0142 3.48059C90.9848 3.54244 90.9898 3.58573 90.9898 3.58573C90.9817 3.58218 90.9727 3.58084 90.9639 3.58186C90.955 3.58287 90.9466 3.5862 90.9395 3.59152C90.9508 3.62676 90.9652 3.62511 90.8933 3.63338C90.8214 3.64164 90.82 3.69297 90.9008 3.69831C90.9815 3.70364 90.914 3.81374 90.9149 3.82095C90.9157 3.82817 90.8704 3.87724 90.9207 3.87145C90.971 3.86567 90.9439 3.8834 90.7841 3.88716C90.6242 3.89092 90.6704 3.84906 90.6654 3.80578C90.6605 3.76249 90.7277 3.77669 90.6605 3.76249C90.5933 3.74829 90.6226 3.68644 90.6815 3.6285C90.7404 3.57055 90.7426 3.52644 90.6707 3.53471C90.6406 3.54488 90.6088 3.54854 90.5772 3.54546C90.5037 3.5393 90.5225 3.44942 90.564 3.43003C90.6054 3.41064 90.6005 3.36735 90.6005 3.36735C88.5258 3.08249 86.4308 2.97807 84.3386 3.05524C84.3369 3.05209 84.3357 3.05023 84.3352 3.04983C84.3272 3.04344 84.3352 3.04983 84.2633 3.05809C84.2884 3.05712 84.3135 3.05617 84.3386 3.05524C84.3638 3.10134 84.5094 3.42423 84.5211 3.52553C84.5599 3.59857 84.5697 3.68365 84.5484 3.76361C84.5086 3.98748 84.4835 4.0854 84.5244 4.12456C84.5355 4.13767 84.5439 4.15285 84.5492 4.16923C84.5544 4.18561 84.5564 4.20286 84.555 4.22C84.5535 4.23714 84.5488 4.25383 84.5409 4.26911C84.5331 4.28439 84.5223 4.29797 84.5092 4.30905C84.4597 4.32205 84.4663 4.37977 84.4763 4.46634C84.4862 4.55292 84.4489 4.60838 84.4489 4.60838C84.4419 4.60533 84.4342 4.60419 84.4267 4.60506C84.4191 4.60593 84.4119 4.60879 84.4058 4.61334C84.4058 4.61334 84.4193 4.60447 84.3554 4.61913C84.2915 4.63378 84.2877 4.66347 84.3612 4.66963C84.4348 4.67579 84.367 4.72013 84.372 4.76342C84.377 4.80671 84.3195 4.81332 84.377 4.80671C84.4345 4.80009 84.4066 4.81061 84.2476 4.82159C84.0886 4.83256 84.1323 4.76906 84.1323 4.76906C84.0291 4.75899 84.0651 4.75486 84.1207 4.66806C84.1762 4.58126 84.1762 4.58126 84.1115 4.5887L84.0109 4.60027C83.9301 4.59494 83.9658 4.52505 84.0001 4.50649C84.0344 4.48792 84.0512 4.50791 84.0302 4.45185C84.0092 4.39579 83.9821 4.41352 84.0595 4.39C84.137 4.36648 84.1289 4.36009 83.9658 4.33499C83.8971 4.32386 83.8294 4.3072 83.7634 4.28517C83.5999 4.19432 83.731 4.00381 83.9326 4.04641L84.0333 4.03484C84.0819 4.01462 83.9379 3.9654 83.8444 3.97615C83.726 3.96052 83.6956 3.9494 83.7531 3.94278C83.789 3.92585 83.8294 3.9212 83.8682 3.92955C83.976 3.91715 84.0136 3.92745 83.976 3.91715C83.9384 3.90686 83.9127 3.87327 83.9702 3.86665C84.0277 3.86004 83.9597 3.83862 83.8696 3.87823C83.7794 3.91783 83.7282 3.91641 83.7216 3.85869C83.715 3.80097 83.6303 3.82533 83.715 3.80097C83.7996 3.77662 83.7659 3.73664 83.7034 3.69997C83.6409 3.6633 83.6439 3.6264 83.6934 3.6134C83.7429 3.6004 83.7379 3.55711 83.7379 3.55711C83.7426 3.54706 83.7488 3.53784 83.7563 3.52972C83.7825 3.52814 83.8154 3.51653 83.8543 3.49255C83.9564 3.42965 83.8543 3.49255 83.8112 3.49751C83.7953 3.50127 83.7805 3.50858 83.7678 3.5189C83.7637 3.52223 83.7598 3.52585 83.7563 3.52972C83.7137 3.53229 83.6886 3.50846 83.684 3.46828C83.6865 3.45032 83.6833 3.43204 83.6749 3.41597C83.6665 3.3999 83.6534 3.38684 83.6373 3.37863C83.5604 3.34361 83.6881 3.3143 83.8048 3.3155C83.9215 3.3167 83.9334 3.2934 83.9141 3.25177C83.8947 3.21013 83.9179 3.22208 83.7725 3.22419C83.627 3.2263 83.5853 3.17993 83.7291 3.16339C83.7535 3.14084 83.7822 3.12347 83.8134 3.11234C83.8447 3.1012 83.8779 3.09653 83.911 3.09861L83.9052 3.04811C81.7148 3.13188 79.508 3.32717 77.3461 3.53193C72.2823 4.01191 67.1991 4.49168 62.0964 4.97126C62.0943 4.97618 62.0925 4.9812 62.091 4.9863L60.3811 5.13197L58.1306 5.39077C58.1527 5.51481 58.1671 5.6401 58.1738 5.76592C58.1771 5.79478 58.2222 5.87 58.1812 5.83085C58.1403 5.7917 58.1312 5.71234 58.1312 5.71234C58.0745 5.61803 58.0399 5.51202 58.03 5.40234C56.6306 5.58114 55.283 6.04714 54.0714 6.77131C54.0762 6.79752 54.0792 6.82404 54.0805 6.85067C54.0422 6.99644 54.0203 7.14607 54.0152 7.29677C54.0155 7.36252 53.966 7.75564 53.9726 7.81335C53.965 7.85472 53.9699 7.89744 53.9867 7.936L54.0008 8.05865C54.0008 8.05865 54.0177 8.83886 53.9113 9.94028C53.838 9.99987 53.7794 9.93352 53.7091 9.76616C53.6526 9.6522 53.6376 9.52203 53.6668 9.39822C53.711 9.08612 53.6098 8.58606 53.4948 8.59929C53.4597 8.59175 53.4271 8.5753 53.4001 8.55153C53.3732 8.52776 53.3527 8.49745 53.3408 8.4635C53.2722 8.31057 53.2722 8.31057 53.2041 8.47921C53.1683 8.55712 53.1483 8.64142 53.1452 8.72721C53.1467 8.79909 53.1403 8.87091 53.1262 8.94139C53.0654 9.1744 53.1849 10.3681 53.2086 11.1648C53.2003 11.0431 53.185 10.9103 53.1649 10.7352L53.0745 9.94879C53.042 9.76262 53.0204 9.57473 53.0097 9.38606C53.0046 9.24908 53.0083 9.11192 53.0208 8.97543C53.0255 8.76291 53.0742 7.79241 53.085 7.50608C52.7336 7.82622 52.4107 8.17643 52.1199 8.55273C52.1033 8.78855 52.124 8.96892 52.1323 9.04106L52.1555 9.24307L52.1738 9.40179C52.1716 9.70269 52.1916 10.0034 52.2335 10.3013L52.3165 11.0228L52.3696 11.4845C52.3809 11.5596 52.3721 11.6362 52.3441 11.7067C52.3004 11.7702 52.3046 11.8063 52.3262 11.9939C52.3613 12.2341 52.3771 12.4767 52.3732 12.7195C52.387 12.8906 52.3824 13.0627 52.3593 13.2328L52.3809 13.4203C52.4114 13.5083 52.4222 13.6019 52.4124 13.6945C52.3915 13.7794 52.4018 13.8691 52.4415 13.947C52.4778 14.1228 52.4983 14.3014 52.5029 14.4809L52.5966 15.2961C52.64 15.5729 52.6503 15.854 52.6273 16.1332C52.6063 16.2179 52.5967 16.305 52.5988 16.3923C52.5988 16.3923 52.77 17.184 52.7891 17.35C52.8305 17.4779 52.846 17.6128 52.8347 17.7468C52.791 17.8103 52.8032 17.8527 52.858 17.9488C52.9127 18.0448 52.9194 18.1025 52.9028 18.3383C52.8922 18.4601 52.9064 18.5828 52.9443 18.6991C52.9818 18.7953 53.0103 18.8948 53.0294 18.9963C53.0294 19.0206 53.0322 19.0448 53.0377 19.0684C53.0105 19.2871 53.0066 19.5081 53.0261 19.7277C53.0383 19.7701 53.0156 20.0797 53.0587 20.4549C53.0629 20.491 53.629 26.6173 53.965 30.2994C53.9469 30.3295 53.9359 30.3632 53.9326 30.3982C53.9321 30.4567 53.9739 30.5031 53.8796 30.5066C53.7853 30.5102 53.7642 30.6441 53.8588 30.7064C53.9005 30.7627 53.9266 30.829 53.9346 30.8987C53.9426 30.9683 53.9322 31.0389 53.9044 31.1032C53.9069 31.1248 53.8621 31.1153 53.9244 31.2763C53.9866 31.4373 53.9658 31.447 53.801 31.4075C53.6362 31.3679 53.673 31.181 53.6639 31.1016C53.6547 31.0222 53.7114 31.0084 53.6448 30.9357C53.5781 30.8629 53.6293 30.6743 53.6686 30.509C53.7078 30.3436 53.699 30.14 53.6904 30.1921C53.6818 30.2443 53.5969 30.2029 53.5969 30.2029C53.555 30.1221 53.5341 30.0319 53.5364 29.9409C53.5387 29.8498 53.564 29.7609 53.6099 29.6824C53.6613 29.5922 53.6776 29.4862 53.6558 29.3847C53.6333 29.2875 53.6448 29.1856 53.6882 29.0959C53.7628 28.985 53.757 28.9345 53.5842 28.6985C53.5002 28.5808 53.4294 28.4541 53.3732 28.3207C53.1758 27.744 53.2192 26.8545 53.4603 27.1777C53.5151 27.2737 53.5377 27.3442 53.5726 27.2671C53.6074 27.19 53.4313 26.9252 53.3408 26.899C53.2504 26.8729 53.2051 26.7319 53.228 26.6781C53.251 26.6243 53.2236 26.5762 53.3431 26.6648C53.4625 26.7534 53.4617 26.7462 53.4409 26.5659C53.4154 26.4818 53.4053 26.3938 53.4111 26.3061C53.4487 26.1264 53.3674 25.9895 53.2905 26.1446C53.2136 26.2996 53.1558 26.2405 53.1243 25.9663C53.0927 25.8711 53.0812 25.7704 53.0903 25.6705C53.126 25.4979 53.1054 25.3183 53.0314 25.1583C52.9919 25.0956 52.967 25.0247 52.9585 24.951C52.95 24.8773 52.9582 24.8027 52.9824 24.7326C53.0092 24.6491 53.0189 24.5609 53.0109 24.4735C52.9979 24.3787 53.0148 24.2821 53.0593 24.1975L53.0444 24.0676C52.9728 24.3317 52.889 24.1732 52.8525 23.8558C52.8571 23.6953 52.8387 23.5349 52.7977 23.3796C52.7123 23.2067 52.8115 23.0564 52.9429 23.1217C53.0742 23.187 53.0651 23.1077 53.0402 22.8912C53.0359 22.8416 53.0184 22.7941 52.9893 22.7537C52.9603 22.7132 52.921 22.6814 52.8754 22.6616C52.7161 22.6069 52.6428 22.2863 52.7925 22.3203C52.811 22.1647 52.8784 22.0546 52.9553 22.0896C52.9147 21.9261 52.9476 21.5788 53.0297 21.5328C53.1118 21.4868 53.1165 21.4643 53.0106 21.3669C52.9047 21.2694 52.8939 21.1756 52.8583 20.8654L52.8583 20.8654L52.7886 20.2594C52.7577 20.1245 52.7418 19.9865 52.7413 19.8481C52.7735 19.7196 52.7579 19.5836 52.6973 19.4658C52.5908 19.2368 52.613 19.1758 52.6633 19.17C52.7136 19.1642 52.7335 18.9572 52.6334 18.9103C52.5333 18.8633 52.5369 18.7678 52.616 18.7587C52.5038 18.5102 52.4719 18.2327 52.5247 17.9652C52.5559 17.8799 52.5668 17.7886 52.5564 17.6984C52.546 17.6082 52.5147 17.5216 52.465 17.4457C52.4428 17.4134 52.4288 17.3761 52.4243 17.3371C52.4199 17.2981 52.425 17.2586 52.4393 17.2221C52.4576 17.1296 52.4466 17.0338 52.4078 16.9479C52.3771 16.871 52.3132 16.6956 52.2847 16.5746C52.2562 16.4537 52.194 16.2927 52.1857 16.2205C52.1688 16.1726 52.1636 16.1213 52.1705 16.0709C52.1774 16.0205 52.1962 15.9725 52.2252 15.9309C52.267 15.8444 52.2884 15.7494 52.288 15.6532C52.2787 15.5882 52.2861 15.5219 52.3096 15.4607C52.3325 15.4069 52.3829 15.4011 52.1666 15.1043C51.9504 14.8076 51.9877 14.7521 52.1235 14.7292C52.2593 14.7062 52.2811 14.5795 52.1517 14.5943C52.1099 14.589 52.0696 14.5753 52.0332 14.5539C51.9968 14.5325 51.9652 14.5039 51.9402 14.4698C51.9151 14.4358 51.8972 14.397 51.8876 14.3559C51.8779 14.3147 51.8767 14.272 51.884 14.2304C51.9081 14.126 51.8955 14.0164 51.8483 13.9202C51.7869 13.7664 51.8077 13.5667 51.858 13.5609C51.9083 13.5551 51.8859 13.3603 51.8306 13.3228C51.8117 13.2797 51.8062 13.2319 51.8149 13.1857C51.8136 13.1626 51.8072 13.1401 51.796 13.1199C51.7849 13.0996 51.7693 13.0822 51.7504 13.0689C51.6583 13.0283 51.7059 12.555 51.79 12.3991C51.874 12.2433 51.9061 12.2688 51.8176 12.1328C51.7291 11.9968 51.8583 11.9161 51.962 12.0577C52.0657 12.1993 52.0839 12.1679 52.0911 11.9771C52.0983 11.7862 52.0615 11.7831 51.9689 11.8011L51.9632 11.8022C51.8763 11.8192 51.8762 11.8192 51.8381 11.4872C51.8223 11.3718 51.8285 11.2544 51.8566 11.1415C51.8997 11.1365 51.8834 11.058 51.8798 10.9634C51.8762 10.8687 51.8638 10.7605 51.9144 10.8205C51.965 10.8805 52.1041 10.6963 52.09 10.5737C52.0759 10.451 51.9221 10.381 51.8289 10.2675C51.7357 10.1539 51.7573 10.1514 51.8148 10.1448C51.8724 10.1382 51.8649 9.88321 51.7792 9.83459C51.7698 10.0696 51.6981 10.1436 51.6049 10.0301C51.5118 9.91651 51.6215 9.79424 51.5701 9.72705C51.5187 9.65987 51.5129 9.60937 51.5062 9.55165C50.8683 10.7346 50.4417 12.0207 50.2458 13.3515C49.3103 19.3436 50.1687 26.3647 50.5722 32.4074C50.9365 39.1891 51.8675 45.9287 53.3553 52.555C54.1814 56.0638 55.4695 59.7899 58.4791 61.7611C60.5429 63.11 63.0969 63.401 65.5523 63.5938C72.4627 64.1172 79.4026 64.1036 86.31 63.5532C88.2985 65.9917 90.61 68.146 93.1803 69.9561C93.1861 69.8165 93.3244 68.4849 93.3492 68.1311C93.3509 68.1699 93.3553 68.2084 93.3625 68.2465C93.4286 68.3778 93.4189 68.5471 93.3614 68.5537C93.3039 68.5603 93.3351 68.7687 93.3855 68.7629C93.4161 68.7923 93.436 68.8312 93.4419 68.8734C93.4439 68.896 93.4514 68.9177 93.4637 68.9367C93.4761 68.9556 93.4929 68.9713 93.5127 68.9822C93.6319 69.005 93.6233 69.4373 93.5799 69.5666C93.5365 69.6958 93.4972 69.6711 93.6039 69.7758C93.7107 69.8805 93.6015 69.9442 93.4668 69.85C93.3321 69.7559 93.3307 69.8072 93.3529 69.9362C93.375 70.0653 93.3551 70.0822 93.4972 70.0512C93.6393 70.0203 93.6393 70.0203 93.6684 70.2728C96.0073 71.86 98.5827 73.064 101.298 73.8398C101.295 73.4308 101.309 72.9175 101.226 72.1961C101.246 72.1852 101.264 72.1708 101.279 72.1534L101.211 71.9419C101.166 71.8667 101.164 71.9108 101.202 71.8626C101.24 71.8143 101.198 71.8265 101.197 71.8193L101.191 71.7688L101.183 71.6966C101.15 71.6563 101.127 71.6089 101.116 71.5581L101.094 71.3706C101.131 71.3584 101.17 71.3539 101.209 71.3573C101.324 71.3441 101.458 71.4896 101.324 71.3441C101.191 71.1986 101.21 71.1745 101.306 71.1854C101.398 71.1958 101.359 71.1743 101.308 71.1459L101.301 71.1421Z" fill="#885574"/>
<path d="M101.393 3.66129C101.393 3.66129 101.393 3.66129 101.387 3.61079L101.247 3.46613C101.247 3.46613 101.253 3.51663 101.254 3.53106C101.256 3.54548 101.364 3.6646 101.393 3.66129Z" fill="#885574"/>
<path d="M104.406 73.7469C104.413 73.8046 104.419 73.8624 104.391 73.9314C104.103 73.8987 103.785 73.8549 103.435 73.7928C103.361 73.775 103.284 73.7715 103.208 73.7823L102.462 73.627C102.178 73.5646 101.908 73.5006 101.629 73.4229C101.629 73.4229 101.624 73.3796 101.624 73.3724C101.623 73.3652 101.584 73.3405 101.618 73.3219C101.652 73.3034 101.661 73.317 101.612 73.2714C101.563 73.2259 101.602 73.1849 101.674 73.1766C101.746 73.1683 101.674 73.1766 101.674 73.1766C101.674 73.1766 101.746 73.1683 101.861 73.1551C101.976 73.1419 101.947 73.1452 101.848 73.0469C101.935 73.037 101.915 72.9953 101.842 72.9892C101.768 72.983 101.676 73.0082 101.641 73.0123C101.605 73.0164 101.584 72.9676 101.67 72.9505C101.755 72.9333 101.749 72.9414 101.67 72.9505C101.591 72.9653 101.509 72.957 101.434 72.9264C101.495 72.8923 101.561 72.8698 101.63 72.86L101.666 72.8558C101.666 72.8558 101.702 72.8517 101.66 72.7981C101.617 72.7445 101.652 72.7332 101.516 72.7561C101.381 72.779 101.387 72.771 101.387 72.771C101.387 72.771 101.381 72.7205 101.509 72.7569C101.637 72.7934 101.746 72.7297 101.653 72.7404C101.559 72.7512 101.595 72.747 101.646 72.6827C101.697 72.6184 101.752 72.5244 101.628 72.524C101.504 72.5236 101.571 72.5306 101.571 72.5306C101.571 72.5306 101.571 72.5306 101.527 72.5356C101.484 72.5405 101.47 72.4836 101.521 72.4778C101.571 72.4721 101.602 72.4246 101.554 72.3863C101.547 72.3823 101.542 72.3768 101.538 72.3703C101.534 72.3638 101.531 72.3565 101.53 72.3488C101.529 72.3412 101.53 72.3335 101.533 72.3262C101.535 72.3189 101.539 72.3124 101.545 72.3069C101.602 72.3003 101.499 72.2245 101.33 72.2147C101.162 72.2048 101.237 72.2254 101.373 72.2097C101.51 72.194 101.553 72.189 101.415 72.1318C101.278 72.0745 101.29 72.0584 101.326 72.0543C101.343 72.057 101.361 72.055 101.377 72.0485C101.377 72.0485 101.42 72.0435 101.473 72.0009C101.527 71.9582 101.574 71.9893 101.555 71.9476L101.487 71.8677C101.469 71.8379 101.446 71.811 101.42 71.7877C101.42 71.7877 101.415 71.7444 101.413 71.73C101.411 71.7156 101.413 71.73 101.408 71.6867C101.403 71.6434 101.332 71.6004 101.396 71.5857C101.46 71.5711 101.498 71.4571 101.429 71.4284C101.508 71.4193 101.53 71.4169 101.465 71.4243C101.4 71.4317 101.423 71.3707 101.46 71.381C101.498 71.3913 101.532 71.3727 101.454 71.3233C101.375 71.2739 101.397 71.2714 101.444 71.2439C101.459 71.2362 101.471 71.2249 101.479 71.2111C101.488 71.1973 101.493 71.1815 101.494 71.1652L101.48 71.0497C101.474 70.992 101.471 70.9704 101.402 70.9418C101.334 70.9131 101.318 70.9003 101.402 70.9418C101.487 70.9832 101.568 70.9227 101.546 70.8595L101.611 70.852C102.432 71.7005 103.319 72.4833 104.262 73.1933C104.261 73.2128 104.263 73.2322 104.269 73.251C104.409 73.2714 104.401 73.5793 104.406 73.7469ZM101.826 73.3565C101.747 73.3656 101.711 73.3697 101.772 73.3992C101.834 73.4286 101.83 73.3926 101.852 73.3901C101.873 73.3876 101.893 73.3707 101.84 73.3548L101.826 73.3565ZM102.064 73.0221L102.143 73.013C102.194 73.0072 102.186 73.008 102.143 73.013C102.1 73.0179 102.006 73.0215 102.064 73.0221ZM102.145 72.7716C102.149 72.8077 102.15 72.8149 102.15 72.8149C102.15 72.8149 102.22 72.7922 102.148 72.8004L102.145 72.7716Z" fill="#885574"/>
<path d="M70.6459 23.9587C70.6889 23.6835 70.6581 23.4017 70.5566 23.1423C70.455 22.8829 70.2865 22.6552 70.0683 22.4827C69.9344 22.3958 69.5445 22.0459 69.2945 22.0893L68.9206 22.1323C68.6481 22.1637 68.3887 22.2665 68.1684 22.4304C67.9481 22.5943 67.7747 22.8135 67.6657 23.066C66.8333 25.8372 65.3326 28.751 64.4529 31.681C62.5877 29.0812 60.7769 26.3217 58.4941 24.2085C57.6772 23.4398 56.5036 24.5105 56.8305 25.4524C58.1515 29.2113 61.179 32.6058 63.5772 35.7218C63.6419 35.8028 63.7139 35.8777 63.7923 35.9456C63.7506 41.2208 65.1233 46.8231 65.8374 52.0187C66.1394 54.2647 69.6273 53.8709 69.3245 51.6177C68.6641 46.6352 67.6885 41.572 67.3317 36.5692C67.0305 32.4299 69.948 28.0886 70.6459 23.9587Z" fill="white"/>
<path d="M84.5757 46.3917C83.3103 46.5372 82.0379 46.7493 80.765 46.8299C79.0895 46.9568 79.6324 47.3695 79.6075 45.4426C79.5632 42.9038 79.3431 40.3561 79.1805 37.8017C80.09 37.7921 81.0413 37.6389 81.7525 37.6156C82.2569 37.5538 82.7169 37.2958 83.0334 36.8971C83.3499 36.4985 83.4978 35.991 83.4452 35.4838C83.3795 34.978 83.12 34.5176 82.7217 34.2004C82.3234 33.8832 81.8178 33.7341 81.312 33.7847C80.5377 33.8226 79.7667 33.9112 79.004 34.0501C78.8986 30.4731 78.843 26.7587 78.0795 23.2866C79.0772 23.0673 80.1089 23.0531 81.1125 23.2448C81.6166 23.3196 82.1296 23.1924 82.5406 22.8907C82.9517 22.589 83.2278 22.1371 83.3093 21.6326C83.3777 21.1278 83.2483 20.6159 82.9483 20.2046C82.6483 19.7933 82.2011 19.5146 81.7007 19.4272C79.9439 19.0372 77.7689 19.1922 76.3497 20.4081C76.2811 20.4656 76.2177 20.5292 76.1603 20.598C76.0141 20.6645 75.8851 20.7639 75.7832 20.8884C75.6813 21.0129 75.6093 21.1592 75.5727 21.3161C74.8274 24.6547 75.2317 28.2339 75.3891 31.6296C75.5763 35.665 75.7564 39.7013 75.9652 43.7343C76.0653 45.6818 75.6342 48.8381 77.589 50.1264C79.5439 51.4148 83.0011 50.1839 84.9914 50.0062C87.2648 49.6936 86.8541 46.1224 84.5757 46.3917Z" fill="white"/>
<path d="M93.0617 27.4408C92.1699 26.2805 91.5343 24.9432 91.1973 23.5178C90.9232 21.8315 92.6955 17.5415 94.9308 20.128C95.1809 20.4627 95.5531 20.6842 95.9657 20.7437C96.3783 20.8032 96.7975 20.6958 97.1309 20.4452C97.4644 20.1945 97.6848 19.8212 97.7438 19.4072C97.8028 18.9933 97.6954 18.5727 97.4453 18.238C96.6964 17.1278 95.5509 16.3486 94.2459 16.0619C92.9409 15.7752 91.5764 16.0028 90.4348 16.6977C87.4646 18.3623 86.8825 22.1061 87.7154 25.1682C88.9637 29.6884 92.9085 33.014 94.8645 37.2261C95.371 38.2823 95.8008 39.3737 96.1507 40.4919C96.539 41.7777 97.2734 43.4768 96.8468 44.8344C96.7608 45.1599 96.5787 45.4516 96.3245 45.6713C96.0702 45.891 95.7557 46.0284 95.422 46.0654C95.0828 46.0242 94.7579 45.9032 94.474 45.7123C94.19 45.5214 93.9548 45.266 93.7877 44.9668C93.0632 43.9244 92.6146 42.1778 91.7781 41.3018C91.2504 40.8366 90.5905 40.5494 89.8916 40.4807C89.7357 40.4568 89.5763 40.4846 89.4377 40.5599C89.2991 40.6353 89.1888 40.754 89.1236 40.898C87.869 43.7981 90.9834 48.2645 93.8867 49.1221C96.9958 50.0584 99.6564 47.7276 100.202 44.7409C100.893 40.9334 98.8289 36.4778 97.0099 33.266C95.8597 31.1834 94.3584 29.4043 93.0617 27.4408Z" fill="white"/>
</g>
<path d="M13.1056 46.2851C13.307 48.0367 12.1486 49.8773 9.63023 51.8068C7.37966 53.5259 5.30243 54.5061 3.39854 54.7475C2.64738 54.8564 2.23993 54.6336 2.17619 54.0793C2.13284 53.7024 2.48509 53.3474 3.23292 53.0143L4.61302 52.4175C7.00914 51.3781 8.69471 50.1172 9.66974 48.6347C9.93674 48.2221 10.0511 47.8495 10.0129 47.5169C9.92519 47.1451 9.62947 46.8196 9.1257 46.5406C8.70118 46.3647 8.27538 46.1778 7.84832 45.9798L6.10424 45.1694C3.54182 43.9814 2.14206 42.3564 1.90493 40.2944C1.74175 38.8754 2.36121 37.5236 3.7633 36.2391C5.04514 35.0807 6.42869 34.4162 7.91394 34.2454C9.0445 34.1154 9.66587 34.5381 9.77806 35.5137C9.83161 35.9793 9.55607 36.4154 8.95144 36.8219C8.74251 36.9583 8.23216 37.2079 7.42037 37.5708C5.77974 38.3436 5.00277 39.1069 5.08946 39.8608C5.1838 40.6811 5.83704 41.3811 7.0492 41.9606L8.93776 42.8554C10.1721 43.4324 11.0079 43.8642 11.4451 44.1509C12.468 44.842 13.0215 45.5534 13.1056 46.2851Z" fill="#885574"/>
<path d="M29.0643 45.1238C29.1408 45.789 28.6354 46.3751 27.5482 46.882L27.617 47.4806C27.7318 48.4784 27.726 49.2092 27.5996 49.673C27.3683 50.396 26.8315 50.806 25.9891 50.9029C24.9028 51.0278 24.2922 50.5027 24.157 49.3275C24.1417 49.1945 24.1384 48.9702 24.147 48.6547C22.5523 49.8266 20.8571 50.5158 19.0615 50.7223C17.7758 50.8701 16.6688 50.7166 15.7405 50.2617C14.6443 49.7138 14.0261 48.8301 13.8858 47.6107C13.6589 45.6374 14.6013 43.6756 16.713 41.7254C18.0119 40.5202 19.4039 39.8321 20.8892 39.6613C21.7094 39.567 22.6178 39.6535 23.6144 39.9208L23.3619 37.7258C23.2038 36.3511 22.5484 35.7301 21.3957 35.8626C20.6642 35.9467 19.9138 36.2577 19.1446 36.7955C18.7616 37.1765 18.2559 37.6615 17.6273 38.2505C16.6107 39.1761 15.8696 39.6657 15.4041 39.7192C14.7613 39.7932 14.3965 39.4532 14.3098 38.6994C14.1823 37.5908 15.1214 36.382 17.1271 35.073C18.9239 33.9003 20.4098 33.2465 21.5847 33.1114C23.3581 32.9074 24.6449 33.3548 25.4451 34.4534C26.057 35.2817 26.4738 36.6603 26.6956 38.5892L27.3228 44.0436C27.7193 43.9755 28.0978 44.0443 28.4584 44.25C28.8164 44.4335 29.0184 44.7247 29.0643 45.1238ZM24.0662 45.9008L23.9897 45.2356C23.8648 44.1492 23.6451 43.4106 23.3306 43.02C22.9122 42.5065 22.2042 42.3071 21.2066 42.4218C20.1426 42.5441 19.1687 43.0605 18.2851 43.9709C17.399 44.859 17.0031 45.7133 17.0974 46.5337C17.2224 47.6201 17.8736 48.1069 19.051 47.9939C20.8074 47.8369 22.4791 47.1392 24.0662 45.9008Z" fill="#885574"/>
<path d="M40.8341 31.7402C40.9287 31.9764 40.9457 32.2216 40.885 32.4757L39.5336 38.5956C37.6882 46.9627 35.8475 54.0039 34.0115 59.719L33.4162 61.5735C33.1994 62.2274 32.8804 62.5786 32.4592 62.627C31.772 62.7061 31.3876 62.3908 31.306 61.6813L31.2831 61.4818L35.2934 44.2053C31.4017 38.8793 29.3997 35.7285 29.2875 34.7529C29.2288 34.2429 29.3356 33.8038 29.6077 33.4356C29.8798 33.0673 30.2708 32.8538 30.7806 32.7952C31.6452 32.6958 32.3292 33.0777 32.8328 33.9408L35.2995 38.1053C35.4682 38.4004 35.8337 38.9425 36.3962 39.7315C37.0091 37.6391 37.6185 35.6145 38.2246 33.6578L38.7905 31.8404C38.8733 31.5838 39.0882 31.4018 39.4352 31.2945C40.1736 31.0748 40.6399 31.2233 40.8341 31.7402Z" fill="#885574"/>
<path d="M140.456 51.6074L141.345 55.5415C141.44 55.979 141.319 56.3854 140.981 56.7606C140.644 57.1357 140.254 57.3488 139.812 57.3996C138.972 57.4962 138.375 57.0827 138.023 56.159C137.961 56.0092 137.778 55.2005 137.475 53.7329L137.163 52.1879L137.045 52.336C135.872 53.8164 134.891 54.8373 134.105 55.3986C133.649 55.7202 133.001 55.9292 132.161 56.0258C130.414 56.2267 128.956 55.7216 127.787 54.5107C126.721 53.4224 126.086 51.993 125.882 50.2224C125.612 47.8765 126.111 45.9804 127.378 44.5341C128.59 43.1839 130.388 42.3605 132.773 42.0637C133.657 41.9621 134.601 41.9881 135.604 42.1418C135.579 41.3374 135.524 40.5701 135.44 39.8397C135.387 39.375 135.274 38.6817 135.1 37.7598C134.925 36.8157 134.81 36.1114 134.756 35.6466C134.39 32.4597 134.881 30.7887 136.23 30.6336C137.224 30.5192 137.82 31.314 138.016 33.0182C138.029 33.1288 138.074 33.8187 138.153 35.0878L138.192 35.7224L139.028 42.9925C139.387 46.1131 139.863 48.9847 140.456 51.6074ZM136.361 49.0174C136.093 48.241 135.914 47.4655 135.825 46.6909C135.761 46.1376 135.742 45.5792 135.767 45.0158C134.631 44.8773 133.522 44.8815 132.442 45.0282C131.295 45.1825 130.422 45.6753 129.823 46.5066C129.244 47.3132 129.021 48.303 129.156 49.4759C129.276 50.5161 129.595 51.3427 130.114 51.9558C130.731 52.6473 131.537 52.9358 132.531 52.8214C134.322 52.6155 135.599 51.3475 136.361 49.0174Z" fill="#885574"/>
<path d="M151.88 40.5392C152.01 41.6679 151.699 42.2754 150.947 42.3619C150.66 42.3949 150.03 42.1759 149.057 41.7047C148.483 41.7708 147.837 42.7757 147.119 44.7194C146.414 46.572 146.118 47.7945 146.231 48.387C146.424 49.4859 146.583 50.5776 146.708 51.6621C146.94 53.676 146.381 54.7605 145.033 54.9156C144.259 55.0046 143.865 55.0835 143.85 55.1525C143.899 55.1917 143.946 55.2087 143.99 55.2036C144.01 55.179 144.015 55.1224 144.005 55.0338C143.949 54.5469 143.656 53.2688 143.127 51.1993C142.88 50.2187 142.528 48.723 142.073 46.7124L141.196 42.0033C141.078 41.3666 141.007 40.9486 140.984 40.7495C140.9 40.0191 140.908 39.5025 141.008 39.1995C141.136 38.7587 141.521 38.5014 142.162 38.4277C143.024 38.3285 143.635 38.5723 143.993 39.1589C144.265 39.5761 144.457 40.2716 144.569 41.2454L144.665 42.0753C144.675 42.1638 144.691 42.3077 144.714 42.5068C144.713 42.6864 144.716 42.8094 144.723 42.8758L144.811 43.6394C144.824 43.75 144.842 43.8151 144.867 43.8347C146.518 40.0794 148.085 38.1166 149.566 37.9462C150.892 37.7937 151.664 38.658 151.88 40.5392Z" fill="#885574"/>
<path d="M165.895 47.942C166.044 48.8443 165.145 49.8895 163.198 51.0775C161.462 52.1517 159.998 52.7574 158.804 52.8947C156.991 53.1031 155.541 52.6645 154.452 51.5787C153.441 50.5738 152.828 49.1419 152.614 47.2829C152.342 44.9148 152.77 42.6007 153.899 40.3406C155.199 37.8142 156.963 36.4004 159.191 36.0994C159.854 36.0231 160.46 36.1328 161.01 36.4284C161.588 36.7879 161.915 37.2886 161.989 37.9304C162.103 38.9263 161.63 40.3598 160.568 42.231C159.526 44.0775 158.095 46.0472 156.275 48.1401C156.885 49.5499 157.875 50.176 159.246 50.0184C160.749 49.8455 162.455 48.9991 164.364 47.479C164.589 47.2961 164.823 47.1907 165.066 47.1627C165.509 47.1119 165.785 47.3716 165.895 47.942ZM159.274 39.4534C159.244 39.1879 159.052 39.0754 158.698 39.1161C157.791 39.2203 156.99 40.0413 156.293 41.579C155.669 42.9737 155.421 44.2244 155.548 45.3309C156.566 44.0479 157.415 42.8627 158.096 41.7752L158.664 40.869C159.099 40.1687 159.302 39.6969 159.274 39.4534Z" fill="#885574"/>
<path d="M177.053 45.6161C177.254 47.3645 176.099 49.2015 173.588 51.1273C171.344 52.8429 169.272 53.8211 167.373 54.0619C166.624 54.1705 166.218 53.9481 166.154 53.3948C166.111 53.0186 166.462 52.6643 167.208 52.3319L168.584 51.7363C170.974 50.6991 172.655 49.4407 173.627 47.961C173.893 47.5492 174.007 47.1773 173.969 46.8453C173.882 46.4741 173.587 46.1493 173.084 45.8707C172.661 45.6951 172.236 45.5085 171.81 45.3108L170.071 44.5018C167.515 43.3157 166.119 41.6935 165.882 39.6353C165.719 38.2189 166.337 36.8697 167.735 35.5877C169.014 34.4317 170.393 33.7684 171.875 33.5981C173.002 33.4684 173.622 33.8905 173.734 34.8643C173.787 35.329 173.512 35.7643 172.91 36.17C172.701 36.3061 172.192 36.5552 171.383 36.9174C169.747 37.6885 168.972 38.4504 169.058 39.2028C169.152 40.0217 169.804 40.7204 171.013 41.2989L172.896 42.1923C174.128 42.7683 174.961 43.1994 175.397 43.4856C176.417 44.1756 176.969 44.8857 177.053 45.6161Z" fill="#885574"/>
<path d="M188.615 44.2866C188.816 46.0349 187.661 47.872 185.149 49.7978C182.905 51.5134 180.833 52.4916 178.935 52.7324C178.186 52.841 177.779 52.6186 177.716 52.0653C177.672 51.6891 178.024 51.3348 178.769 51.0023L180.146 50.4068C182.535 49.3696 184.216 48.1111 185.188 46.6315C185.455 46.2196 185.569 45.8478 185.53 45.5158C185.443 45.1446 185.148 44.8198 184.646 44.5412C184.222 44.3656 183.798 44.179 183.372 43.9813L181.632 43.1723C179.077 41.9862 177.68 40.364 177.444 38.3058C177.281 36.8894 177.898 35.5402 179.297 34.2582C180.575 33.1021 181.955 32.4389 183.436 32.2686C184.563 32.1389 185.183 32.561 185.295 33.5348C185.349 33.9995 185.074 34.4348 184.471 34.8405C184.262 34.9765 183.754 35.2257 182.944 35.5879C181.308 36.359 180.533 37.1209 180.62 37.8733C180.714 38.6922 181.365 39.3909 182.574 39.9694L184.458 40.8628C185.689 41.4388 186.522 41.8699 186.959 42.1561C187.979 42.8461 188.531 43.5562 188.615 44.2866Z" fill="#885574"/>
<path d="M159.839 4.60176C159.89 5.04564 159.337 5.69584 158.18 6.55239L155.359 8.66595L156.155 11.9182C156.266 12.3943 156.469 13.6713 156.764 15.7492L157.069 17.9139C157.114 18.2999 157.175 18.7524 157.253 19.2713L157.439 20.3939C157.504 20.7971 157.647 20.9859 157.869 20.9604C157.962 20.9497 158.384 20.5492 159.136 19.7587L159.916 18.9651C160.151 18.723 160.287 18.5998 160.324 18.5956C160.527 18.5722 160.738 18.6164 160.957 18.7281C161.192 18.8183 161.321 18.96 161.343 19.1529C161.363 19.3266 161.137 19.7241 160.665 20.3455L160.006 21.2132C159.741 21.674 159.341 22.3554 158.808 23.2576C158.016 24.5218 157.214 25.2007 156.4 25.2943C155.679 25.3773 155.261 24.917 155.145 23.9134L154.949 22.2055C154.926 21.1913 154.574 18.8657 153.894 15.2287L153.001 10.4037L152.343 11.0366C151.738 11.6342 151.242 12.0529 150.858 12.2927C150.633 12.4555 150.437 12.5464 150.271 12.5655C149.919 12.6059 149.714 12.3656 149.654 11.8445C149.592 11.3042 149.949 10.6666 150.727 9.93196C151.346 9.45012 151.956 8.96935 152.556 8.48964L152.101 5.7555C152 5.20009 152.046 4.70592 152.24 4.27299C152.432 3.82077 152.786 3.56489 153.304 3.50534C153.896 3.43729 154.321 3.6328 154.58 4.09188C154.745 4.38577 154.87 4.8994 154.954 5.63276L155.087 6.79069L158.981 4.2311L159.092 4.21834C159.554 4.16517 159.803 4.29298 159.839 4.60176Z" fill="#885574"/>
<path d="M171.505 19.1576L172.087 21.5252C172.22 22.6832 171.824 23.3153 170.899 23.4216C170.197 23.5024 169.695 23.2179 169.396 22.5679C169.201 22.1797 169.053 21.5417 168.951 20.6539L168.571 17.3538C168.361 15.5204 168.147 14.401 167.932 13.9956C167.79 13.7382 167.562 13.6275 167.248 13.6637C166.73 13.7232 165.98 14.8653 165 17.0899L165.58 20.4256C165.648 20.6915 165.727 21.1322 165.816 21.7477C165.997 23.1544 165.551 23.9194 164.478 24.0427C163.72 24.1299 163.209 23.8464 162.947 23.1922C162.844 22.9498 162.721 22.2894 162.578 21.2107C162.342 19.3216 162.044 17.293 161.682 15.125C161.689 15.1829 161.66 15.0199 161.598 14.6361L160.11 6.82911C159.857 4.62904 160.257 3.46839 161.311 3.34717C162.125 3.2536 162.686 4.13749 162.993 5.99885L163.482 9.02247C163.677 10.2319 164.011 11.9143 164.484 14.0695C166.088 11.4016 167.317 10.0284 168.17 9.94991C168.912 9.88414 169.471 10.2695 169.848 11.1061C170.244 11.9405 170.613 13.521 170.956 15.8477L171.359 18.6172C171.391 18.7308 171.439 18.911 171.505 19.1576Z" fill="#885574"/>
<path d="M183.572 17.946C183.7 18.733 182.951 19.6403 181.327 20.6679C179.879 21.5971 178.655 22.1191 177.656 22.234C176.14 22.4083 174.924 22.0202 174.009 21.0695C173.158 20.1896 172.64 18.9391 172.453 17.318C172.216 15.253 172.565 13.2379 173.501 11.2727C174.579 9.07602 176.049 7.85098 177.913 7.59759C178.467 7.53379 178.975 7.63183 179.436 7.89169C179.922 8.20733 180.197 8.64498 180.262 9.20465C180.362 10.0731 179.971 11.3206 179.09 12.9471C178.225 14.5522 177.035 16.2632 175.52 18.0799C176.037 19.3111 176.868 19.8608 178.015 19.7289C179.272 19.5843 180.697 18.8534 182.288 17.5363C182.476 17.3778 182.671 17.2869 182.875 17.2635C183.245 17.221 183.477 17.4485 183.572 17.946ZM177.996 10.5211C177.969 10.2895 177.808 10.1908 177.512 10.2248C176.754 10.312 176.086 11.0243 175.509 12.3616C174.993 13.5747 174.79 14.6637 174.901 15.6286C175.747 14.5145 176.454 13.4849 177.019 12.5399L177.491 11.7524C177.852 11.1439 178.02 10.7334 177.996 10.5211Z" fill="#885574"/>
<path d="M129.737 8.06328C129.788 8.50716 129.195 9.16192 127.959 10.0276L124.945 12.1634L125.767 15.4126C125.882 15.8883 126.088 17.1648 126.387 19.2423L126.696 21.4067C126.74 21.7926 126.802 22.245 126.882 22.7638L127.071 23.886C127.137 24.2891 127.288 24.477 127.524 24.4498C127.623 24.4385 128.075 24.0346 128.88 23.238L129.715 22.438C129.966 22.194 130.111 22.0698 130.151 22.0653C130.367 22.0404 130.591 22.083 130.823 22.1932C131.073 22.2819 131.209 22.4227 131.231 22.6157C131.251 22.7894 131.008 23.1889 130.501 23.8142L129.794 24.6874C129.509 25.1504 129.079 25.8353 128.506 26.7421C127.655 28.0132 126.797 28.6985 125.931 28.7981C125.164 28.8863 124.722 28.4287 124.607 27.4251L124.41 25.7172C124.393 24.7023 124.036 22.3773 123.339 18.7422L122.426 13.9197L121.722 14.5579C121.073 15.1604 120.544 15.5831 120.133 15.8259C119.893 15.9904 119.684 16.0828 119.507 16.1032C119.133 16.1462 118.916 15.9071 118.856 15.386C118.794 14.8457 119.179 14.205 120.011 13.4641C120.673 12.9773 121.325 12.4917 121.967 12.0073L121.503 9.27415C121.399 8.71901 121.452 8.22409 121.661 7.7894C121.868 7.33541 122.247 7.07674 122.798 7.01338C123.427 6.94098 123.878 7.13357 124.15 7.59115C124.323 7.88409 124.452 8.39724 124.537 9.1306L124.67 10.2885L128.828 7.69854L128.946 7.68496C129.438 7.6284 129.701 7.7545 129.737 8.06328Z" fill="#885574"/>
<path d="M141.458 19.3571C141.689 21.3642 141.341 23.1054 140.414 24.5808C139.474 26.1163 138.217 26.9746 136.643 27.1556C134.892 27.357 133.478 26.5907 132.401 24.8569C131.575 23.5636 131.04 21.9435 130.796 19.9966C130.55 18.0304 130.736 16.3566 131.355 14.9754C132.1 13.3058 133.407 12.3635 135.276 12.1486C137.204 11.9268 138.722 12.642 139.829 14.2941C140.673 15.5659 141.216 17.2535 141.458 19.3571ZM138.91 19.5621C138.759 18.2498 138.501 17.1355 138.137 16.2193C137.568 14.74 136.801 14.0557 135.837 14.1666C134.853 14.2797 134.205 15.0582 133.893 16.502C133.671 17.5247 133.628 18.6247 133.764 19.8019C134.008 21.9248 134.731 23.3571 135.933 24.0988C136.279 24.3328 136.648 24.4272 137.042 24.3819C137.888 24.2846 138.46 23.6225 138.757 22.3955C138.972 21.4908 139.023 20.5464 138.91 19.5621Z" fill="#885574"/>
<defs>
<clipPath id="clip0">
<rect width="58" height="74" fill="white" transform="translate(47.3877 6.62616) rotate(-6.56003)"/>
</clipPath>
</defs>
</svg>
