<svg width="41" height="70" viewBox="0 0 41 70" fill="none" xmlns="http://www.w3.org/2000/svg">
<path fill-rule="evenodd" clip-rule="evenodd" d="M8.88785 60.5741L6.12365 57.1615L7.2388 61.6017L8.2074 65.9925L12.0252 63.3762L15.7939 60.9058L9.92657 61.8565L9.63913 61.5016C8.46361 56.1051 9.0674 50.4674 11.376 45.4354C14.0001 41.9286 17.5148 39.1839 21.5588 37.4836C23.3988 36.5975 25.0435 35.3557 26.3974 33.8301C27.7513 32.3045 28.7876 30.5256 29.4463 28.5963C29.8975 26.4042 29.8158 24.1351 29.208 21.9788C29.1984 21.9448 29.1887 21.9108 29.1788 21.8769C30.3595 21.6217 31.5043 21.2 32.5774 20.6187C34.8579 19.3835 36.7071 17.4864 37.8807 15.1781C38.3097 14.1001 38.5162 12.9464 38.4876 11.7861C38.4591 10.6257 38.1962 9.48255 37.7147 8.42489C37.2332 7.36723 36.5429 6.41683 35.6852 5.63052C34.8275 4.84421 33.8199 4.23814 32.7228 3.84856C33.7954 4.26421 34.7687 4.90023 35.5795 5.71523C36.3902 6.53024 37.0201 7.50597 37.4283 8.57894C37.8364 9.6519 38.0136 10.7981 37.9484 11.9429C37.8832 13.0877 37.577 14.2054 37.0497 15.2234C35.9048 18.6231 32.2828 20.0881 28.7488 20.6201C28.1033 18.9901 27.1561 17.4904 25.9524 16.2012C24.6161 14.725 22.8327 13.7246 20.8749 13.3532C19.4095 12.8597 16.8181 13.2877 16.228 15.04C15.6379 16.7923 17.0511 18.8941 18.5154 19.875C20.444 21.253 22.7401 22.0262 25.1094 22.0956C26.2365 22.2148 27.3675 22.184 28.4738 22.0088C28.5348 22.2674 28.586 22.5288 28.6272 22.7925C29.1083 24.7759 29.0322 26.8519 28.4074 28.7926C27.7827 30.7333 26.6333 32.4637 25.0856 33.7937C22.1552 35.9276 19.099 37.8845 15.9334 39.6538C12.7262 41.6269 10.3557 44.7029 9.26837 48.3025C8.21314 52.3112 8.08363 56.5068 8.88785 60.5741ZM28.0775 20.7104C27.5698 19.3662 26.7881 18.1323 25.7733 17.0907C24.2528 15.53 22.2842 14.4783 20.1402 14.0813C18.8696 13.9786 16.8151 14.75 17.0089 15.6282C17.0414 16.2347 17.2172 16.8252 17.5219 17.3516C17.8266 17.8781 18.2516 18.3255 18.7623 18.6574C20.6568 20.1007 22.9747 20.8813 25.3563 20.8781C26.2124 20.8718 27.1359 20.8223 28.0775 20.7104Z" fill="#885574"/>
</svg>
