<svg width="73" height="57" viewBox="0 0 73 57" fill="none" xmlns="http://www.w3.org/2000/svg">
<g clip-path="url(#clip0)">
<path d="M62.2013 45.892C55.9168 46.032 49.7825 44.0013 44.8294 40.141C41.826 36.5497 39.8342 32.2192 39.0588 27.5945C38.589 25.4627 37.7012 23.4468 36.4468 21.6635C35.1924 19.8803 33.5963 18.3652 31.7511 17.206C29.5816 16.1981 27.201 15.7257 24.8085 15.8283C22.4159 15.9309 20.0809 16.6055 17.9984 17.7958C16.1344 18.8232 14.6557 20.4327 13.7884 22.3782C12.915 23.7813 12.7237 26.5822 14.4016 27.6266C16.0795 28.6709 18.6131 27.7172 19.9932 26.4348C21.9005 24.767 23.269 22.5684 23.9232 20.1207C24.8421 17.5003 24.9461 14.6647 24.2214 11.989C23.4966 9.3133 21.9773 6.92347 19.8644 5.13557C18.8484 4.42445 17.6989 3.9263 16.4848 3.67093C15.2707 3.41555 14.0169 3.40819 12.7984 3.64928C11.5798 3.89037 10.4215 4.37496 9.39285 5.07407C8.36416 5.77318 7.48616 6.67246 6.81136 7.71811H6.81136C7.50726 6.70436 8.40801 5.84805 9.455 5.20489C10.502 4.56172 11.6718 4.14612 12.8882 3.98511C14.1047 3.8241 15.3406 3.92129 16.5155 4.27037C17.6903 4.61945 18.7779 5.21259 19.7074 6.01119C24.042 8.7091 23.7294 15.1333 22.7172 19.5647C22.1355 22.0431 20.7541 24.2626 18.7873 25.8789C18.3165 26.3286 17.7467 26.6608 17.1242 26.8485C16.5017 27.0361 15.8441 27.0739 15.2052 26.9588C14.2441 26.9446 13.9463 24.6179 14.3653 23.3213C15.305 21.1885 16.8826 19.399 18.8798 18.2005C20.8769 17.0021 23.1948 16.4541 25.5124 16.6324C27.6938 16.6192 29.8347 17.2083 31.7002 18.335C33.5656 19.4617 35.0833 21.0824 36.0867 23.0192C37.5867 26.5919 38.8716 30.2519 39.9345 33.9797C41.1992 37.8008 43.8168 41.0224 47.2943 43.0378C51.3023 45.172 55.7534 46.3431 60.2967 46.4586" fill="#885574"/>
<path d="M65.4357 48.488L63.6519 43.8736L62.0079 39.3463L61.5554 45.6835L55.7371 48.4862L60.6301 48.4169L65.4357 48.488Z" fill="#885574"/>
</g>
<defs>
<clipPath id="clip0">
<rect width="71.1497" height="21.9812" fill="white" transform="translate(11.6152) rotate(31.8985)"/>
</clipPath>
</defs>
</svg>
