<svg width="71" height="65" viewBox="0 0 71 65" fill="none" xmlns="http://www.w3.org/2000/svg">
<g clip-path="url(#clip0)">
<path d="M11.1476 53.7283C17.5722 53.0071 23.5453 50.094 28.0631 45.4785C30.6306 41.4053 32.0654 36.7176 32.2199 31.8974C32.4057 29.66 33.0335 27.4832 34.0669 25.4933C35.1003 23.5033 36.5188 21.7396 38.2401 20.3045C40.3129 18.979 42.6742 18.1703 45.1269 17.9459C47.5796 17.7216 50.0523 18.0882 52.3384 19.015C54.3795 19.806 56.1079 21.2432 57.2594 23.1068C58.3424 24.4169 58.9225 27.2454 57.3559 28.5405C55.7893 29.8356 53.0758 29.2118 51.4929 28.0945C49.3196 26.6568 47.6226 24.604 46.6193 22.1991C45.3225 19.6546 44.8267 16.7788 45.1975 13.952C45.5684 11.1252 46.7884 8.48056 48.6962 6.3678C49.634 5.50333 50.7371 4.83759 51.9394 4.4104C53.1418 3.98321 54.4187 3.80334 55.6938 3.88156C56.969 3.95977 58.2161 4.29446 59.3607 4.86561C60.5053 5.43675 61.5238 6.23263 62.3553 7.20563V7.20563C61.5067 6.26805 60.4709 5.51909 59.3154 5.00748C58.1598 4.49588 56.9104 4.23308 55.6484 4.2362C54.3864 4.23932 53.1401 4.50828 51.9906 5.02558C50.8411 5.54289 49.8141 6.29694 48.9766 7.23869C44.9294 10.5844 46.1312 17.0892 47.772 21.4667C48.7057 23.9128 50.4187 25.9851 52.6456 27.3621C53.1872 27.7557 53.8137 28.016 54.474 28.1217C55.1343 28.2274 55.8096 28.1755 56.445 27.9703C57.4227 27.8237 57.4063 25.4113 56.801 24.1474C55.5501 22.1027 53.6961 20.4957 51.4958 19.5487C49.2955 18.6018 46.8577 18.3619 44.52 18.8622C42.2949 19.1486 40.1937 20.0434 38.4473 21.4482C36.7008 22.853 35.3767 24.7136 34.6203 26.8256C33.5825 30.6731 32.7761 34.5802 32.2051 38.5258C31.4414 42.5942 29.2163 46.2377 25.949 48.7699C22.1573 51.4962 17.7815 53.3016 13.1667 54.0439" fill="#885574"/>
<path d="M8.20837 56.8194L9.39221 51.8711L10.4455 47.0307L11.7778 53.4276L18.0933 55.4844L13.0967 56.0864L8.20837 56.8194Z" fill="#885574"/>
</g>
<defs>
<clipPath id="clip0">
<rect width="73.1751" height="22.6069" fill="white" transform="matrix(-0.770737 0.637153 0.637153 0.770737 56.3984 0)"/>
</clipPath>
</defs>
</svg>
