<svg width="125" height="53" viewBox="0 0 125 53" fill="none" xmlns="http://www.w3.org/2000/svg">
<g clip-path="url(#clip0)">
<path d="M40.7959 32.9205C40.7744 32.9267 40.7543 32.9372 40.7369 32.9514C40.6855 33.0055 40.6926 33.1928 40.7638 33.1846C40.8349 33.1764 40.8377 32.9494 40.7959 32.9205Z" fill="white"/>
<path d="M40.8415 33.3205C40.8085 33.3243 40.7941 33.3642 40.855 33.4386C40.8853 33.4112 40.8791 33.3162 40.8415 33.3205Z" fill="white"/>
<path d="M43.7349 24.4178C43.7047 24.4452 43.7155 24.5396 43.7485 24.5359C43.7814 24.5321 43.7959 24.4921 43.7349 24.4178Z" fill="white"/>
<path d="M43.781 24.943C43.8034 24.9471 43.8265 24.9445 43.8474 24.9354C43.8947 24.8865 43.8917 24.6939 43.82 24.6974C43.7483 24.7008 43.7587 24.9166 43.781 24.943Z" fill="white"/>
<path d="M52.2019 34.6414C52.2348 34.6376 52.2386 34.5463 52.1905 34.5423C52.1424 34.5382 52.155 34.5655 52.2019 34.6414Z" fill="white"/>
<path d="M52.2252 34.2152C52.2044 34.2135 52.1835 34.2159 52.1636 34.2223C52.1052 34.258 52.0842 34.4099 52.1369 34.4087C52.1897 34.4074 52.2522 34.2411 52.2252 34.2152Z" fill="white"/>
<path d="M47.5266 30.473C47.5836 30.4665 47.5941 30.3495 47.5414 30.3508C47.4887 30.352 47.4402 30.4733 47.4661 30.4896C47.4869 30.4869 47.5073 30.4813 47.5266 30.473Z" fill="white"/>
<path d="M47.4582 30.2108C47.4299 30.214 47.4276 30.2765 47.4652 30.2722C47.5029 30.2678 47.5107 30.2526 47.4582 30.2108Z" fill="white"/>
<path d="M55.161 26.8115C55.1939 26.8077 55.2089 26.7725 55.1496 26.7124C55.1282 26.734 55.1327 26.8148 55.161 26.8115Z" fill="white"/>
<path d="M65.5482 20.9254C65.5449 20.8968 65.5394 20.8492 65.5066 20.8144C65.4737 20.7796 65.5022 20.7764 65.4652 20.8722C65.4281 20.9681 65.4462 20.9998 65.4838 21.0341C65.5214 21.0683 65.5987 21.0305 65.5482 20.9254Z" fill="white"/>
<path d="M35.3481 9.20684C35.3105 9.21117 35.2917 9.21333 35.353 9.24933C35.4144 9.28534 35.3764 9.20359 35.3481 9.20684Z" fill="white"/>
<path d="M35.3297 9.04986C35.309 9.04941 35.2885 9.05178 35.2685 9.05689C35.212 9.06339 35.2077 9.15 35.2783 9.14188C35.3488 9.13377 35.3543 9.0566 35.3297 9.04986Z" fill="white"/>
<path d="M41.5237 7.69624C41.4908 7.70003 41.472 7.70219 41.5276 7.72929C41.5831 7.75639 41.5514 7.68827 41.5237 7.69624Z" fill="white"/>
<path d="M41.5053 7.58262L41.4442 7.58965C41.3877 7.59615 41.3911 7.66751 41.4518 7.65575C41.5124 7.644 41.5299 7.58935 41.5053 7.58262Z" fill="white"/>
<path d="M45.7503 6.83385C45.7785 6.8306 45.7753 6.80227 45.7476 6.81024C45.7199 6.81821 45.6975 6.83036 45.7503 6.83385Z" fill="white"/>
<path d="M45.4095 3.66611L45.3719 3.67044C45.3719 3.67044 45.3484 3.67314 45.3295 3.67531C45.3107 3.67747 45.3328 3.70364 45.3339 3.71308C45.335 3.72252 45.4662 3.70265 45.4095 3.66611Z" fill="white"/>
<path d="M45.7318 6.7204L45.6753 6.72689C45.6189 6.73339 45.616 6.79113 45.6813 6.77883C45.7466 6.76654 45.7559 6.72242 45.7318 6.7204Z" fill="white"/>
<path d="M54.1413 3.94934L54.0988 3.91118C54.0988 3.91118 54.0988 3.91118 54.0564 3.91605C54.0141 3.92092 54.0629 3.97271 54.0646 3.98687C54.0662 4.00104 54.1985 3.99061 54.1413 3.94934Z" fill="white"/>
<path d="M63.0886 7.64629C63.1215 7.6425 63.1803 7.57354 63.1609 7.57099C63.1403 7.57021 63.1197 7.57258 63.0998 7.57802C63.0455 7.6034 63.0373 7.65696 63.0886 7.64629Z" fill="white"/>
<path d="M63.1673 7.70514C63.2002 7.70135 63.1964 7.6683 63.1635 7.67208C63.1306 7.67587 63.1134 7.6922 63.1673 7.70514Z" fill="white"/>
<path d="M70.7995 28.1778C70.7771 28.1814 70.7564 28.1923 70.7406 28.2087C70.6897 28.2676 70.699 28.4739 70.7702 28.4657C70.8413 28.4575 70.8271 28.2084 70.7995 28.1778Z" fill="white"/>
<path d="M68.4542 13.2174C68.4503 13.1841 68.4148 13.1255 68.4003 13.0838C68.3859 13.042 68.3712 13.0389 68.3664 13.1648C68.3617 13.2908 68.385 13.3267 68.3899 13.3695C68.3949 13.4123 68.5217 13.3447 68.4542 13.2174Z" fill="white"/>
<path d="M70.8561 28.7548C70.8818 28.7277 70.874 28.6177 70.8408 28.6215C70.8075 28.6253 70.793 28.6656 70.8561 28.7548Z" fill="white"/>
<path d="M66.8338 46.9358C66.7978 46.9159 66.7661 46.8906 66.7661 46.8906C66.7655 46.8858 66.7365 46.6335 66.732 46.5521C65.3338 44.9761 64.2144 43.172 63.4222 41.2178C63.819 41.1577 64.2095 41.0839 64.6032 41.0386C66.6155 40.6915 68.7255 40.2318 70.2082 38.8315C72.4678 36.7053 72.5596 33.1983 72.3999 30.0964C72.2176 26.5325 71.9101 22.9669 71.4774 19.3996L71.4697 19.333L71.4626 19.2711C71.4555 19.248 71.4528 19.2238 71.4544 19.1997C71.4557 19.158 71.4509 19.1163 71.4402 19.076C71.4332 19.0665 71.4288 19.0554 71.4275 19.0437C71.4261 19.032 71.4279 19.0201 71.4325 19.0093C71.2793 17.6766 71.0968 16.3408 70.8852 15.0019C70.6114 12.9907 70.0621 11.0269 69.2528 9.16612C68.6083 7.69038 67.6876 6.35227 66.5406 5.22441C66.5123 5.27107 66.598 5.34801 66.5222 5.35674C66.4463 5.36547 66.4457 5.36071 66.4419 5.32739C66.442 5.32255 66.4411 5.31775 66.4392 5.31329C66.4373 5.30884 66.4345 5.30485 66.4309 5.30159C66.4274 5.29834 66.4231 5.2959 66.4185 5.29444C66.4139 5.29298 66.4091 5.29253 66.4043 5.29313C66.3289 5.30662 66.3344 5.22883 66.3961 5.22174C66.3607 5.20651 66.3901 5.16938 66.3901 5.16938L66.3868 5.14082C66.3678 5.12137 66.3465 5.10438 66.3233 5.09025C66.2248 5.11122 66.2226 5.09218 66.2187 5.05887L66.21 4.98271L66.2062 4.94939C66.0463 4.81345 65.8818 4.67804 65.7177 4.5474C65.7233 4.5557 65.7269 4.56522 65.728 4.57516C65.7291 4.5851 65.7279 4.59517 65.7243 4.60452C65.7209 4.65797 65.663 4.69838 65.5169 4.68142C65.3707 4.66447 65.4494 4.55415 65.6107 4.5356C65.6408 4.53074 65.6716 4.53563 65.6988 4.54958C64.4238 3.60228 62.9669 2.93066 61.4203 2.57721C60.9647 2.46081 60.5077 2.3735 60.047 2.29627C60.0277 2.33707 60.0309 2.36563 60.0309 2.36563C60.0256 2.36329 60.0197 2.36241 60.0138 2.36308C60.008 2.36375 60.0024 2.36595 59.9977 2.36945C60.0052 2.3927 60.0147 2.39161 59.9673 2.39707C59.9198 2.40252 59.9189 2.43639 59.9722 2.4399C60.0255 2.44342 59.9809 2.51606 59.9815 2.52082C59.982 2.52558 59.9521 2.55796 59.9853 2.55414C60.0185 2.55032 60.0007 2.56202 59.8952 2.5645C59.7897 2.56698 59.8202 2.53937 59.8169 2.51081C59.8136 2.48225 59.858 2.49162 59.8136 2.48225C59.7693 2.47288 59.7887 2.43208 59.8275 2.39385C59.8664 2.35562 59.8678 2.32652 59.8204 2.33197C59.8006 2.33868 59.7796 2.3411 59.7587 2.33906C59.7102 2.335 59.7226 2.2757 59.75 2.26291C59.7773 2.25011 59.7741 2.22156 59.7741 2.22156C58.4053 2.03362 57.0231 1.96473 55.6428 2.01564C55.6417 2.01357 55.6409 2.01234 55.6406 2.01207C55.6353 2.00786 55.6406 2.01207 55.5932 2.01753C55.6097 2.01688 55.6263 2.01625 55.6428 2.01564C55.6594 2.04606 55.7555 2.25908 55.7632 2.32591C55.7888 2.3741 55.7953 2.43024 55.7813 2.48299C55.755 2.63069 55.7384 2.69529 55.7654 2.72112C55.7727 2.72977 55.7783 2.73979 55.7817 2.7506C55.7852 2.7614 55.7865 2.77278 55.7855 2.78409C55.7846 2.7954 55.7815 2.80641 55.7763 2.81649C55.7711 2.82657 55.764 2.83553 55.7553 2.84284C55.7227 2.85142 55.7271 2.8895 55.7336 2.94662C55.7402 3.00373 55.7156 3.04032 55.7156 3.04032C55.711 3.03832 55.7059 3.03756 55.7009 3.03813C55.6959 3.03871 55.6912 3.04059 55.6871 3.0436C55.6871 3.0436 55.6961 3.03775 55.6539 3.04742C55.6118 3.05708 55.6092 3.07667 55.6577 3.08073C55.7063 3.0848 55.6616 3.11405 55.6649 3.14261C55.6681 3.17117 55.6302 3.17553 55.6681 3.17117C55.7061 3.1668 55.6877 3.17375 55.5828 3.18099C55.4779 3.18823 55.5067 3.14633 55.5067 3.14633C55.4386 3.13969 55.4623 3.13696 55.499 3.0797C55.5357 3.02243 55.5357 3.02243 55.493 3.02734L55.4266 3.03498C55.3733 3.03146 55.3968 2.98535 55.4195 2.9731C55.4421 2.96085 55.4532 2.97404 55.4394 2.93705C55.4255 2.90007 55.4076 2.91177 55.4587 2.89625C55.5098 2.88073 55.5045 2.87651 55.3968 2.85996C55.3515 2.85262 55.3069 2.84162 55.2633 2.82709C55.1555 2.76715 55.2419 2.64146 55.375 2.66957L55.4414 2.66193C55.4735 2.64859 55.3784 2.61612 55.3168 2.62321C55.2387 2.6129 55.2186 2.60556 55.2565 2.6012C55.2802 2.59002 55.3069 2.58696 55.3324 2.59247C55.4036 2.58429 55.4284 2.59108 55.4036 2.58429C55.3788 2.5775 55.3618 2.55533 55.3998 2.55097C55.4377 2.54661 55.3928 2.53248 55.3334 2.55861C55.2739 2.58474 55.2401 2.5838 55.2357 2.54572C55.2314 2.50764 55.1755 2.52371 55.2314 2.50764C55.2872 2.49157 55.2649 2.4652 55.2237 2.441C55.1825 2.41681 55.1845 2.39246 55.2171 2.38389C55.2498 2.37531 55.2465 2.34675 55.2465 2.34675C55.2496 2.34013 55.2537 2.33404 55.2586 2.32868C55.2759 2.32764 55.2977 2.31998 55.3233 2.30416C55.3906 2.26266 55.3233 2.30416 55.2949 2.30743C55.2844 2.30991 55.2746 2.31473 55.2662 2.32154C55.2635 2.32374 55.261 2.32613 55.2586 2.32868C55.2305 2.33038 55.214 2.31465 55.2109 2.28815C55.2126 2.2763 55.2105 2.26423 55.2049 2.25363C55.1994 2.24303 55.1907 2.23442 55.1801 2.229C55.1294 2.20589 55.2137 2.18656 55.2907 2.18735C55.3677 2.18814 55.3755 2.17277 55.3627 2.1453C55.35 2.11783 55.3653 2.12572 55.2693 2.12711C55.1733 2.1285 55.1458 2.09791 55.2407 2.087C55.2568 2.07212 55.2757 2.06066 55.2963 2.05331C55.317 2.04597 55.3389 2.04289 55.3607 2.04426L55.3569 2.01094C53.9117 2.0662 52.4558 2.19505 51.0295 2.33014C47.6887 2.6468 44.335 2.96333 40.9686 3.27974C40.9672 3.28298 40.966 3.28629 40.965 3.28966L39.8369 3.38576L38.3521 3.5565C38.3667 3.63834 38.3762 3.721 38.3806 3.80401C38.3828 3.82305 38.4125 3.87268 38.3855 3.84685C38.3585 3.82102 38.3525 3.76866 38.3525 3.76866C38.3151 3.70644 38.2922 3.6365 38.2857 3.56414C37.3625 3.6821 36.4735 3.98954 35.674 4.46731C35.6772 4.48461 35.6792 4.5021 35.6801 4.51967C35.6548 4.61584 35.6404 4.71456 35.637 4.81398C35.6372 4.85737 35.6045 5.11672 35.6089 5.1548C35.6039 5.18209 35.6071 5.21028 35.6182 5.23572L35.6275 5.31663C35.6275 5.31663 35.6387 5.83138 35.5684 6.55804C35.5201 6.59736 35.4814 6.55358 35.435 6.44316C35.3978 6.36798 35.3879 6.2821 35.4071 6.20041C35.4363 5.9945 35.3695 5.6646 35.2936 5.67332C35.2705 5.66835 35.249 5.6575 35.2312 5.64181C35.2134 5.62613 35.1999 5.60613 35.192 5.58373C35.1468 5.48284 35.1468 5.48284 35.1019 5.5941C35.0782 5.6455 35.065 5.70112 35.063 5.75772C35.064 5.80514 35.0598 5.85252 35.0504 5.89902C35.0103 6.05275 35.0892 6.84029 35.1049 7.3659C35.0994 7.2856 35.0893 7.19804 35.076 7.08246L35.0163 6.56365C34.995 6.44083 34.9807 6.31686 34.9736 6.19239C34.9703 6.10202 34.9727 6.01153 34.9809 5.92148C34.984 5.78127 35.0161 5.14098 35.0233 4.95208C34.7915 5.16329 34.5784 5.39434 34.3865 5.6426C34.3756 5.79819 34.3893 5.91718 34.3947 5.96478L34.4101 6.09805L34.4221 6.20277C34.4207 6.40129 34.4338 6.59965 34.4615 6.79625L34.5163 7.27222L34.5513 7.57684C34.5587 7.62635 34.5529 7.67695 34.5345 7.72346C34.5057 7.76535 34.5084 7.78915 34.5226 7.9129C34.5458 8.07138 34.5562 8.23147 34.5537 8.3916C34.5628 8.50449 34.5597 8.61803 34.5445 8.73024L34.5588 8.85399C34.5789 8.91202 34.586 8.97378 34.5796 9.03486C34.5657 9.09088 34.5726 9.15004 34.5987 9.20146C34.6227 9.31742 34.6362 9.4353 34.6392 9.55368L34.7011 10.0915C34.7297 10.2742 34.7365 10.4596 34.7213 10.6438C34.7075 10.6997 34.7011 10.7572 34.7025 10.8148C34.7025 10.8148 34.8155 11.3371 34.8281 11.4466C34.8554 11.531 34.8656 11.62 34.8582 11.7084C34.8294 11.7502 34.8374 11.7783 34.8735 11.8416C34.9096 11.905 34.914 11.9431 34.9031 12.0986C34.8961 12.179 34.9054 12.26 34.9304 12.3366C34.9552 12.4001 34.974 12.4658 34.9866 12.5327C34.9866 12.5487 34.9885 12.5647 34.9921 12.5803C34.9741 12.7246 34.9716 12.8704 34.9844 13.0152C34.9925 13.0433 34.9775 13.2475 35.006 13.495C35.0087 13.5188 35.3822 17.5607 35.6039 19.99C35.5919 20.0098 35.5846 20.032 35.5825 20.0551C35.5822 20.0937 35.6097 20.1243 35.5475 20.1266C35.4853 20.129 35.4714 20.2174 35.5338 20.2584C35.5613 20.2956 35.5785 20.3394 35.5838 20.3853C35.5891 20.4313 35.5822 20.4778 35.5639 20.5202C35.5656 20.5345 35.536 20.5283 35.5771 20.6345C35.6181 20.7407 35.6044 20.7471 35.4957 20.721C35.3869 20.6949 35.4112 20.5715 35.4052 20.5192C35.3992 20.4668 35.4366 20.4577 35.3926 20.4097C35.3486 20.3617 35.3824 20.2373 35.4083 20.1282C35.4342 20.0191 35.4284 19.8847 35.4227 19.9192C35.417 19.9536 35.361 19.9262 35.361 19.9262C35.3333 19.8729 35.3196 19.8135 35.3211 19.7534C35.3226 19.6933 35.3393 19.6346 35.3696 19.5829C35.4035 19.5234 35.4143 19.4535 35.3999 19.3865C35.3851 19.3224 35.3926 19.2551 35.4212 19.1959C35.4705 19.1227 35.4667 19.0894 35.3526 18.9337C35.2972 18.8561 35.2505 18.7725 35.2134 18.6845C35.0832 18.304 35.1118 17.7172 35.2709 17.9304C35.307 17.9937 35.322 18.0402 35.345 17.9894C35.368 17.9385 35.2517 17.7638 35.1921 17.7465C35.1324 17.7293 35.1025 17.6363 35.1176 17.6008C35.1328 17.5653 35.1147 17.5336 35.1935 17.592C35.2724 17.6505 35.2718 17.6457 35.2581 17.5267C35.2413 17.4713 35.2346 17.4132 35.2384 17.3554C35.2632 17.2368 35.2096 17.1465 35.1589 17.2488C35.1082 17.3511 35.07 17.3121 35.0492 17.1312C35.0284 17.0684 35.0207 17.0019 35.0268 16.936C35.0504 16.8222 35.0367 16.7037 34.9879 16.5981C34.9619 16.5567 34.9454 16.51 34.9398 16.4614C34.9342 16.4127 34.9396 16.3635 34.9556 16.3173C34.9733 16.2621 34.9797 16.204 34.9744 16.1463C34.9658 16.0837 34.977 16.0201 35.0063 15.9642L34.9965 15.8785C34.9492 16.0528 34.894 15.9482 34.8699 15.7388C34.8729 15.6329 34.8608 15.5271 34.8337 15.4246C34.7774 15.3105 34.8429 15.2114 34.9295 15.2545C35.0162 15.2975 35.0102 15.2452 34.9938 15.1024C34.9909 15.0697 34.9793 15.0383 34.9602 15.0116C34.941 14.985 34.9151 14.964 34.885 14.9509C34.7799 14.9148 34.7316 14.7033 34.8303 14.7257C34.8425 14.6231 34.887 14.5504 34.9377 14.5735C34.9109 14.4657 34.9326 14.2365 34.9868 14.2062C35.041 14.1758 35.0441 14.161 34.9742 14.0967C34.9043 14.0324 34.8972 13.9705 34.8737 13.7659L34.8277 13.366C34.8073 13.277 34.7969 13.186 34.7965 13.0947C34.8178 13.0099 34.8075 12.9202 34.7675 12.8425C34.6973 12.6914 34.7119 12.6511 34.7451 12.6473C34.7783 12.6435 34.7914 12.5069 34.7254 12.476C34.6593 12.445 34.6617 12.382 34.7139 12.376C34.6398 12.212 34.6188 12.0289 34.6537 11.8524C34.6742 11.7962 34.6814 11.7359 34.6745 11.6764C34.6677 11.6169 34.6471 11.5598 34.6143 11.5097C34.5996 11.4884 34.5904 11.4638 34.5874 11.4381C34.5845 11.4123 34.5879 11.3863 34.5973 11.3622C34.6094 11.3012 34.6021 11.2379 34.5765 11.1813C34.5562 11.1306 34.5141 11.0149 34.4953 10.935C34.4765 10.8552 34.4355 10.749 34.43 10.7014C34.4189 10.6698 34.4154 10.6359 34.42 10.6027C34.4245 10.5695 34.4369 10.5378 34.4561 10.5103C34.4836 10.4532 34.4978 10.3906 34.4975 10.3271C34.4913 10.2843 34.4962 10.2405 34.5117 10.2001C34.5269 10.1646 34.5601 10.1608 34.4174 9.965C34.2747 9.76921 34.2993 9.73262 34.3889 9.7175C34.4785 9.70237 34.4929 9.61873 34.4075 9.62855C34.3799 9.62504 34.3534 9.61596 34.3294 9.60184C34.3054 9.58772 34.2845 9.56886 34.268 9.54641C34.2515 9.52396 34.2397 9.49838 34.2333 9.47123C34.2269 9.44407 34.2261 9.4159 34.2309 9.38843C34.2468 9.31955 34.2385 9.24724 34.2074 9.18376C34.1669 9.08232 34.1806 8.95054 34.2138 8.94672C34.247 8.9429 34.2322 8.81439 34.1957 8.78965C34.1832 8.76125 34.1796 8.72971 34.1853 8.69921C34.1845 8.68397 34.1803 8.66911 34.1729 8.65576C34.1655 8.6424 34.1552 8.63089 34.1428 8.62211C34.082 8.59534 34.1134 8.28308 34.1689 8.18025C34.2243 8.07742 34.2455 8.09428 34.1871 8.00454C34.1287 7.9148 34.214 7.86159 34.2824 7.955C34.3508 8.04841 34.3628 8.02774 34.3676 7.9018C34.3723 7.77587 34.348 7.77383 34.2869 7.78568C34.2258 7.79754 34.2264 7.8023 34.2006 7.57859C34.1902 7.50247 34.1943 7.42506 34.2129 7.35052C34.2413 7.34724 34.2306 7.29543 34.2282 7.23301C34.2258 7.17059 34.2176 7.09919 34.251 7.13876C34.2844 7.17832 34.3761 7.05685 34.3668 6.97593C34.3575 6.89501 34.2561 6.84881 34.1946 6.77389C34.1331 6.69898 34.1474 6.69734 34.1853 6.69298C34.2232 6.68861 34.2183 6.52039 34.1618 6.48831C34.1556 6.64335 34.1083 6.69219 34.0468 6.61727C33.9853 6.54236 34.0578 6.46169 34.0238 6.41736C33.9899 6.37304 33.9861 6.33972 33.9817 6.30164C33.5608 7.08211 33.2794 7.93057 33.1501 8.80861C32.5329 12.7618 33.0993 17.394 33.3655 21.3807C33.6058 25.8549 34.22 30.3013 35.2016 34.6731C35.7466 36.988 36.5965 39.4463 38.582 40.7467C39.9436 41.6367 41.6287 41.8287 43.2486 41.9559C47.8077 42.3012 52.3863 42.2922 56.9434 41.9291C58.2553 43.5379 59.7804 44.9592 61.4761 46.1534C61.4799 46.0613 61.5711 45.1827 61.5876 44.9494C61.5886 44.9749 61.5916 45.0004 61.5963 45.0255C61.6399 45.1121 61.6335 45.2238 61.5956 45.2281C61.5576 45.2325 61.5783 45.37 61.6115 45.3662C61.6317 45.3856 61.6448 45.4113 61.6487 45.4391C61.65 45.454 61.655 45.4683 61.6631 45.4808C61.6712 45.4933 61.6823 45.5037 61.6954 45.5109C61.774 45.5259 61.7684 45.8111 61.7397 45.8964C61.7111 45.9817 61.6852 45.9654 61.7556 46.0344C61.826 46.1035 61.754 46.1455 61.6651 46.0834C61.5763 46.0213 61.5753 46.0552 61.5899 46.1403C61.6045 46.2254 61.5914 46.2366 61.6852 46.2161C61.779 46.1957 61.779 46.1957 61.7981 46.3623C63.3412 47.4094 65.0403 48.2038 66.8318 48.7156C66.8296 48.4458 66.8387 48.1072 66.784 47.6312C66.7973 47.6241 66.8093 47.6145 66.8192 47.603L66.7743 47.4635C66.7446 47.4139 66.7431 47.443 66.7683 47.4112C66.7935 47.3793 66.7655 47.3874 66.765 47.3826L66.7612 47.3493L66.7557 47.3017C66.7341 47.2751 66.719 47.2438 66.7115 47.2103L66.6973 47.0866C66.7218 47.0786 66.7476 47.0756 66.7732 47.0778C66.8491 47.0691 66.937 47.1651 66.8491 47.0691C66.7612 46.9731 66.7737 46.9572 66.8371 46.9644C66.8977 46.9713 66.8721 46.9571 66.8383 46.9383L66.8338 46.9358Z" fill="white"/>
<path d="M66.8946 2.41538C66.8946 2.41538 66.8946 2.41538 66.8908 2.38206L66.7981 2.28662C66.7981 2.28662 66.8019 2.31994 66.803 2.32946C66.8041 2.33898 66.8756 2.41756 66.8946 2.41538Z" fill="white"/>
<path d="M68.8823 48.6545C68.8867 48.6926 68.8911 48.7306 68.8723 48.7762C68.6824 48.7546 68.4724 48.7257 68.2418 48.6847C68.1927 48.673 68.1419 48.6707 68.092 48.6779L67.5996 48.5753C67.4122 48.5342 67.2343 48.4919 67.0506 48.4407C67.0506 48.4407 67.0473 48.4122 67.0468 48.4074C67.0462 48.4027 67.0203 48.3863 67.0429 48.3741C67.0655 48.3618 67.0714 48.3708 67.0391 48.3408C67.0068 48.3107 67.0325 48.2837 67.08 48.2782C67.1274 48.2728 67.08 48.2782 67.08 48.2782C67.08 48.2782 67.1274 48.2728 67.2033 48.264C67.2792 48.2553 67.2602 48.2575 67.1951 48.1926C67.252 48.1861 67.2392 48.1586 67.1907 48.1545C67.1422 48.1505 67.0816 48.1671 67.0579 48.1698C67.0342 48.1725 67.0208 48.1403 67.0772 48.129C67.1336 48.1177 67.1294 48.123 67.0772 48.129C67.0249 48.1388 66.9709 48.1333 66.9216 48.1132C66.9617 48.0906 67.0056 48.0758 67.0511 48.0693L67.0748 48.0666C67.0748 48.0666 67.0986 48.0639 67.0705 48.0285C67.0424 47.9932 67.0655 47.9857 66.976 48.0008C66.8864 48.0159 66.8906 48.0106 66.8906 48.0106C66.8906 48.0106 66.8867 47.9773 66.9712 48.0013C67.0557 48.0254 67.1278 47.9833 67.0661 47.9904C67.0044 47.9975 67.0281 47.9948 67.0617 47.9524C67.0953 47.9099 67.1314 47.8479 67.0497 47.8476C66.9679 47.8474 67.0117 47.852 67.0117 47.852C67.0117 47.852 67.0117 47.852 66.9833 47.8553C66.9548 47.8586 66.9457 47.821 66.9789 47.8172C67.0121 47.8134 67.0325 47.7821 67.0008 47.7568C66.9965 47.7541 66.9928 47.7505 66.9901 47.7463C66.9874 47.742 66.9857 47.7371 66.9851 47.7321C66.9845 47.7271 66.9851 47.7219 66.9868 47.7172C66.9884 47.7124 66.9912 47.708 66.9948 47.7045C67.0327 47.7001 66.9645 47.6501 66.8532 47.6436C66.7419 47.6371 66.7915 47.6507 66.8816 47.6403C66.9718 47.6299 67.0002 47.6267 66.9094 47.5889C66.8185 47.5511 66.8269 47.5405 66.8506 47.5378C66.8618 47.5396 66.8733 47.5382 66.8838 47.534C66.8838 47.534 66.9123 47.5307 66.9475 47.5025C66.9827 47.4744 67.0139 47.4949 67.0011 47.4674L66.9566 47.4147C66.9444 47.395 66.9294 47.3772 66.9121 47.3619C66.9121 47.3619 66.9088 47.3333 66.9077 47.3238C66.9066 47.3143 66.9077 47.3238 66.9044 47.2953C66.9012 47.2667 66.8546 47.2383 66.8968 47.2286C66.9389 47.219 66.9639 47.1438 66.9185 47.1249C66.9707 47.1189 66.9849 47.1172 66.9422 47.1221C66.8995 47.127 66.9141 47.0868 66.9389 47.0936C66.9637 47.1004 66.9864 47.0881 66.9345 47.0555C66.8827 47.0229 66.897 47.0212 66.9285 47.0031C66.9379 46.998 66.9459 46.9906 66.9516 46.9815C66.9573 46.9724 66.9605 46.9619 66.961 46.9512L66.9522 46.875C66.9479 46.8369 66.9462 46.8227 66.9008 46.8038C66.8554 46.7849 66.8448 46.7765 66.9008 46.8038C66.9568 46.8311 67.0099 46.7912 66.9955 46.7495L67.0382 46.7446C67.5803 47.3043 68.1652 47.8208 68.7875 48.2892C68.7869 48.3021 68.7883 48.3149 68.7918 48.3273C68.8847 48.3407 68.8792 48.5439 68.8823 48.6545ZM67.1801 48.3969C67.1279 48.4029 67.1042 48.4056 67.1449 48.4251C67.1856 48.4445 67.1829 48.4207 67.1971 48.4191C67.2113 48.4174 67.2245 48.4063 67.1896 48.3958L67.1801 48.3969ZM67.3374 48.1763L67.3896 48.1703C67.4228 48.1664 67.418 48.167 67.3896 48.1703C67.3611 48.1735 67.2989 48.1759 67.3374 48.1763ZM67.3905 48.011C67.3932 48.0348 67.3938 48.0396 67.3938 48.0396C67.3938 48.0396 67.4401 48.0246 67.3927 48.03L67.3905 48.011Z" fill="white"/>
<path d="M46.6093 15.8066C46.6377 15.6251 46.6173 15.4391 46.5504 15.268C46.4834 15.0968 46.3722 14.9467 46.2282 14.8329C46.1399 14.7755 45.8826 14.5447 45.7177 14.5733L45.4711 14.6016C45.2913 14.6224 45.1201 14.6902 44.9748 14.7984C44.8294 14.9065 44.7151 15.0511 44.6431 15.2177C44.094 17.046 43.1039 18.9683 42.5235 20.9014C41.2929 19.1862 40.0983 17.3656 38.5922 15.9714C38.0532 15.4643 37.2789 16.1707 37.4946 16.7921C38.3661 19.272 40.3635 21.5115 41.9457 23.5673C41.9884 23.6208 42.036 23.6702 42.0877 23.715C42.0601 27.1953 42.9658 30.8914 43.4369 34.3192C43.6361 35.801 45.9373 35.5412 45.7375 34.0546C45.3018 30.7675 44.6581 27.427 44.4228 24.1264C44.2241 21.3955 46.1489 18.5314 46.6093 15.8066Z" fill="#885574"/>
<path d="M55.7996 30.6068C54.9647 30.7028 54.1253 30.8427 53.2855 30.8959C52.18 30.9796 52.5382 31.2519 52.5217 29.9806C52.4926 28.3057 52.3473 26.6248 52.24 24.9395C52.8401 24.9332 53.4677 24.8321 53.9369 24.8167C54.2697 24.776 54.5732 24.6058 54.782 24.3428C54.9908 24.0798 55.0884 23.7449 55.0537 23.4103C55.0103 23.0766 54.8391 22.7729 54.5764 22.5636C54.3136 22.3543 53.98 22.2559 53.6463 22.2893C53.1355 22.3143 52.6268 22.3728 52.1236 22.4644C52.0541 20.1045 52.0174 17.654 51.5137 15.3632C52.1719 15.2186 52.8526 15.2092 53.5147 15.3357C53.8473 15.385 54.1857 15.3011 54.4569 15.102C54.7281 14.903 54.9103 14.6048 54.9641 14.272C55.0092 13.939 54.9238 13.6012 54.7259 13.3299C54.5279 13.0585 54.2329 12.8747 53.9028 12.817C52.7437 12.5597 51.3088 12.662 50.3725 13.4641C50.3272 13.5021 50.2854 13.544 50.2475 13.5894C50.151 13.6333 50.0659 13.6989 49.9987 13.781C49.9315 13.8632 49.884 13.9597 49.8598 14.0632C49.3681 16.2659 49.6349 18.6272 49.7387 20.8675C49.8622 23.5299 49.981 26.1928 50.1188 28.8535C50.1848 30.1384 49.9004 32.2208 51.1901 33.0708C52.4798 33.9207 54.7607 33.1087 56.0738 32.9914C57.5737 32.7852 57.3027 30.4291 55.7996 30.6068Z" fill="#885574"/>
<path d="M61.3983 18.1041C60.8099 17.3386 60.3906 16.4563 60.1682 15.5159C59.9874 14.4034 61.1567 11.573 62.6314 13.2795C62.7964 13.5003 63.042 13.6465 63.3142 13.6857C63.5864 13.7249 63.8629 13.6541 64.0829 13.4887C64.3029 13.3234 64.4484 13.0771 64.4873 12.804C64.5262 12.5309 64.4553 12.2534 64.2904 12.0325C63.7963 11.3001 63.0405 10.7861 62.1796 10.5969C61.3186 10.4077 60.4184 10.5579 59.6652 11.0163C57.7056 12.1146 57.3215 14.5846 57.8711 16.6048C58.6946 19.5869 61.2972 21.781 62.5877 24.5599C62.9218 25.2568 63.2054 25.9768 63.4362 26.7146C63.6924 27.5628 64.177 28.6838 63.8955 29.5795C63.8387 29.7942 63.7186 29.9867 63.5509 30.1316C63.3831 30.2766 63.1756 30.3672 62.9555 30.3917C62.7317 30.3645 62.5174 30.2846 62.33 30.1587C62.1426 30.0328 61.9875 29.8643 61.8773 29.6669C61.3992 28.9792 61.1033 27.8268 60.5514 27.2489C60.2032 26.942 59.7679 26.7525 59.3068 26.7072C59.2039 26.6914 59.0988 26.7097 59.0073 26.7594C58.9159 26.8091 58.8431 26.8874 58.8001 26.9824C57.9724 28.8958 60.0271 31.8425 61.9426 32.4083C63.9938 33.026 65.7491 31.4883 66.1089 29.5178C66.565 27.0058 65.2032 24.0663 64.0031 21.9473C63.2443 20.5732 62.2538 19.3995 61.3983 18.1041Z" fill="#885574"/>
</g>
<path d="M8.64641 30.5364C8.7793 31.692 8.01501 32.9063 6.35353 34.1793C4.86872 35.3135 3.49827 35.9602 2.24218 36.1194C1.74661 36.1912 1.47779 36.0443 1.43574 35.6786C1.40714 35.4299 1.63953 35.1957 2.13291 34.9759L3.04344 34.5822C4.62427 33.8965 5.73632 33.0646 6.37959 32.0865C6.55575 31.8143 6.63121 31.5685 6.60598 31.349C6.54813 31.1037 6.35303 30.889 6.02067 30.7049C5.74059 30.5889 5.45967 30.4656 5.17791 30.335L4.02726 29.8003C2.33671 29.0165 1.41322 27.9444 1.25678 26.584C1.14912 25.6478 1.5578 24.756 2.48283 23.9085C3.32853 23.1443 4.24132 22.7059 5.22121 22.5932C5.96709 22.5074 6.37705 22.7863 6.45106 23.43C6.48639 23.7372 6.3046 24.0248 5.9057 24.293C5.76786 24.383 5.43115 24.5477 4.89558 24.7871C3.81317 25.297 3.30057 25.8006 3.35776 26.2979C3.42 26.8392 3.85098 27.3009 4.6507 27.6833L5.89667 28.2736C6.71101 28.6543 7.26243 28.9392 7.55091 29.1283C8.22573 29.5843 8.5909 30.0536 8.64641 30.5364Z" fill="white"/>
<path d="M19.1751 29.7702C19.2256 30.2091 18.8922 30.5957 18.1749 30.9302L18.2203 31.3251C18.296 31.9834 18.2922 32.4655 18.2088 32.7715C18.0562 33.2486 17.702 33.519 17.1463 33.5829C16.4296 33.6653 16.0267 33.3189 15.9376 32.5436C15.9275 32.4558 15.9253 32.3079 15.931 32.0997C14.8788 32.8729 13.7605 33.3275 12.5758 33.4638C11.7276 33.5613 10.9972 33.46 10.3848 33.1599C9.66154 32.7985 9.25367 32.2155 9.16115 31.4109C9.01144 30.109 9.63317 28.8148 11.0263 27.5281C11.8833 26.733 12.8017 26.279 13.7816 26.1664C14.3227 26.1041 14.9221 26.1612 15.5795 26.3375L15.413 24.8894C15.3087 23.9824 14.8763 23.5727 14.1158 23.6602C13.6332 23.7157 13.1381 23.9208 12.6306 24.2756C12.378 24.527 12.0443 24.8469 11.6296 25.2355C10.9589 25.8462 10.47 26.1692 10.1628 26.2046C9.73871 26.2533 9.49805 26.029 9.44086 25.5317C9.35675 24.8003 9.97633 24.0028 11.2996 23.1392C12.485 22.3655 13.4653 21.9341 14.2405 21.845C15.4105 21.7105 16.2595 22.0056 16.7874 22.7304C17.191 23.2769 17.466 24.1864 17.6124 25.459L18.0262 29.0575C18.2878 29.0126 18.5375 29.058 18.7754 29.1937C19.0116 29.3148 19.1448 29.5069 19.1751 29.7702ZM15.8776 30.2828L15.8272 29.844C15.7447 29.1272 15.5998 28.64 15.3923 28.3822C15.1163 28.0434 14.6492 27.9119 13.991 27.9875C13.289 28.0683 12.6466 28.4089 12.0636 29.0096C11.479 29.5955 11.2178 30.1591 11.28 30.7004C11.3624 31.4171 11.7921 31.7383 12.5689 31.6638C13.7276 31.5602 14.8306 31.0998 15.8776 30.2828Z" fill="white"/>
<path d="M26.9403 20.9404C27.0026 21.0962 27.0138 21.258 26.9738 21.4256L26.0822 25.4632C24.8647 30.9834 23.6503 35.6288 22.4391 39.3994L22.0463 40.6228C21.9033 41.0543 21.6928 41.286 21.4149 41.3179C20.9615 41.3701 20.7079 41.1621 20.6541 40.694L20.639 40.5624L23.2848 29.1642C20.7172 25.6504 19.3964 23.5717 19.3224 22.928C19.2837 22.5916 19.3541 22.3019 19.5336 22.0589C19.7131 21.8159 19.9711 21.6751 20.3075 21.6364C20.8779 21.5708 21.3292 21.8228 21.6614 22.3923L23.2888 25.1398C23.4001 25.3345 23.6413 25.6921 24.0123 26.2126C24.4167 24.8322 24.8188 23.4965 25.2186 22.2055L25.592 21.0065C25.6466 20.8372 25.7884 20.7171 26.0173 20.6463C26.5045 20.5014 26.8121 20.5994 26.9403 20.9404Z" fill="white"/>
<path d="M92.6657 34.048L93.2524 36.6435C93.3151 36.9322 93.2351 37.2003 93.0124 37.4478C92.7896 37.6953 92.5323 37.8359 92.2406 37.8694C91.6864 37.9331 91.2929 37.6603 91.0603 37.0509C91.0194 36.9521 90.8989 36.4185 90.6989 35.4503L90.493 34.431L90.4156 34.5287C89.6412 35.5054 88.9945 36.1789 88.4755 36.5493C88.1747 36.7614 87.7472 36.8993 87.193 36.9631C86.0407 37.0956 85.0787 36.7624 84.3071 35.9634C83.6038 35.2454 83.185 34.3024 83.0507 33.1343C82.8727 31.5866 83.2017 30.3356 84.0378 29.3814C84.8369 28.4906 86.0232 27.9473 87.5968 27.7516C88.1802 27.6845 88.8029 27.7017 89.4648 27.8031C89.4481 27.2724 89.412 26.7661 89.3566 26.2843C89.3214 25.9777 89.2466 25.5203 89.1323 24.912C89.0164 24.2892 88.9408 23.8245 88.9055 23.5179C88.6637 21.4153 88.9877 20.3129 89.8774 20.2106C90.5338 20.1351 90.9266 20.6595 91.0559 21.7838C91.0643 21.8568 91.0944 22.3119 91.1464 23.1492L91.1724 23.5679L91.7239 28.3644C91.9607 30.4231 92.2746 32.3177 92.6657 34.048ZM89.9643 32.3392C89.7871 31.827 89.6692 31.3154 89.6104 30.8044C89.5684 30.4393 89.5556 30.0709 89.572 29.6992C88.8226 29.6079 88.0913 29.6106 87.3783 29.7074C86.6215 29.8092 86.0456 30.1343 85.6506 30.6827C85.2684 31.2149 85.1218 31.8679 85.2108 32.6418C85.2897 33.328 85.5002 33.8734 85.8423 34.2779C86.2495 34.7341 86.7812 34.9244 87.4376 34.8489C88.619 34.7131 89.4612 33.8765 89.9643 32.3392Z" fill="white"/>
<path d="M100.203 26.7458C100.288 27.4904 100.083 27.8913 99.5874 27.9483C99.3978 27.9701 98.9822 27.8256 98.3405 27.5147C97.9613 27.5583 97.535 28.2213 97.0618 29.5036C96.5964 30.7259 96.401 31.5325 96.4755 31.9233C96.6032 32.6484 96.7082 33.3686 96.7905 34.0841C96.9433 35.4128 96.5748 36.1283 95.6851 36.2306C95.1746 36.2893 94.9146 36.3414 94.905 36.3869C94.9376 36.4127 94.9684 36.424 94.9976 36.4206C95.0105 36.4043 95.0136 36.367 95.0069 36.3086C94.9699 35.9874 94.7769 35.1441 94.4278 33.7788C94.2647 33.1318 94.033 32.145 93.7327 30.8185L93.1537 27.7117C93.0758 27.2917 93.0294 27.0159 93.0142 26.8845C92.9588 26.4027 92.964 26.0618 93.0297 25.8619C93.1144 25.5711 93.3683 25.4013 93.7913 25.3527C94.3601 25.2873 94.7629 25.4481 94.9995 25.8351C95.1789 26.1104 95.3056 26.5692 95.3795 27.2117L95.4424 27.7592C95.4492 27.8176 95.4601 27.9125 95.4752 28.0439C95.474 28.1624 95.476 28.2436 95.481 28.2874L95.5389 28.7911C95.5473 28.8641 95.5597 28.9071 95.5759 28.92C96.6654 26.4424 97.6988 25.1475 98.676 25.0351C99.5512 24.9344 100.06 25.5047 100.203 26.7458Z" fill="white"/>
<path d="M109.449 31.6297C109.547 32.225 108.954 32.9146 107.67 33.6984C106.525 34.4071 105.558 34.8067 104.771 34.8973C103.575 35.0348 102.618 34.7454 101.9 34.0291C101.233 33.3661 100.828 32.4214 100.687 31.1949C100.508 29.6326 100.79 28.1059 101.535 26.6148C102.393 24.948 103.556 24.0152 105.026 23.8166C105.464 23.7663 105.864 23.8387 106.226 24.0337C106.608 24.2709 106.823 24.6012 106.872 25.0246C106.947 25.6817 106.635 26.6274 105.935 27.8619C105.247 29.0802 104.303 30.3797 103.102 31.7605C103.505 32.6906 104.158 33.1037 105.062 32.9997C106.054 32.8856 107.18 32.3272 108.439 31.3243C108.587 31.2036 108.742 31.1341 108.902 31.1156C109.194 31.0821 109.376 31.2535 109.449 31.6297ZM105.081 26.0294C105.061 25.8542 104.934 25.78 104.701 25.8069C104.103 25.8757 103.574 26.4173 103.114 27.4318C102.703 28.3519 102.539 29.1771 102.623 29.9071C103.294 29.0606 103.854 28.2787 104.304 27.5612L104.679 26.9634C104.965 26.5014 105.099 26.1901 105.081 26.0294Z" fill="white"/>
<path d="M116.811 30.0952C116.943 31.2487 116.181 32.4607 114.525 33.7312C113.044 34.8631 111.677 35.5085 110.424 35.6674C109.93 35.739 109.662 35.5923 109.62 35.2273C109.592 34.9791 109.823 34.7453 110.315 34.526L111.223 34.1331C112.8 33.4488 113.909 32.6185 114.55 31.6423C114.726 31.3706 114.801 31.1252 114.776 30.9062C114.718 30.6614 114.524 30.447 114.192 30.2632C113.913 30.1474 113.633 30.0243 113.352 29.8939L112.204 29.3601C110.518 28.5776 109.597 27.5074 109.441 26.1494C109.333 25.215 109.741 24.3248 110.663 23.4791C111.507 22.7163 112.417 22.2788 113.394 22.1664C114.138 22.0809 114.547 22.3593 114.621 23.0018C114.656 23.3084 114.475 23.5955 114.077 23.8632C113.939 23.953 113.604 24.1173 113.07 24.3563C111.99 24.8651 111.479 25.3677 111.536 25.8641C111.598 26.4044 112.028 26.8653 112.826 27.247L114.068 27.8364C114.88 28.2164 115.43 28.5009 115.718 28.6897C116.391 29.1449 116.755 29.6134 116.811 30.0952Z" fill="white"/>
<path d="M124.438 29.2181C124.571 30.3716 123.809 31.5836 122.152 32.8541C120.671 33.986 119.305 34.6314 118.052 34.7902C117.558 34.8619 117.29 34.7152 117.248 34.3501C117.219 34.1019 117.451 33.8681 117.943 33.6488L118.851 33.2559C120.427 32.5716 121.536 31.7414 122.178 30.7651C122.354 30.4934 122.429 30.2481 122.404 30.0291C122.346 29.7842 122.151 29.5699 121.82 29.3861C121.54 29.2703 121.26 29.1471 120.979 29.0167L119.832 28.483C118.146 27.7004 117.224 26.6302 117.068 25.2723C116.961 24.3378 117.368 23.4477 118.291 22.6019C119.134 21.8392 120.044 21.4016 121.022 21.2893C121.766 21.2037 122.174 21.4822 122.248 22.1246C122.284 22.4312 122.102 22.7184 121.704 22.986C121.567 23.0758 121.231 23.2402 120.697 23.4791C119.618 23.9879 119.107 24.4905 119.164 24.987C119.226 25.5272 119.656 25.9882 120.453 26.3699L121.696 26.9593C122.508 27.3393 123.058 27.6237 123.346 27.8125C124.019 28.2677 124.383 28.7363 124.438 29.2181Z" fill="white"/>
<path d="M105.453 3.03592C105.487 3.32877 105.122 3.75774 104.359 4.32285L102.498 5.71726L103.023 7.86293C103.096 8.17703 103.23 9.01953 103.425 10.3904L103.626 11.8186C103.656 12.0733 103.696 12.3718 103.748 12.7141L103.87 13.4548C103.913 13.7207 104.008 13.8453 104.154 13.8285C104.215 13.8215 104.494 13.5572 104.99 13.0357L105.505 12.5121C105.659 12.3524 105.749 12.2711 105.773 12.2683C105.908 12.2529 106.047 12.282 106.191 12.3557C106.347 12.4153 106.431 12.5087 106.446 12.636C106.459 12.7506 106.31 13.0129 105.999 13.4228L105.564 13.9953C105.389 14.2993 105.125 14.7489 104.773 15.3441C104.251 16.1782 103.722 16.6261 103.185 16.6878C102.709 16.7425 102.433 16.4388 102.357 15.7768L102.227 14.6499C102.212 13.9808 101.98 12.4465 101.531 10.047L100.942 6.86371L100.508 7.2813C100.109 7.67559 99.7819 7.95183 99.5281 8.11002C99.3798 8.21739 99.2507 8.27738 99.1409 8.29001C98.9091 8.31667 98.7734 8.15811 98.7339 7.81434C98.6929 7.45783 98.9288 7.03722 99.4418 6.55251C99.8502 6.23462 100.253 5.91743 100.649 5.60094L100.349 3.7971C100.282 3.43067 100.312 3.10464 100.44 2.81902C100.567 2.52066 100.801 2.35185 101.142 2.31256C101.533 2.26766 101.813 2.39665 101.984 2.69953C102.093 2.89342 102.175 3.23229 102.231 3.71612L102.319 4.48006L104.888 2.79138L104.961 2.78296C105.266 2.74788 105.43 2.8322 105.453 3.03592Z" fill="white"/>
<path d="M113.15 12.6391L113.534 14.2012C113.622 14.9651 113.361 15.3821 112.751 15.4523C112.287 15.5056 111.956 15.3179 111.759 14.8891C111.63 14.6329 111.533 14.212 111.465 13.6263L111.215 11.4491C111.076 10.2395 110.935 9.50096 110.793 9.23348C110.699 9.06364 110.549 8.99065 110.341 9.0145C110 9.05379 109.505 9.80728 108.858 11.275L109.241 13.4757C109.286 13.6511 109.338 13.9419 109.397 14.3479C109.516 15.276 109.222 15.7807 108.514 15.8621C108.014 15.9196 107.677 15.7326 107.504 15.301C107.436 15.141 107.355 14.7053 107.261 13.9937C107.105 12.7473 106.908 11.4089 106.669 9.9786C106.674 10.0168 106.655 9.90928 106.614 9.65603L105.632 4.50541C105.465 3.05392 105.729 2.28818 106.425 2.20821C106.962 2.14647 107.332 2.72962 107.535 3.95765L107.857 5.95248C107.986 6.75041 108.206 7.86034 108.518 9.28226C109.576 7.52213 110.387 6.61616 110.95 6.56435C111.439 6.52097 111.808 6.77523 112.057 7.32714C112.318 7.87765 112.562 8.9204 112.788 10.4554L113.054 12.2826C113.075 12.3576 113.107 12.4764 113.15 12.6391Z" fill="white"/>
<path d="M121.111 11.8398C121.196 12.359 120.702 12.9576 119.63 13.6356C118.675 14.2486 117.867 14.593 117.209 14.6687C116.208 14.7838 115.406 14.5277 114.802 13.9005C114.241 13.32 113.899 12.495 113.776 11.4255C113.619 10.0631 113.85 8.73362 114.467 7.43706C115.178 5.9878 116.148 5.17959 117.378 5.01242C117.744 4.97032 118.079 5.035 118.383 5.20645C118.703 5.41469 118.885 5.70343 118.927 6.07267C118.993 6.64563 118.736 7.46866 118.154 8.54176C117.584 9.60073 116.799 10.7295 115.799 11.9281C116.14 12.7404 116.689 13.103 117.445 13.016C118.275 12.9206 119.214 12.4385 120.264 11.5695C120.388 11.4649 120.517 11.4049 120.651 11.3895C120.895 11.3614 121.049 11.5115 121.111 11.8398ZM117.433 6.94122C117.415 6.78843 117.309 6.72326 117.113 6.74571C116.613 6.80323 116.173 7.27316 115.792 8.15548C115.451 8.9558 115.318 9.67427 115.391 10.3109C115.949 9.57585 116.415 8.89659 116.788 8.27312L117.099 7.75357C117.338 7.35206 117.449 7.08127 117.433 6.94122Z" fill="white"/>
<path d="M85.594 5.31982C85.6277 5.61267 85.2367 6.04465 84.4212 6.61577L82.4327 8.02486L82.9751 10.1685C83.0507 10.4823 83.187 11.3246 83.3841 12.6952L83.5877 14.1231C83.617 14.3777 83.6579 14.6762 83.7104 15.0185L83.835 15.7589C83.8788 16.0248 83.9785 16.1487 84.1343 16.1308C84.1992 16.1234 84.4974 15.8569 85.0288 15.3313L85.5798 14.8035C85.7454 14.6426 85.8412 14.5606 85.8671 14.5576C86.0099 14.5412 86.1579 14.5693 86.3109 14.642C86.4755 14.7005 86.5651 14.7934 86.5797 14.9208C86.5929 15.0353 86.4325 15.2989 86.0985 15.7114L85.632 16.2876C85.4436 16.593 85.1601 17.0449 84.7817 17.6432C84.2205 18.4818 83.6543 18.9339 83.0831 18.9996C82.5769 19.0578 82.2857 18.7559 82.2095 18.0938L82.0799 16.967C82.0687 16.2974 81.8331 14.7635 81.3732 12.3652L80.7706 9.18355L80.306 9.60465C79.8782 10.0022 79.5289 10.281 79.2579 10.4412C79.0994 10.5497 78.9617 10.6107 78.8449 10.6241C78.5982 10.6525 78.4552 10.4948 78.4156 10.151C78.3746 9.7945 78.6285 9.37183 79.1774 8.88299C79.6139 8.56187 80.044 8.24149 80.4676 7.92186L80.1616 6.11869C80.0932 5.75244 80.128 5.42592 80.266 5.13913C80.4025 4.83961 80.6526 4.66895 81.016 4.62715C81.4314 4.57938 81.7288 4.70644 81.9082 5.00833C82.0225 5.2016 82.1075 5.54015 82.1631 6.02398L82.251 6.78793L84.9942 5.07918L85.0721 5.07023C85.3966 5.03291 85.5706 5.11611 85.594 5.31982Z" fill="white"/>
<path d="M93.327 12.7709C93.4793 14.0951 93.2497 15.2438 92.6382 16.2172C92.0182 17.2303 91.1889 17.7965 90.1504 17.9159C88.995 18.0488 88.0622 17.5433 87.352 16.3994C86.8066 15.5461 86.4535 14.4773 86.2927 13.1928C86.1303 11.8956 86.2533 10.7913 86.6614 9.88005C87.153 8.77857 88.0153 8.15691 89.2486 8.0151C90.5207 7.8688 91.522 8.34064 92.2524 9.43062C92.8092 10.2696 93.1674 11.3831 93.327 12.7709ZM91.6459 12.9062C91.5463 12.0404 91.3763 11.3052 91.1358 10.7007C90.7605 9.72475 90.2548 9.27332 89.6187 9.34647C88.9696 9.42111 88.542 9.93471 88.3359 10.8873C88.1899 11.562 88.1615 12.2877 88.2509 13.0644C88.4119 14.4649 88.8889 15.4099 89.6817 15.8993C89.9099 16.0536 90.1538 16.1159 90.4134 16.086C90.9716 16.0218 91.3489 15.585 91.5451 14.7755C91.687 14.1786 91.7205 13.5555 91.6459 12.9062Z" fill="white"/>
<defs>
<clipPath id="clip0">
<rect width="38.2654" height="48.8214" fill="white" transform="translate(31.2648 4.37158) rotate(-6.56003)"/>
</clipPath>
</defs>
</svg>
