<svg width="35" height="35" viewBox="0 0 35 35" fill="none" xmlns="http://www.w3.org/2000/svg">
<circle cx="17.5" cy="17.5" r="17.5" fill="white"/>
<g clip-path="url(#clip0)">
<path d="M26.0025 19.8331L18.0566 15.2286V14.886C18.0566 14.4953 18.2796 14.1319 18.6385 13.9376C19.4472 13.4999 19.9278 12.6568 19.8929 11.7374C19.8457 10.4945 18.8353 9.48397 17.5928 9.43681C16.9353 9.41157 16.3126 9.64892 15.8395 10.1044C15.366 10.5601 15.1053 11.173 15.1053 11.8301C15.1053 12.1375 15.3545 12.3867 15.6619 12.3867C15.9693 12.3867 16.2186 12.1375 16.2186 11.8301C16.2186 11.4784 16.3581 11.1504 16.6116 10.9064C16.8647 10.6627 17.1977 10.5355 17.5505 10.5493C18.2149 10.5745 18.7552 11.1149 18.7805 11.7796C18.7992 12.2723 18.5417 12.724 18.1086 12.9585C17.3899 13.3476 16.9434 14.0861 16.9434 14.886V15.2286L8.99754 19.8331C8.38223 20.1897 8 20.8531 8 21.5643C8 22.6676 8.89738 23.565 10.0004 23.565H24.9996C26.1026 23.565 27 22.6675 27 21.5643C27 20.8531 26.6178 20.1897 26.0025 19.8331ZM24.9996 22.4518H10.0004C9.51124 22.4518 9.11328 22.0536 9.11328 21.5643C9.11328 21.2488 9.2828 20.9546 9.55574 20.7964L17.5 16.1928L25.4443 20.7964C25.7172 20.9546 25.8867 21.2488 25.8867 21.5643C25.8867 22.0537 25.4888 22.4518 24.9996 22.4518Z" fill="#885574"/>
</g>
<defs>
<clipPath id="clip0">
<rect width="19" height="19" fill="white" transform="translate(8 7)"/>
</clipPath>
</defs>
</svg>
