<svg width="21" height="37" viewBox="0 0 21 37" fill="none" xmlns="http://www.w3.org/2000/svg">
<path d="M10.5 7.78277L18.9437 12.3016C19.594 12.6497 20 13.3274 20 14.065V34C20 35.1046 19.1046 36 18 36H3C1.89543 36 1 35.1046 1 34V14.065C1 13.3274 1.40597 12.6497 2.05629 12.3016L10.5 7.78277ZM10.5 7.78277V6.65116C10.5 6.0776 10.7513 5.53627 11.1275 5.10332C11.9255 4.18498 13.033 2.49496 11.5556 1.42749C9.18056 -0.288453 7.86111 3.71541 7.86111 3.71541" stroke="#885574"/>
<path d="M10.5 29V35.5" stroke="#885574" stroke-linecap="round"/>
<path d="M10.5 19V25.5" stroke="#885574" stroke-linecap="round"/>
<path d="M14 16H17" stroke="#885574" stroke-linecap="round"/>
<path d="M10.5 8V14.5" stroke="#885574" stroke-linecap="round"/>
</svg>
