<svg width="35" height="35" viewBox="0 0 35 35" fill="none" xmlns="http://www.w3.org/2000/svg">
<g clip-path="url(#clip0)">
<path d="M28.8539 24.31L22.8833 12.6196C23.4336 11.754 22.9913 10.691 22.0768 10.4162C22.1199 9.71091 22.1891 9.03511 22.2315 8.65571C22.2628 8.37434 22.0602 8.12073 21.7787 8.08935C21.4977 8.05791 21.2437 8.26066 21.2124 8.5421C21.1568 9.04099 21.0866 9.75226 21.0458 10.4791C20.9123 10.5387 20.7488 10.6439 20.6279 10.7595C20.2092 11.0372 17.7308 11.4323 15.3849 11.0378C14.0253 10.7645 14.5086 10.7266 13.9544 10.4791C13.9349 10.1326 13.7894 8.1923 13.7046 7.96877C13.2374 6.74124 13.288 5.27637 13.2857 4.10058H14.5562C14.7105 4.27975 14.9033 4.40369 15.0299 4.45031C16.123 4.85555 16.3608 5.61023 16.7166 5.99168C16.9555 6.24789 17.3278 6.38775 17.7133 6.30969V6.30962C18.1472 6.22027 18.3322 5.95798 18.5507 5.63662C19.4486 4.31523 19.9246 4.70406 20.4442 4.10052H21.7146C21.7134 4.92862 21.7328 5.40447 21.6701 6.16217C21.6458 6.44429 21.8547 6.69277 22.1368 6.71711C22.4183 6.74103 22.6674 6.53254 22.6917 6.25042C22.7295 5.79029 22.74 5.38902 22.74 5.3813C22.74 1.09195 22.779 1.26989 22.6238 0.902733C22.0282 -0.505196 19.9442 -0.173517 19.7948 1.32957C19.7761 1.51776 19.7986 2.89035 19.7834 3.0849C19.772 3.23194 19.7219 3.42752 19.593 3.49656C18.0201 4.0891 17.6602 5.31656 17.4918 5.30412C17.3051 5.22701 16.9315 4.07071 15.4076 3.49663C15.2843 3.43039 15.2321 3.24459 15.2187 3.10411C15.2078 2.99152 15.2159 2.96862 15.2131 1.47764C15.2131 0.233085 13.7665 -0.448116 12.8063 0.331864C12.4637 0.610155 12.2606 1.02715 12.2606 1.47764C12.2606 4.75301 12.1237 6.63419 12.7242 8.27372C12.7534 8.50976 12.864 9.43925 12.9236 10.4158C11.984 10.6982 11.5826 11.8076 12.113 12.6276L11.0598 14.6899C10.9308 14.9421 11.0308 15.251 11.283 15.3798C11.5349 15.5085 11.844 15.4086 11.9728 15.1563L12.9122 13.317C14.9438 14.4518 20.009 14.428 22.0895 13.3199L27.9407 24.7763C28.0313 24.9538 28.2112 25.0559 28.3977 25.0559C28.7754 25.056 29.0295 24.6539 28.8539 24.31ZM20.8127 1.47777C20.8127 1.22641 21.016 1.02687 21.2636 1.02687C21.514 1.02687 21.7145 1.22983 21.7145 1.47777V3.07519H20.8111C20.8139 2.99884 20.8121 3.06309 20.8127 1.47777ZM13.321 1.30236C13.5104 0.854813 14.1876 0.983944 14.1876 1.4777C14.1882 3.05674 14.1863 2.99836 14.1892 3.07513H13.2857C13.2972 1.41871 13.2594 1.44804 13.321 1.30236ZM22.0956 11.8684C21.8785 13.3263 14.4915 13.6587 13.0277 12.1397C12.8552 11.9607 12.8603 11.6747 13.0393 11.5021C13.2054 11.3419 13.4659 11.3353 13.6401 11.4795C14.8992 12.5303 20.4252 12.3984 21.3211 11.5152C21.6517 11.1879 22.152 11.4896 22.0956 11.8684Z" fill="#885574"/>
<path d="M30.9812 28.4753L29.9424 26.4409C29.8135 26.1887 29.5046 26.0886 29.2526 26.2175C29.0004 26.3463 28.9004 26.6551 29.0292 26.9072L30.0691 28.9433C30.219 29.2344 30.1355 29.5891 29.8705 29.787C27.6355 31.4554 25.3466 30.727 23.4161 31.2725L20.6986 17.4015C20.6442 17.1237 20.3756 16.943 20.0969 16.9969C19.819 17.0514 19.6379 17.3207 19.6923 17.5987L22.4535 31.6926C22.2488 31.8215 22.0521 31.9764 21.8647 32.1638C19.4973 34.5304 15.6333 34.6031 13.1916 32.2192C12.9719 32.0047 12.7414 31.8306 12.5028 31.6879L15.263 17.5987C15.3174 17.3208 15.1363 17.0514 14.8585 16.9969C14.5801 16.943 14.3112 17.1237 14.2567 17.4015L11.5383 31.2768C9.55776 30.712 7.36308 31.4539 5.12964 29.7869C4.86468 29.589 4.78122 29.2343 4.93195 28.9417L10.8834 17.289C11.0122 17.0369 10.9122 16.7281 10.6599 16.5992C10.408 16.4706 10.099 16.5704 9.9701 16.8227L4.01962 28.4737C3.63934 29.212 3.84818 30.1099 4.51632 30.6086C7.70262 32.9868 10.6723 31.192 12.4751 32.9527C15.2764 35.6879 19.7793 35.698 22.5897 32.8889C24.2176 31.2608 27.3486 32.9486 30.4837 30.6086C31.1517 30.1099 31.3607 29.212 30.9812 28.4753Z" fill="#885574"/>
</g>
<defs>
<clipPath id="clip0">
<rect width="35" height="35" fill="white"/>
</clipPath>
</defs>
</svg>
