<svg width="18" height="18" viewBox="0 0 18 18" fill="none" xmlns="http://www.w3.org/2000/svg">
<g clip-path="url(#clip0)">
<path d="M18 9C18 4.02891 13.9711 0 9 0C4.02891 0 0 4.02891 0 9C0 13.9711 4.02891 18 9 18C9.05273 18 9.10547 18 9.1582 17.9965V10.9934H7.22461V8.73984H9.1582V7.08047C9.1582 5.15742 10.3324 4.10977 12.048 4.10977C12.8707 4.10977 13.5773 4.16953 13.7812 4.19766V6.20859H12.6C11.6684 6.20859 11.4855 6.65156 11.4855 7.30195V8.73633H13.718L13.4262 10.9898H11.4855V17.652C15.2473 16.5727 18 13.1098 18 9Z" fill="#C89D62"/>
<path d="M130.594 -73.6953C128.238 -80.0781 124.48 -85.8555 119.598 -90.5977C114.855 -95.4805 109.082 -99.2383 102.695 -101.594C97.5156 -103.605 89.7344 -106 75.4023 -106.652C59.8984 -107.359 55.25 -107.512 16 -107.512C-23.2539 -107.512 -27.9023 -107.363 -43.4023 -106.656C-57.7344 -106 -65.5195 -103.605 -70.6953 -101.594C-77.082 -99.2383 -82.8594 -95.4805 -87.5977 -90.5977C-92.4805 -85.8555 -96.2383 -80.082 -98.5977 -73.6953C-100.609 -68.5156 -103.004 -60.7305 -103.656 -46.3984C-104.363 -30.8984 -104.516 -26.25 -104.516 13.0039C-104.516 52.2539 -104.363 56.9023 -103.656 72.4062C-103.004 86.7383 -100.609 94.5195 -98.5977 99.6992C-96.2383 106.086 -92.4844 111.859 -87.6016 116.602C-82.8594 121.484 -77.0859 125.242 -70.6992 127.598C-65.5195 129.613 -57.7344 132.008 -43.4023 132.66C-27.9023 133.367 -23.2578 133.516 15.9961 133.516C55.2539 133.516 59.9023 133.367 75.3984 132.66C89.7305 132.008 97.5156 129.613 102.695 127.598C115.516 122.652 125.648 112.52 130.594 99.6992C132.605 94.5195 135 86.7383 135.656 72.4062C136.363 56.9023 136.512 52.2539 136.512 13.0039C136.512 -26.25 136.363 -30.8984 135.656 -46.3984C135.004 -60.7305 132.609 -68.5156 130.594 -73.6953ZM16 88.4844C-25.6914 88.4844 -59.4883 54.6914 -59.4883 13C-59.4883 -28.6914 -25.6914 -62.4844 16 -62.4844C57.6875 -62.4844 91.4844 -28.6914 91.4844 13C91.4844 54.6914 57.6875 88.4844 16 88.4844ZM94.4688 -47.8281C84.7266 -47.8281 76.8281 -55.7266 76.8281 -65.4688C76.8281 -75.2109 84.7266 -83.1094 94.4688 -83.1094C104.211 -83.1094 112.109 -75.2109 112.109 -65.4688C112.105 -55.7266 104.211 -47.8281 94.4688 -47.8281Z" fill="#47484E"/>
<path d="M16 -243C-125.363 -243 -240 -128.363 -240 13C-240 154.363 -125.363 269 16 269C157.363 269 272 154.363 272 13C272 -128.363 157.363 -243 16 -243ZM162.113 73.6055C161.402 89.2539 158.914 99.9375 155.281 109.289C147.645 129.035 132.035 144.645 112.289 152.281C102.941 155.914 92.2539 158.398 76.6094 159.113C60.9336 159.828 55.9258 160 16.0039 160C-23.9219 160 -28.9258 159.828 -44.6055 159.113C-60.25 158.398 -70.9375 155.914 -80.2852 152.281C-90.0977 148.59 -98.9805 142.805 -106.324 135.324C-113.801 127.984 -119.586 119.098 -123.277 109.289C-126.91 99.9414 -129.398 89.2539 -130.109 73.6094C-130.832 57.9297 -131 52.9219 -131 13C-131 -26.9219 -130.832 -31.9297 -130.113 -47.6055C-129.402 -63.2539 -126.918 -73.9375 -123.285 -83.2891C-119.594 -93.0977 -113.805 -101.984 -106.324 -109.324C-98.9844 -116.805 -90.0977 -122.59 -80.2891 -126.281C-70.9375 -129.914 -60.2539 -132.398 -44.6055 -133.113C-28.9297 -133.828 -23.9219 -134 16 -134C55.9219 -134 60.9297 -133.828 76.6055 -133.109C92.2539 -132.398 102.938 -129.914 112.289 -126.285C122.098 -122.594 130.984 -116.805 138.328 -109.324C145.805 -101.98 151.594 -93.0977 155.281 -83.2891C158.918 -73.9375 161.402 -63.2539 162.117 -47.6055C162.832 -31.9297 163 -26.9219 163 13C163 52.9219 162.832 57.9297 162.113 73.6055Z" fill="#47484E"/>
</g>
<defs>
<clipPath id="clip0">
<rect width="18" height="18" fill="white"/>
</clipPath>
</defs>
</svg>
