<svg width="17" height="19" viewBox="0 0 17 19" fill="none" xmlns="http://www.w3.org/2000/svg">
<g clip-path="url(#clip0)">
<path d="M15.1838 7.00594C15.3629 6.89339 15.4536 6.79708 15.561 6.78316C15.6342 6.77388 15.8133 6.88759 15.8052 6.9282C15.7877 7.01813 15.697 7.14461 15.6049 7.16491C15.5128 7.18522 15.3856 7.08833 15.1838 7.00594ZM14.3065 1.58367L14.4337 1.50767C14.7576 1.65387 14.9572 1.89928 15.137 2.15166C15.806 3.0927 16.0363 4.12424 16.1013 5.18653C16.1087 5.466 16.0916 5.74555 16.0501 6.02314C16.0348 6.15658 15.9726 6.28595 15.7358 6.26797C15.474 6.11074 15.5691 5.88215 15.5735 5.67851C15.6034 4.34064 15.3183 3.06021 14.4549 1.88478C14.3961 1.78769 14.3472 1.68699 14.3087 1.58367H14.3065ZM6.74193 6.52498C6.38077 6.03184 6.12123 5.61934 5.79151 5.24455C5.48704 4.91059 5.14968 4.59631 4.78261 4.30467C4.21382 3.84054 3.48346 3.65836 2.68512 3.66648C1.88677 3.67461 1.31798 4.02387 0.857395 4.50135C0.336861 5.04439 0.105104 5.67213 0.0393066 6.34455C-0.0679607 7.39886 0.0421753 8.46 0.365372 9.48617C1.42033 12.8355 3.49516 15.763 6.14536 18.4603C6.81065 19.1373 6.93347 19.1565 7.8042 18.6314C9.31316 17.7153 10.7183 16.7006 11.8822 15.5037C14.0331 13.2851 15.6415 10.8281 16.5612 8.11697C17.0978 6.53253 17.1607 4.91211 16.646 3.31316C16.449 2.706 16.1482 2.12312 15.7519 1.58077C14.4257 -0.22878 11.8274 -0.522927 9.86733 0.889788C8.8438 1.6266 8.16755 2.55314 7.67406 3.56727C7.20098 4.51717 6.8852 5.51176 6.73461 6.52614" fill="#C89D62"/>
</g>
<defs>
<clipPath id="clip0">
<rect width="17" height="19" fill="white" transform="matrix(-1 0 0 1 17 0)"/>
</clipPath>
</defs>
</svg>
