<svg width="43" height="43" viewBox="0 0 43 43" fill="none" xmlns="http://www.w3.org/2000/svg">
<circle cx="21.5" cy="21.5" r="21.5" fill="#C89D62"/>
<path d="M26.4061 27.892C26.0221 27.892 25.7701 27.82 25.6501 27.676C25.5061 27.676 25.3261 27.64 25.1101 27.568C24.9181 27.496 24.7141 27.412 24.4981 27.316C23.9941 27.1 23.2621 26.572 22.3021 25.732C21.3421 24.892 20.8621 24.328 20.8621 24.04C20.8621 23.968 20.8501 23.92 20.8261 23.896C20.8021 23.872 20.7541 23.86 20.6821 23.86C20.6581 23.836 20.6101 23.788 20.5381 23.716C20.4901 23.644 20.4661 23.56 20.4661 23.464C20.4661 23.368 20.4301 23.284 20.3581 23.212C20.2861 23.14 20.2021 23.104 20.1061 23.104C19.9861 23.2 19.7341 23.416 19.3501 23.752C18.9661 24.064 18.5701 24.424 18.1621 24.832C17.3941 25.6 16.8661 26.116 16.5781 26.38C16.2901 26.62 16.0621 26.74 15.8941 26.74C15.6061 26.74 15.2701 26.596 14.8861 26.308C14.5261 25.996 14.3461 25.696 14.3461 25.408C14.4661 25.24 14.7661 24.904 15.2461 24.4C15.7501 23.872 16.2781 23.368 16.8301 22.888L19.1341 20.62L18.7381 19.252C18.3061 18.316 17.9941 17.56 17.8021 16.984C17.6581 16.792 17.5381 16.636 17.4421 16.516C17.3701 16.372 17.3341 16.252 17.3341 16.156C17.3341 16.06 17.4301 15.88 17.6221 15.616C17.8861 15.352 18.0901 15.22 18.2341 15.22C18.3541 15.22 18.5221 15.292 18.7381 15.436C18.9301 15.436 19.2301 15.844 19.6381 16.66C20.0701 17.452 20.2861 18.004 20.2861 18.316C20.2861 18.628 20.3941 18.784 20.6101 18.784C20.8501 18.784 21.3181 18.556 22.0141 18.1C22.2781 17.86 22.4821 17.656 22.6261 17.488C22.7941 17.32 22.9021 17.212 22.9501 17.164C23.2381 16.948 23.6821 16.624 24.2821 16.192C24.9061 15.76 25.3021 15.508 25.4701 15.436C25.5901 15.364 25.6861 15.328 25.7581 15.328C26.0461 15.328 26.3221 15.484 26.5861 15.796C26.8501 16.108 26.9821 16.432 26.9821 16.768C26.9821 17.056 26.9101 17.284 26.7661 17.452C26.6221 17.62 26.3101 17.836 25.8301 18.1C25.7101 18.196 25.3381 18.472 24.7141 18.928C24.0901 19.384 23.3101 20.008 22.3741 20.8L21.4381 21.556L22.0141 22.528C22.3981 23.296 22.7101 23.74 22.9501 23.86C23.1421 24.124 23.6101 24.544 24.3541 25.12C25.1221 25.696 25.5541 25.984 25.6501 25.984C25.7221 25.984 25.8301 26.032 25.9741 26.128C26.1421 26.224 26.2861 26.296 26.4061 26.344C26.6941 26.632 26.8381 26.956 26.8381 27.316C26.8381 27.7 26.6941 27.892 26.4061 27.892Z" fill="white"/>
</svg>
