<svg width="35" height="35" viewBox="0 0 35 35" fill="none" xmlns="http://www.w3.org/2000/svg">
<circle cx="17.5" cy="17.5" r="17" stroke="white"/>
<g clip-path="url(#clip0)">
<path d="M26.0025 19.8332L18.0566 15.2287V14.8861C18.0566 14.4954 18.2796 14.132 18.6385 13.9377C19.4472 13.4999 19.9278 12.6569 19.8929 11.7374C19.8457 10.4946 18.8353 9.48405 17.5928 9.43688C16.9353 9.41165 16.3126 9.649 15.8395 10.1044C15.366 10.5602 15.1053 11.1731 15.1053 11.8302C15.1053 12.1376 15.3545 12.3868 15.6619 12.3868C15.9693 12.3868 16.2186 12.1376 16.2186 11.8302C16.2186 11.4785 16.3581 11.1504 16.6116 10.9065C16.8647 10.6628 17.1977 10.5356 17.5505 10.5493C18.2149 10.5746 18.7552 11.115 18.7805 11.7797C18.7992 12.2724 18.5417 12.7241 18.1086 12.9586C17.3899 13.3477 16.9434 14.0862 16.9434 14.8861V15.2287L8.99754 19.8332C8.38223 20.1898 8 20.8532 8 21.5644C8 22.6676 8.89738 23.5651 10.0004 23.5651H24.9996C26.1026 23.5651 27 22.6676 27 21.5644C27 20.8531 26.6178 20.1898 26.0025 19.8332ZM24.9996 22.4518H10.0004C9.51124 22.4518 9.11328 22.0537 9.11328 21.5644C9.11328 21.2489 9.2828 20.9546 9.55574 20.7965L17.5 16.1928L25.4443 20.7965C25.7172 20.9547 25.8867 21.2489 25.8867 21.5644C25.8867 22.0537 25.4888 22.4518 24.9996 22.4518Z" fill="white"/>
</g>
<defs>
<clipPath id="clip0">
<rect width="19" height="19" fill="white" transform="translate(8 7)"/>
</clipPath>
</defs>
</svg>
