<svg width="39" height="50" viewBox="0 0 39 50" fill="none" xmlns="http://www.w3.org/2000/svg">
<path d="M18.0811 15.7316C18.4258 14.9193 19.5768 14.919 19.922 15.731L22.7063 22.2808C23.1401 23.3013 24.1014 23.9992 25.2061 24.0957L32.2961 24.7151C33.1751 24.7919 33.5311 25.8865 32.8656 26.4657L27.4967 31.1377C26.6602 31.8656 26.2935 32.9956 26.5431 34.076L28.1449 41.0105C28.3435 41.8701 27.4125 42.547 26.656 42.093L20.5536 38.4307C19.6028 37.86 18.4148 37.8604 17.4644 38.4317L11.3643 42.098C10.6081 42.5525 9.67669 41.8763 9.87472 41.0164L11.472 34.081C11.7209 33.0004 11.3534 31.8707 10.5165 31.1433L5.14457 26.4748C4.4786 25.896 4.83393 24.8012 5.71285 24.7238L12.8025 24.0998C13.9071 24.0026 14.868 23.304 15.3011 22.2832L18.0811 15.7316Z" stroke="#885574" stroke-width="2"/>
<line x1="19" y1="7" x2="19" y2="1" stroke="#885574" stroke-width="2" stroke-linecap="round"/>
<line x1="30.634" y1="16.5622" x2="33.634" y2="11.366" stroke="#885574" stroke-width="2" stroke-linecap="round"/>
<line x1="1" y1="-1" x2="7" y2="-1" transform="matrix(-0.5 -0.866025 -0.866025 0.5 8 17.9282)" stroke="#885574" stroke-width="2" stroke-linecap="round"/>
</svg>
