<svg width="35" height="35" viewBox="0 0 35 35" fill="none" xmlns="http://www.w3.org/2000/svg">
<path d="M33.9703 25.3494L21.6512 17.799C21.3528 17.6162 21.1223 17.3494 20.9846 17.0276L20.4477 15.7717C20.1941 15.1786 19.6135 14.7955 18.9686 14.7955H18.0127V12.9526C18.0127 12.2393 17.549 11.6211 16.859 11.4141C15.9252 11.1341 15.2729 10.2567 15.2728 9.2805C15.2728 8.70102 15.5087 8.14594 15.9372 7.71754C16.3656 7.28913 16.9206 7.05322 17.5 7.05322H17.5002C18.7281 7.05329 19.7272 8.05236 19.7272 9.28036C19.7272 9.56358 19.9567 9.79306 20.2399 9.79306C20.523 9.79306 20.7526 9.56358 20.7526 9.28036C20.7526 7.48703 19.2936 6.0279 17.5002 6.02783C17.5002 6.02783 17.5001 6.02783 17.5 6.02783C16.6467 6.02783 15.8341 6.37045 15.2121 6.99245C14.5899 7.61466 14.2473 8.42717 14.2474 9.28064C14.2474 10.7061 15.2003 11.9873 16.5644 12.3962C16.8173 12.4721 16.9873 12.6957 16.9873 12.9526V14.7955H16.0314C15.3864 14.7955 14.8059 15.1786 14.5523 15.7717L14.0154 17.0275C13.8777 17.3494 13.6472 17.6162 13.3489 17.799L1.02963 25.3494C0.394501 25.7387 0 26.4433 0 27.1882V28.4596C0 28.6407 0.0955662 28.8085 0.251494 28.9007C0.407353 28.9931 0.600399 28.9961 0.759266 28.9091L2.64263 27.8763H32.3574L34.2408 28.9091C34.3177 28.9512 34.4025 28.9723 34.4873 28.9723C34.5777 28.9723 34.6681 28.9483 34.7485 28.9007C34.9044 28.8084 35 28.6407 35 28.4596V27.1882C34.9999 26.4433 34.6054 25.7387 33.9703 25.3494ZM28.7606 25.9039L30.4875 26.8509H4.51239L17.4829 19.738C17.4935 19.7322 17.5063 19.7322 17.5169 19.738L26.9341 24.9023C27.1824 25.0385 27.494 24.9476 27.6302 24.6993C27.7664 24.451 27.6754 24.1394 27.4272 24.0032L18.0099 18.8389C17.6906 18.6638 17.3093 18.6639 16.9899 18.8389L1.02539 27.5936V27.1882C1.02539 26.7974 1.23231 26.4279 1.5655 26.2237L13.8846 18.6733C14.3651 18.3787 14.7364 17.9491 14.9581 17.4306L15.4951 16.1748C15.587 15.9597 15.7975 15.8208 16.0313 15.8208H18.9685C19.2024 15.8208 19.4129 15.9597 19.5048 16.1747L20.0418 17.4307C20.2635 17.9491 20.6347 18.3787 21.1153 18.6733L33.4344 26.2237C33.7676 26.4279 33.9745 26.7975 33.9745 27.1882V27.5935L29.2537 25.0048C29.0052 24.8685 28.6937 24.9596 28.5576 25.2078C28.4214 25.4561 28.5123 25.7677 28.7606 25.9039Z" fill="#885574"/>
</svg>
