<svg width="34" height="38" viewBox="0 0 34 38" fill="none" xmlns="http://www.w3.org/2000/svg">
<g opacity="0.9" clip-path="url(#clip0)">
<path d="M30.3679 14.0131C30.7262 13.788 30.9075 13.5954 31.1224 13.5675C31.2686 13.549 31.6269 13.7764 31.6108 13.8576C31.5757 14.0375 31.3944 14.2904 31.2102 14.331C31.0259 14.3717 30.7715 14.1779 30.3679 14.0131ZM28.6133 3.16856L28.8677 3.01656C29.5155 3.30897 29.9147 3.79979 30.2744 4.30454C31.6123 6.18661 32.0728 8.2497 32.203 10.3743C32.2178 10.9332 32.1836 11.4923 32.1006 12.0475C32.0699 12.3144 31.9456 12.5731 31.4719 12.5372C30.9484 12.2227 31.1385 11.7655 31.1473 11.3582C31.2072 8.6825 30.637 6.12163 28.9102 3.77078C28.7925 3.5766 28.6947 3.37521 28.6177 3.16856H28.6133ZM13.4842 13.0512C12.7619 12.0649 12.2428 11.2399 11.5834 10.4903C10.9744 9.82239 10.2997 9.19384 9.56555 8.61056C8.42798 7.68229 6.96726 7.31794 5.37057 7.33419C3.77387 7.35043 2.6363 8.04896 1.71513 9.00392C0.674057 10.09 0.210545 11.3455 0.078949 12.6903C-0.135586 14.7989 0.0846863 16.9212 0.731079 18.9736C2.841 25.6722 6.99066 31.5273 12.291 36.9217C13.6216 38.2758 13.8673 38.3141 15.6087 37.264C18.6267 35.4318 21.437 33.4024 23.7648 31.0086C28.0665 26.5715 31.2833 21.6574 33.1227 16.2352C34.1959 13.0663 34.3217 9.82544 33.2923 6.62754C32.8984 5.41323 32.2967 4.24747 31.5041 3.16276C28.8517 -0.45634 23.6551 -1.04463 19.735 1.7808C17.6879 3.25443 16.3354 5.10749 15.3485 7.13577C14.4023 9.03556 13.7707 11.0247 13.4696 13.0535" fill="white"/>
</g>
<defs>
<clipPath id="clip0">
<rect width="34" height="38" fill="white" transform="matrix(-1 0 0 1 34 0)"/>
</clipPath>
</defs>
</svg>
