<svg width="82" height="49" viewBox="0 0 82 49" fill="none" xmlns="http://www.w3.org/2000/svg">
<g clip-path="url(#clip0)">
<path d="M71.1342 17.5982L74.1173 4.88882L53.0903 5.82206L35.2172 9.24051L26.1217 11.8421L19.3001 13.7933L2.30721 20.3477L7.97946 28.8876L8.37036 44.8662L22.5515 39.9631L44.3122 32.8919L61.8674 31.258L79.1046 31.4088L71.1342 17.5982Z" fill="white"/>
<path d="M77.2968 29.606C76.6502 28.7345 76.0457 27.8306 75.4739 26.8484C74.8773 25.8236 74.2869 24.7497 73.6965 23.6758C73.1962 22.7269 72.6758 21.7582 72.1117 20.8939C71.7123 20.2826 71.2599 19.7298 70.8496 19.1446C70.5792 18.7697 70.354 18.2186 70.3561 17.6692C70.3438 17.5284 70.3626 17.3814 70.386 17.2573C70.4048 17.1102 70.4438 16.983 70.4829 16.8557C70.5156 16.7775 70.5593 16.6731 70.592 16.5949C70.7121 16.308 70.8368 16.044 70.9771 15.7768C71.2298 15.1049 71.4016 14.354 71.589 13.5999C71.8092 12.7675 72.0091 11.9153 72.2292 11.083C72.6572 9.27751 73.0852 7.47204 73.5287 5.66342C72.3679 5.6123 71.2024 5.53825 70.026 5.49028C69.6961 5.46167 69.3756 5.47892 69.0457 5.45031C68.7407 5.4644 68.4264 5.43264 68.1214 5.44673C67.4958 5.47807 66.8702 5.50941 66.2446 5.54075C65.3809 5.59649 64.5218 5.67516 63.6783 5.75067C62.8348 5.82618 62.0006 5.94755 61.1664 6.06892C59.5666 6.25003 58.0009 6.5197 56.4103 6.74666C54.9224 7.00055 53.419 7.2576 51.9264 7.48856C50.3296 7.76454 48.7437 8.01443 47.1624 8.28725C45.4877 8.579 43.8177 8.89369 42.1431 9.18544C40.5353 9.4875 38.9183 9.7437 37.3012 9.99991C35.6733 10.2822 34.0639 10.6562 32.4545 11.0302C30.9852 11.3758 29.5066 11.6756 28.042 12.0441C26.4575 12.4608 24.873 12.8775 23.3117 13.4088C21.6882 13.9528 20.0444 14.477 18.4053 15.0241C17.7235 15.2578 17.0573 15.4884 16.3802 15.745C15.6096 16.0206 14.8391 16.2961 14.0779 16.6175C12.5554 17.2604 11.0313 17.9752 9.52281 18.6868C8.8394 18.9924 8.18084 19.3408 7.50673 19.6923C7.37292 19.6716 7.24376 19.674 7.1146 19.6763C6.96522 19.6588 6.8205 19.6643 6.66021 19.6729C6.60887 19.6594 6.56218 19.6689 6.51548 19.6784C6.41745 19.6744 6.31942 19.6704 6.22603 19.6893C6.19491 19.6956 6.14821 19.7051 6.10152 19.7145C6.10152 19.7145 6.08596 19.7177 6.07039 19.7209C6.03926 19.7272 6.00813 19.7335 5.96144 19.7429C5.93032 19.7493 5.89919 19.7556 5.87271 19.7848C5.82601 19.7943 5.78397 19.8267 5.74657 19.882C5.74657 19.882 5.73101 19.8851 5.73566 19.9081C5.41346 19.9973 5.08034 20.1125 4.76744 20.2476C4.36115 20.4016 3.97043 20.5524 3.57972 20.7032C3.36646 20.7703 3.16878 20.8342 2.96017 20.9243C2.94461 20.9274 2.91349 20.9337 2.89792 20.9369L2.90257 20.9598C3.58655 21.776 4.29863 22.491 4.98423 23.2352C5.31692 23.5975 5.6387 23.9858 5.96048 24.3741C6.32268 24.802 6.68488 25.2298 7.0206 25.6869C7.33611 26.1243 7.65163 26.5616 7.95621 27.025C8.13186 27.252 8.26546 27.5113 8.40371 27.7936C8.5078 27.9874 8.57449 28.2364 8.63189 28.4396C8.7095 28.6626 8.7295 28.9211 8.77599 29.1504C8.85014 29.756 8.82628 30.3576 8.81796 30.9561C8.79811 32.2969 8.75804 33.6179 8.71798 34.9389C8.70664 35.4425 8.69995 35.9691 8.69327 36.4956C8.6732 38.0751 8.67335 39.6744 8.66885 41.2508C8.77759 41.4675 8.84428 41.7166 8.84872 41.9782C8.85943 42.1909 8.85456 42.4067 8.86992 42.6423C8.89943 42.708 8.92429 42.7507 8.93823 42.8194C8.92105 42.8945 8.89922 42.9467 8.87739 42.9989C8.88203 43.0218 8.88203 43.0218 8.86647 43.025C8.87879 43.1657 8.87091 43.2866 8.86767 43.4305C9.13226 43.3769 9.4015 43.3462 9.66144 43.2696C9.92603 43.216 10.186 43.1394 10.4661 43.0826C10.4817 43.0795 10.5128 43.0731 10.5486 43.0898C10.6575 43.0677 10.7821 43.0424 10.891 43.0203C10.9377 43.0109 10.989 43.0243 11.0357 43.0149C11.593 42.8064 12.1642 42.6667 12.7152 42.5073C14.2266 42.1293 15.741 41.8462 17.17 41.2223C17.9111 40.8811 18.6226 40.4743 19.348 40.1362C20.1155 39.7658 20.8923 39.4412 21.6536 39.1198C22.4039 38.8245 23.134 38.5094 23.8734 38.2401C24.6283 37.9677 25.3568 37.7245 26.1211 37.498C29.2139 36.6084 32.2974 35.673 35.4151 34.8261C36.9685 34.4157 38.5265 34.0283 40.0892 33.6637C41.7297 33.2834 43.347 32.7884 44.9812 32.4571C45.059 32.4414 45.1213 32.4288 45.1991 32.413C46.6979 32.133 48.2262 31.9187 49.7622 31.8221C51.4896 31.7106 53.1905 31.6284 54.9163 31.5889C55.9138 31.5537 56.8911 31.4988 57.884 31.4408C58.6964 31.3716 59.5087 31.3024 60.3211 31.2332C61.1179 31.1671 61.9007 31.0323 62.6929 30.9433C63.4539 30.8606 64.2103 30.7551 64.9713 30.6724C65.8257 30.5708 66.6646 30.4723 67.5283 30.4166C68.0403 30.3844 68.5523 30.3522 69.0643 30.3201C69.3646 30.283 69.6696 30.269 69.9746 30.2549C70.7854 30.2576 71.6024 30.2113 72.438 30.2568C72.9593 30.2704 73.4852 30.307 74.0065 30.3207C74.3006 30.3327 74.5901 30.3218 74.8888 30.3567C75.4194 30.4162 75.95 30.4758 76.4604 30.5155C76.7747 30.5473 77.0844 30.5561 77.408 30.6337C77.66 30.6781 77.9121 30.7225 78.1486 30.7701C77.8735 30.3723 77.5875 30.0006 77.2968 29.606ZM80.4756 33.6164C79.4799 33.3408 78.4919 33.183 77.4946 32.9794C77.3919 32.9525 77.2783 32.9516 77.1803 32.9476C76.9018 32.9325 76.6186 32.8944 76.3354 32.8563C75.8717 32.8071 75.4127 32.7808 74.9645 32.7284C74.5989 32.6832 74.227 32.687 73.866 32.6647C73.4116 32.6613 72.9681 32.6319 72.5091 32.6056C72.1372 32.6094 71.7652 32.6131 71.4089 32.6138C70.9591 32.6333 70.4892 32.6331 70.0348 32.6298C69.6629 32.6335 69.3003 32.6832 68.9283 32.687C68.5455 32.7168 68.1782 32.7436 67.7954 32.7734C66.2422 32.9451 64.6891 33.1167 63.1561 33.3081C61.4784 33.505 59.8054 33.7248 58.12 33.8039C57.401 33.8542 56.6665 33.9076 55.9429 33.9349C55.2457 33.933 54.5532 33.9541 53.8452 33.9783C52.4181 34.0527 50.9755 34.1303 49.5485 34.2048C48.7874 34.2875 48.0109 34.3733 47.2591 34.5018C46.8187 34.5672 46.3782 34.6326 45.958 34.7178C45.5533 34.7999 45.144 34.859 44.7596 34.9608C43.9284 35.177 43.0817 35.3964 42.2505 35.6127C41.5439 35.8037 40.8279 35.9488 40.1322 36.1137C37.0115 36.8657 33.914 37.7324 30.8258 38.6449C29.235 39.1106 27.6396 39.5534 26.0535 40.042C25.2892 40.2686 24.5296 40.518 23.7949 40.8102C23.0336 41.1316 22.2677 41.4301 21.5065 41.7515C20.7297 42.0761 19.9731 42.4205 19.2103 42.8138C18.86 43.0042 18.5252 43.1914 18.1703 43.3588C17.7889 43.5555 17.3779 43.6866 16.9919 43.8603C16.2571 44.1525 15.4789 44.3103 14.7209 44.4878C13.9987 44.6819 13.2563 44.8563 12.5341 45.0505C12.4251 45.0726 12.3208 45.1176 12.2274 45.1365C12.1371 45.2503 12.0623 45.361 11.9626 45.4289C11.8785 45.4937 11.7898 45.5356 11.7011 45.5774C11.6123 45.6193 11.5127 45.6872 11.4239 45.7291C11.2729 45.7836 11.1266 45.861 10.9756 45.9154C10.8978 45.9312 10.82 45.947 10.7623 45.9825C10.3732 46.0614 9.98414 46.1403 9.59969 46.2421C9.38179 46.2863 9.1639 46.3305 8.93508 46.4007C8.89466 46.3612 8.84958 46.2987 8.80451 46.2362C8.65352 46.2907 8.50253 46.3452 8.35154 46.3997C8.30484 46.4091 8.27836 46.4384 8.24723 46.4447C8.00286 46.5181 7.75847 46.5915 7.5141 46.6649C7.38959 46.6902 7.25416 46.7415 7.13429 46.7897C6.9914 46.4844 6.90146 46.1207 6.89864 45.7871C6.88956 45.5025 6.90533 45.2606 6.95224 45.0124C6.99287 44.8132 7.04442 44.5879 7.08505 44.3887C7.08203 44.2938 7.08364 44.2219 7.08527 44.1499C7.11195 43.8819 7.12308 43.6171 7.11864 43.3554C7.12047 43.0447 7.14252 42.7538 7.149 42.466C7.15673 40.7458 7.13799 39.0547 7.16594 37.3542C7.16924 35.3723 7.2441 33.4235 7.28318 31.4582C7.29895 31.2163 7.29916 30.9775 7.29937 30.7388C7.30606 30.2123 7.32366 29.6597 7.27901 29.1197C7.26507 29.0509 7.24647 28.9592 7.21697 28.8936C7.21232 28.8706 7.20767 28.8477 7.20302 28.8248C7.04294 28.5947 6.90307 28.3843 6.74764 28.1771C6.56735 27.9272 6.38706 27.6773 6.20677 27.4274C5.97676 27.0921 5.72027 26.786 5.45912 26.457C5.13735 26.0687 4.81557 25.6804 4.49844 25.315C4.16575 24.9528 3.81749 24.5937 3.46923 24.2346C3.11167 23.8297 2.73856 23.4279 2.381 23.023C2.1898 22.7992 1.99394 22.5524 1.81365 22.3025C1.63336 22.0526 1.4656 21.7047 1.33362 21.3734C1.19699 21.0191 1.10867 20.5835 1.07635 20.1842C1.06564 19.9716 1.09234 19.7036 1.15318 19.5242C1.23586 19.2926 1.32157 19.1558 1.45397 19.0096C1.63468 18.782 1.90392 18.7513 2.12808 18.6581C2.31021 18.5973 2.49233 18.5365 2.65889 18.4789C2.992 18.3636 3.32511 18.2484 3.65358 18.1102C4.00226 17.9917 4.32607 17.8306 4.67475 17.7122C5.03899 17.5906 5.40789 17.4919 5.77677 17.3933C6.20792 17.282 6.62351 17.1739 7.05465 17.0626C7.05465 17.0626 7.05465 17.0626 7.07022 17.0595C7.17916 17.0374 7.28184 17.0643 7.38918 17.1142C7.78616 16.9143 8.18315 16.7145 8.59571 16.5115C9.35229 16.1672 10.1198 15.7967 10.8919 15.4492C11.5754 15.1436 12.2697 14.8119 12.9531 14.5062C13.7143 14.1848 14.4802 13.8863 15.2507 13.6107C16.7451 13.0691 18.2441 12.5504 19.7478 12.0546C21.3604 11.5367 22.9481 10.9761 24.57 10.5041C26.192 10.032 27.8278 9.6288 29.4637 9.22556C30.2217 9.04802 30.9843 8.89341 31.7469 8.73881C32.4582 8.57074 33.1649 8.37974 33.8808 8.2346C34.4878 8.11154 35.0902 7.96556 35.6972 7.84251C35.8684 7.8078 36.0396 7.77309 36.2264 7.73523C37.0761 7.6107 37.9212 7.46325 38.7866 7.33557C40.4192 7.07621 42.0425 6.77099 43.6658 6.46578C46.777 5.90667 49.9022 5.41635 53.0025 4.88333C54.6149 4.6042 56.2273 4.32506 57.8489 4.09179C59.5687 3.86251 61.2884 3.63323 63.0128 3.42688C63.8672 3.32529 64.7153 3.2727 65.5588 3.19719C66.3556 3.13114 67.1617 3.11095 67.9632 3.06783C68.3818 3.05458 68.8252 3.08403 69.2485 3.09371C69.5582 3.10255 69.8678 3.11138 70.1775 3.12022C71.0644 3.17912 71.9669 3.23487 72.8648 3.26769C73.2927 3.3003 73.716 3.30998 74.1595 3.33943C74.5671 3.35226 74.9447 4.01572 74.9877 4.62764C75.0124 4.9091 74.9608 5.13438 74.8642 5.2972C74.9139 5.3826 74.9481 5.47116 74.9822 5.55972C74.8761 5.91543 74.7902 6.29091 74.7043 6.66639C74.6574 6.91461 74.5996 7.18891 74.5417 7.46321C74.4995 7.73436 74.437 7.98573 74.3994 8.27981C74.3604 8.40707 74.4552 8.55495 74.5423 8.58503C74.5423 8.58503 74.5423 8.58503 74.547 8.60796C74.2158 10.0119 73.8645 11.396 73.5333 12.7999C73.2897 13.7564 73.0461 14.7129 72.8025 15.6693C72.6948 16.097 72.587 16.5246 72.4544 16.9096C72.3327 17.2684 72.1706 17.5878 72.0241 17.9039C72.0536 17.9696 72.094 18.0091 72.1391 18.0716C72.3147 18.2985 72.4904 18.5255 72.6504 18.7556C72.9457 19.1732 73.2348 19.6398 73.5036 20.0866C74.0707 21.0458 74.5958 22.0374 75.1365 23.0259C75.7067 24.0799 76.2877 25.1079 76.9109 26.1036C77.4889 27.0367 78.0997 27.8916 78.7417 28.7401C78.7619 28.7599 78.7821 28.7797 78.7914 28.8255C78.866 28.9537 78.9452 29.1047 79.0198 29.2328C79.3165 29.8172 79.6086 30.3786 79.9053 30.963C80.0047 31.1338 80.1088 31.3275 80.2082 31.4983C80.317 31.715 80.4211 31.9087 80.5454 32.1222C80.7287 32.467 80.9074 32.7888 81.0907 33.1336C80.9799 33.4664 80.7479 33.6805 80.4756 33.6164Z" fill="#C89D62"/>
<path d="M29.8556 29.9065C29.8339 29.9007 29.7916 29.8939 29.7286 29.8863C29.6656 29.8787 29.5998 29.8818 29.5312 29.8957C29.4073 29.8902 29.2957 29.8465 29.1964 29.7646C29.1069 29.6807 29.0486 29.5752 29.0214 29.4481C29.0067 29.3796 29.0001 29.3248 29.0016 29.2837C29.0247 29.2484 29.0325 29.1652 29.0249 29.0341C29.0292 28.9108 29.0209 28.8003 29 28.7025C29.0169 28.6379 29.0288 28.5742 29.0359 28.5116C29.0408 28.4392 29.0455 28.3413 29.0498 28.218C29.0362 27.7718 29.0628 27.0114 29.1295 25.9368C29.1963 24.8622 29.2566 24.2837 29.3106 24.2014L29.2761 24.04C29.2698 24.0107 29.2671 23.95 29.2678 23.8581C29.2686 23.7661 29.2929 23.6642 29.3406 23.5525C29.3547 23.4273 29.36 23.3088 29.3566 23.1973C29.3609 23.074 29.3617 22.982 29.359 22.9213C29.3877 22.8645 29.4201 22.7049 29.456 22.4426C29.5017 22.1782 29.5309 22.004 29.5436 21.9198C29.5725 21.7201 29.6098 21.4881 29.6555 21.2237C29.7089 20.9476 29.7469 20.7665 29.7694 20.6803L29.7537 20.607C29.7691 20.5834 29.7972 20.4757 29.838 20.2838C29.8865 20.0801 29.9265 19.9088 29.9581 19.7697C29.9933 19.5994 30.0878 19.1568 30.2417 18.442C30.2565 18.3676 30.2828 18.2756 30.3207 18.1658C30.3663 18.0444 30.3849 17.9641 30.3766 17.925C30.4011 17.8486 30.4624 17.8004 30.5604 17.7806C30.6486 17.7627 30.7442 17.7791 30.847 17.8296C30.9576 17.8684 31.0478 17.9318 31.1177 18.0196L31.3149 18.2245L31.0115 19.3879C30.9189 19.672 30.8437 19.9423 30.7861 20.1988C30.7285 20.4553 30.7039 20.6032 30.7122 20.6423C30.6939 20.748 30.6584 20.9644 30.6056 21.2914C30.5626 21.6163 30.5298 21.8934 30.5072 22.1224C30.4896 22.279 30.4642 22.4474 30.4312 22.6275C30.396 22.7979 30.3711 22.9203 30.3563 22.9947C30.3155 23.1866 30.2972 23.2924 30.3014 23.3119C30.2931 23.2728 30.8769 23.1341 32.053 22.8957C32.2392 22.858 32.5665 22.7866 33.0349 22.6815C33.513 22.5744 33.8088 22.4991 33.9222 22.4557L34.671 22.2275L34.8478 20.6153C34.8726 20.2532 34.946 19.5445 35.068 18.4893C35.1251 18.039 35.1852 17.7463 35.2484 17.6111C35.3094 17.4661 35.4036 17.3807 35.531 17.3548C35.58 17.3449 35.6538 17.3554 35.7525 17.3865C35.8589 17.4057 35.9341 17.4466 35.9781 17.5091C36.1089 17.5948 36.1869 17.6963 36.212 17.8137C36.2413 17.9506 36.2036 18.1572 36.0991 18.4334C36.0254 18.6626 35.9414 19.0827 35.847 19.6935C35.8153 19.9754 35.7938 20.1379 35.7826 20.181C35.8265 20.3864 35.8099 20.5479 35.7328 20.6655C35.7019 20.7126 35.6637 20.8683 35.6179 21.1326C35.5701 21.3872 35.5504 21.534 35.5587 21.5731C35.5755 21.6514 35.5796 21.7423 35.5711 21.8461C35.5605 21.9401 35.5398 22.0106 35.509 22.0576L35.4813 22.4305C35.4039 23.742 35.3184 24.6571 35.2248 25.176C35.2353 25.2249 35.2296 25.3179 35.2078 25.455C35.1859 25.592 35.1803 25.685 35.1907 25.7339C35.1858 25.8063 35.1709 25.9522 35.1462 26.1714C35.1215 26.3907 35.1134 26.5199 35.1217 26.559C35.1251 26.6705 35.1225 26.8496 35.1139 27.0962C35.1091 27.791 35.113 28.1677 35.1255 28.2264C35.1101 28.2499 35.0828 28.2656 35.0436 28.2736C35.0044 28.2815 34.9375 28.2798 34.843 28.2683C34.7584 28.2548 34.6943 28.2423 34.6509 28.2307C34.3885 28.1512 34.2396 28.0284 34.204 27.8622C34.181 27.7546 34.1948 27.6039 34.2454 27.41C34.2643 27.3551 34.2895 27.0184 34.3208 26.3999L34.3371 25.8304C34.3624 25.662 34.3954 25.1707 34.436 24.3564C34.4751 23.7261 34.5023 23.3992 34.5177 23.3757L34.4864 23.229C34.4465 23.1861 34.0836 23.2341 33.3975 23.3732C32.6232 23.5301 31.9211 23.7132 31.2909 23.9225L30.2177 24.14C30.1917 24.2575 30.1371 24.743 30.0537 25.5965C29.9781 26.4382 29.9475 26.9648 29.962 27.1761C29.9624 27.5127 29.9508 27.9844 29.9272 28.5911C29.9014 29.1881 29.8776 29.6265 29.8556 29.9065Z" fill="#47484E"/>
<path d="M38.8878 27.2803C38.7227 27.1301 38.2611 27.1471 37.5029 27.3314L37.3737 27.3728C37.1875 27.4106 37.0164 27.3993 36.8604 27.3391C36.7043 27.2789 36.6295 27.1921 36.6359 27.0785C36.6012 26.8203 36.9797 26.6059 37.7714 26.4352L38.5475 26.2627L38.6317 25.9395C38.6621 25.6987 38.6974 25.314 38.7378 24.7855C38.747 24.5898 38.783 24.256 38.8457 23.7842C38.9488 22.7838 39.0018 22.2425 39.0047 22.1603C39.0286 22.0331 39.0568 21.7825 39.0893 21.4086C39.1219 21.0347 39.1435 20.7293 39.1542 20.4925C39.3116 18.9812 39.3442 18.2247 39.2518 18.223C39.1517 18.2331 38.8863 18.3073 38.4557 18.4456C38.0329 18.5721 37.8001 18.655 37.7573 18.6942C37.7363 18.7393 37.6915 18.7688 37.6229 18.7827C37.5641 18.7946 37.4962 18.788 37.4192 18.7628C37.3402 18.7278 37.2846 18.6829 37.2524 18.6282C37.2342 18.5911 37.2178 18.5383 37.2032 18.4698C37.1886 18.4014 37.2065 18.3417 37.2569 18.2906C37.3459 18.1808 37.5602 18.0353 37.8998 17.8542C38.2472 17.6614 38.5882 17.5107 38.9228 17.4021C39.0853 17.3487 39.2446 17.2808 39.4007 17.1981C39.5646 17.1037 39.6823 17.0084 39.7537 16.9123C39.9449 16.8021 40.1101 16.738 40.2495 16.72C40.3285 16.755 40.5004 16.7457 40.765 16.6921C40.9904 16.6464 41.1609 16.6067 41.2764 16.5731C41.6208 16.4625 41.9156 16.3824 42.1606 16.3327C42.3468 16.295 42.4833 16.2877 42.5701 16.311C42.6667 16.3322 42.7488 16.3819 42.8167 16.4599C42.8893 16.6085 42.9309 16.7072 42.9413 16.7561C42.9811 16.9419 42.8921 17.0517 42.6744 17.0856C42.5161 17.1585 42.1206 17.2693 41.4877 17.4179C40.8044 17.6176 40.4466 17.7615 40.4143 17.8497C40.3758 17.9085 40.346 17.9605 40.3249 18.0056C40.3137 18.0486 40.2976 18.0927 40.2765 18.1378C40.2947 18.1749 40.2974 18.307 40.2846 18.5341C40.2795 18.7494 40.2607 18.9725 40.2283 19.2035L40.13 20.0346C40.0375 20.941 39.9729 21.4999 39.9363 21.7114C39.9033 21.8915 39.8909 22.0726 39.8991 22.2546C39.8559 22.8653 39.8169 23.3527 39.7823 23.7168C39.7456 24.0711 39.7198 24.3569 39.7049 24.5742C39.6358 25.1596 39.592 25.648 39.5734 26.0394L40.3957 25.7963C40.9614 25.6204 41.3324 25.5146 41.5089 25.4789C41.6461 25.4511 41.7423 25.4469 41.7976 25.4663C41.8627 25.4837 41.9193 25.5334 41.9675 25.6155C42.1165 25.7383 42.2015 25.8486 42.2224 25.9464C42.2475 26.0638 42.1721 26.1658 41.9964 26.2524C41.8206 26.339 41.5357 26.4172 41.1415 26.4869C40.6949 26.5978 40.3207 26.6889 40.019 26.7603C39.7291 26.8394 39.5334 26.9046 39.4319 26.9557C39.3402 27.0049 39.2918 27.0658 39.2869 27.1382C39.3036 27.2164 39.2678 27.2645 39.1796 27.2823C39.0816 27.3022 38.9843 27.3015 38.8878 27.2803Z" fill="#47484E"/>
<path d="M46.0404 25.7696C46.0096 25.8166 45.9746 25.8441 45.9354 25.8521C45.8864 25.862 45.7968 25.8495 45.6666 25.8147C45.5329 25.8112 45.4315 25.7909 45.3622 25.754C45.295 25.7268 45.2521 25.6692 45.2332 25.5811C45.2123 25.4834 45.2205 25.3542 45.2577 25.1936C45.3104 25.0095 45.3612 24.1472 45.4102 22.6069C45.4388 21.9277 45.4531 21.5882 45.4531 21.5882C45.451 21.5784 45.4382 21.4228 45.4146 21.1215C45.4127 20.9689 45.3993 20.691 45.3744 20.2879C45.444 20.0392 45.4701 19.7788 45.4528 19.5069C45.4433 19.2231 45.4392 19.0607 45.4407 19.0196C45.4528 18.7417 45.4652 18.5606 45.4779 18.4764L45.5004 17.9362L45.5165 17.5809C45.5328 17.3226 45.5337 17.1592 45.519 17.0907L45.4688 16.856L44.9249 16.9662L44.6487 17.0375L44.0869 17.1361C43.9476 17.1541 43.7555 17.1879 43.5105 17.2376C43.0456 17.3114 42.7275 17.3299 42.556 17.2933C42.3825 17.2468 42.2678 17.117 42.212 16.9039C42.1534 16.7729 42.1737 16.6769 42.2732 16.616C42.3705 16.5452 42.6152 16.4701 43.0073 16.3907C43.3503 16.3212 43.6405 16.2675 43.8778 16.2296C44.0129 16.192 44.2079 16.1474 44.4627 16.0958C44.7371 16.0401 44.9636 15.9994 45.1421 15.9734C45.3304 15.9454 45.4392 15.9285 45.4686 15.9225C45.4918 15.8872 45.5079 15.8431 45.517 15.7903C45.5262 15.7374 45.5325 15.6953 45.536 15.664C45.5005 15.4977 45.5324 15.3841 45.6319 15.3232C45.6635 15.1841 45.7234 15.1057 45.8116 15.0878C45.9292 15.064 46.0716 15.132 46.2388 15.292C46.2688 15.3369 46.317 15.419 46.3834 15.5382C46.4575 15.6456 46.5362 15.7266 46.6194 15.7811C46.6503 15.7341 46.7725 15.6838 46.986 15.6303C47.1995 15.5768 47.3493 15.5363 47.4354 15.5086C47.6217 15.4709 47.8117 15.4273 48.0057 15.3778C48.1975 15.3185 48.3277 15.2819 48.3963 15.268C48.4741 15.2012 48.606 15.149 48.7923 15.1112C48.8805 15.0934 49.0051 15.0783 49.1661 15.0661C49.3915 15.0204 49.5504 14.9984 49.6428 15.0001C49.745 14.9998 49.816 15.0211 49.8558 15.064C49.8788 15.1716 49.9201 15.2449 49.9795 15.2838C50.025 15.3052 50.0509 15.3306 50.0572 15.3599C50.0613 15.3795 50.0511 15.4275 50.0266 15.5039C49.9768 15.6058 49.8098 15.6855 49.5256 15.7431L49.22 15.8204C49.0085 15.8836 48.8538 15.9252 48.7558 15.945C48.3805 16.1027 47.8285 16.2707 47.0997 16.449C46.6979 16.5304 46.5053 16.6103 46.522 16.6885C46.4632 16.7004 46.4185 17.0411 46.3878 17.7105C46.3792 17.9571 46.3615 18.1851 46.3347 18.3946C46.3156 18.5923 46.2938 18.7294 46.2692 18.8058C46.307 18.8389 46.3311 18.88 46.3416 18.9288C46.352 18.9777 46.3456 19.0913 46.3224 19.2694C46.316 19.383 46.3046 19.4975 46.2884 19.613C46.2702 19.7187 46.2673 19.8009 46.2798 19.8596C46.2784 19.9007 46.2699 20.0044 46.2544 20.1708C46.2465 20.3255 46.2478 20.4987 46.2581 20.6904C46.3095 21.1697 46.3043 21.4565 46.2426 21.5506C46.237 21.5721 46.2209 21.6162 46.1942 21.6828C46.1774 21.7475 46.1762 21.814 46.1909 21.8825C46.2202 22.0194 46.2381 22.2708 46.2448 22.6367C46.2494 22.9929 46.2352 23.1896 46.2023 23.2269C46.2317 23.2209 46.2527 23.2473 46.2652 23.306C46.2798 23.3744 46.2724 23.4831 46.2429 23.6319C46.2596 23.7101 46.2648 23.806 46.2584 23.9195C46.252 24.033 46.2529 24.1094 46.2613 24.1485L46.2084 24.6183C46.1273 25.3388 46.0713 25.7225 46.0404 25.7696Z" fill="#47484E"/>
</g>
<defs>
<clipPath id="clip0">
<rect width="75.8954" height="34.2035" fill="white" transform="matrix(-0.980064 0.198684 0.198684 0.980064 74.3828 0)"/>
</clipPath>
</defs>
</svg>
