<svg width="99" height="68" viewBox="0 0 99 68" fill="none" xmlns="http://www.w3.org/2000/svg">
<g clip-path="url(#clip0)">
<path d="M84.1093 45.7436L94.8527 34.658L72.9491 22.8388L52.7371 15.4563L41.928 12.574L33.8212 10.4124L12.5985 6.74637L13.1695 18.856L3.86496 35.3075L21.232 38.9419L47.6066 44.9782L66.4125 53.9786L83.8124 64.5969L84.1093 45.7436Z" fill="white"/>
<path d="M83.0725 61.67C82.9455 60.3931 82.8808 59.1088 82.8969 57.765C82.9136 56.3628 82.9665 54.9147 83.0194 53.4666C83.0879 52.2 83.1479 50.901 83.1003 49.6814C83.0661 48.8186 82.9427 47.983 82.8817 47.1401C82.8348 46.5955 82.941 45.8996 83.2766 45.3433C83.3496 45.193 83.4579 45.0552 83.5571 44.9435C83.6654 44.8057 83.7823 44.7003 83.8991 44.5948C83.9799 44.5353 84.0875 44.4559 84.1683 44.3964C84.4643 44.1782 84.7512 43.986 85.0557 43.8001C85.72 43.2717 86.3503 42.614 86.9983 41.9626C87.7271 41.2516 88.4473 40.5083 89.1761 39.7973C90.7065 38.225 92.237 36.6528 93.7851 35.0868C92.6382 34.3301 91.5005 33.5474 90.3359 32.7845C90.0185 32.5552 89.6828 32.378 89.3654 32.1487C89.0473 31.9778 88.7477 31.7548 88.4296 31.5839C87.7758 31.2359 87.1219 30.8879 86.4681 30.5398C85.5578 30.072 84.6383 29.6303 83.7366 29.1948C82.8348 28.7593 81.9146 28.376 80.9944 27.9927C79.261 27.2051 77.5085 26.5282 75.7567 25.7928C74.0927 25.1471 72.4111 24.4951 70.7563 23.8233C68.9684 23.1339 67.2074 22.4246 65.4371 21.7414C63.5607 21.0207 61.675 20.3261 59.7985 19.6054C57.9837 18.9358 56.1872 18.214 54.3908 17.4922C52.5674 16.7903 50.7073 16.1927 48.8471 15.5951C47.1463 15.0538 45.464 14.4602 43.754 13.945C41.8931 13.4058 40.0322 12.8666 38.1254 12.4579C36.1476 12.0242 34.1614 11.5581 32.166 11.1182C31.3323 10.9414 30.5162 10.7708 29.6733 10.6201C28.7241 10.4319 27.7749 10.2438 26.8073 10.1077C24.8721 9.83571 22.8916 9.6357 20.9288 9.44194C20.0498 9.33716 19.17 9.29081 18.2726 9.23821C18.1493 9.13605 18.0168 9.05998 17.8844 8.98391C17.7434 8.8755 17.5932 8.79318 17.4253 8.70462C17.3814 8.65979 17.3283 8.64104 17.2751 8.6223C17.1781 8.55872 17.081 8.49515 16.9748 8.45766C16.9394 8.44517 16.8862 8.42642 16.8331 8.40768C16.8331 8.40768 16.8154 8.40143 16.7977 8.39518C16.7623 8.38269 16.7269 8.37019 16.6737 8.35145C16.6383 8.33896 16.6029 8.32646 16.5583 8.34005C16.5051 8.32131 16.4428 8.32865 16.3713 8.36209C16.3713 8.36209 16.3536 8.35584 16.3444 8.38193C15.9633 8.27682 15.5552 8.19154 15.1557 8.13861C14.65 8.04818 14.1619 7.96401 13.6739 7.87983C13.4167 7.81845 13.1773 7.76332 12.911 7.72803C12.8933 7.72178 12.8579 7.70928 12.8401 7.70304L12.8309 7.72912C13.0295 8.9726 13.318 10.1305 13.5618 11.3019C13.6795 11.8715 13.7702 12.4609 13.861 13.0503C13.9688 13.7044 14.0766 14.3584 14.1397 15.0261C14.1943 15.6614 14.249 16.2968 14.2767 16.9519C14.3171 17.2889 14.2952 17.6332 14.2641 18.0036C14.2521 18.2634 14.1686 18.5566 14.1035 18.7976C14.0469 19.071 13.9102 19.3455 13.8182 19.6064C13.5257 20.266 13.1362 20.8619 12.7645 21.4642C11.9303 22.8127 11.0876 24.1289 10.2449 25.445C9.92763 25.9492 9.60118 26.4794 9.27473 27.0096C8.29537 28.6002 7.32452 30.2232 6.36287 31.8201C6.34167 32.106 6.25813 32.3992 6.10376 32.6675C5.9855 32.8898 5.84954 33.1058 5.72208 33.3542C5.71217 33.4387 5.71148 33.4972 5.68387 33.5754C5.62083 33.6412 5.56701 33.6809 5.51318 33.7206C5.50397 33.7466 5.50397 33.7466 5.48627 33.7404C5.41334 33.8907 5.3319 34.0086 5.24125 34.1527C5.54231 34.2589 5.83417 34.3912 6.14442 34.4713C6.44548 34.5775 6.75574 34.6576 7.0745 34.7701C7.09221 34.7763 7.12763 34.7888 7.15385 34.8274C7.27781 34.8712 7.41948 34.9211 7.54345 34.9649C7.59658 34.9836 7.6405 35.0284 7.69362 35.0472C8.38568 35.174 9.05013 35.3791 9.70607 35.5518C11.4692 36.0858 13.1778 36.718 15.0067 36.9525C15.9658 37.0562 16.9348 37.0753 17.8762 37.1728C18.8799 37.2629 19.8652 37.4051 20.8328 37.5411C21.7735 37.697 22.7057 37.8205 23.6194 37.9962C24.5509 38.1782 25.4378 38.3737 26.3508 38.6078C30.0293 39.5829 33.7262 40.5058 37.404 41.5393C39.2295 42.0659 41.0457 42.6187 42.8528 43.1975C44.7483 43.8076 46.69 44.2873 48.5494 44.9433C48.638 44.9745 48.7088 44.9995 48.7973 45.0308C50.4882 45.6566 52.1692 46.367 53.7864 47.2016C55.607 48.1372 57.3829 49.0865 59.1582 50.0941C60.1917 50.6641 61.2167 51.2018 62.2595 51.7457C63.1258 52.1687 63.9922 52.5916 64.8585 53.0146C65.7072 53.4314 66.5834 53.7699 67.4413 54.1605C68.2637 54.5387 69.0953 54.8907 69.9178 55.2689C70.8465 55.6845 71.7574 56.0939 72.6677 56.5618C73.2068 56.84 73.7459 57.1182 74.285 57.3963C74.6122 57.5411 74.9303 57.712 75.2484 57.8829C76.0694 58.3779 76.9265 58.827 77.7469 59.3804C78.2676 59.7108 78.779 60.0673 79.2997 60.3976C79.5908 60.5884 79.8912 60.753 80.1732 60.9698C80.6754 61.3524 81.1777 61.7349 81.6714 62.0851C81.9711 62.3082 82.28 62.5052 82.5612 62.7804C82.79 62.9785 83.0189 63.1765 83.23 63.3684C83.1923 62.7977 83.1278 62.2469 83.0725 61.67ZM83.8632 67.6694C83.0202 66.7853 82.1134 66.0254 81.225 65.2132C81.1372 65.1236 81.0224 65.0537 80.9253 64.9902C80.6519 64.8057 80.3877 64.5951 80.1234 64.3846C79.6828 64.0531 79.2329 63.7477 78.81 63.4225C78.4664 63.1546 78.0867 62.9326 77.734 62.6908C77.2749 62.4115 76.8428 62.1124 76.3929 61.807C76.0132 61.5851 75.6336 61.3631 75.2716 61.1474C74.8033 60.8942 74.3266 60.6086 73.8675 60.3293C73.4878 60.1074 73.0897 59.9376 72.71 59.7156C72.3034 59.5135 71.9145 59.3176 71.5079 59.1155C69.8276 58.3467 68.1473 57.5779 66.4756 56.8414C64.6536 56.0226 62.8225 55.2299 61.0642 54.2869C60.3041 53.9014 59.5263 53.5097 58.7754 53.0981C58.0692 52.6729 57.3537 52.2738 56.6205 51.8684C55.1272 51.0776 53.6162 50.2805 52.123 49.4896C51.3005 49.1115 50.4604 48.7271 49.6196 48.4011C49.1329 48.2001 48.6462 47.999 48.1681 47.8304C47.7077 47.6679 47.2564 47.4794 46.8045 47.3493C45.8298 47.0641 44.8374 46.7726 43.8627 46.4874C43.0296 46.2522 42.215 45.9648 41.4089 45.7097C37.7856 44.5781 34.1163 43.577 30.4286 42.628C28.5316 42.1348 26.6439 41.6154 24.7377 41.1483C23.8246 40.9142 22.9023 40.7061 21.9794 40.5565C21.0118 40.4205 20.0534 40.2584 19.0858 40.1224C18.1005 39.9801 17.1237 39.8702 16.1107 39.8062C15.6397 39.7867 15.1864 39.7735 14.7245 39.7279C14.2181 39.6959 13.7215 39.5794 13.2243 39.5213C12.3013 39.3717 11.4158 39.0593 10.5389 38.7792C9.68814 38.5378 8.82889 38.2639 7.97815 38.0225C7.85418 37.9787 7.72101 37.9611 7.61476 37.9236C7.45398 37.9842 7.31091 38.0511 7.16854 38.0595C7.04388 38.0742 6.92841 38.0628 6.81296 38.0514C6.6975 38.04 6.55513 38.0485 6.43966 38.0371C6.25337 38.0007 6.05787 37.9904 5.87157 37.954C5.78302 37.9228 5.69448 37.8915 5.61444 37.8926C5.17171 37.7364 4.72898 37.5802 4.27705 37.4501C4.02911 37.3627 3.78119 37.2752 3.50635 37.2076C3.48934 37.1429 3.48153 37.0521 3.47372 36.9614C3.28743 36.925 3.10114 36.8886 2.91484 36.8522C2.86171 36.8335 2.81709 36.8471 2.78167 36.8346C2.48911 36.7607 2.19657 36.6868 1.90402 36.6129C1.76234 36.563 1.59376 36.5328 1.44288 36.5089C1.48319 36.1124 1.61274 35.6888 1.81244 35.3485C1.97601 35.0542 2.13889 34.8183 2.33718 34.5949C2.49936 34.4174 2.68845 34.2201 2.85063 34.0427C2.90516 33.9445 2.95048 33.8725 2.9958 33.8005C3.18559 33.5448 3.35767 33.2828 3.51204 33.0146C3.70253 32.7004 3.90153 32.4186 4.08281 32.1305C5.1351 30.3896 6.14277 28.6622 7.20357 26.9536C8.41023 24.9445 9.66933 23.0125 10.9022 21.0419C11.0651 20.806 11.2102 20.5638 11.3554 20.3217C11.6819 19.7915 12.0352 19.2414 12.3178 18.6664C12.3454 18.5881 12.3822 18.4837 12.3921 18.3992C12.4013 18.3731 12.4105 18.3471 12.4197 18.321C12.397 17.9903 12.3828 17.6919 12.3508 17.3873C12.3196 17.0242 12.2884 16.6612 12.2572 16.2981C12.2273 15.8182 12.1529 15.3519 12.0877 14.8595C11.9969 14.2701 11.9061 13.6807 11.8062 13.1174C11.6885 12.5479 11.5531 11.972 11.4177 11.3962C11.3007 10.7682 11.1661 10.134 11.0491 9.50603C10.9909 9.16282 10.942 8.79353 10.9108 8.43048C10.8796 8.06744 10.9206 7.61253 10.9878 7.19621C11.0642 6.7538 11.2391 6.25811 11.4487 5.83335C11.5669 5.61105 11.7567 5.35531 11.9274 5.21018C12.1519 5.02536 12.3219 4.93865 12.545 4.87068C12.8666 4.74944 13.1584 4.88174 13.4425 4.92328C13.6642 4.97217 13.8859 5.02105 14.0899 5.06369C14.4979 5.14896 14.9059 5.23423 15.3232 5.29342C15.7489 5.38494 16.1753 5.41804 16.601 5.50956C17.0444 5.60733 17.4787 5.73118 17.9129 5.85504C18.418 6.00389 18.9053 6.14649 19.4104 6.29534C19.4104 6.29534 19.4104 6.29534 19.4281 6.30159C19.552 6.34532 19.6399 6.43498 19.7185 6.55074C20.2427 6.58898 20.7669 6.62723 21.3087 6.67172C22.2855 6.78165 23.2893 6.87173 24.2838 6.98791C25.1628 7.09268 26.0688 7.17762 26.9478 7.28239C27.9154 7.41841 28.8738 7.58051 29.823 7.7687C31.6683 8.12635 33.5043 8.51008 35.3311 8.91989C37.282 9.37345 39.2335 9.76857 41.1659 10.2743C43.0983 10.78 45.003 11.364 46.9078 11.948C47.7848 12.2281 48.6525 12.5342 49.5203 12.8404C50.3441 13.1017 51.1771 13.3369 51.9918 13.6243C52.6824 13.8679 53.3823 14.0855 54.0729 14.3292C54.2677 14.3979 54.4626 14.4666 54.6751 14.5416C55.6129 14.9312 56.56 15.2946 57.5156 15.6904C59.3298 16.4185 61.1623 17.0943 62.9949 17.7702C66.4914 19.0917 69.9603 20.4916 73.4299 21.833C75.2355 22.5287 77.0412 23.2244 78.8284 23.9723C80.7127 24.7837 82.597 25.5952 84.4721 26.4327C85.4007 26.8483 86.2933 27.3099 87.1951 27.7454C88.0437 28.1621 88.874 28.6311 89.7134 29.0739C90.1462 29.3146 90.5784 29.6137 91.002 29.8805C91.3108 30.0775 91.6197 30.2745 91.9286 30.4715C92.7928 31.0697 93.6748 31.6742 94.566 32.2527C94.9804 32.5455 95.404 32.8123 95.8361 33.1115C96.242 33.372 96.2224 34.2745 95.8945 34.9216C95.7486 35.2221 95.5595 35.4194 95.3626 35.526C95.3612 35.6428 95.3421 35.7534 95.323 35.864C94.9994 36.1606 94.6842 36.4894 94.3691 36.8183C94.1708 37.0417 93.9456 37.2849 93.7204 37.5281C93.5129 37.7776 93.2969 37.9948 93.0802 38.2704C92.9633 38.3758 92.9697 38.5834 93.0398 38.6668C93.0398 38.6668 93.0398 38.6668 93.0306 38.6929C91.8423 39.9165 90.6454 41.1077 89.457 42.3313C88.6291 43.1539 87.8012 43.9766 86.9733 44.7993C86.6043 45.1678 86.2353 45.5364 85.8671 45.8465C85.5257 46.1367 85.1673 46.3623 84.8267 46.5942C84.8168 46.6787 84.8338 46.7434 84.8416 46.8341C84.882 47.1711 84.9224 47.508 84.9452 47.8388C84.9913 48.4418 85.0013 49.0907 85.0028 49.7073C84.996 51.025 84.9268 52.35 84.8753 53.6813C84.8139 55.0971 84.7794 56.493 84.8072 57.8816C84.8273 59.1795 84.9281 60.4178 85.0643 61.6686C85.0728 61.701 85.0813 61.7333 85.0629 61.7855C85.0608 61.9608 85.0495 62.1621 85.0474 62.3374C84.9937 63.1105 84.9492 63.8575 84.8955 64.6307C84.8927 64.8644 84.8807 65.1242 84.8779 65.3579C84.8567 65.6437 84.8447 65.9035 84.8412 66.1956C84.8179 66.6568 84.8038 67.0919 84.7805 67.553C84.466 67.8234 84.1005 67.8999 83.8632 67.6694Z" fill="#C89D62"/>
<path d="M32.8748 32.2594C32.8563 32.2403 32.8175 32.2078 32.7582 32.1618C32.6989 32.1158 32.6302 32.079 32.5522 32.0515C32.4298 31.9707 32.3431 31.8586 32.2921 31.7152C32.2521 31.5757 32.257 31.4332 32.3066 31.2877C32.3333 31.2094 32.3599 31.1498 32.3863 31.1089C32.4312 31.0871 32.4896 31.0074 32.5615 30.8698C32.6407 30.7473 32.6994 30.6301 32.7375 30.5182C32.7939 30.4628 32.8447 30.4055 32.8899 30.3462C32.9389 30.2757 33.003 30.1792 33.0822 30.0567C33.3393 29.5957 33.8279 28.8403 34.5481 27.7904C35.2683 26.7404 35.6807 26.1901 35.7855 26.1393L35.8484 25.9546C35.8599 25.921 35.8939 25.8578 35.9506 25.7649C36.0072 25.6721 36.0936 25.5834 36.2098 25.4991C36.3002 25.3805 36.3776 25.2636 36.4418 25.1483C36.5211 25.0258 36.5777 24.933 36.6117 24.8697C36.6754 24.8295 36.8051 24.6872 37.0009 24.4428C37.2078 24.2023 37.3432 24.0432 37.4072 23.9655C37.5577 23.7804 37.7364 23.5676 37.9433 23.3271C38.1652 23.0794 38.3137 22.9186 38.3888 22.8448L38.4174 22.7609C38.4474 22.7464 38.5413 22.6541 38.6992 22.4841C38.872 22.3069 39.0167 22.1573 39.1332 22.0354C39.2723 21.8839 39.6369 21.4922 40.2271 20.8603C40.2872 20.7938 40.3698 20.7164 40.4749 20.628C40.5949 20.5325 40.6626 20.4623 40.6778 20.4175C40.7491 20.3549 40.8405 20.3433 40.9521 20.3826C41.0524 20.4181 41.1394 20.4926 41.2131 20.6064C41.3017 20.7129 41.3548 20.832 41.3724 20.9636L41.4481 21.2912L40.4339 22.2875C40.1674 22.5195 39.9271 22.7482 39.7129 22.9735C39.4986 23.1989 39.3839 23.3339 39.3686 23.3787C39.2859 23.4749 39.1185 23.6728 38.8664 23.9726C38.6254 24.2763 38.424 24.5375 38.262 24.7562C38.149 24.9044 38.021 25.0598 37.8781 25.2226C37.739 25.3741 37.6394 25.4832 37.5792 25.5497C37.4214 25.7197 37.3386 25.8159 37.331 25.8383C37.3462 25.7935 38.0229 26.0072 39.3611 26.4794C39.5729 26.5542 39.9484 26.6804 40.4875 26.8581C41.0377 27.0397 41.3835 27.1429 41.525 27.1677L42.4234 27.3907L43.5815 25.8622C43.8266 25.5098 44.3313 24.8352 45.0958 23.8386C45.4271 23.4163 45.6659 23.1557 45.812 23.0568C45.962 22.9467 46.1094 22.9173 46.2544 22.9684C46.3101 22.9881 46.3787 23.0436 46.4599 23.135C46.5562 23.2191 46.6077 23.3063 46.6144 23.3964C46.6951 23.5628 46.7126 23.7132 46.6668 23.8475C46.6134 24.0042 46.4498 24.191 46.176 24.4078C45.9621 24.5956 45.6218 24.9709 45.1552 25.5335C44.9518 25.8003 44.8313 25.9521 44.7938 25.989C44.7137 26.224 44.5988 26.3778 44.4491 26.4504C44.3892 26.4795 44.2559 26.6142 44.049 26.8547C43.8459 27.0839 43.7367 27.221 43.7215 27.2657C43.6909 27.3553 43.6399 27.4501 43.5683 27.5502C43.5005 27.6392 43.4366 27.6981 43.3768 27.7272L43.1223 28.0888C42.2475 29.3725 41.6051 30.2493 41.1952 30.719C41.1761 30.775 41.1139 30.8659 41.0085 30.9917C40.9032 31.1175 40.8409 31.2084 40.8219 31.2644C40.7729 31.3349 40.6693 31.4739 40.5111 31.6814C40.3529 31.8889 40.2662 32.015 40.2509 32.0598C40.1867 32.175 40.0753 32.3551 39.9168 32.6002C39.4901 33.3022 39.2653 33.6868 39.2424 33.754C39.2125 33.7685 39.1752 33.7679 39.1306 33.7522C39.086 33.7364 39.0193 33.6941 38.9303 33.6251C38.8526 33.56 38.7952 33.5084 38.7582 33.4703C38.5402 33.2303 38.4636 33.0152 38.5285 32.825C38.5705 32.7018 38.676 32.5573 38.845 32.3912C38.8975 32.347 39.1274 32.0207 39.5348 31.4121L39.8971 30.844C40.025 30.6885 40.3568 30.21 40.8924 29.4084C41.3147 28.7926 41.5408 28.4774 41.5707 28.4629L41.6279 28.295C41.6136 28.2272 41.2161 28.0556 40.4355 27.7801C39.5546 27.4693 38.7308 27.2288 37.9644 27.0586L36.7433 26.6277C36.6456 26.7312 36.2953 27.1906 35.6926 28.0061C35.1047 28.8144 34.754 29.3301 34.6405 29.5533C34.4365 29.8951 34.1384 30.3667 33.746 30.9681C33.3574 31.5582 33.0671 31.9886 32.8748 32.2594Z" fill="#47484E"/>
<path d="M43.6345 35.0782C43.5583 34.8256 43.0795 34.5626 42.1983 34.2892L42.042 34.2529C41.8301 34.1781 41.6633 34.0628 41.5415 33.907C41.4198 33.7512 41.3966 33.6176 41.472 33.5063C41.5935 33.2232 42.1078 33.2354 43.0148 33.5429L43.9071 33.8389L44.1888 33.5622C44.3657 33.3362 44.6351 32.9674 44.997 32.4556C45.1252 32.2626 45.3644 31.9457 45.7145 31.505C46.4265 30.5525 46.8088 30.0354 46.8617 29.9537C46.9632 29.8391 47.144 29.602 47.404 29.2423C47.664 28.8827 47.8713 28.5859 48.026 28.3521C49.1033 26.9141 49.5956 26.1662 49.5029 26.1084C49.3952 26.0579 49.0809 25.9721 48.56 25.851C48.0541 25.7226 47.7675 25.6654 47.7003 25.6793C47.6516 25.7122 47.5882 25.7149 47.5102 25.6874C47.4433 25.6638 47.3784 25.6158 47.3156 25.5435C47.2566 25.46 47.2274 25.3807 47.228 25.3057C47.2321 25.257 47.2476 25.1935 47.2743 25.1151C47.301 25.0368 47.3554 24.987 47.4376 24.9659C47.5946 24.9084 47.9004 24.8909 48.3549 24.9134C48.8244 24.9286 49.262 24.9827 49.6675 25.0756C49.8647 25.1202 50.0676 25.1479 50.2763 25.1588C50.4999 25.1625 50.6771 25.1373 50.808 25.0831C51.0689 25.0874 51.2755 25.1227 51.4278 25.189C51.4868 25.2725 51.6668 25.3674 51.9679 25.4736C52.2244 25.5641 52.4214 25.6274 52.559 25.6634C52.9757 25.7603 53.3235 25.8579 53.6023 25.9563C53.8141 26.0311 53.957 26.1066 54.031 26.1828C54.1161 26.263 54.1693 26.3633 54.1908 26.4837C54.1743 26.6785 54.1566 26.8039 54.1375 26.8599C54.065 27.0725 53.908 27.13 53.6665 27.0322C53.4617 27.0101 52.993 26.8824 52.2606 26.649C51.4459 26.4367 50.9955 26.3656 50.9092 26.4354C50.8344 26.4717 50.7726 26.5063 50.7239 26.5393C50.6863 26.5762 50.6432 26.6111 50.5945 26.6441C50.5904 26.6928 50.5129 26.8285 50.3621 27.0511C50.2262 27.2665 50.0717 27.4815 49.8985 27.6963L49.2941 28.4799C48.65 29.3435 48.2452 29.8714 48.0796 30.0638C47.9367 30.2265 47.8142 30.4027 47.7121 30.5924C47.2974 31.1859 46.962 31.6568 46.7058 32.0053C46.4534 32.3425 46.2537 32.6169 46.1067 32.8283C45.6811 33.3804 45.3401 33.8494 45.0836 34.2353L46.0657 34.4878C46.7465 34.6528 47.1872 34.7707 47.388 34.8416C47.5441 34.8967 47.6443 34.9508 47.6886 35.0041C47.7441 35.0613 47.7714 35.1461 47.7705 35.2587C47.8471 35.4738 47.8663 35.6373 47.8281 35.7492C47.7823 35.8835 47.644 35.9413 47.413 35.9225C47.1821 35.9037 46.8455 35.81 46.4033 35.6414C45.8827 35.4828 45.4476 35.3481 45.0981 35.2373C44.756 35.1416 44.5178 35.0889 44.3837 35.0792C44.2608 35.0735 44.1748 35.1058 44.1258 35.1763C44.0953 35.2658 44.0298 35.2929 43.9295 35.2575C43.818 35.2181 43.7196 35.1584 43.6345 35.0782Z" fill="#47484E"/>
<path d="M51.8099 37.8878C51.75 37.9168 51.6978 37.9235 51.6532 37.9077C51.5974 37.8881 51.5141 37.821 51.4031 37.7067C51.2696 37.6219 51.1789 37.5398 51.1311 37.4602C51.0795 37.3918 51.0708 37.3073 51.1051 37.2065C51.1433 37.0946 51.23 36.9685 51.3653 36.8281C51.5305 36.6733 52.1056 35.8292 53.0904 34.2959C53.5318 33.6241 53.7525 33.2882 53.7525 33.2882C53.7563 33.277 53.8378 33.1114 53.9968 32.7913C54.0875 32.6352 54.2426 32.3451 54.4621 31.9211C54.6837 31.7108 54.8683 31.4625 55.0159 31.176C55.1785 30.8823 55.273 30.715 55.2994 30.6742C55.4804 30.3996 55.603 30.2234 55.6669 30.1456L56.0178 29.6111L56.2498 29.2604C56.4232 29.0081 56.5233 28.8428 56.55 28.7645L56.6416 28.4958L56.0227 28.2775L55.6991 28.1821L55.0693 27.941C54.917 27.8747 54.7014 27.7924 54.4226 27.694C53.9062 27.4867 53.5721 27.3124 53.4204 27.1711C53.2725 27.0186 53.2349 26.8172 53.3077 26.5671C53.3277 26.3986 53.4066 26.3136 53.5445 26.3121C53.6863 26.2994 53.9801 26.3718 54.4262 26.5292C54.8165 26.6669 55.1435 26.7886 55.4073 26.8942C55.5673 26.9381 55.7922 27.0112 56.0821 27.1135C56.3944 27.2237 56.6489 27.3198 56.8458 27.4018C57.0539 27.4878 57.1746 27.5366 57.2081 27.5485C57.253 27.5267 57.2961 27.4917 57.3375 27.4437C57.3789 27.3956 57.4109 27.3567 57.4335 27.327C57.4983 27.1368 57.5997 27.0409 57.7376 27.0394C57.8542 26.9175 57.9626 26.8743 58.0629 26.9097C58.1968 26.9569 58.2999 27.1124 58.3724 27.3762C58.3756 27.4401 58.3747 27.5526 58.3697 27.7139C58.3797 27.8678 58.4104 27.9978 58.4617 28.1037C58.5216 28.0746 58.6761 28.0978 58.9252 28.1732C59.1744 28.2486 59.351 28.2984 59.4552 28.3226C59.6671 28.3974 59.8864 28.4685 60.1133 28.536C60.3439 28.5923 60.4983 28.6342 60.5763 28.6618C60.6958 28.6412 60.8614 28.6683 61.0733 28.7431C61.1736 28.7785 61.3092 28.8389 61.48 28.9242C61.7365 29.0148 61.9111 29.0889 62.0038 29.1467C62.1077 29.2084 62.1668 29.2732 62.1812 29.341C62.1392 29.4641 62.1366 29.5635 62.1733 29.6391C62.2064 29.6884 62.2173 29.7299 62.2058 29.7634C62.1982 29.7858 62.1587 29.8283 62.0874 29.8909C61.975 29.9641 61.7571 29.9437 61.4337 29.8295L61.0768 29.7224C60.8238 29.6582 60.6416 29.6064 60.5301 29.5671C60.0535 29.4992 59.3913 29.3345 58.5436 29.073C58.0864 28.9116 57.8425 28.8757 57.812 28.9653C57.7451 28.9417 57.4928 29.2602 57.0553 29.9208C56.8968 30.1658 56.7404 30.3865 56.586 30.5828C56.4466 30.7718 56.3413 30.8977 56.27 30.9603C56.2882 31.0169 56.2877 31.0731 56.2686 31.1291C56.2496 31.1851 56.1741 31.2964 56.0424 31.463C55.967 31.5743 55.886 31.6837 55.7994 31.7911C55.7166 31.8873 55.6638 31.9689 55.6409 32.0361C55.6145 32.0769 55.5429 32.177 55.4261 32.3364C55.3243 32.4886 55.2204 32.6651 55.1144 32.866C54.8756 33.3835 54.6962 33.6713 54.5765 33.7294C54.5577 33.7479 54.5146 33.7828 54.4471 33.8342C54.3908 33.8896 54.3492 33.9564 54.3225 34.0348C54.2691 34.1915 54.1347 34.4575 53.9193 34.8329C53.7077 35.1971 53.5739 35.3881 53.5178 35.4059C53.5513 35.4177 53.5566 35.4572 53.5337 35.5244C53.507 35.6027 53.4335 35.7084 53.3131 35.8415C53.2826 35.9311 53.2296 36.0315 53.1542 36.1428C53.0788 36.2541 53.0335 36.3322 53.0182 36.3769L52.6792 36.8216C52.1595 37.5034 51.8697 37.8588 51.8099 37.8878Z" fill="#47484E"/>
</g>
<defs>
<clipPath id="clip0">
<rect width="89.7464" height="40.4457" fill="white" transform="matrix(-0.943033 -0.3327 -0.3327 0.943033 98.0903 29.8584)"/>
</clipPath>
</defs>
</svg>
