<svg width="35" height="35" viewBox="0 0 35 35" fill="none" xmlns="http://www.w3.org/2000/svg">
<g clip-path="url(#clip0)">
<path d="M19.8061 1.57532C18.5484 1.57532 17.4841 2.41637 17.1444 3.56543C14.6553 4.80691 12.3342 6.34799 10.3498 8.18167L9.78145 7.66611C9.18234 7.12232 8.24318 7.12211 7.64353 7.6655C7.34551 7.935 7.17459 8.31335 7.17459 8.70352C7.17459 9.09363 7.34551 9.47197 7.64305 9.74107L8.28317 10.3216C6.93469 11.9014 5.75768 13.7551 4.79937 15.5478C4.66585 15.7975 4.76013 16.1082 5.00987 16.2417C5.2549 16.3728 5.56878 16.2838 5.7038 16.0312C8.453 10.8883 11.75 7.47783 17.0305 4.77977V24.1073C17.0305 24.3905 17.26 24.6201 17.5432 24.6201C17.8264 24.6201 18.056 24.3905 18.056 24.1073V4.35097C18.056 3.52345 18.6332 2.82829 19.4062 2.64698V29.6637C19.4062 30.0048 19.1287 30.2824 18.7875 30.2824C18.4066 30.2824 18.0571 30.047 18.0559 29.6637C18.0559 29.6637 18.0559 26.1612 18.0559 26.1584C18.0559 25.8752 17.8263 25.6457 17.5431 25.6457C17.26 25.6457 17.0304 25.8752 17.0304 26.1584V29.214C15.6114 29.6592 14.5357 30.8205 14.5357 32.2634C14.5357 32.3836 14.3684 32.4152 14.274 32.3953L2.88481 29.3847C2.39174 29.254 2.054 28.8553 2.09161 28.3876C2.39427 24.626 3.34061 21.0081 4.90438 17.6343C5.02348 17.3773 4.9117 17.0725 4.65477 16.9534C4.39771 16.8344 4.093 16.9461 3.97397 17.203C2.46366 20.4616 1.0637 24.9699 1.06425 28.4959L0.464253 29.0405C-0.154199 29.5944 -0.154815 30.5524 0.464253 31.1145C1.0477 31.6442 2.01968 31.6502 2.60354 31.1146L3.2382 30.5387C3.25173 30.5422 14.0215 33.3893 14.0339 33.3922C14.755 33.5643 15.5614 33.0329 15.5614 32.2634C15.5614 31.3505 16.2356 30.5892 17.1498 30.2772C17.4035 30.9098 18.0627 31.3077 18.7876 31.3077C19.6943 31.3077 20.4318 30.5701 20.4318 29.6635V2.08807C20.4305 1.75868 20.1311 1.57532 19.8061 1.57532ZM8.96774 9.55798L8.33137 8.98089C8.15765 8.82501 8.15861 8.58251 8.33171 8.42567C8.53819 8.23869 8.88638 8.23855 9.0923 8.42554L9.6095 8.89468C9.39175 9.11215 9.17756 9.33305 8.96774 9.55798ZM1.15347 30.3552C0.83337 30.0644 1.18799 29.7549 1.42208 29.556C1.59922 29.805 1.83516 30.0173 2.11547 30.1726C1.86757 30.4273 1.47138 30.6441 1.15347 30.3552ZM24.0271 7.21639H32.9149C34.0647 7.21639 35.0001 6.34641 35.0001 5.27708C35.0001 4.20774 34.0647 3.33776 32.9149 3.33776H31.6159C31.3327 3.33776 31.1032 3.56734 31.1032 3.85052C31.1032 4.1337 31.3327 4.36328 31.6159 4.36328H32.9149C33.4992 4.36328 33.9746 4.77321 33.9746 5.27708C33.9746 5.78095 33.4992 6.19088 32.9149 6.19088H24.0271C23.7439 6.19088 23.5144 6.42046 23.5144 6.70363C23.5144 6.98681 23.7439 7.21639 24.0271 7.21639ZM34.4874 15.9289H24.0271C23.7439 15.9289 23.5144 16.1584 23.5144 16.4416C23.5144 16.7249 23.7439 16.9544 24.0271 16.9544H34.4874C34.7705 16.9544 35.0001 16.7249 35.0001 16.4416C35.0001 16.1584 34.7705 15.9289 34.4874 15.9289ZM34.4874 19.1748H26.0781C25.795 19.1748 25.5654 19.4043 25.5654 19.6875C25.5654 19.9708 25.795 20.2003 26.0781 20.2003H34.4874C34.7705 20.2003 35.0001 19.9708 35.0001 19.6875C35.0001 19.4043 34.7705 19.1748 34.4874 19.1748ZM34.4874 12.6829H26.0781C25.795 12.6829 25.5654 12.9124 25.5654 13.1956C25.5654 13.4788 25.795 13.7084 26.0781 13.7084H34.4874C34.7705 13.7084 35.0001 13.4788 35.0001 13.1956C35.0001 12.9124 34.7705 12.6829 34.4874 12.6829ZM34.4874 9.4369H27.1037C26.8205 9.4369 26.5909 9.66648 26.5909 9.94966C26.5909 10.2328 26.8205 10.4624 27.1037 10.4624H34.4874C34.7705 10.4624 35.0001 10.2328 35.0001 9.94966C35.0001 9.66641 34.7705 9.4369 34.4874 9.4369ZM4.81516 27.1594C5.03825 27.5146 5.3969 27.7623 5.82516 27.8569L11.3167 29.0688C11.4398 29.0959 11.5639 29.1092 11.6871 29.1092C12.0445 29.1092 12.393 28.9967 12.6801 28.7827C13.0303 28.5217 13.2485 28.1315 13.2789 27.7121L13.9451 18.5167C13.9975 17.7931 13.7451 17.0921 13.2343 16.543C12.6685 15.9346 11.8456 15.5857 10.9768 15.5857C9.9041 15.5857 8.91133 16.1205 8.38593 16.9815C7.67785 18.142 7.04046 19.3533 6.4916 20.5821C5.70086 22.3525 5.07523 24.199 4.63214 26.0702C4.54368 26.4437 4.60869 26.8306 4.81516 27.1594ZM12.5466 23.6279L11.6074 23.6247L11.6122 19.5418H12.8426L12.5466 23.6279ZM5.6301 26.3064C6.05843 24.4975 6.66327 22.7123 7.42796 21.0003C7.95911 19.8113 8.57599 18.639 9.26138 17.5157C9.60178 16.9577 10.2591 16.6112 10.9769 16.6112C11.5618 16.6112 12.1109 16.8409 12.4835 17.2415C12.8094 17.5918 12.9737 18.0594 12.917 18.5164H11.6123C11.0442 18.5164 10.582 18.9785 10.582 19.5466V23.6247C10.582 24.1929 11.0443 24.655 11.6123 24.655H12.4723L12.2561 27.638C12.244 27.8051 12.1326 27.9119 12.0672 27.9606C11.9222 28.0686 11.7243 28.1085 11.5377 28.0674L6.04619 26.8555C5.89058 26.8212 5.75857 26.7333 5.68384 26.6142C5.64179 26.5474 5.59845 26.4398 5.6301 26.3064ZM32.9149 25.6667H24.0271C23.7439 25.6667 23.5144 25.8962 23.5144 26.1795C23.5144 26.4627 23.7439 26.6922 24.0271 26.6922H32.9149C33.4992 26.6922 33.9746 27.1022 33.9746 27.606C33.9746 28.1098 33.4992 28.5198 32.9149 28.5198H31.6159C31.3327 28.5198 31.1032 28.7493 31.1032 29.0325C31.1032 29.3158 31.3327 29.5453 31.6159 29.5453H32.9149C34.0647 29.5453 35.0001 28.6753 35.0001 27.606C35.0001 26.5367 34.0647 25.6667 32.9149 25.6667ZM34.4874 22.4208H27.1037C26.8205 22.4208 26.5909 22.6504 26.5909 22.9335C26.5909 23.2168 26.8205 23.4463 27.1037 23.4463H34.4874C34.7705 23.4463 35.0001 23.2168 35.0001 22.9335C35.0001 22.6503 34.7705 22.4208 34.4874 22.4208Z" fill="#885574"/>
</g>
<defs>
<clipPath id="clip0">
<rect width="35" height="35" fill="white"/>
</clipPath>
</defs>
</svg>
