<svg width="25" height="25" viewBox="0 0 25 25" fill="none" xmlns="http://www.w3.org/2000/svg">
<g clip-path="url(#clip0)">
<path d="M14.3936 13.0174C15.0681 12.4931 15.4436 11.7452 15.7513 10.9667C16.7664 8.39816 16.7845 5.87743 15.1392 3.55191C13.5604 1.32056 11.3994 0.0480326 8.61049 0.0015472C7.49835 -0.0170017 6.39163 0.128449 5.37811 0.588666C4.81548 0.844109 4.29396 1.24777 3.84376 1.67858C3.28638 2.21198 2.82198 2.84259 2.31788 3.43151C0.232992 5.86725 0.122772 8.55232 1.31969 11.3977C2.13805 13.343 3.51909 14.7669 5.3819 15.7359C5.9136 16.0124 6.47804 16.1759 7.07907 16.219C8.49773 16.3207 9.90242 16.3221 11.22 15.6722C11.5852 15.4921 11.9413 15.2935 12.2958 15.1065C12.6928 15.2548 12.8379 15.4978 12.7602 15.9178C12.7229 16.1197 12.7944 16.3597 12.8718 16.5613C13.082 17.1085 13.4725 17.5313 13.8994 17.9177C14.8692 18.7953 15.8496 19.6613 16.8177 20.5406C18.2101 21.8053 19.5955 23.0778 20.9836 24.3473C21.0591 24.4163 21.1286 24.4921 21.2066 24.5581C21.8679 25.1181 22.2899 25.1587 22.9917 24.6066C23.5688 24.1527 24.0533 23.6709 24.3245 22.9744C24.5052 22.5103 24.5114 22.0965 24.1745 21.7168C23.4293 20.8771 22.6955 20.0259 21.921 19.2137C21.2438 18.5035 20.5212 17.8364 19.8117 17.1574C18.7775 16.1676 17.7332 15.1882 16.7018 14.1955C16.3933 13.8985 16.1009 13.5825 15.8239 13.2557C15.5073 12.8822 15.3807 12.8352 14.9447 13.0724C14.7636 13.1708 14.608 13.334 14.3936 13.0174ZM18.4022 21.0262C18.0081 20.9061 17.9026 20.6441 17.8405 20.3308C17.7133 19.6895 17.5699 19.0515 17.432 18.4124C17.4148 18.3327 17.3966 18.2522 17.3663 18.177C17.3459 18.1263 17.3034 18.0845 17.1868 17.9209C17.3559 18.8106 17.4962 19.5494 17.6366 20.2883C17.602 20.2997 17.5674 20.3111 17.5328 20.3225C17.3713 20.1723 17.2099 20.022 17.058 19.8807C17.1091 19.0289 17.0836 18.8534 16.8084 18.3161C16.8523 18.8073 16.8896 19.2247 16.9292 19.668C16.2966 19.3842 16.3302 19.3627 16.2215 18.787C16.0871 18.0751 15.871 17.3787 15.6902 16.6756C15.6454 16.6853 15.6006 16.6949 15.5557 16.7046C15.6878 17.4037 15.82 18.1028 15.9749 18.9227C15.4112 18.4233 14.9444 18.0296 14.5013 17.6106C14.1899 17.3161 13.8991 16.9976 13.6209 16.6712C13.3491 16.3524 13.2425 15.9726 13.4623 15.5911C13.9558 14.7342 14.5908 13.9977 15.4096 13.4008C15.5409 13.5053 15.663 13.5816 15.7595 13.6823C17.2449 15.2338 18.7176 16.7974 20.2127 18.3394C21.2943 19.4548 22.49 20.4585 23.4485 21.6946C23.9887 22.3912 24.009 22.4275 23.5692 23.2068C23.4119 23.4855 23.2536 23.7711 22.8767 23.8336C22.7665 23.2006 22.6613 22.5961 22.556 21.9916C22.4844 22.2249 22.5096 22.4431 22.5423 22.6602C22.5967 23.0227 22.6505 23.3855 22.7146 23.7463C22.7669 24.0401 22.6507 24.2096 22.3499 24.2872C22.1733 23.3588 21.9988 22.4414 21.8242 21.5241C21.7826 21.531 21.741 21.5378 21.6994 21.5446C21.8305 22.4729 21.9615 23.4012 22.11 24.4536C21.6808 24.1511 21.4091 24.0185 21.4326 23.4935C21.4686 22.6868 21.2213 21.8893 20.8889 21.1275C21.0164 21.9531 21.1438 22.7787 21.285 23.6932C20.7195 23.3626 20.3922 23.0342 20.3977 22.4396C20.4012 22.0549 20.3271 21.6661 20.2574 21.2847C20.1536 20.7165 20.023 20.1531 19.9037 19.5877C19.8623 19.5959 19.8209 19.604 19.7794 19.6122C19.9165 20.6147 20.0534 21.6171 20.1959 22.6597C19.6424 22.4526 19.623 22.3697 19.5451 21.8028C19.4441 21.0666 19.3132 20.339 19.002 19.6449C19.1052 20.3799 19.2084 21.115 19.3185 21.8988C18.6886 21.5439 18.7129 21.5152 18.6287 20.9591C18.5167 20.2188 18.3354 19.4891 18.1839 18.7547C18.1328 18.7643 18.0816 18.7739 18.0305 18.7835C18.1522 19.517 18.2737 20.2504 18.4022 21.0262ZM8.11849 15.6552C7.67032 15.6199 7.21203 15.6311 6.77692 15.5361C6.3434 15.4414 5.93464 15.2359 5.51214 15.0871C5.1846 14.9719 4.91575 14.7966 4.6387 14.5685C3.84924 13.9186 3.40718 13.0034 2.74586 12.2608C2.57112 12.0646 2.43472 11.8277 2.31132 11.5933C1.05734 9.21244 0.917776 6.83117 2.4147 4.50356C2.8653 3.80283 3.44541 3.1841 3.97976 2.53907C4.23922 2.22589 4.49941 1.90111 4.81215 1.64663C5.9585 0.713871 7.35804 0.526629 8.74814 0.548853C11.3728 0.590758 13.3167 1.94822 14.7617 4.04482C15.8828 5.67152 16.0273 7.50345 15.6558 9.39963C15.4649 10.3739 15.1437 11.3245 14.5415 12.0995C13.9312 12.885 13.2029 13.5961 12.4466 14.2472C11.2155 15.3071 9.74311 15.7364 8.11849 15.6552ZM13.1199 14.9666C12.8984 14.8774 12.8419 14.7539 12.9665 14.5768C13.2014 14.2429 13.4291 13.903 13.6807 13.582C13.851 13.3647 14.0807 13.3354 14.3607 13.4917C13.9376 13.9946 13.526 14.4838 13.1199 14.9666Z" fill="white"/>
<path d="M2.43141 8.55192C2.43441 9.7399 2.65931 10.8661 3.36349 11.8566C3.46987 12.0061 3.5694 12.1677 3.7032 12.2894C4.47377 12.9904 5.23892 13.7107 6.19452 14.1543C8.39829 15.1771 10.464 14.8039 12.3572 13.3945C13.9338 12.2208 14.6212 10.533 14.7961 8.63352C14.9804 6.63159 14.5188 4.78213 13.2927 3.15531C13.219 3.05753 13.1476 2.95059 13.0524 2.87758C11.733 1.86621 10.3523 1.04678 8.57835 1.24245C7.76502 1.33214 6.94157 1.34051 6.20742 1.75543C5.225 2.31065 4.30123 2.95093 3.53767 3.79135C3.3644 3.98204 3.20849 4.22238 3.13774 4.4668C2.75166 5.80057 2.42112 7.14729 2.43141 8.55192ZM14.0855 8.3515C13.9937 8.84893 13.9087 9.36977 13.7987 9.88529C13.7136 10.2842 13.5267 10.6737 13.512 11.0721C13.4917 11.6197 13.1961 11.9845 12.8673 12.343C12.6333 12.5981 12.3713 12.8323 12.099 13.0468C10.4357 14.3571 8.04088 14.7551 6.13384 13.5898C5.71757 13.3355 5.3419 13.0155 4.94032 12.7361C3.81172 11.9508 3.23473 10.8489 3.03521 9.51041C2.86974 8.4003 2.98765 7.30552 3.20735 6.2242C3.35857 5.47998 3.67249 4.7724 4.17818 4.1984C5.12168 3.12737 6.32131 2.44892 7.69145 2.06381C8.15472 1.93362 8.61776 1.92571 9.08522 2.03434C9.94588 2.23448 10.7791 2.51113 11.5282 2.9891C12.6559 3.70861 13.4896 4.66761 13.7625 6.00879C13.9164 6.76545 13.977 7.54106 14.0855 8.3515Z" fill="white"/>
<path d="M8.0553 6.11584C7.46855 5.74293 6.88498 5.70256 6.27932 5.89975C5.9623 6.00295 5.75709 6.21206 5.68213 6.53811C5.54076 7.15294 5.56877 7.7631 5.88663 8.34144C6.37018 9.22129 7.08286 9.85803 7.88169 10.4015C8.17822 10.6032 8.49021 10.5258 8.75373 10.4021C9.50306 10.0502 10.1994 9.60551 10.7646 8.96981C11.2366 8.43893 11.4549 7.79929 11.4456 7.06444C11.4384 6.49265 11.1906 6.05647 10.7027 5.78414C9.82844 5.29619 9.00322 5.38141 8.2295 5.95291C8.17889 5.99024 8.13636 6.03937 8.0553 6.11584Z" fill="white"/>
</g>
<defs>
<clipPath id="clip0">
<rect width="25" height="25" fill="white" transform="matrix(-1 0 0 1 25 0)"/>
</clipPath>
</defs>
</svg>
