<svg width="83" height="57" viewBox="0 0 83 57" fill="none" xmlns="http://www.w3.org/2000/svg">
<g clip-path="url(#clip0)">
<path d="M70.8868 17.8668L72.25 4.88342L51.5067 8.45018L34.2045 14.0863L25.5078 17.8097L18.9852 20.6022L2.95011 29.2389L9.65002 36.9988L12.0447 52.8017L25.4977 46.1564L46.198 36.4082L63.4089 32.5824L80.5287 30.567L70.8868 17.8668Z" fill="white"/>
<path d="M78.5087 29.0055C77.7578 28.2221 77.0445 27.4013 76.3539 26.4988C75.6333 25.557 74.9127 24.5658 74.1921 23.5746C73.5766 22.696 72.9387 21.8004 72.2704 21.0137C71.7974 20.4574 71.2792 19.9658 70.7987 19.4367C70.4833 19.0988 70.1907 18.5803 70.1237 18.035C70.0938 17.8969 70.094 17.7487 70.1017 17.6226C70.1019 17.4744 70.1246 17.3432 70.1473 17.2121C70.17 17.1303 70.2002 17.0213 70.2229 16.9396C70.306 16.6399 70.3965 16.3623 70.5022 16.0796C70.6685 15.3814 70.7446 14.6148 70.8358 13.8431C70.9497 12.9896 71.041 12.1191 71.1549 11.2657C71.3527 9.42078 71.5505 7.57586 71.7634 5.72585C70.6053 5.82093 69.4398 5.89384 68.2667 5.99401C67.9358 6.00706 67.6199 6.06443 67.2891 6.07748C66.9883 6.12977 66.6724 6.13773 66.3716 6.19002C65.7549 6.29968 65.1382 6.40934 64.5215 6.51901C63.6716 6.68278 62.8293 6.86872 62.0019 7.04958C61.1746 7.23043 60.3623 7.45561 59.5499 7.68079C57.9855 8.0614 56.466 8.52558 54.9166 8.95051C53.4723 9.38926 52.0131 9.8331 50.5614 10.2497C49.0118 10.724 47.4699 11.1711 45.9354 11.6404C44.3106 12.1402 42.6934 12.6621 41.0686 13.1619C39.5115 13.6635 37.9395 14.1207 36.3674 14.578C34.7878 15.0625 33.2381 15.6357 31.6885 16.2089C30.2742 16.7363 28.845 17.2194 27.4382 17.7689C25.9186 18.3813 24.399 18.9937 22.9168 19.717C21.3744 20.4605 19.8095 21.187 18.2522 21.9357C17.6051 22.2532 16.9731 22.5656 16.3336 22.9052C15.6037 23.2754 14.8739 23.6455 14.1591 24.06C12.7294 24.8889 11.3072 25.7895 9.89998 26.6849C9.26037 27.074 8.65077 27.5023 8.02615 27.9357C7.8908 27.932 7.76296 27.9505 7.63511 27.9691C7.48472 27.9705 7.34184 27.9941 7.1839 28.0228C7.13127 28.0159 7.08614 28.0311 7.04101 28.0464C6.94325 28.0547 6.84549 28.0631 6.75522 28.0936C6.72513 28.1038 6.68 28.119 6.63487 28.1343C6.63487 28.1343 6.61982 28.1394 6.60477 28.1444C6.57468 28.1546 6.54459 28.1648 6.49946 28.18C6.46937 28.1902 6.43929 28.2004 6.41669 28.2327C6.37155 28.248 6.33391 28.2854 6.30376 28.345C6.30376 28.345 6.28872 28.35 6.29621 28.3722C5.98776 28.5012 5.67176 28.6574 5.37829 28.8306C4.99456 29.0344 4.62588 29.2331 4.2572 29.4318C4.05406 29.5252 3.86598 29.6134 3.67033 29.729C3.65529 29.734 3.6252 29.7442 3.61015 29.7493L3.61764 29.7715C4.39872 30.4953 5.19496 31.1152 5.9686 31.7674C6.34415 32.085 6.71216 32.4298 7.08016 32.7746C7.49323 33.1536 7.9063 33.5326 8.29677 33.9439C8.66471 34.3382 9.03265 34.7324 9.39303 35.1539C9.5958 35.357 9.76091 35.5975 9.93352 35.8602C10.0611 36.0394 10.1586 36.2781 10.241 36.4725C10.346 36.6839 10.3983 36.9379 10.4733 37.1595C10.6229 37.751 10.6748 38.3509 10.7417 38.9456C10.8904 40.2783 11.0166 41.5939 11.1427 42.9095C11.1947 43.4105 11.2542 43.9337 11.3137 44.4569C11.4922 46.0265 11.6932 47.6131 11.8867 49.1776C12.0218 49.3789 12.1193 49.6176 12.1565 49.8766C12.1939 50.0863 12.2161 50.301 12.261 50.5328C12.2985 50.5942 12.3285 50.6334 12.351 50.6999C12.3434 50.7766 12.3283 50.8311 12.3132 50.8856C12.3206 50.9077 12.3206 50.9077 12.3056 50.9128C12.3355 51.0509 12.3429 51.1719 12.3577 51.315C12.6135 51.2286 12.8767 51.1643 13.125 51.0557C13.3808 50.9693 13.629 50.8606 13.8998 50.7691C13.9149 50.764 13.945 50.7539 13.9825 50.7659C14.0879 50.7303 14.2082 50.6896 14.3135 50.654C14.3587 50.6387 14.4113 50.6456 14.4564 50.6304C14.9831 50.3536 15.5323 50.1433 16.0589 49.9159C17.5108 49.3511 18.9776 48.88 20.317 48.0815C21.0093 47.65 21.6641 47.157 22.3413 46.7305C23.0562 46.2666 23.7861 45.8471 24.501 45.4326C25.2082 45.0454 25.893 44.6411 26.5927 44.2811C27.3075 43.916 27.9997 43.5833 28.7294 43.2625C31.686 41.9915 34.6277 40.6762 37.6143 39.4445C39.1038 38.8423 40.6009 38.2622 42.1054 37.7043C43.6851 37.1209 45.2274 36.4268 46.8071 35.8929C46.8823 35.8674 46.9425 35.8471 47.0177 35.8217C48.4695 35.3557 49.9588 34.9511 51.4705 34.6624C53.1702 34.3348 54.8473 34.0396 56.5545 33.7836C57.5397 33.6235 58.5024 33.4463 59.4801 33.264C60.2773 33.0933 61.0745 32.9226 61.8718 32.7519C62.654 32.5864 63.4137 32.3543 64.1884 32.1665C64.933 31.9889 65.6701 31.7892 66.4147 31.6116C67.2496 31.4035 68.0695 31.2004 68.9193 31.0367C69.4232 30.9404 69.9271 30.8442 70.431 30.748C70.7244 30.6735 71.0252 30.6212 71.326 30.5689C72.1307 30.4698 72.9354 30.3213 73.7701 30.2614C74.289 30.2095 74.8154 30.1798 75.3343 30.1279C75.6275 30.1029 75.9133 30.0556 76.2141 30.0528C76.748 30.0452 77.2818 30.0376 77.7931 30.013C78.109 30.005 78.4173 29.9749 78.7481 30.0112C79.0037 30.0236 79.2593 30.036 79.4999 30.0535C79.1771 29.6934 78.8466 29.3605 78.5087 29.0055ZM82.166 32.585C81.1436 32.4366 80.1436 32.4042 79.1286 32.3274C79.0234 32.3136 78.9106 32.3271 78.8128 32.3354C78.5346 32.3554 78.2489 32.3532 77.9631 32.3509C77.4969 32.3603 77.0382 32.3919 76.5871 32.3962C76.2186 32.3973 75.8502 32.4477 75.4892 32.471C75.038 32.5247 74.5943 32.5512 74.1356 32.5827C73.7671 32.6332 73.3986 32.6837 73.0452 32.729C72.6015 32.8049 72.1352 32.8638 71.684 32.9175C71.3155 32.9679 70.962 33.0627 70.5935 33.1132C70.2174 33.1909 69.8564 33.2635 69.4804 33.3413C67.961 33.7066 66.4417 34.072 64.9449 34.4544C63.3053 34.8604 61.6731 35.2886 60.011 35.5788C59.304 35.7189 58.582 35.8642 57.8676 35.9822C57.1757 36.0679 56.4913 36.1757 55.7919 36.2887C54.3855 36.5418 52.9641 36.7999 51.5577 37.053C50.8131 37.2306 50.0534 37.4133 49.3238 37.6352C48.895 37.7554 48.4663 37.8757 48.0601 38.013C47.6689 38.1452 47.2703 38.2552 46.9017 38.4045C46.1042 38.7234 45.2918 39.0474 44.4943 39.3663C43.8173 39.6446 43.1252 39.8785 42.4557 40.1295C39.4542 41.2675 36.4901 42.5163 33.5409 43.8094C32.0213 44.4712 30.4941 45.1109 28.9819 45.7949C28.2521 46.1156 27.5299 46.4585 26.8376 46.8407C26.1228 47.2552 25.4005 47.6475 24.6856 48.062C23.9557 48.4815 23.2484 48.9182 22.541 49.4042C22.2174 49.6371 21.9088 49.8649 21.5777 50.0755C21.224 50.3186 20.8328 50.5002 20.4716 50.7211C19.7793 51.1032 19.0271 51.3575 18.2974 51.6288C17.6053 51.9121 16.8907 52.1784 16.1985 52.4617C16.0932 52.4973 15.9954 52.555 15.9051 52.5855C15.8298 52.7098 15.7695 52.829 15.6792 52.9089C15.6039 52.9837 15.5211 53.0364 15.4383 53.0891C15.3555 53.1417 15.2652 53.2217 15.1824 53.2743C15.0395 53.3473 14.904 53.4425 14.7611 53.5155C14.6858 53.541 14.6106 53.5664 14.5579 53.6089C14.1818 53.736 13.8057 53.8631 13.4371 54.0124C13.2265 54.0836 13.0158 54.1548 12.7977 54.2532C12.7526 54.2191 12.7 54.1628 12.6475 54.1065C12.5045 54.1795 12.3615 54.2525 12.2186 54.3255C12.1735 54.3407 12.1509 54.3731 12.1208 54.3833C11.8875 54.4868 11.6543 54.5903 11.4211 54.6938C11.3007 54.7345 11.1728 54.8024 11.06 54.8653C10.8799 54.5804 10.745 54.2309 10.7003 53.9003C10.6555 53.619 10.6408 53.3771 10.6561 53.1249C10.6714 52.9222 10.6943 52.6922 10.7096 52.4895C10.6947 52.3958 10.6872 52.3242 10.6798 52.2526C10.6726 51.9834 10.6504 51.7192 10.6131 51.4602C10.5759 51.1517 10.5612 50.8603 10.5315 50.574C10.3231 48.8664 10.0922 47.1911 9.90632 45.5006C9.66067 43.5339 9.49018 41.5912 9.28211 39.6365C9.26738 39.3946 9.23761 39.1577 9.20782 38.9208C9.14833 38.3976 9.09639 37.8472 8.98427 37.3171C8.9618 37.2506 8.93184 37.1619 8.89432 37.1005C8.88683 37.0783 8.87934 37.0562 8.87185 37.034C8.68413 36.8258 8.51895 36.6347 8.33873 36.4487C8.12848 36.2234 7.91823 35.9981 7.70798 35.7728C7.43768 35.4691 7.14478 35.1976 6.84438 34.904C6.47638 34.5592 6.10838 34.2144 5.74787 33.8917C5.37232 33.5741 4.98172 33.2616 4.59112 32.9492C4.18554 32.5923 3.76491 32.2406 3.35933 31.8838C3.14153 31.6858 2.91623 31.4656 2.70598 31.2403C2.49574 31.015 2.2856 30.6909 2.11306 30.3788C1.93302 30.0445 1.79069 29.6234 1.70848 29.2314C1.67115 29.0217 1.66397 28.7525 1.7018 28.5669C1.75473 28.3267 1.82259 28.1803 1.93558 28.0186C2.08628 27.7701 2.34953 27.7059 2.56021 27.5853C2.73326 27.5021 2.9063 27.4189 3.0643 27.3408C3.3803 27.1846 3.69629 27.0284 4.0048 26.85C4.33585 26.6888 4.63686 26.4882 4.96791 26.3269C5.31399 26.1606 5.66757 26.0164 6.02115 25.8722C6.43491 25.7076 6.83362 25.5482 7.24738 25.3836C7.24738 25.3836 7.24738 25.3836 7.26243 25.3785C7.36773 25.3429 7.47298 25.3568 7.58573 25.3927C7.95447 25.1446 8.32322 24.8965 8.70702 24.6433C9.41436 24.2067 10.1293 23.7428 10.8516 23.3011C11.4913 22.912 12.1384 22.4957 12.778 22.1066C13.4929 21.6922 14.2152 21.2998 14.945 20.9297C16.3595 20.2046 17.7815 19.5018 19.211 18.821C20.7458 18.1047 22.2506 17.3491 23.8004 16.6772C25.3501 16.0052 26.9224 15.3997 28.4946 14.7942C29.2243 14.5228 29.9615 14.2737 30.6987 14.0245C31.3833 13.7684 32.0603 13.4902 32.7524 13.2563C33.3391 13.0579 33.9184 12.8375 34.5051 12.6392C34.6706 12.5832 34.8361 12.5273 35.0166 12.4663C35.844 12.236 36.6639 11.9836 37.5063 11.7482C39.0935 11.2859 40.6656 10.7792 42.2377 10.2725C45.2541 9.32707 48.2929 8.44813 51.3017 7.52994C52.8663 7.05051 54.4308 6.57108 56.0104 6.13597C57.6877 5.69252 59.365 5.24907 61.0498 4.82778C61.8847 4.61968 62.7195 4.46099 63.5469 4.28013C64.329 4.11453 65.1262 3.99326 65.9159 3.84983C66.3295 3.78411 66.7732 3.75763 67.1943 3.71407C67.5026 3.68394 67.811 3.65382 68.1193 3.62369C69.0066 3.57073 69.909 3.51269 70.8038 3.43248C71.2325 3.41108 71.6536 3.36753 72.0972 3.34105C72.5033 3.30257 72.9612 3.91336 73.0808 4.51503C73.1406 4.79116 73.1177 5.02114 73.0423 5.1948C73.1024 5.27328 73.1474 5.35685 73.1924 5.44042C73.1318 5.80664 73.0937 6.18994 73.0556 6.57324C73.0402 6.82538 73.0173 7.10477 72.9944 7.38417C72.9866 7.65847 72.9562 7.9157 72.9558 8.21217C72.9331 8.34332 73.0457 8.47813 73.1359 8.49703C73.1359 8.49703 73.1359 8.49703 73.1434 8.51919C72.9912 9.95357 72.8165 11.3709 72.6643 12.8052C72.5427 13.7847 72.4212 14.7642 72.2997 15.7437C72.2465 16.1815 72.1933 16.6193 72.1101 17.0179C72.0344 17.3892 71.9137 17.7263 71.808 18.0584C71.8455 18.1198 71.8906 18.154 71.9431 18.2103C72.1459 18.4134 72.3487 18.6165 72.5364 18.8247C72.8818 19.2019 73.2271 19.6285 73.5499 20.0379C74.233 20.9183 74.8785 21.8361 75.5391 22.7489C76.2371 23.723 76.9427 24.6699 77.686 25.5793C78.3766 26.4325 79.09 27.2039 79.8334 27.9651C79.8559 27.9822 79.8785 27.9993 79.8935 28.0436C79.9835 28.1613 80.0811 28.3012 80.1712 28.4189C80.5389 28.9614 80.8992 29.4817 81.267 30.0242C81.3871 30.1812 81.5147 30.3603 81.6348 30.5173C81.7699 30.7185 81.8975 30.8977 82.0476 31.0939C82.2728 31.4129 82.4904 31.7098 82.7156 32.0288C82.6475 32.3728 82.4442 32.6144 82.166 32.585Z" fill="#7B954F"/>
<path d="M19.1843 38.236C18.9129 38.3381 18.7256 38.3658 18.6226 38.319C18.5196 38.2723 18.4434 38.1834 18.3941 38.0524C18.3905 37.9576 18.3928 37.8499 18.4009 37.7294C18.3994 37.4414 18.3916 37.236 18.3775 37.1132C18.348 36.9212 18.3244 36.6737 18.3065 36.3706C18.2162 34.8234 18.1772 33.8391 18.1897 33.4178L18.1635 31.7289L18.1164 30.112C18.1603 29.5186 18.1657 29.0358 18.1326 28.6636C18.1349 28.6414 18.1291 28.6115 18.115 28.5741C18.1044 28.546 18.0745 28.5092 18.0253 28.4636C17.9726 28.4086 17.9322 28.3437 17.904 28.2688C17.8524 28.16 17.8506 28.0699 17.8985 27.9984C17.9523 27.9141 18.0406 27.8649 18.1635 27.8507C18.4221 27.8282 18.8275 27.7132 19.3798 27.5055C19.5857 27.4281 19.7039 27.3729 19.7343 27.3401C19.7951 27.2745 20.2115 27.0325 20.9836 26.6139C21.7557 26.1954 22.4862 25.8084 23.1753 25.4532L23.2964 25.3916C23.3712 25.3635 23.459 25.3411 23.5596 25.3247C23.6696 25.3047 23.7451 25.2923 23.7861 25.2876C23.937 25.2629 24.0869 25.292 24.2356 25.3749C24.3902 25.445 24.4798 25.5555 24.5045 25.7065C24.5093 25.8329 24.4275 25.9278 24.259 25.9911C24.2028 26.0123 24.0554 26.0463 23.8167 26.0934C23.798 26.1004 23.7986 26.2017 23.8187 26.3971C23.8482 26.589 23.8606 26.7499 23.856 26.8799C23.8024 27.0496 23.7898 27.4283 23.8185 28.0158C23.8471 28.6033 23.8913 28.9766 23.9512 29.1357C23.8941 29.3816 23.8973 29.7169 23.9609 30.1417C23.988 30.3559 24.001 30.5326 24 30.6719C24.032 31.0979 24.0935 31.8012 24.1845 32.7819C24.2849 33.7591 24.3398 34.246 24.3492 34.2425L24.4831 34.769C24.5618 35.092 24.6194 35.3161 24.6558 35.4413C24.6792 35.4752 24.6915 35.5079 24.6927 35.5395C24.7033 35.5676 24.6963 35.5916 24.6717 35.6115C24.6308 35.7017 24.5215 35.7802 24.3436 35.8471C24.2687 35.8753 24.1903 35.8941 24.1084 35.9035C24.0359 35.9094 23.9849 35.9019 23.9557 35.8808C23.9357 35.8563 23.8883 35.8153 23.8134 35.7581C23.7349 35.6914 23.6892 35.6125 23.6762 35.5212C23.5916 35.2111 23.4729 34.6681 23.32 33.8923C23.2789 33.6407 23.2541 33.4043 23.2457 33.1831C23.2337 32.9525 23.2383 32.8226 23.2593 32.7933L23.1512 31.6962C23.1451 31.3673 23.1102 31.0332 23.0467 30.6938C23.042 30.6528 23.0284 30.5458 23.006 30.3726C22.9801 30.19 22.9659 29.9817 22.9633 29.7476C22.9677 29.4468 22.9511 29.1326 22.9133 28.8049C22.8814 28.4643 22.8607 28.2531 22.8513 28.1712C22.8406 28.0576 22.8304 27.789 22.8207 27.3654C22.8218 27.3115 22.8176 27.2009 22.8081 27.0336C22.8044 26.8533 22.7803 26.7182 22.7357 26.6281L21.8566 27.1029L21.0564 27.532L20.1405 28.0367C19.6632 28.3017 19.4105 28.4395 19.3824 28.45C19.2339 28.5379 19.1754 28.624 19.2071 28.7083C19.1444 29.2233 19.105 29.7295 19.0891 30.227C19.0697 30.7151 19.08 31.1118 19.1201 31.4173C19.1143 31.5156 19.1147 31.9855 19.1214 32.827C19.1148 33.3209 19.1127 33.5568 19.115 33.5345C19.1636 34.2321 19.1842 34.8974 19.1766 35.5306C19.1685 35.6512 19.1633 35.7653 19.1611 35.873C19.1682 35.9771 19.1911 36.1234 19.2299 36.3118C19.229 36.5365 19.2627 36.8818 19.331 37.3475C19.3393 37.4833 19.3511 37.5857 19.3664 37.6547C19.3875 37.7109 19.4063 37.7893 19.4228 37.8899C19.4042 38.0679 19.3247 38.1832 19.1843 38.236Z" fill="#47484E"/>
<path d="M27.766 34.3999C27.6536 34.4421 27.5577 34.4568 27.4781 34.444C27.3985 34.4312 27.2785 34.3962 27.1181 34.339C26.686 34.1276 26.4189 33.8861 26.3169 33.6147C26.2922 33.5492 26.2793 33.5006 26.2781 33.469C26.2815 33.3929 26.2663 33.3239 26.2323 33.2619C26.2076 33.1964 26.1918 33.1542 26.1847 33.1355C26.1332 33.1122 26.1057 33.0958 26.1022 33.0864C26.0951 33.0677 26.0992 33.0502 26.1144 33.0338C26.1261 33.008 26.1331 32.984 26.1354 32.9618C26.1916 32.9406 26.1909 32.8821 26.1335 32.7862C26.0866 32.7184 26.0625 32.5405 26.061 32.2526C26.0561 31.9553 26.0833 31.6726 26.1428 31.4045C26.1824 31.1973 26.2529 30.9304 26.3544 30.6038C26.4653 30.2736 26.5757 30.0131 26.6855 29.8222C26.8362 29.5412 26.9829 29.3204 27.1256 29.1599C27.2682 28.9994 27.4384 28.8553 27.6361 28.7276C27.8057 28.6104 27.9232 28.5395 27.9887 28.5148C28.0543 28.4902 28.1175 28.4878 28.1783 28.5076C28.2451 28.5146 28.3364 28.5443 28.4523 28.5969C28.7473 28.6142 28.975 28.6941 29.1355 28.8368C29.3018 28.9665 29.4536 29.2139 29.5908 29.579C29.8196 30.1874 29.8198 30.9406 29.5912 31.8385C29.4921 32.2283 29.3806 32.5427 29.2567 32.7815C29.1294 33.0111 28.9465 33.2775 28.708 33.5809C28.5642 33.7952 28.4204 33.9668 28.2766 34.0957C28.1386 34.2117 27.9684 34.3131 27.766 34.3999ZM28.5541 32.4047C28.6837 32.0675 28.7718 31.762 28.8184 31.4881C28.8743 31.2106 28.898 30.8759 28.8894 30.4838C28.8764 30.3071 28.8276 30.1064 28.7432 29.8817C28.6376 29.6009 28.5403 29.4559 28.4513 29.4466C28.3401 29.435 28.2377 29.4468 28.1441 29.482C27.9382 29.5595 27.7581 29.734 27.6039 30.0057C27.4204 30.3418 27.2862 30.7234 27.2012 31.1507C27.1126 31.5686 27.051 32.0726 27.0165 32.6625C26.9968 32.8942 27.0221 33.1037 27.0925 33.2909C27.1453 33.4313 27.2203 33.5313 27.3175 33.5909C27.4241 33.647 27.5382 33.6522 27.6599 33.6064C27.9688 33.4903 28.2669 33.0897 28.5541 32.4047Z" fill="#47484E"/>
<path d="M32.6012 32.7257C32.5615 32.7621 32.4257 32.7704 32.194 32.7507C31.9587 32.7216 31.7749 32.6732 31.6426 32.6055C31.5067 32.5284 31.3931 32.4536 31.3018 32.3811C31.2198 32.3051 31.1559 32.2062 31.1101 32.0846C31.0047 31.9746 30.918 31.8577 30.85 31.7337C30.7878 31.5968 30.7163 31.4207 30.6353 31.2054C30.5614 31.0089 30.5267 30.8029 30.5311 30.5876C30.5356 30.3722 30.5541 30.1088 30.5866 29.7975C30.5828 29.5318 30.6627 29.1759 30.8261 28.7298C30.9954 28.2709 31.2139 27.9002 31.4817 27.6179C31.691 27.379 31.8892 27.2243 32.0764 27.1539C32.1887 27.1117 32.3034 27.0899 32.4205 27.0886C32.5433 27.0745 32.6452 27.0896 32.726 27.134C32.8033 27.169 32.8595 27.1906 32.8946 27.1988C32.9413 27.0957 32.9435 26.9026 32.9011 26.6194C32.8645 26.3233 32.7882 26.0209 32.672 25.712C32.4538 25.1317 32.1971 24.7474 31.902 24.5592C31.4276 24.2355 30.9846 24.151 30.5727 24.3059C30.4136 24.3658 30.2346 24.4865 30.0358 24.6681C29.893 24.6577 29.7549 24.6028 29.6214 24.5034C29.4878 24.4041 29.4169 24.2865 29.4086 24.1507C29.557 23.8919 29.7225 23.7069 29.9049 23.5955C30.0781 23.4877 30.2067 23.4179 30.291 23.3862C30.4501 23.3264 30.6046 23.311 30.7544 23.3402C31.2787 23.3139 31.7201 23.3937 32.0784 23.5794C32.4367 23.7652 32.7348 24.0324 32.9727 24.3809C33.22 24.726 33.4621 25.1851 33.6991 25.7584C33.7401 25.8391 33.787 25.9497 33.8398 26.0901C33.8856 26.2118 33.9525 26.4323 34.0406 26.7518C34.0126 26.8478 34.015 26.9537 34.0479 27.0695C34.0808 27.1854 34.1007 27.2527 34.1078 27.2714C34.1782 27.4586 34.2105 27.6014 34.2047 27.6997C34.2411 27.8249 34.253 27.97 34.2402 28.135C34.2275 28.3001 34.2317 28.4107 34.2528 28.4668C34.27 29.3364 34.1356 30.1722 33.8496 30.9742C33.5636 31.7762 33.1475 32.3601 32.6012 32.7257ZM32.1738 31.8448C32.326 31.8517 32.5119 31.6643 32.7316 31.2825C32.9571 30.8879 33.1194 30.4956 33.2186 30.1058C33.243 30.0004 33.2721 29.8079 33.3058 29.5281C33.336 29.239 33.3562 29.023 33.3666 28.8802C33.364 28.5607 33.3204 28.2886 33.236 28.064C33.1761 27.9049 33.1076 27.8078 33.0303 27.7727C32.9273 27.726 32.8149 27.7255 32.6932 27.7713C32.4592 27.8593 32.2177 28.0837 31.9688 28.4444C31.8881 28.5708 31.8198 28.7301 31.7638 28.9221C31.7136 29.1012 31.6816 29.2148 31.6676 29.2628C31.6303 29.4477 31.5959 29.5835 31.5644 29.6702L31.5749 29.6982C31.5996 29.7638 31.5926 29.8305 31.554 29.8984C31.5248 29.9628 31.5062 30.0126 31.498 30.0477C31.469 30.283 31.4697 30.5124 31.5004 30.7359C31.5275 30.95 31.5569 31.0992 31.5886 31.1835C31.6519 31.352 31.7352 31.5023 31.8383 31.6344C31.9508 31.7631 32.0626 31.8332 32.1738 31.8448Z" fill="#47484E"/>
<path d="M40.1461 34.1352C40.0794 34.1282 39.9817 34.1383 39.853 34.1653C39.7336 34.1888 39.647 34.2 39.5932 34.1989C39.4059 34.1839 39.2145 34.1437 39.019 34.0783C38.8234 34.013 38.6776 33.9236 38.5816 33.8101L38.5112 33.7084C38.482 33.6873 38.4527 33.6663 38.4234 33.6452C38.3848 33.6277 38.3572 33.6114 38.3408 33.5962C38.301 33.547 38.2535 33.4634 38.1984 33.3452C38.1468 33.2364 38.0964 33.1592 38.0472 33.1136C38.06 33.034 38.0681 32.9562 38.0716 32.8801C38.0656 32.8075 38.0691 32.7315 38.0819 32.6519L38.3188 32.5147C38.3843 32.4901 38.4452 32.5099 38.5014 32.5742C38.567 32.635 38.642 32.735 38.7264 32.8742C38.8753 33.1281 39.0247 33.3123 39.1746 33.4268C39.3245 33.5414 39.5258 33.5512 39.7786 33.4561C40.0874 33.34 40.295 33.0963 40.4011 32.7252C40.5073 32.3541 40.5485 31.938 40.5246 31.4769L40.5155 31.1117C40.4873 31.0368 40.4738 30.9297 40.4748 30.7905C40.4736 30.7589 40.4701 30.7068 40.4641 30.6342C40.4617 30.571 40.4517 30.516 40.4341 30.4692C40.406 30.3943 40.386 30.3271 40.3743 30.2674C40.366 30.2171 40.3596 30.1714 40.3548 30.1305C40.3219 29.9292 40.2878 29.7817 40.2526 29.6881C40.2033 29.5571 40.1441 29.4565 40.075 29.3863L39.834 28.916C39.779 28.8833 39.6958 28.8184 39.5846 28.7214C39.4698 28.615 39.372 28.5396 39.2912 28.4952L39.1399 28.1354C39.1515 28.1097 39.1661 28.0775 39.1837 28.0388C39.2012 28.0002 39.2222 27.9709 39.2468 27.951C39.6233 27.6171 39.922 27.2323 40.1428 26.7967C40.3695 26.3483 40.4662 25.8952 40.433 25.4376C40.4071 25.2551 40.3783 25.1217 40.3466 25.0374C40.3079 24.9345 40.2686 24.8584 40.2288 24.8093C40.1328 24.7813 40.0479 24.7972 39.9742 24.8569C39.6818 25.0737 39.4796 25.2887 39.3674 25.5018C39.2552 25.7149 39.1595 25.986 39.0802 26.3149C39.0185 26.6052 38.9379 26.8599 38.8387 27.0788C38.7743 27.0496 38.6982 27.0462 38.6104 27.0685C38.5227 27.0908 38.4419 27.0892 38.3681 27.0635C38.3037 27.0343 38.2024 26.9495 38.0642 26.8092C38.1015 26.7097 38.1201 26.5745 38.12 26.4036C38.1223 26.3814 38.1223 26.3386 38.1199 26.2754C38.1233 26.1994 38.1349 26.1309 38.1548 26.07C38.1863 25.9834 38.2289 25.8552 38.2826 25.6854C38.3456 25.5121 38.411 25.3593 38.4788 25.227C38.543 25.0853 38.6202 24.9495 38.7102 24.8195C39.0118 24.4283 39.331 24.1693 39.668 24.0426C40.0331 23.9053 40.3871 23.9378 40.7302 24.1399C40.9762 24.2825 41.159 24.5129 41.2786 24.8311C41.3702 25.0745 41.4137 25.3466 41.4093 25.6474C41.4049 25.9482 41.3607 26.2426 41.2767 26.5306C41.2149 26.7355 41.1366 26.9251 41.042 27.0996C40.9438 27.2647 40.8135 27.458 40.651 27.6793L40.3547 28.1273L40.5305 28.3817C40.711 28.6343 40.8505 28.849 40.949 29.0256C41.0568 29.1987 41.143 29.3853 41.2076 29.5854C41.4365 30.3647 41.5513 31.0534 41.5518 31.6515C41.5524 32.2495 41.3768 32.8337 41.025 33.4041C40.8462 33.6957 40.5532 33.9394 40.1461 34.1352Z" fill="#47484E"/>
<path d="M44.1516 28.0136C44.065 28.0675 43.9843 28.1085 43.9094 28.1367C43.7877 28.1824 43.6719 28.2153 43.5619 28.2353C43.4484 28.2459 43.3846 28.2325 43.3705 28.1951C43.3599 28.167 43.3482 28.1501 43.3353 28.1442C43.3225 28.1384 43.302 28.1407 43.2739 28.1513C43.261 28.1455 43.2241 28.1326 43.1633 28.1128C43.1024 28.0929 43.0339 28.0813 42.9578 28.0779C42.8243 27.9785 42.7294 27.8539 42.6731 27.7042C42.6132 27.5451 42.5621 27.2812 42.5196 26.9125C42.435 26.6025 42.4346 26.1753 42.5184 25.6309C42.6022 25.0866 42.7369 24.5499 42.9225 24.0207C43.1174 23.4879 43.3207 23.091 43.5323 22.8298C43.6199 22.6366 43.7714 22.4995 43.9866 22.4186C44.1551 22.3552 44.3301 22.3375 44.5115 22.3654C44.6707 22.391 44.854 22.4663 45.0612 22.5914C45.2779 22.7129 45.4635 22.8514 45.6182 23.0069C45.7084 23.1332 45.7782 23.2619 45.8274 23.393C45.8802 23.5334 45.9442 23.7604 46.0194 24.074C46.036 24.26 46.0713 24.4818 46.1254 24.7393C46.1888 24.9932 46.254 25.2091 46.3209 25.3869C46.3514 25.525 46.4013 25.6291 46.4704 25.6993C46.536 25.7601 46.6015 25.7781 46.667 25.7535C46.7139 25.7359 46.76 25.7025 46.8057 25.6533C46.8817 25.5713 46.9758 25.5092 47.0881 25.4669C47.1911 25.4282 47.2859 25.4246 47.3725 25.4561C47.4592 25.4877 47.5236 25.5596 47.5658 25.6719C47.6292 25.8404 47.5756 26.0529 47.4049 26.3093C47.2436 26.5623 47.06 26.7275 46.8541 26.8049C46.7137 26.8577 46.5422 26.7994 46.3396 26.6299C46.1428 26.4475 45.9231 26.2042 45.6805 25.9001L45.4748 25.6089L45.0876 26.4116L44.8861 26.8559C44.7927 27.062 44.7419 27.1826 44.7337 27.2177C44.6976 27.4343 44.5036 27.6996 44.1516 28.0136ZM43.8822 27.1693C44.0576 26.9538 44.2474 26.6207 44.4518 26.1699C44.6563 25.7191 44.8098 25.3034 44.9124 24.923C45.0583 24.4301 45.0982 23.9824 45.0323 23.5798C44.9526 23.4816 44.8496 23.3921 44.7231 23.3115C44.5966 23.2308 44.4988 23.1982 44.4298 23.2134C44.2426 23.2838 44.0865 23.4654 43.9615 23.7581C43.8366 24.0508 43.7059 24.4419 43.5694 24.9312L43.3648 25.7934C43.3368 25.8894 43.3142 26.1276 43.297 26.508C43.2762 26.8791 43.2782 27.0973 43.3028 27.1629C43.3803 27.3688 43.4798 27.4489 43.6015 27.4031C43.6951 27.3679 43.7887 27.29 43.8822 27.1693Z" fill="#47484E"/>
<path d="M50.28 22.007C50.0836 22.2518 49.934 22.479 49.8312 22.6886C49.7927 22.7565 49.7366 22.8631 49.663 23.0083C49.5859 23.1441 49.514 23.2513 49.4473 23.3297C49.5715 23.4326 49.6658 23.4987 49.7302 23.5279L50.1061 23.8031C50.6109 24.1796 50.9681 24.4192 51.1777 24.522C51.3873 24.6248 51.6818 24.7117 52.0611 24.7827C52.1699 24.8166 52.2391 24.8867 52.2684 24.9932C52.2697 25.1102 52.2522 25.1916 52.216 25.2373C52.1856 25.2701 52.0762 25.3486 51.8879 25.4728C51.744 25.5163 51.6275 25.5334 51.5386 25.5241C51.459 25.5113 51.2752 25.4629 50.9872 25.3789C50.7846 25.2948 50.4714 25.1295 50.0475 24.8829C49.6294 24.6235 49.2417 24.3739 48.8845 24.1343C48.8307 24.1332 48.7757 24.1005 48.7194 24.0362C48.7023 24.502 48.7096 24.7771 48.7413 24.8613C48.7449 25.0415 48.7644 25.2212 48.7997 25.4002C48.8433 25.715 48.854 25.9567 48.832 26.1253C48.8907 26.3382 48.8592 26.4676 48.7375 26.5133C48.672 26.538 48.5754 26.5369 48.4478 26.5101C48.3331 26.4891 48.2418 26.4594 48.1739 26.4208C48.1153 26.3787 48.0702 26.3156 48.0385 26.2313C47.9892 26.1003 47.9563 25.9417 47.9398 25.7556C47.9232 25.5696 47.9131 25.3864 47.9094 25.2062C47.8624 24.9674 47.8312 24.7708 47.8158 24.6164C47.8063 24.449 47.8219 24.2775 47.8627 24.1019L47.8356 23.2628C47.7928 22.4669 47.7803 21.681 47.7983 20.905C47.8135 20.8032 47.8321 20.7107 47.8543 20.6276C47.8729 20.5351 47.8892 20.4648 47.9032 20.4168C47.8891 20.3794 47.9195 20.3466 47.9944 20.3184C48.0506 20.2973 48.112 20.2903 48.1787 20.2972C48.2419 20.2948 48.2993 20.3053 48.3508 20.3287C48.3847 20.3052 48.4591 20.3467 48.5739 20.4531C48.6887 20.5595 48.7555 20.6519 48.7743 20.7303C48.813 20.8333 48.8178 20.9597 48.7887 21.1095C48.7712 21.1481 48.7548 21.2184 48.7397 21.3202C48.7246 21.4221 48.7019 21.5321 48.6716 21.6503C48.6824 21.9347 48.6857 22.3555 48.6815 22.9126L48.6903 22.8933C48.7008 22.8359 48.7224 22.7797 48.7551 22.7247C48.7843 22.6603 48.8 22.617 48.8024 22.5947C48.7976 22.5538 48.828 22.4783 48.8934 22.3682C48.9682 22.2546 49.0173 22.172 49.0407 22.1205C49.2429 21.8628 49.4901 21.4974 49.7823 21.0243C50.0803 20.5383 50.2527 20.2438 50.2994 20.1408C50.3344 20.0635 50.38 20.0143 50.4362 19.9932C50.483 19.9756 50.5397 19.9702 50.6065 19.9772C50.7293 19.963 50.8218 19.9817 50.8839 20.0331C50.9425 20.0752 51.0034 20.1805 51.0668 20.349C51.1336 20.4414 51.1366 20.5631 51.0759 20.7141C51.0152 20.8652 50.9007 21.0578 50.7323 21.292C50.5488 21.5427 50.398 21.781 50.28 22.007Z" fill="#47484E"/>
<path d="M54.0091 24.2425C53.8547 24.3433 53.6528 24.3604 53.4034 24.2939C53.1541 24.2275 52.979 24.117 52.8782 23.9626C52.8548 23.9287 52.8272 23.8696 52.7955 23.7854C52.6653 23.4391 52.6291 22.9452 52.687 22.3037C52.7508 21.6494 52.8883 21.0208 53.0996 20.4178C53.3074 19.8055 53.5475 19.3787 53.82 19.1373C53.9778 18.9604 54.0848 18.8614 54.141 18.8403C54.1972 18.8192 54.3429 18.8232 54.5782 18.8522C54.7233 18.8404 54.8374 18.8455 54.9205 18.8677C55.0036 18.8898 55.1231 18.9518 55.2788 19.0534C55.492 19.251 55.6936 19.5171 55.8835 19.8517C56.0136 20.0271 56.0945 20.157 56.1261 20.2412C56.1543 20.3161 56.1509 20.3922 56.1158 20.4694C56.11 20.4823 56.0983 20.5081 56.0808 20.5467C56.0726 20.5818 56.0721 20.6088 56.0791 20.6275C56.0826 20.6368 56.0937 20.638 56.1125 20.631C56.116 20.6403 56.1201 20.6655 56.1248 20.7064C56.126 20.738 56.1231 20.7872 56.1162 20.8539C56.1376 21.2518 56.1959 21.5772 56.2909 21.8299C56.3226 21.9141 56.3654 21.9995 56.4193 22.0861C56.6044 22.2943 56.8093 22.3561 57.0339 22.2716C57.2211 22.2012 57.3673 22.0501 57.4724 21.8183C57.5835 21.659 57.6647 21.5483 57.7161 21.4862C57.7734 21.4113 57.8144 21.4065 57.839 21.4721C57.8519 21.4779 57.8759 21.4849 57.911 21.4931C57.9461 21.5012 57.9777 21.5 58.0058 21.4895C58.0713 21.4648 58.1199 21.4946 58.1516 21.5789C58.1833 21.6631 58.1857 21.769 58.1589 21.8966C58.118 21.9868 58.0877 22.0623 58.0678 22.1232C58.048 22.1841 58.0434 22.2285 58.0539 22.2566L57.9172 22.5324C57.7781 22.7022 57.5869 22.8329 57.3435 22.9244C57.0908 23.0195 56.8702 23.0437 56.6817 22.997C56.5155 22.9527 56.3381 22.8645 56.1495 22.7324C55.961 22.6003 55.8216 22.4711 55.7313 22.3448L55.6083 22.2308L55.3015 22.6507C55.2431 22.7795 55.1724 22.9182 55.0894 23.067C55.003 23.2063 54.948 23.3018 54.9247 23.3533C54.885 23.475 54.8371 23.5465 54.7809 23.5676L54.6405 23.6204C54.6652 23.6859 54.5997 23.796 54.4442 23.9506C54.2945 24.0924 54.1495 24.1897 54.0091 24.2425ZM53.5836 23.5371C53.6865 23.4984 53.894 23.2547 54.2061 22.8062C54.5147 22.3483 54.6987 22.028 54.7583 21.8454L55.007 21.271C55.0934 21.0462 55.1383 20.8104 55.1415 20.5634C55.1542 20.3129 55.1271 20.0988 55.0602 19.9209C55.0004 19.7618 54.9347 19.6583 54.8633 19.6104C54.7836 19.5121 54.7063 19.4771 54.6314 19.5052C54.594 19.5193 54.4987 19.5926 54.3455 19.725C54.2099 19.9042 54.0539 20.2566 53.8777 20.7823C53.7108 21.3044 53.582 21.8283 53.4912 22.3539C53.3968 22.8701 53.3866 23.2265 53.4606 23.4231C53.4711 23.4512 53.491 23.4757 53.5203 23.4968C53.5496 23.5178 53.5707 23.5313 53.5836 23.5371Z" fill="#47484E"/>
<path d="M58.9934 27.6886C58.5535 27.854 58.1145 27.8374 57.6766 27.6389C57.515 27.4646 57.4113 27.3594 57.3656 27.3232C57.3234 27.2963 57.1993 27.2361 56.9932 27.1427C56.9686 27.0772 56.9568 26.9748 56.9578 26.8355C56.9495 26.6997 56.9623 26.5774 56.9961 26.4685C57.2191 25.8398 57.6481 25.2618 58.2831 24.7345C58.2983 24.7181 58.3287 24.6853 58.3743 24.6361C58.4293 24.5834 58.4849 24.5465 58.541 24.5254C58.5691 24.5148 58.5855 24.4873 58.5901 24.4428C58.5983 24.4077 58.6082 24.3772 58.6199 24.3515C58.6351 24.3351 58.6667 24.3339 58.7147 24.3479C58.7392 24.328 58.7632 24.2922 58.7865 24.2407C58.8228 24.195 58.8725 24.171 58.9357 24.1686C58.9486 24.1745 59.0825 24.076 59.3375 23.8733C59.6053 23.6764 59.7883 23.5381 59.8866 23.4585C59.8138 23.2081 59.7528 23.0173 59.7035 22.8863C59.5486 22.4745 59.3652 22.2283 59.1533 22.1477C59.0245 22.0893 58.891 21.9899 58.7527 21.8496C58.6203 21.6964 58.5213 21.5894 58.4557 21.5286C58.4392 21.3425 58.4934 21.1886 58.6186 21.0667C58.8618 20.8043 59.1289 20.4208 59.4198 19.9161C59.7201 19.4078 59.9397 18.8979 60.0785 18.3863C60.131 18.1849 60.1344 18.0234 60.0886 17.9017C59.9971 17.6584 59.7711 17.5831 59.4107 17.6759C59.0644 17.8061 58.6984 18.2108 58.3128 18.89C58.245 18.9369 58.2017 18.9639 58.183 18.9709C58.0332 19.0272 57.8734 18.9431 57.7035 18.7186C57.687 18.6179 57.6898 18.526 57.712 18.4429C57.7306 18.3504 57.7674 18.2351 57.8223 18.097L57.915 17.7896C57.9606 17.7404 58.0226 17.6637 58.1009 17.5595C58.1757 17.4459 58.2388 17.358 58.2903 17.296C58.3511 17.2304 58.4283 17.18 58.5219 17.1448C58.5593 17.1307 58.612 17.1002 58.6798 17.0533C58.7441 16.9971 58.7997 16.9602 58.8465 16.9426C59.2934 16.7959 59.7031 16.8341 60.0755 17.0573C60.4093 17.263 60.629 17.5062 60.7346 17.787C60.8542 18.1053 60.857 18.5957 60.7429 19.2582C60.659 19.6317 60.3015 20.2576 59.6703 21.136L59.4546 21.4575C59.6197 21.5556 59.83 21.7597 60.0854 22.0696C60.3502 22.376 60.5266 22.6462 60.6146 22.8802C60.6357 22.9363 60.651 23.0054 60.6605 23.0873C60.7424 23.0779 60.8606 23.0227 61.015 22.9219C61.1822 22.827 61.2893 22.7707 61.3361 22.7531C61.3876 22.7765 61.4584 22.8086 61.5486 22.8495C61.6481 22.8868 61.7254 22.9219 61.7804 22.9546C61.839 22.9967 61.8771 23.0411 61.8947 23.0879L61.9105 23.13C61.9281 23.1768 61.9252 23.226 61.9019 23.2775C61.8879 23.3255 61.8592 23.363 61.8159 23.39C61.7727 23.4169 61.6949 23.4515 61.5825 23.4938C61.4609 23.5395 61.3316 23.5935 61.1947 23.6556C61.0578 23.7178 60.942 23.7934 60.8473 23.8824C60.817 24.0007 60.7937 24.1376 60.7775 24.2933C60.7647 24.4583 60.7567 24.5789 60.7532 24.655C60.7383 25.0131 60.7018 25.3421 60.6435 25.6417C60.5853 25.9414 60.4598 26.2611 60.267 26.6007C60.184 26.7494 60.0958 26.8841 60.0022 27.0047C59.9087 27.1253 59.8292 27.198 59.7637 27.2226C59.4935 27.4417 59.2368 27.5971 58.9934 27.6886ZM58.1204 27.1996C58.1274 27.2183 58.1778 27.21 58.2714 27.1748C58.4211 27.1185 58.5902 27.0282 58.7785 26.904C58.9668 26.7798 59.12 26.6474 59.2381 26.5068C59.4555 26.2327 59.6284 25.8259 59.7566 25.2862C59.8079 25.0532 59.827 24.8484 59.814 24.6717C59.7753 24.6541 59.7326 24.6542 59.6858 24.6718C59.6203 24.6964 59.5495 24.7497 59.4735 24.8317C59.3975 24.9137 59.3473 24.9647 59.3227 24.9846C59.2923 25.0174 59.2525 25.0537 59.2034 25.0936C59.1672 25.1393 59.1169 25.1902 59.0526 25.2465C58.8163 25.4421 58.5813 25.6694 58.3474 25.9283C58.1265 26.193 57.9775 26.436 57.9004 26.6573C57.8526 26.8142 57.7825 26.9687 57.6902 27.121C57.8553 27.2191 57.9987 27.2453 58.1204 27.1996Z" fill="#47484E"/>
</g>
<defs>
<clipPath id="clip0">
<rect width="75.8954" height="34.2035" fill="white" transform="matrix(-0.947349 0.320202 0.320202 0.947349 71.8994 0)"/>
</clipPath>
</defs>
</svg>
