<svg width="32" height="32" viewBox="0 0 32 32" fill="none" xmlns="http://www.w3.org/2000/svg">
<circle cx="16" cy="16" r="16" fill="#885574"/>
<path d="M17.4998 6H13.4998C9.31028 6 5.90179 9.40769 5.90179 13.5964V17.1997C5.90179 20.319 7.81859 23.1224 10.7008 24.2642V26.6001C10.7008 26.7585 10.794 26.9016 10.9387 26.9656C10.9907 26.9888 11.0459 27 11.1007 27C11.1979 27 11.2943 26.9644 11.369 26.8964L13.6882 24.7961H17.4998C21.6893 24.7961 25.0978 21.3884 25.0978 17.1997V13.5964C25.0978 9.40769 21.6893 6 17.4998 6ZM24.2979 17.1997C24.2979 20.9473 21.2486 23.9962 17.4998 23.9962H13.5338C13.4346 23.9962 13.339 24.033 13.2655 24.0998L11.5006 25.6983V23.987C11.5006 23.8175 11.3938 23.6663 11.2339 23.6103C8.52325 22.6517 6.70163 20.0754 6.70163 17.1997V13.5964C6.70163 9.84879 9.75139 6.79983 13.4998 6.79983H17.4998C21.2486 6.79983 24.2979 9.84879 24.2979 13.5964V17.1997Z" fill="white"/>
<path d="M20.7851 18.1946L18.3272 16.5982C18.0584 16.4234 17.7385 16.3642 17.4254 16.429C17.1118 16.495 16.8423 16.6801 16.6675 16.9501L16.552 17.1276C15.4882 16.7761 14.3152 16.327 13.613 14.2942L13.9037 14.0415C14.4028 13.6076 14.4552 12.8485 14.0213 12.3486L12.0985 10.1367C11.9537 9.96994 11.701 9.95275 11.5342 10.0971L10.3269 11.1465C9.26788 12.0671 9.76258 13.4288 9.92535 13.8763C9.93255 13.8963 9.94134 13.9155 9.95174 13.9343C9.99373 14.0095 10.9963 15.7987 12.6156 17.448C14.2412 19.104 17.1762 20.6333 17.2662 20.6777C17.6013 20.8953 17.9785 20.9996 18.3516 20.9996C19.0066 20.9996 19.6489 20.6785 20.032 20.0898L20.903 18.7485C21.023 18.5625 20.9702 18.315 20.7851 18.1946ZM19.361 19.6539C19.0006 20.209 18.256 20.3666 17.6681 19.9874C17.6389 19.9722 14.7231 18.4538 13.1863 16.8881C11.7498 15.4248 10.796 13.7991 10.666 13.5724C10.3493 12.6842 10.4052 12.1383 10.8516 11.7504L11.7574 10.9633L13.4178 12.8733C13.5654 13.0429 13.5482 13.2908 13.3794 13.4376L12.8887 13.8639C12.7692 13.9679 12.722 14.1323 12.7688 14.2834C13.6054 17.0021 15.2322 17.536 16.42 17.9259L16.5931 17.9831C16.7663 18.0415 16.9559 17.9747 17.0551 17.8219L17.3386 17.3852C17.397 17.2948 17.4866 17.2336 17.5905 17.2116C17.6949 17.1892 17.8013 17.21 17.8917 17.2688L20.0144 18.6473L19.361 19.6539Z" fill="white"/>
<path d="M16.4128 12.4974C16.2001 12.4362 15.9789 12.5597 15.9185 12.7725C15.8581 12.9848 15.9813 13.206 16.1937 13.2664C16.7895 13.436 17.2642 13.9115 17.4322 14.5077C17.4818 14.6837 17.6422 14.7993 17.8169 14.7993C17.8529 14.7993 17.8893 14.7945 17.9257 14.7845C18.1381 14.7245 18.262 14.5037 18.202 14.291C17.9593 13.4296 17.2734 12.7421 16.4128 12.4974Z" fill="white"/>
<path d="M19.4562 14.8857C19.4922 14.8857 19.5286 14.8809 19.565 14.8709C19.7777 14.8109 19.9013 14.5897 19.8413 14.3774C19.3694 12.7045 18.0381 11.3704 16.3664 10.8945C16.1541 10.8333 15.9329 10.9577 15.8725 11.17C15.8121 11.3824 15.9353 11.6036 16.1477 11.6639C17.5542 12.0639 18.6743 13.1872 19.0715 14.5945C19.1214 14.7705 19.2814 14.8857 19.4562 14.8857Z" fill="white"/>
<path d="M16.194 9.03226C15.9813 8.97107 15.7601 9.09465 15.6997 9.3078C15.6393 9.52016 15.7625 9.74131 15.9749 9.8017C18.358 10.4796 20.2564 12.3824 20.929 14.7671C20.9786 14.943 21.139 15.0586 21.3138 15.0586C21.3497 15.0586 21.3861 15.0538 21.4225 15.0438C21.6349 14.9838 21.7589 14.7627 21.6989 14.5503C20.9514 11.9001 18.8423 9.7861 16.194 9.03226Z" fill="white"/>
</svg>
