<svg width="32" height="32" viewBox="0 0 32 32" fill="none" xmlns="http://www.w3.org/2000/svg">
                            <circle cx="16" cy="16" r="16" fill="white" />
                            <path
                                d="M17.4997 6H13.4997C9.31022 6 5.90173 9.40769 5.90173 13.5964V17.1997C5.90173 20.319 7.81853 23.1224 10.7007 24.2642V26.6001C10.7007 26.7585 10.7939 26.9016 10.9387 26.9656C10.9907 26.9888 11.0459 27 11.1006 27C11.1978 27 11.2942 26.9644 11.369 26.8964L13.6881 24.7961H17.4997C21.6892 24.7961 25.0977 21.3884 25.0977 17.1997V13.5964C25.0977 9.40769 21.6892 6 17.4997 6ZM24.2979 17.1997C24.2979 20.9473 21.2485 23.9962 17.4997 23.9962H13.5337C13.4346 23.9962 13.339 24.033 13.2654 24.0998L11.5006 25.6983V23.987C11.5006 23.8175 11.3938 23.6663 11.2338 23.6103C8.52318 22.6517 6.70157 20.0754 6.70157 17.1997V13.5964C6.70157 9.84879 9.75133 6.79983 13.4997 6.79983H17.4997C21.2485 6.79983 24.2979 9.84879 24.2979 13.5964V17.1997Z"
                                fill="#885675" />
                            <path
                                d="M20.785 18.1946L18.3271 16.5982C18.0584 16.4234 17.7384 16.3642 17.4253 16.429C17.1118 16.495 16.8422 16.6801 16.6675 16.9501L16.5519 17.1276C15.4881 16.7761 14.3152 16.327 13.6129 14.2942L13.9037 14.0415C14.4027 13.6076 14.4551 12.8485 14.0212 12.3486L12.0984 10.1367C11.9537 9.96994 11.7009 9.95275 11.5341 10.0971L10.3268 11.1465C9.26782 12.0671 9.76252 13.4288 9.92529 13.8763C9.93248 13.8963 9.94128 13.9155 9.95168 13.9343C9.99367 14.0095 10.9963 15.7987 12.6155 17.448C14.2412 19.104 17.1762 20.6333 17.2661 20.6777C17.6013 20.8953 17.9784 20.9996 18.3515 20.9996C19.0066 20.9996 19.6488 20.6785 20.032 20.0898L20.903 18.7485C21.023 18.5625 20.9702 18.315 20.785 18.1946ZM19.3609 19.6539C19.0006 20.209 18.2559 20.3666 17.6681 19.9874C17.6389 19.9722 14.7231 18.4538 13.1862 16.8881C11.7497 15.4248 10.7959 13.7991 10.6659 13.5724C10.3492 12.6842 10.4052 12.1383 10.8515 11.7504L11.7573 10.9633L13.4178 12.8733C13.5653 13.0429 13.5481 13.2908 13.3794 13.4376L12.8887 13.8639C12.7691 13.9679 12.7219 14.1323 12.7687 14.2834C13.6053 17.0021 15.2322 17.536 16.4199 17.9259L16.5931 17.9831C16.7663 18.0415 16.9558 17.9747 17.055 17.8219L17.3385 17.3852C17.3969 17.2948 17.4865 17.2336 17.5905 17.2116C17.6949 17.1892 17.8012 17.21 17.8916 17.2688L20.0144 18.6473L19.3609 19.6539Z"
                                fill="#885675" />
                            <path
                                d="M16.4127 12.4974C16.2 12.4362 15.9788 12.5597 15.9184 12.7725C15.858 12.9848 15.9812 13.206 16.1936 13.2664C16.7894 13.436 17.2641 13.9115 17.4321 14.5077C17.4817 14.6837 17.6421 14.7993 17.8168 14.7993C17.8528 14.7993 17.8892 14.7945 17.9256 14.7845C18.138 14.7245 18.2619 14.5037 18.2019 14.291C17.9592 13.4296 17.2733 12.7421 16.4127 12.4974Z"
                                fill="#885675" />
                            <path
                                d="M19.4561 14.8857C19.492 14.8857 19.5284 14.8809 19.5648 14.8709C19.7776 14.8109 19.9012 14.5897 19.8412 14.3774C19.3693 12.7045 18.038 11.3704 16.3663 10.8945C16.1539 10.8333 15.9328 10.9577 15.8724 11.17C15.812 11.3824 15.9352 11.6036 16.1475 11.6639C17.5541 12.0639 18.6742 13.1872 19.0713 14.5945C19.1213 14.7705 19.2813 14.8857 19.4561 14.8857Z"
                                fill="#885675" />
                            <path
                                d="M16.194 9.03226C15.9812 8.97107 15.7601 9.09465 15.6997 9.3078C15.6393 9.52016 15.7625 9.74131 15.9748 9.8017C18.3579 10.4796 20.2563 12.3824 20.929 14.7671C20.9786 14.943 21.1389 15.0586 21.3137 15.0586C21.3497 15.0586 21.3861 15.0538 21.4225 15.0438C21.6348 14.9838 21.7588 14.7627 21.6988 14.5503C20.9514 11.9001 18.8422 9.7861 16.194 9.03226Z"
                                fill="#885675" />
                        </svg>
