<svg width="32" height="32" viewBox="0 0 32 32" fill="none" xmlns="http://www.w3.org/2000/svg">
<circle cx="16" cy="16" r="16" fill="#38C237"/>
<path d="M16.5 5C10.7101 5 6 9.71006 6 15.5C6 17.4752 6.54883 19.3927 7.58994 21.0577C7.17519 22.5108 6.42606 25.2593 6.41798 25.288C6.37921 25.4302 6.42081 25.582 6.52702 25.6842C6.63323 25.7864 6.78669 25.8227 6.92642 25.7799L11.0885 24.4997C12.7188 25.4819 14.5858 26 16.5 26C22.2899 26 27 21.2899 27 15.5C27 9.71006 22.2899 5 16.5 5ZM16.5 25.1923C14.675 25.1923 12.8973 24.6822 11.3586 23.7179C11.2936 23.6771 11.2189 23.6565 11.1442 23.6565C11.1042 23.6565 11.0642 23.6625 11.0255 23.6742L7.39125 24.7929C7.65819 23.8184 8.13796 22.0754 8.41621 21.1058C8.44852 20.9935 8.43035 20.8724 8.36694 20.7742C7.34683 19.2045 6.80769 17.3807 6.80769 15.5C6.80769 10.1559 11.1559 5.80769 16.5 5.80769C21.8441 5.80769 26.1923 10.1559 26.1923 15.5C26.1923 20.8441 21.8441 25.1923 16.5 25.1923Z" fill="white"/>
<path d="M23.3593 17.9739C22.6138 17.5599 21.9789 17.1448 21.5157 16.8419C21.162 16.6109 20.9063 16.4441 20.7189 16.35C20.1952 16.0887 19.7982 16.2733 19.6471 16.4259C19.6282 16.4449 19.6112 16.4655 19.5967 16.4873C19.0527 17.3035 18.3423 18.0841 18.1343 18.1261C17.894 18.0886 16.7693 17.4493 15.6515 16.5184C14.5102 15.5674 13.7922 14.6567 13.6868 14.0364C14.4189 13.2828 14.6827 12.8087 14.6827 12.2691C14.6827 11.713 13.3855 9.39134 13.1509 9.1567C12.9154 8.92167 12.3852 8.88492 11.5747 9.04645C11.4967 9.0622 11.4248 9.10057 11.3683 9.1567C11.2702 9.25484 8.97388 11.5959 10.0651 14.4334C11.2629 17.5474 14.3374 21.1671 18.2571 21.7551C18.7025 21.8217 19.1201 21.8548 19.511 21.8548C21.817 21.8548 23.178 20.6946 23.5612 18.3931C23.5899 18.2247 23.5087 18.0567 23.3593 17.9739ZM18.377 20.9563C14.232 20.3348 11.6211 16.2281 10.8191 14.1434C10.0235 12.0757 11.4907 10.2321 11.859 9.81538C12.1586 9.76449 12.474 9.74309 12.6057 9.76368C12.8807 10.1461 13.833 11.9453 13.875 12.2691C13.875 12.4812 13.8059 12.7764 12.9837 13.599C12.9077 13.6745 12.8653 13.7771 12.8653 13.8845C12.8653 15.9991 17.3254 18.9326 18.1153 18.9326C18.8023 18.9326 19.698 17.778 20.2081 17.0256C20.2376 17.0269 20.2872 17.037 20.3579 17.0725C20.5033 17.1456 20.7553 17.31 21.0739 17.5183C21.4947 17.7934 22.0537 18.1584 22.7135 18.5368C22.4139 19.9786 21.5763 21.4369 18.377 20.9563Z" fill="white"/>
</svg>
