<svg width="35" height="27" viewBox="0 0 35 27" fill="none" xmlns="http://www.w3.org/2000/svg">
<path d="M33.1624 19.6399L18.5254 11.1578V10.5267C18.5254 9.80698 18.9361 9.13754 19.5973 8.77961C21.0869 7.97331 21.9723 6.42025 21.908 4.72658C21.8211 2.43716 19.9598 0.575596 17.6709 0.488711C16.4597 0.442227 15.3127 0.879453 14.4411 1.71843C13.569 2.55802 13.0887 3.68704 13.0887 4.89741C13.0887 5.4637 13.5478 5.9228 14.1141 5.9228C14.6804 5.9228 15.1395 5.4637 15.1395 4.89741C15.1395 4.2495 15.3966 3.64527 15.8634 3.19581C16.3297 2.74696 16.9432 2.5127 17.593 2.53799C18.817 2.58447 19.8122 3.57999 19.8587 4.80437C19.8932 5.71198 19.4189 6.54412 18.6211 6.97608C17.2971 7.69276 16.4746 9.05325 16.4746 10.5267V11.1578L1.83757 19.6399C0.704102 20.2967 0 21.5187 0 22.8289C0 24.8612 1.65307 26.5144 3.68498 26.5144H31.315C33.3469 26.5144 35 24.861 35 22.8288C35 21.5187 34.2959 20.2967 33.1624 19.6399ZM31.315 24.4636H3.68498C2.78387 24.4636 2.05078 23.7302 2.05078 22.8288C2.05078 22.2476 2.36305 21.7056 2.86583 21.4143L17.5 12.9339L32.1342 21.4143C32.6369 21.7057 32.9492 22.2476 32.9492 22.8289C32.9492 23.7303 32.2161 24.4636 31.315 24.4636Z" fill="white"/>
</svg>
