<svg width="187" height="59" viewBox="0 0 187 59" fill="none" xmlns="http://www.w3.org/2000/svg">
<g clip-path="url(#clip0)">
<path fill-rule="evenodd" clip-rule="evenodd" d="M1.4025 19.0457C0.838813 19.6125 0.365749 20.2629 0 20.9743V22.6086C0.550677 23.6745 1.25801 24.6515 2.09832 25.5069C3.25457 26.4037 4.63804 26.9584 6.09241 27.1086C7.54677 27.2588 9.01407 26.9984 10.3285 26.3567C12.9813 25.2017 13.8728 22.8265 13.8728 20.1244C13.934 17.6353 13.9354 15.1462 13.9368 12.6586C13.9381 10.2896 13.9394 7.92197 13.9923 5.55691C14.0739 2.16498 14.4327 2.12604 16.6732 1.88283L16.6732 1.88283L16.6733 1.88282C16.8222 1.86666 16.9794 1.8496 17.1453 1.83059C17.1801 1.83059 17.2104 1.7771 17.242 1.72144L17.242 1.72142C17.2598 1.69007 17.2779 1.65803 17.2975 1.63448C16.743 1.08969 9.35 0.795507 5.37082 1.15507C5.09923 1.22646 4.83928 1.33654 4.59889 1.48194C4.67642 1.60177 4.77862 1.70362 4.89862 1.78067C5.01862 1.85772 5.15367 1.90817 5.29471 1.92866C7.82791 2.17925 8.19755 2.47343 8.18668 4.94675V20.4621C8.21737 21.6394 8.11525 22.8163 7.88227 23.9706C7.77788 24.2908 7.60085 24.5824 7.36503 24.8225C7.12923 25.0626 6.8411 25.2447 6.52325 25.3544C5.74843 25.4071 4.97948 25.1875 4.34884 24.7333C4.18818 24.6146 4.38265 23.9687 4.55376 23.4004C4.60265 23.238 4.64963 23.082 4.68587 22.9464C4.7142 22.8376 4.78352 22.7349 4.85289 22.6322C4.94329 22.4983 5.03378 22.3643 5.03378 22.2163C5.24859 21.7116 5.2937 21.1506 5.1623 20.6179C5.03089 20.0853 4.7301 19.6099 4.30535 19.2636C3.91739 18.9037 3.41913 18.6862 2.8919 18.6466C2.36468 18.6069 1.83963 18.7476 1.4025 19.0457ZM186.31 23.6801L186.311 23.6717C186.543 22.3853 186.771 21.121 187 19.8848L186.934 19.449C186.838 19.506 186.723 19.5548 186.607 19.6035L186.607 19.6036C186.369 19.7037 186.133 19.8033 186.075 19.9719C184.325 24.973 179.856 25.9972 175.366 25.4198C174.573 25.3216 173.888 25.0384 173.888 24.145V15.4284C175.79 15.1452 178.214 16.0821 179.248 19.3508H181.041V9.99147C180.764 10.0417 180.482 9.9973 180.215 9.95529C179.612 9.86053 179.086 9.77776 178.868 10.8195C178.27 13.5652 176.693 14.4587 173.856 13.805V4.35841H178.585C179.36 4.30347 180.137 4.4271 180.857 4.71985C181.577 5.01259 182.22 5.46666 182.738 6.04725C183.54 7.27601 184.238 8.56984 184.825 9.9152L184.923 9.80624V3.09451H164.189V3.45407C164.689 3.47012 165.186 3.51377 165.679 3.58482C166.713 3.77005 167.658 4.11871 167.658 5.4044C167.658 7.46408 167.664 9.52376 167.67 11.583V11.5842V11.5854V11.5867V11.5879V11.5891V11.5903V11.5915V11.5927V11.5939V11.5951V11.5963V11.5975V11.5987V11.5999V11.6011V11.6023V11.6036V11.6048V11.606V11.6072V11.6084V11.6096C167.682 15.7181 167.695 19.8249 167.658 23.9271C167.636 25.5177 166.973 26.0299 165.332 26.1606C165.119 26.1744 164.892 26.2144 164.658 26.2557L164.658 26.2558C164.522 26.2797 164.384 26.3041 164.245 26.3241L164.31 26.6509H185.771C185.954 25.6498 186.133 24.6588 186.31 23.6806L186.31 23.6801ZM22.8106 1.22236C25.0829 2.6061 26.518 4.76345 27.9314 6.90989C28.2685 7.4111 28.7731 8.329 28.2249 8.882C27.7066 9.40494 26.8224 9.04543 26.344 8.75126C24.4332 7.64011 22.6152 6.37571 20.908 4.97046C19.2337 3.51044 20.2609 1.72235 20.9353 1.22236C21.6096 0.722361 22.8106 1.22236 22.8106 1.22236ZM103.523 4.73975C100.207 7.21307 98.3155 10.5036 98.3155 13.6959C98.1738 16.1738 98.7677 18.6382 100.022 20.7781C104.523 28.2634 115.743 29.7017 122.267 23.6328C123.579 22.4885 124.625 21.069 125.33 19.4749C126.034 17.8807 126.381 16.1507 126.344 14.4075C126.308 12.6643 125.89 10.9504 125.12 9.38709C124.349 7.82377 123.245 6.44925 121.886 5.3608C119.327 3.23229 116.135 2.01627 112.811 1.90385C109.487 1.79144 106.22 2.78899 103.523 4.73975ZM111.876 10.3851L111.876 10.3853C112.041 10.5814 112.211 10.7846 112.395 10.9939C112.826 10.0877 113.519 9.33216 114.383 8.82513C115.248 8.31809 116.244 8.08292 117.244 8.15009C120.505 8.28084 122.31 10.5471 121.593 13.8159C121.072 15.7648 119.926 17.4878 118.331 18.7189L112.406 23.9598C111.49 23.0896 110.546 22.2385 109.598 21.3836L109.598 21.3836C108.172 20.0977 106.736 18.8032 105.371 17.4223C104.409 16.4101 103.669 15.2076 103.197 13.8921C102.819 12.9782 102.79 11.9569 103.115 11.0226C103.439 10.0884 104.096 9.30643 104.958 8.82563C105.873 8.2738 106.937 8.02229 108.001 8.1063C109.066 8.1903 110.077 8.60561 110.894 9.29414C111.236 9.62207 111.544 9.98899 111.876 10.3851ZM62.5237 26.3628L62.5239 26.3628C63.0051 26.302 63.4797 26.2421 63.9266 26.1497C64.1897 26.1277 64.4458 26.0539 64.6802 25.9323C64.9146 25.8107 65.1228 25.6438 65.2926 25.4413C65.4624 25.2386 65.5905 25.0044 65.6695 24.752C65.7486 24.4996 65.777 24.234 65.7531 23.9705V5.18645C65.7531 3.69374 64.7637 3.26881 63.5787 3.00731C62.9232 2.95261 62.2768 2.8172 61.6543 2.60418C61.7228 2.56986 61.7923 2.52474 61.8623 2.47937C62.0145 2.38066 62.1685 2.28074 62.3175 2.28821C63.9555 2.32158 65.5951 2.33637 67.2348 2.35115C71.4831 2.38947 75.7317 2.42778 79.952 2.7894C82.0801 2.86659 84.1427 3.5461 85.9013 4.74933C87.6598 5.95254 89.0425 7.63026 89.8891 9.58829C93.2486 17.2153 88.9432 24.8422 80.4521 26.3458C78.4428 26.6799 76.4113 26.862 74.3746 26.8906C71.8745 26.9487 69.3695 26.9294 66.8629 26.91H66.8626H66.8624H66.8621H66.8618H66.8615H66.8613H66.861H66.8607H66.8604H66.8602H66.8599H66.8596H66.8593H66.8591H66.8588H66.8585H66.8582H66.858H66.8577C65.6055 26.9003 64.3529 26.8906 63.1003 26.8906C62.6437 26.8906 62.1762 26.8906 61.7087 26.8252L61.7522 26.4657C62.0091 26.4278 62.2674 26.3952 62.5237 26.3628ZM72.8418 3.87897V11.1573V23.2842C72.8418 25.1364 73.3527 25.5941 75.2118 25.6159C79.0605 25.6159 81.8547 23.7526 82.6048 19.961C83.1724 17.3057 83.3191 14.5775 83.0397 11.8764C82.2787 5.8293 78.7127 3.14896 72.8418 3.87897ZM149.577 16.62L149.575 16.6174L149.574 16.6162L149.573 16.6152C149.259 16.2672 148.944 15.9194 148.633 15.5701C149.663 15.0587 150.666 14.4913 151.634 13.8704C152.606 13.226 153.359 12.2998 153.792 11.2154C154.225 10.1311 154.317 8.9401 154.059 7.80145C153.874 6.78817 153.399 5.85097 152.689 5.10551C151.981 4.36006 151.069 3.839 150.067 3.60663C149.177 3.27301 148.244 3.07113 147.296 3.00737C144.413 2.89144 141.522 2.8412 138.63 2.79094C137.989 2.77979 137.347 2.76864 136.706 2.75678H133.086L132.814 3.15991C132.91 3.26682 133.001 3.39555 133.092 3.52436C133.289 3.8025 133.485 4.08094 133.738 4.14052C134.258 4.22396 134.727 4.50216 135.05 4.91886C135.373 5.33554 135.526 5.85961 135.478 6.38503V23.1643C135.528 23.6907 135.374 24.2162 135.049 24.632C134.722 25.0477 134.249 25.322 133.727 25.398C133.531 25.4522 133.365 25.6916 133.139 26.0169C133.002 26.2148 132.842 26.4446 132.641 26.6836H142.587C142.805 25.8992 142.621 25.5505 141.816 25.278C141.218 25.0602 140.349 24.45 140.349 23.9707C140.234 22.1531 140.248 20.3293 140.262 18.5133C140.267 17.9126 140.272 17.3126 140.272 16.7141C143.251 16.093 145.501 16.8231 147.068 19.5906C148.048 21.3161 149.215 22.9345 150.381 24.5507C150.702 24.996 151.024 25.4411 151.341 25.8883C151.589 26.2862 151.976 26.5774 152.427 26.7055H159.417C159.831 25.6377 159.266 25.3762 158.482 25.3762C157.685 25.3614 156.905 25.1386 156.218 24.7298C155.531 24.321 154.964 23.7402 154.57 23.0445C154.359 22.7344 154.152 22.4205 153.944 22.1059C153.379 21.2488 152.81 20.3876 152.167 19.5906C151.342 18.572 150.459 17.5949 149.577 16.62ZM140.077 13.6198V9.53387C140.077 9.28071 140.079 9.02708 140.08 8.77278V8.77079V8.76879V8.76677V8.76474V8.7627V8.76064V8.75856C140.085 7.79173 140.091 6.81526 140.022 5.81845C140.022 5.06665 140.262 4.66351 141.109 4.72889C142.817 4.76352 144.52 4.90909 146.208 5.16471C147.141 5.32392 147.982 5.82189 148.573 6.56352C149.162 7.30516 149.458 8.23848 149.405 9.18521C149.524 11.3099 148.655 13.2819 146.795 13.805C144.78 14.2481 142.727 14.4999 140.664 14.5567C140.49 14.5785 140.077 13.9575 140.077 13.6198ZM44.031 2.41338L44.0312 2.4138C44.2327 2.77849 44.376 3.03788 44.5093 3.31243C45.2725 4.9046 46.0304 6.49855 46.788 8.09198C48.6745 12.0598 50.5595 16.0244 52.522 19.9501C52.7786 20.4643 53.0047 21.0061 53.2321 21.5509L53.2321 21.551C54.0743 23.5692 54.9342 25.6296 57.4254 26.4875H44.8681V26.0844C45.0461 26.0626 45.2266 26.0419 45.407 26.0213L45.4071 26.0213L45.4072 26.0213L45.4072 26.0213L45.4073 26.0213L45.4073 26.0212L45.4074 26.0212L45.4074 26.0212L45.4075 26.0212L45.4076 26.0212L45.4076 26.0212L45.4077 26.0212L45.4077 26.0212L45.4078 26.0212L45.4078 26.0212L45.4079 26.0212L45.408 26.0212L45.408 26.0212C45.7673 25.9801 46.1264 25.939 46.4663 25.8883C47.8036 25.6812 48.108 25.191 47.6622 23.9598C47.5606 23.6704 47.4598 23.3806 47.359 23.0909L47.3589 23.0907L47.3589 23.0905L47.3588 23.0904L47.3587 23.0902L47.3587 23.0901L47.3586 23.0899L47.3583 23.0891L47.3581 23.0882L47.3578 23.0874L47.3575 23.0866L47.357 23.0851C46.908 21.7947 46.4588 20.5038 45.9445 19.242C45.8343 19.034 45.6797 18.8529 45.4918 18.7117C45.3039 18.5705 45.0872 18.4725 44.8572 18.4247C42.6829 18.3485 40.5084 18.3594 38.334 18.4247C38.1256 18.4325 37.9212 18.4839 37.7338 18.576C37.5465 18.668 37.3806 18.7983 37.2468 18.9586C36.4175 20.211 35.6798 21.5218 35.0397 22.8811C34.3222 24.5699 35.0397 25.5723 36.7902 25.8447C37.0756 25.8892 37.3574 25.9485 37.6376 26.0075C37.8376 26.0497 38.0369 26.0916 38.2361 26.1279V26.4984H29.4297C29.4979 26.4019 29.5514 26.3038 29.5987 26.2169C29.6797 26.0684 29.7429 25.9524 29.832 25.9318C30.622 25.715 31.3489 25.3122 31.9521 24.7568C32.5554 24.2015 33.0177 23.5098 33.3002 22.7394C36.5111 16.2964 39.7039 9.84984 42.8786 3.3996C42.9667 3.22732 43.0584 3.05503 43.161 2.86242L43.1613 2.86179L43.1614 2.86165C43.3117 2.57936 43.4852 2.25337 43.7048 1.81973C43.8296 2.04892 43.9366 2.24268 44.031 2.41338ZM41.9 9.51208L39.0081 15.9623H44.5745L41.9 9.51208ZM151.189 59.0001H156.222C155.874 58.4948 155.619 57.9299 155.473 57.3331V51.2098V47.9847H158.495V53.1383C158.474 53.3769 158.502 53.6173 158.579 53.844C158.656 54.0708 158.779 54.2791 158.942 54.4555C159.103 54.6318 159.299 54.7725 159.518 54.8683C159.737 54.9643 159.974 55.0133 160.213 55.0124C160.959 55.15 161.727 55.0702 162.429 54.7824C163.131 54.4946 163.736 54.0109 164.17 53.3888L164.225 54.7945H168.377V54.4893L167.074 54.1625V47.1892L162.801 47.4507V47.7777L164.192 48.0936C164.247 48.9572 164.247 49.8233 164.192 50.6868C164.14 51.6163 163.919 52.5283 163.54 53.3781C163.3 53.8247 162.534 54.5287 161.876 54.217C161.442 54.0114 161.394 53.5548 161.347 53.1136C161.332 52.9721 161.317 52.8321 161.289 52.7025V47.2546C160.335 47.2546 159.404 47.2459 158.489 47.2372H158.488C156.704 47.2204 154.979 47.2042 153.255 47.2546C153.045 47.2546 152.839 47.4973 152.625 47.7494C152.519 47.875 152.41 48.003 152.298 48.1045C150.363 46.8079 148.526 46.8733 147.102 48.3224C146.423 49.0031 146.014 49.9069 145.95 50.8666C145.886 51.8261 146.172 52.7764 146.753 53.5415C147.258 54.2338 147.989 54.7272 148.819 54.9361C150.058 54.9399 151.294 54.8083 152.504 54.5438V58.4772L151.189 58.7387V59.0001ZM149.2 52.9966C149.151 52.362 149.151 51.7245 149.2 51.0899C149.161 50.5053 149.172 49.9185 149.232 49.3357C149.319 48.8018 149.515 47.9302 149.798 47.8757C150.443 47.7645 151.107 47.9006 151.656 48.257C152.961 49.205 152.993 53.0729 151.656 54.0644C151.103 54.4224 150.433 54.5513 149.786 54.424C149.493 54.3586 149.287 53.5088 149.2 52.9966ZM15.6121 55.252C15.5256 55.0762 15.4386 54.9005 15.3515 54.7246L15.3515 54.7245C15.0445 54.1045 14.7368 53.4831 14.4489 52.855C14.1273 52.142 13.8079 51.429 13.4887 50.7162C12.5882 48.7058 11.6885 46.697 10.7414 44.6942C10.3058 43.9278 9.80759 43.1989 9.25195 42.515L22.5 42.5001L21.5374 44.3019L20.5 46.0001C20.5 46.0001 21.918 49.2268 22.5051 50.8393H22.9073L25.9406 43.2124L24.2772 42.7656V42.515H28.1259C26.4287 42.8848 26.0547 44.1841 25.689 45.4549C25.5697 45.8691 25.4514 46.2804 25.2883 46.6554C24.5374 48.3409 23.8643 50.0576 23.1903 51.7769L23.1902 51.777L23.1901 51.7772L23.1901 51.7773L23.19 51.7775L23.1899 51.7776L23.1899 51.7778L23.1898 51.778L23.1898 51.7781L23.1897 51.7783L23.1896 51.7784L23.1896 51.7786L23.1895 51.7788L23.1894 51.7789L23.1894 51.7791L23.1893 51.7792L23.1893 51.7794C22.8876 52.5487 22.5858 53.3185 22.2767 54.0862C22.1808 54.3171 22.0697 54.5441 21.9192 54.8519C21.814 55.067 21.6895 55.3215 21.5374 55.6443L18.8085 49.9131L16.0253 55.2738L15.6121 55.252ZM13.5247 43.1142L17.1885 51.2097C18.2758 49.9458 18.5 49.5001 18.5 49.5001L15.6121 43.027C15.6121 43.027 15.5 43.0001 13.5247 43.1142ZM21.3635 43.027H18.9281L20.1784 45.5113L21.3635 43.027ZM96.2383 54.1406L94.8574 54.4784L94.9771 54.6963C96.0208 54.6963 97.0645 54.7036 98.1083 54.7109C100.196 54.7254 102.283 54.7399 104.371 54.6963C104.981 54.6154 105.565 54.3956 106.077 54.0535C106.593 53.8066 107.019 53.4059 107.297 52.9063C107.575 52.4069 107.693 51.8332 107.632 51.2642C107.612 50.7025 107.415 50.1618 107.07 49.7193C106.724 49.2769 106.247 48.9558 105.708 48.8017C104.951 48.5512 104.182 48.3404 103.403 48.1698C103.691 48.076 103.954 47.9977 104.197 47.9252L104.197 47.9251L104.197 47.9251L104.197 47.925C104.661 47.7869 105.055 47.6694 105.425 47.5051C105.895 47.3608 106.309 47.0737 106.609 46.6831C106.909 46.2927 107.08 45.8185 107.1 45.3261C107.125 44.8214 106.986 44.3223 106.703 43.9038C106.421 43.4852 106.01 43.1699 105.534 43.0052C104.655 42.6606 103.726 42.4583 102.783 42.406C101.218 42.3696 99.6523 42.3818 98.0869 42.3939H98.0865C97.3037 42.3999 96.5209 42.406 95.7381 42.406C95.4661 42.4395 95.1971 42.4941 94.9336 42.5694V42.7982L96.2383 43.0924V54.1406ZM100.297 54.1434C100.122 54.142 99.9458 54.1406 99.7717 54.1406L99.7499 48.4253C99.9684 48.4218 100.195 48.4097 100.423 48.3975C101.616 48.3339 102.867 48.2671 103.36 49.4011C103.631 50.0515 103.771 50.7496 103.771 51.4548C103.771 52.1601 103.631 52.8582 103.36 53.5086C103.013 54.1652 101.665 54.1544 100.298 54.1434H100.297ZM100.275 47.8245C100.11 47.824 99.9351 47.8236 99.7499 47.8236C99.7426 47.621 99.7358 47.4697 99.7306 47.3526C99.7202 47.1207 99.7159 47.0228 99.725 46.9261C99.7317 46.8555 99.7457 46.7855 99.7699 46.6644L99.7717 46.6553C99.7717 46.1146 99.767 45.6254 99.762 45.1009C99.7562 44.4944 99.7499 43.8407 99.7499 43.0052C99.8517 43.0048 99.9564 43.004 100.063 43.0031H100.063H100.064C101.266 42.9933 102.714 42.9815 103.033 43.5719C103.291 44.1474 103.425 44.7712 103.425 45.4023C103.425 46.0333 103.291 46.6572 103.033 47.2328C102.715 47.8309 102.05 47.8291 100.275 47.8245ZM43.3468 54.0208C42.6248 54.7115 41.6651 55.0969 40.6668 55.0969C39.6687 55.0969 38.709 54.7115 37.9869 54.0208C37.326 53.2779 36.9447 52.327 36.909 51.3323C36.8733 50.3375 37.1853 49.3616 37.7912 48.573C39.1393 46.8515 41.205 46.7534 43.4882 48.3006V43.0706L41.9227 42.8091V42.4932L46.2714 42.2208C46.2714 42.5244 46.2964 42.8155 46.3196 43.0857L46.3196 43.0858C46.3397 43.3198 46.3584 43.5381 46.3584 43.7353V52.8441C46.3584 52.9565 46.3521 53.0731 46.3457 53.1903V53.1904V53.1904V53.1905V53.1905C46.3064 53.914 46.2658 54.6593 47.7066 54.5656C45.6627 55.3065 43.7818 55.034 43.3468 54.0208ZM40.0852 51.0899V53.1382C40.1504 54.5438 41.0854 55.0994 42.2596 54.315C42.8021 53.9291 43.1879 53.3606 43.3468 52.7133C43.537 51.6907 43.537 50.6416 43.3468 49.619C43.174 48.9254 42.742 48.3247 42.14 47.9411C40.955 47.2219 40.183 47.7448 40.1179 49.1505C40.1033 49.6025 40.1082 50.0351 40.1131 50.4611L40.1131 50.4619C40.1155 50.6723 40.1179 50.8811 40.1179 51.0899H40.0852ZM55.1881 43.0924V48.1481C52.6549 46.7643 50.774 46.9604 49.3497 48.671C48.786 49.4439 48.5015 50.386 48.543 51.3424C48.5845 52.2989 48.9496 53.2127 49.5781 53.9337C51.024 55.4155 53.0354 55.5026 55.0141 54.1516C55.5577 55.0558 57.6452 55.3065 59.3629 54.5438C58.0659 54.5438 58.0782 53.7547 58.089 53.0607V53.0606V53.0605V53.0605V53.0604L58.0902 52.9787C58.0906 52.9444 58.0909 52.9104 58.0909 52.8768V50.6977V42.1773L53.742 42.4278V42.7656L55.1881 43.0924ZM51.9197 52.9094C51.8735 52.3191 51.8361 51.8401 51.8829 51.2384V51.1008C51.8446 50.5126 51.8556 49.9221 51.9156 49.3357C52.0025 48.8018 52.2091 47.9411 52.5027 47.8757C53.1481 47.7633 53.8122 47.8995 54.3618 48.257C55.7099 49.2377 55.7208 53.0947 54.3618 54.0753C53.8136 54.4262 53.1541 54.5585 52.5135 54.4457C51.9868 54.2222 51.9718 53.8037 51.9568 53.3862C51.9521 53.2542 51.9473 53.1222 51.9265 52.9966L51.9197 52.9094ZM85.7484 48.8017C86.1943 50.545 85.5745 51.6455 83.6611 51.9725C82.5767 52.0715 81.4882 52.1152 80.3995 52.1031C80.291 52.1031 80.1703 52.1006 80.0429 52.098C79.3529 52.0837 78.469 52.0654 78.3011 52.4191C78.1022 52.838 78.2492 52.9601 78.3011 52.9748C78.353 52.9895 79.3447 53.2265 79.8775 53.2907H84.3568C86.5965 53.3779 87.6186 55.1431 86.3356 57.0498C85.7913 57.8687 84.9744 58.4672 84.0307 58.7386C82.489 58.9978 80.9178 59.0309 79.3666 58.8367C78.9857 58.7686 78.6248 58.6158 78.3106 58.3896C77.9964 58.1633 77.7368 57.8692 77.5509 57.5292C77.4025 57.1573 77.6087 56.6483 77.8411 56.0749C77.9491 55.8084 78.0627 55.528 78.1489 55.241C76.8007 53.8029 76.9964 52.6915 79.0839 51.5801C77.3661 49.924 77.7466 48.1807 80.0515 47.418C81.6215 46.9332 83.3074 46.983 84.8461 47.5596C85.0454 47.5233 85.2447 47.4837 85.4444 47.4439L85.4449 47.4438C85.9642 47.3404 86.4867 47.2364 87.0205 47.1892C87.0857 47.1892 87.3793 48.1154 87.2815 48.1807C86.796 48.4462 86.2816 48.6546 85.7484 48.8017ZM82 58.5001C83.6342 58.5001 84.1098 58.2468 84.7895 57.885C84.9416 57.8039 85.104 57.7175 85.2918 57.6272C85.4783 57.4502 85.6206 57.2318 85.7074 56.9895C85.7943 56.7473 85.8232 56.488 85.792 56.2326C85.792 55.982 85.0309 55.6878 84.5961 55.666C83.1476 55.5831 81.6957 55.5831 80.2472 55.666C79.7688 55.666 79 56.0001 78.9425 56.3851C78.9165 56.7008 78.9594 57.0182 79.0683 57.3155C79.0825 57.3544 79.0961 57.3936 79.1097 57.4329C79.2004 57.6945 79.2915 57.9575 79.5731 58.1067C80.1073 58.3896 80.5 58.5001 82 58.5001ZM83.1283 49.6298V48.9652C83.1283 48.2025 82.8782 47.6578 81.9759 47.6469C81.0734 47.6359 80.8125 48.1807 80.7908 48.9325C80.7025 49.5089 80.7247 50.0969 80.8561 50.665C81.0191 51.1008 81.5954 51.5001 81.9759 51.5001C82.3564 51.5001 82.8022 51.1117 83.0848 50.6868C83.2067 50.5188 83.1791 50.2438 83.1517 49.9705C83.1399 49.8538 83.1283 49.7374 83.1283 49.6298ZM120.768 47.7776L122.116 48.0827C122.116 48.7694 122.105 49.4578 122.094 50.1342V50.1344V50.1345V50.1347V50.1348V50.1349V50.1351V50.1352V50.1353V50.1354V50.1356C122.079 51.1222 122.064 52.083 122.083 52.9748C122.116 54.4784 122.5 55.0001 124.149 55.0449C125.565 55.0107 126.304 54.6727 127.117 54.3004L127.117 54.3004L127.118 54.3001C127.368 54.1858 127.625 54.0683 127.91 53.9554L128.019 54.8052H132.031V54.522L130.726 54.0862V47.1783L126.378 47.4507V47.7776L127.9 48.0827C127.965 49.0476 127.965 50.016 127.9 50.9809C127.81 51.8641 127.544 52.7201 127.117 53.4979C126.867 53.901 126 54.5001 125.508 54.1951C125.131 53.9614 125.087 53.5555 125.045 53.1587C125.032 53.0367 125.019 52.9155 124.997 52.8005V47.1674L120.768 47.4507V47.7776ZM114.875 55.1104C114.43 55.1104 114.071 55.1104 113.712 55.0449C112.734 54.9913 111.807 54.5862 111.102 53.9039C110.398 53.2216 109.962 52.3077 109.874 51.3296C109.835 50.3653 110.163 49.4222 110.79 48.6904C111.417 47.9584 112.298 47.492 113.255 47.3853C114.312 47.1892 115.395 47.1892 116.452 47.3853C117.379 47.5047 118.231 47.9592 118.847 48.6633C119.464 49.3675 119.803 50.2729 119.8 51.2097C119.723 52.1654 119.316 53.0643 118.65 53.7522C117.983 54.4401 117.098 54.874 116.147 54.9797C115.769 55.0629 115.382 55.0833 115.047 55.1009L114.942 55.1066L114.875 55.1104ZM116.56 51.0572C116.56 50.5542 116.51 50.0399 116.457 49.5061L116.457 49.506L116.457 49.5058V49.5057V49.5056V49.5056V49.5055C116.436 49.2994 116.416 49.0904 116.397 48.878C116.3 47.9084 115.702 47.5814 114.799 47.6032C113.897 47.6251 113.364 47.9302 113.321 48.8344C113.255 50.2727 113.234 51.7218 113.245 53.1927C113.223 53.399 113.248 53.6074 113.319 53.8024C113.389 53.9972 113.503 54.1734 113.652 54.3173C113.801 54.4614 113.981 54.5694 114.178 54.6331C114.375 54.697 114.584 54.7148 114.788 54.6854C115.004 54.7126 115.223 54.6909 115.428 54.6218C115.634 54.5527 115.822 54.438 115.978 54.2863C116.133 54.1344 116.253 53.9495 116.327 53.7452C116.402 53.5407 116.43 53.3221 116.408 53.1055C116.431 52.641 116.47 52.1711 116.51 51.6884L116.51 51.6883L116.51 51.688L116.51 51.6877L116.51 51.6873C116.527 51.4798 116.544 51.27 116.56 51.0572ZM172.866 50.8393H178.214C178.214 48.5185 176.866 47.2655 174.464 47.1892C171.713 47.0803 169.56 48.7037 169.386 51.0136C169.347 52.0204 169.698 53.0033 170.368 53.7553C171.037 54.5071 171.972 54.9695 172.975 55.0449C175.887 55.4482 177.79 54.5547 178.062 53.0075C176.987 53.6339 175.868 54.1802 174.714 54.6418C174.522 54.7304 174.312 54.7712 174.102 54.7608C173.892 54.7505 173.687 54.689 173.505 54.5819C173.323 54.4748 173.17 54.3253 173.059 54.146C172.948 53.9667 172.881 53.763 172.866 53.5522C172.811 52.6488 172.811 51.7427 172.866 50.8393ZM174.866 47.8103C175.339 48.5435 175.687 49.3496 175.899 50.1964L172.67 50.1637C172.718 49.4116 172.898 48.674 173.202 47.9846C173.441 47.814 173.72 47.7082 174.011 47.6776C174.303 47.6471 174.597 47.6928 174.866 47.8103ZM35.0942 50.8175H29.4408C29.3926 51.0169 29.427 51.2748 29.4603 51.5237C29.483 51.6939 29.5052 51.8599 29.5 52.0001C29.5163 52.1834 29.5194 52.3687 29.5226 52.5523V52.5523C29.5362 53.351 29.5493 54.1165 30.6367 54.5329C31.2908 54.7153 31.9836 54.7044 32.6317 54.5015C33.2798 54.2985 33.8555 53.9121 34.2897 53.3888C34.5092 53.1189 34.7196 52.8397 35.0385 52.4165L35.1269 52.2993C34.7246 54.5438 32.8437 55.4373 29.919 55.056C29.3962 55.0275 28.8848 54.8909 28.4172 54.6548C27.9494 54.4186 27.5356 54.088 27.2017 53.6837C26.8677 53.2796 26.6209 52.8104 26.4767 52.3058C26.3325 51.8012 26.2942 51.2723 26.3639 50.7522C26.5922 48.573 28.8319 47.0258 31.5281 47.2001C33.8548 47.32 35.1485 48.5839 35.0942 50.8175ZM32.7349 50.1202C32.5934 49.3137 32.31 48.539 31.8978 47.8321C31.6412 47.6849 31.3509 47.6075 31.0553 47.6075C30.7597 47.6075 30.4692 47.6849 30.2126 47.8321C29.8181 48.5411 29.5564 49.3167 29.4408 50.1202H32.7349ZM138.433 47.5271L136.825 47.2764L136.704 45.13H134.063L133.976 47.211L132.465 47.5271V47.7341L134.02 48.0718C134.02 48.6865 134.007 49.2939 133.995 49.896L133.995 49.8981V49.8984V49.8986V49.8989V49.8991V49.8994V49.8996C133.971 51.089 133.948 52.2577 134.02 53.4215C134.042 53.9555 134.498 54.8924 134.846 54.8924C135.858 55.0044 137.5 55.0001 138 54.5001C138.344 54.1559 138.513 53.9243 138.705 53.6605C138.792 53.5411 138.883 53.4151 138.998 53.269L138.651 53.0184C138.536 53.2347 138.385 53.4299 138.205 53.5958C137.934 53.7702 137.5 54.0001 137.292 53.9555C137.148 53.8751 137.025 53.7608 136.934 53.6221C136.843 53.4836 136.786 53.3251 136.77 53.16V48.0609L138.433 47.8103V47.5271ZM70.2941 50.0596L70.2941 50.0598L70.294 50.0601C70.1484 51.2792 70.0032 52.4939 69.9304 53.7267C69.9304 53.9135 70.1584 54.1179 70.428 54.3595C70.5828 54.4983 70.7512 54.6493 70.898 54.8162H65.8859C67.1154 54.5284 67.056 53.6691 66.9978 52.8264C66.9855 52.6481 66.9732 52.4705 66.9732 52.2993V48.159L65.625 47.8103V47.4834L69.5825 47.2219L70.3677 48.6789C71.3673 47.3189 73.4296 46.641 74.6907 47.5051C75.2518 48.0488 75.5893 48.7836 75.6366 49.5645C75.7308 50.5744 75.6993 51.5988 75.6679 52.6216V52.6217V52.6218V52.6221C75.6523 53.1329 75.6366 53.6434 75.6366 54.1515L76.7998 54.5764V54.8052H71.7987V54.5873L72.8859 54.1624V49.5209C72.8859 49.0305 72.6902 48.3115 72.3641 48.148C72.1261 48.0288 71.7318 48.1937 71.346 48.3551C71.203 48.415 71.0612 48.4743 70.9289 48.5185C70.7695 48.5945 70.6197 48.6895 70.4832 48.8017L70.4152 48.7598L70.4414 48.8018C70.3942 49.222 70.3442 49.6408 70.2942 50.0591L70.2942 50.0593L70.2941 50.0594L70.2941 50.0596ZM139.545 47.7775L140.817 48.0936L140.882 54.1843L139.795 54.5765V54.7836H145.068V54.5547L143.731 54.1843V47.2001L139.545 47.4834V47.7775ZM63.9155 54.1189V47.1783L59.7949 47.5052V47.8103L60.9692 48.1263V54.1625L59.7949 54.6092L59.9037 54.7726H65.1658V54.5547L63.9155 54.1189ZM143.5 45.0001C143.052 45.3025 142.943 45.3191 142.577 45.375C142.508 45.3856 142.429 45.3976 142.338 45.4132C142.151 45.4673 141.953 45.4731 141.764 45.4301C141.574 45.387 141.398 45.2966 141.253 45.1672C141.107 45.0378 140.997 44.8736 140.931 44.6899C140.866 44.5063 140.849 44.309 140.88 44.1167C140.993 43.8092 141.18 43.5347 141.424 43.3178C141.67 43.1009 141.965 42.9487 142.283 42.8745C142.382 42.8615 142.468 42.8458 142.547 42.8314C142.863 42.7735 143.056 42.7383 143.5 43.0001C144.055 43.3269 144.033 44.6405 143.5 45.0001ZM63.7748 44.0621C63.8183 43.5936 63.4014 42.5173 62.5 42.5001C61.5704 42.4824 61.1003 43.5828 61.046 44.1275C61.0148 44.32 61.0333 44.5173 61.0996 44.7007C61.1661 44.884 61.278 45.0473 61.4251 45.175C61.5723 45.3028 61.7494 45.3906 61.9398 45.4304C62.1304 45.4703 62.3279 45.4605 62.5137 45.4023C62.8173 45.2994 63.0911 45.1236 63.311 44.8899C63.5309 44.6562 63.6902 44.372 63.7748 44.0621Z" fill="url(#paint0_linear)"/>
</g>
<defs>
<linearGradient id="paint0_linear" x1="176.5" y1="54.4829" x2="4.89373" y2="3.14437" gradientUnits="userSpaceOnUse">
<stop stop-color="#E0C255"/>
<stop offset="1" stop-color="#B09C68"/>
</linearGradient>
<clipPath id="clip0">
<rect width="187" height="59" fill="white"/>
</clipPath>
</defs>
</svg>
