<svg width="16" height="18" viewBox="0 0 16 18" fill="none" xmlns="http://www.w3.org/2000/svg">
<g opacity="0.9" clip-path="url(#clip0)">
<path d="M14.2907 6.63715C14.4593 6.53052 14.5446 6.43928 14.6458 6.42609C14.7146 6.41729 14.8832 6.52502 14.8756 6.5635C14.8591 6.64869 14.7738 6.76851 14.6871 6.78775C14.6004 6.80698 14.4807 6.71519 14.2907 6.63715ZM13.465 1.50026L13.5848 1.42825C13.8896 1.56676 14.0774 1.79926 14.2467 2.03835C14.8763 2.92986 15.0931 3.90711 15.1543 4.91349C15.1613 5.17825 15.1452 5.44308 15.1061 5.70606C15.0917 5.83248 15.0332 5.95505 14.8102 5.93801C14.5639 5.78906 14.6534 5.5725 14.6575 5.37958C14.6857 4.11212 14.4174 2.89908 13.6047 1.78552C13.5493 1.69354 13.5033 1.59814 13.4671 1.50026H13.465ZM6.34545 6.1815C6.00554 5.71431 5.76127 5.32352 5.45094 4.96845C5.16438 4.65207 4.84687 4.35433 4.50139 4.07805C3.96606 3.63834 3.27866 3.46575 2.52728 3.47345C1.77589 3.48114 1.24056 3.81202 0.807068 4.26437C0.317152 4.77883 0.0990295 5.37354 0.0371017 6.01056C-0.0638542 7.00938 0.0398016 8.01467 0.343987 8.98684C1.33689 12.1599 3.28967 14.9333 5.78397 17.4886C6.41013 18.13 6.52573 18.1482 7.34523 17.6507C8.76544 16.7829 10.0879 15.8215 11.1834 14.6877C13.2077 12.5858 14.7215 10.2581 15.5871 7.6897C16.0921 6.18864 16.1513 4.65351 15.6669 3.13872C15.4815 2.56352 15.1984 2.01132 14.8254 1.49751C13.5772 -0.216803 11.1318 -0.495468 9.287 0.842893C8.32369 1.54093 7.68721 2.4187 7.22276 3.37946C6.7775 4.27936 6.48029 5.22161 6.33857 6.1826" fill="white"/>
</g>
<defs>
<clipPath id="clip0">
<rect width="16" height="18" fill="white" transform="matrix(-1 0 0 1 16 0)"/>
</clipPath>
</defs>
</svg>
