<svg width="34" height="27" viewBox="0 0 34 27" fill="none" xmlns="http://www.w3.org/2000/svg">
<g clip-path="url(#clip0)">
<path d="M32.7086 12.0866C32.7066 12.0212 32.6795 11.9593 32.6331 11.9142C32.5867 11.8691 32.5247 11.8445 32.4607 11.8457C32.3919 11.8582 32.3296 11.8949 32.2846 11.9493C32.2395 12.0037 32.2145 12.0725 32.2138 12.1438C32.2149 12.1738 32.2218 12.2033 32.2341 12.2307C32.2464 12.258 32.2639 12.2826 32.2855 12.303C32.3071 12.3234 32.3325 12.3393 32.3602 12.3497C32.3878 12.3602 32.4172 12.3649 32.4466 12.3637C32.517 12.3623 32.5839 12.3326 32.633 12.2811C32.682 12.2297 32.7092 12.1605 32.7086 12.0888V12.0866ZM23.177 20.9623C23.1757 20.9268 23.1676 20.892 23.1529 20.8598C23.1383 20.8276 23.1176 20.7987 23.0918 20.7748C23.0661 20.751 23.036 20.7326 23.0032 20.7207C22.9705 20.7089 22.9357 20.7039 22.901 20.706C22.8249 20.708 22.7526 20.7401 22.6993 20.7955C22.646 20.8509 22.6159 20.9253 22.6153 21.003C22.62 21.0744 22.6521 21.141 22.7045 21.1885C22.7569 21.2361 22.8256 21.2607 22.8956 21.257C22.9334 21.2577 22.9709 21.2504 23.0058 21.2357C23.0407 21.2211 23.0723 21.1992 23.0986 21.1716C23.125 21.144 23.1455 21.1112 23.159 21.0752C23.1725 21.0392 23.1786 21.0008 23.177 20.9623ZM5.52585 18.8239C5.48538 18.8212 5.44479 18.827 5.40664 18.8411C5.3685 18.8552 5.33364 18.8772 5.30426 18.9057C5.27488 18.9342 5.25162 18.9687 5.23595 19.0069C5.22028 19.045 5.21254 19.0861 5.21323 19.1275C5.21021 19.1708 5.2159 19.2143 5.22993 19.2553C5.24397 19.2963 5.26605 19.3339 5.29485 19.3659C5.32364 19.3979 5.35852 19.4235 5.39736 19.4413C5.43621 19.459 5.47819 19.4685 5.52074 19.4691C5.56329 19.4697 5.60552 19.4614 5.64483 19.4448C5.68414 19.4281 5.7197 19.4035 5.74935 19.3723C5.77899 19.3412 5.80209 19.3042 5.81723 19.2636C5.83237 19.223 5.83923 19.1797 5.83739 19.1363C5.83725 19.0948 5.82906 19.0538 5.81329 19.0156C5.79751 18.9774 5.77447 18.9428 5.7455 18.9138C5.71653 18.8847 5.6822 18.8618 5.64449 18.8464C5.60679 18.831 5.56646 18.8233 5.52585 18.8239ZM33.2217 9.23322C33.2179 8.94978 33.1999 8.66672 33.1678 8.38514C33.1036 8.02692 33.0216 7.67226 32.922 7.32256C32.8841 7.21112 32.8218 7.10994 32.7399 7.02667C32.6245 6.90347 32.4865 6.94857 32.4758 7.12017C32.4655 7.29663 32.4775 7.47369 32.5113 7.64705C32.6636 8.55595 32.6796 9.48319 32.5588 10.397C32.5286 10.6665 32.5049 10.9371 32.4995 11.2077C32.4995 11.2803 32.5803 11.354 32.6234 11.4277C32.6881 11.3867 32.7491 11.34 32.8056 11.288C32.8384 11.2392 32.8649 11.1864 32.8843 11.1307C33.1851 10.5334 33.2379 9.891 33.2217 9.23542V9.23322ZM27.4221 18.1232L27.3736 18.0539C27.2772 18.0595 27.1818 18.0761 27.089 18.1034C26.9503 18.1615 26.8169 18.2318 26.6901 18.3135C25.9431 18.7854 25.195 19.254 24.4565 19.7435C24.1875 19.9261 23.93 20.126 23.6858 20.3419C23.6308 20.3892 23.6286 20.5014 23.6028 20.5828C23.6761 20.6037 23.7591 20.6576 23.8184 20.6389C24.0769 20.5797 24.328 20.4904 24.5665 20.3727C25.2133 19.9998 25.8428 19.6104 26.4584 19.1957C26.7192 19.0026 26.9588 18.7813 27.1731 18.5357C27.2691 18.4106 27.3515 18.2752 27.4189 18.132L27.4221 18.1232ZM2.15603 14.9091C2.0008 15.2259 2.11507 15.447 2.18837 15.6626C2.54519 16.7054 3.21786 17.5215 4.00695 18.2475C4.16606 18.3841 4.34451 18.4954 4.53625 18.5775C4.58596 18.5995 4.63976 18.6102 4.69392 18.6088C4.74809 18.6075 4.80132 18.5942 4.84994 18.5698C4.96745 18.4895 4.90169 18.3498 4.83377 18.2552C4.6697 18.0134 4.49226 17.7813 4.30232 17.56C3.80752 17.01 3.31703 16.4678 2.91925 15.8397C2.76402 15.5933 2.58184 15.3623 2.40289 15.1313C2.32663 15.0512 2.24406 14.9776 2.15603 14.9113V14.9091ZM16.7456 6.38538C17.5186 5.37561 18.4704 4.58802 19.4277 3.80924C20.5996 2.83657 21.933 2.08624 23.3645 1.59389C24.5385 1.199 25.7361 0.968003 26.9866 1.0439C27.7405 1.07244 28.4853 1.22089 29.1943 1.48389C29.6499 1.65882 30.0817 1.89244 30.4793 2.17908C33.0363 4.06993 34.1628 6.64058 33.9817 9.84151C33.9138 11.0339 33.5602 12.1295 33.0568 13.1931C32.3922 14.5757 31.485 15.8224 30.3801 16.8714C28.7179 18.4785 26.8227 19.7402 24.8134 20.8369C23.8335 21.3703 22.8417 21.8829 21.8586 22.4131C21.2452 22.7431 20.6329 23.0786 20.026 23.4284C18.7641 24.1446 17.7008 25.1755 16.9354 26.4247C16.8621 26.5446 16.8092 26.6766 16.7424 26.8009C16.6033 27.0572 16.3629 27.0726 16.2401 26.8009C15.8681 25.9979 15.1987 25.481 14.5465 24.9574C14.0744 24.5757 13.5763 24.2347 13.0869 23.8695C12.3722 23.3316 11.5777 22.9499 10.7606 22.6078C9.8982 22.2415 9.00778 21.9302 8.13244 21.5859C7.03934 21.1581 5.99362 20.6135 5.01272 19.9613C4.07918 19.3398 3.32458 18.5313 2.6034 17.6766C1.80397 16.724 1.17293 15.6368 0.738467 14.4636C0.316593 13.3856 0.0725404 12.2438 0.0162091 11.0845C-0.0322605 10.2225 0.0063919 9.35779 0.131555 8.50394C0.313037 7.33228 0.751152 6.21748 1.41329 5.24251C1.62889 4.92352 1.82832 4.58252 2.08381 4.29543C3.50892 2.69936 5.26174 1.76549 7.39186 1.60929C8.71218 1.4901 10.0423 1.65652 11.2953 2.09768C13.3025 2.82696 15.0402 3.95114 16.322 5.7276C16.4707 5.93439 16.599 6.15549 16.7456 6.38758" fill="#885574"/>
<g clip-path="url(#clip1)">
<path d="M25.3163 13.1624C25.3152 13.1237 25.3009 13.087 25.2763 13.0603C25.2517 13.0335 25.2189 13.019 25.185 13.0197C25.1486 13.0271 25.1157 13.0488 25.0918 13.0811C25.0679 13.1133 25.0547 13.1541 25.0543 13.1963C25.0549 13.2141 25.0586 13.2316 25.0651 13.2478C25.0716 13.264 25.0808 13.2786 25.0923 13.2907C25.1037 13.3028 25.1172 13.3122 25.1318 13.3184C25.1464 13.3246 25.162 13.3274 25.1776 13.3267C25.2148 13.3258 25.2503 13.3082 25.2762 13.2777C25.3022 13.2472 25.3166 13.2063 25.3163 13.1637V13.1624ZM20.2701 18.4221C20.2695 18.4011 20.2651 18.3804 20.2574 18.3614C20.2497 18.3423 20.2387 18.3252 20.2251 18.311C20.2114 18.2969 20.1955 18.286 20.1781 18.279C20.1608 18.272 20.1424 18.269 20.124 18.2702C20.0837 18.2714 20.0454 18.2904 20.0172 18.3233C19.989 18.3561 19.9731 18.4002 19.9728 18.4462C19.9753 18.4885 19.9922 18.528 20.02 18.5562C20.0477 18.5843 20.0841 18.5989 20.1212 18.5968C20.1412 18.5972 20.161 18.5929 20.1795 18.5842C20.198 18.5754 20.2147 18.5625 20.2287 18.5462C20.2426 18.5298 20.2535 18.5104 20.2606 18.489C20.2677 18.4677 20.271 18.4449 20.2701 18.4221ZM10.9254 17.1549C10.904 17.1533 10.8825 17.1568 10.8623 17.1651C10.8421 17.1734 10.8237 17.1865 10.8081 17.2034C10.7925 17.2203 10.7802 17.2407 10.7719 17.2633C10.7636 17.286 10.7595 17.3103 10.7599 17.3348C10.7583 17.3605 10.7613 17.3863 10.7688 17.4106C10.7762 17.4348 10.7879 17.4571 10.8031 17.4761C10.8184 17.495 10.8368 17.5102 10.8574 17.5208C10.878 17.5313 10.9002 17.5369 10.9227 17.5372C10.9452 17.5376 10.9676 17.5327 10.9884 17.5228C11.0092 17.513 11.028 17.4984 11.0437 17.4799C11.0594 17.4614 11.0717 17.4395 11.0797 17.4155C11.0877 17.3914 11.0913 17.3657 11.0903 17.34C11.0903 17.3155 11.0859 17.2912 11.0776 17.2685C11.0692 17.2459 11.057 17.2254 11.0417 17.2082C11.0264 17.191 11.0082 17.1774 10.9882 17.1682C10.9683 17.1591 10.9469 17.1546 10.9254 17.1549ZM25.5879 11.4715C25.5859 11.3036 25.5764 11.1358 25.5594 10.969C25.5254 10.7567 25.482 10.5465 25.4293 10.3393C25.4092 10.2733 25.3762 10.2133 25.3328 10.164C25.2718 10.091 25.1987 10.1177 25.193 10.2194C25.1876 10.3239 25.1939 10.4289 25.2118 10.5316C25.2925 11.0702 25.3009 11.6197 25.2369 12.1612C25.221 12.3209 25.2084 12.4812 25.2056 12.6416C25.2056 12.6846 25.2484 12.7283 25.2712 12.772C25.3054 12.7477 25.3377 12.72 25.3676 12.6892C25.385 12.6603 25.399 12.629 25.4093 12.596C25.5685 12.242 25.5965 11.8613 25.5879 11.4728V11.4715ZM22.5175 16.7397L22.4919 16.6986C22.4408 16.702 22.3903 16.7118 22.3412 16.728C22.2678 16.7624 22.1971 16.8041 22.13 16.8525C21.7345 17.1321 21.3385 17.4098 20.9475 17.6999C20.8051 17.8081 20.6688 17.9265 20.5395 18.0544C20.5104 18.0825 20.5092 18.149 20.4955 18.1972C20.5344 18.2096 20.5783 18.2415 20.6097 18.2304C20.7466 18.1954 20.8795 18.1425 21.0058 18.0727C21.3482 17.8517 21.6815 17.621 22.0073 17.3752C22.1454 17.2608 22.2723 17.1297 22.3857 16.9841C22.4365 16.91 22.4802 16.8298 22.5158 16.7449L22.5175 16.7397ZM9.14139 14.835C9.05921 15.0228 9.11971 15.1538 9.15852 15.2815C9.34742 15.8995 9.70354 16.3831 10.1213 16.8134C10.2055 16.8943 10.3 16.9602 10.4015 17.0089C10.4278 17.0219 10.4563 17.0283 10.485 17.0275C10.5137 17.0267 10.5418 17.0188 10.5676 17.0043C10.6298 16.9568 10.595 16.874 10.559 16.8179C10.4722 16.6746 10.3782 16.5371 10.2777 16.406C10.0157 16.08 9.75604 15.7587 9.54545 15.3865C9.46327 15.2405 9.36682 15.1036 9.27209 14.9667C9.23171 14.9192 9.188 14.8756 9.14139 14.8363V14.835ZM16.8653 9.78394C17.2745 9.18555 17.7784 8.71884 18.2852 8.25734C18.9056 7.68094 19.6116 7.2363 20.3694 6.94454C20.9909 6.71053 21.625 6.57364 22.287 6.61862C22.6861 6.63553 23.0804 6.7235 23.4558 6.87935C23.697 6.98301 23.9256 7.12145 24.1361 7.29131C25.4898 8.41182 26.0862 9.93517 25.9903 11.832C25.9543 12.5386 25.7671 13.1878 25.5006 13.8182C25.1488 14.6375 24.6685 15.3762 24.0836 15.9979C23.2035 16.9502 22.2002 17.6979 21.1364 18.3478C20.6177 18.6639 20.0926 18.9677 19.5721 19.2819C19.2474 19.4774 18.9233 19.6762 18.602 19.8835C17.9339 20.3079 17.371 20.9188 16.9657 21.6591C16.9269 21.7302 16.899 21.8084 16.8636 21.882C16.79 22.0339 16.6627 22.043 16.5976 21.882C16.4007 21.4062 16.0463 21.0998 15.7011 20.7896C15.4511 20.5634 15.1874 20.3613 14.9283 20.1449C14.55 19.8261 14.1293 19.6 13.6968 19.3972C13.2402 19.1802 12.7688 18.9957 12.3054 18.7917C11.7267 18.5381 11.1731 18.2154 10.6538 17.8289C10.1595 17.4606 9.76004 16.9815 9.37824 16.475C8.95501 15.9105 8.62093 15.2663 8.39092 14.571C8.16757 13.9322 8.03837 13.2556 8.00855 12.5686C7.98289 12.0578 8.00335 11.5454 8.06961 11.0394C8.16569 10.3451 8.39763 9.68444 8.74818 9.10668C8.86232 8.91765 8.9679 8.71558 9.10316 8.54545C9.85763 7.59963 10.7856 7.04622 11.9133 6.95366C12.6123 6.88303 13.3165 6.98165 13.9798 7.24308C15.0425 7.67525 15.9624 8.34142 16.641 9.39414C16.7198 9.51669 16.7877 9.64771 16.8653 9.78524" fill="white"/>
</g>
</g>
<defs>
<clipPath id="clip0">
<rect width="34" height="27" fill="white"/>
</clipPath>
<clipPath id="clip1">
<rect width="18" height="16" fill="white" transform="translate(8 6)"/>
</clipPath>
</defs>
</svg>
