<svg width="81" height="138" viewBox="0 0 81 138" fill="none" xmlns="http://www.w3.org/2000/svg">
<g clip-path="url(#clip0)">
<path d="M19.4904 123.653C16.5549 112.435 17.5794 100.558 22.3917 90.0203C27.554 83.0964 34.4751 77.6721 42.4436 74.3053C46.0688 72.5517 49.3075 70.0973 51.972 67.0844C54.6365 64.0715 56.6739 60.56 57.9661 56.7534C58.8483 52.4293 58.6793 47.9553 57.4732 43.7053C56.2672 39.4554 54.0592 35.5528 51.0337 32.324C48.3937 29.4176 44.8736 27.4512 41.0117 26.7256C38.1205 25.7575 33.0121 26.6104 31.8545 30.0678C30.6969 33.5251 33.4908 37.6647 36.3816 39.5938C40.1894 42.3044 44.7196 43.8212 49.3919 43.9499C54.4871 44.4798 59.6203 43.4553 64.1127 41.0118C68.6052 38.5684 72.2452 34.821 74.5514 30.2654C75.3937 28.1382 75.7967 25.8626 75.7365 23.5746C75.6762 21.2867 75.1539 19.0334 74.2008 16.9494C73.2476 14.8655 71.8832 12.9938 70.1892 11.4463C68.4952 9.89873 66.5063 8.70711 64.3415 7.9427V7.9427C66.458 8.75861 68.3795 10.0094 69.981 11.6137C71.5824 13.218 72.8279 15.1398 73.6365 17.2542C74.445 19.3685 74.7984 21.628 74.6738 23.8856C74.5491 26.1433 73.9491 28.3484 72.9129 30.3576C69.9225 39.2891 58.2597 41.472 49.8745 41.5482C45.1782 41.5627 40.605 40.0315 36.8642 37.1921C35.8561 36.5394 35.0165 35.6585 34.4138 34.6215C33.8111 33.5845 33.4625 32.4206 33.3963 31.2248C33.0112 29.4938 37.0597 27.9656 39.5656 28.1638C43.7946 28.9393 47.68 31.0062 50.6837 34.0786C53.6875 37.1509 55.661 41.0766 56.3309 45.312C57.2863 49.2212 57.1435 53.3151 55.9182 57.1442C54.6929 60.9732 52.4325 64.3893 49.3852 67.0172C43.6142 71.2351 37.5945 75.1044 31.3585 78.6041C25.0411 82.5059 20.3773 88.5796 18.2456 95.6812C16.1273 103.786 15.9269 112.274 17.6601 120.477" fill="#885574"/>
<path d="M16.2142 130.567L23.7335 125.395L31.1563 120.511L19.59 122.406L12.0749 113.161L14.2891 121.912L16.2142 130.567Z" fill="#885574"/>
</g>
<defs>
<clipPath id="clip0">
<rect width="131.256" height="40.5505" fill="white" transform="translate(80.2461 13.2678) rotate(108.511)"/>
</clipPath>
</defs>
</svg>
