<svg width="78" height="99" viewBox="0 0 78 99" fill="none" xmlns="http://www.w3.org/2000/svg">
<path d="M14.1852 85.0712C14.0086 76.4692 16.8029 68.0779 22.0984 61.3078C27.021 57.2056 32.9531 54.4898 39.2848 53.4396C42.2038 52.8017 44.9651 51.5913 47.4089 49.8787C49.8526 48.166 51.9302 45.9851 53.5212 43.4624C54.9059 40.4953 55.5582 37.2381 55.4235 33.9632C55.2888 30.6882 54.3711 27.4905 52.747 24.6375C51.3452 22.0837 49.1459 20.0559 46.4851 18.864C44.5667 17.6653 40.7335 17.3967 39.3001 19.6908C37.8666 21.9849 39.166 25.4549 40.9179 27.347C43.196 29.9616 46.202 31.8399 49.5507 32.7412C53.135 34.0052 57.0158 34.1543 60.6799 33.1688C64.3439 32.1833 67.6185 30.1095 70.0708 27.2218C71.0465 25.8329 71.7311 24.2608 72.0835 22.5997C72.436 20.9385 72.4491 19.2224 72.122 17.554C71.795 15.8856 71.1345 14.2991 70.1801 12.8894C69.2256 11.4797 67.9969 10.2758 66.5673 9.34973V9.34973C67.9532 10.3046 69.1231 11.5396 70.0009 12.9742C70.8787 14.4087 71.4447 16.0108 71.6621 17.6762C71.8796 19.3416 71.7436 21.0329 71.263 22.6402C70.7824 24.2474 69.9679 25.7346 68.8726 27.0048C65.1696 32.9312 56.3774 32.488 50.3145 31.0919C46.9237 30.2897 43.8892 28.3936 41.6817 25.6977C41.0673 25.0523 40.6139 24.2716 40.3585 23.4191C40.1032 22.5666 40.053 21.6666 40.2122 20.7923C40.2339 19.4769 43.4193 19.0749 45.1929 19.6515C48.1099 20.9428 50.5554 23.1064 52.1909 25.8428C53.8264 28.5792 54.5709 31.753 54.3214 34.9246C54.3342 37.9104 53.5227 40.8394 51.9761 43.3899C50.4295 45.9404 48.2075 48.0139 45.5542 49.3826C40.6606 51.4271 35.648 53.177 30.5432 54.6228C25.3102 56.3447 20.8943 59.9197 18.1275 64.6745C15.1968 70.1552 13.5833 76.2447 13.4143 82.4629" fill="#885574"/>
<path d="M10.6233 89.4913L16.9433 87.0608L23.1439 84.8214L14.4712 84.187L10.649 76.2166L10.7321 82.9139L10.6233 89.4913Z" fill="#885574"/>
</svg>
